<svg width="491" height="468" viewBox="0 0 491 468" fill="none" xmlns="http://www.w3.org/2000/svg">
<path d="M428.408 24.5323C427.79 22.6291 426.917 20.8185 425.813 19.15C425.254 18.3182 424.532 17.608 423.692 17.0617C422.852 16.5154 421.91 16.1444 420.923 15.9708C419.933 15.8272 418.923 16.0159 418.051 16.5074C417.179 16.9988 416.494 17.7654 416.104 18.6872C415.813 14.4316 415.209 10.0552 413.086 6.36304C410.963 2.67083 406.979 -0.246725 402.724 0.014848C398.7 0.266361 395.259 3.24428 393.347 6.78558C391.436 10.3269 390.782 14.3913 390.158 18.3753C388.629 16.504 385.42 17.0875 383.83 18.8984C382.241 20.7093 381.818 23.2446 381.496 25.639L428.962 26.132L428.408 24.5323Z" fill="#F5F5F5"/>
<path d="M159.57 347.213L146.34 359.548C146.108 359.71 145.915 359.921 145.774 360.166C145.633 360.411 145.548 360.684 145.525 360.966C145.596 361.972 147.034 362.153 148.041 361.972L157.658 360.232L153.01 366.55C157.625 365.165 161.901 362.835 165.566 359.709C166.602 361.313 167.459 363.027 168.121 364.819C171.663 359.451 174.506 353.653 176.582 347.566L159.57 347.213Z" fill="#F5F5F5"/>
<path d="M52.9375 76.7564C52.9375 76.7564 122.627 26.0212 130.494 25.4478C138.361 24.8743 156.008 22.0674 156.008 22.0674C156.008 22.0674 213.01 54.2611 218.896 49.4019C224.781 44.5426 268.615 10.2564 277.529 8.57628C286.442 6.89618 317.056 4.07923 320.175 4.64262C323.294 5.20601 372.49 42.8726 372.49 42.8726L392.168 40.6492L411.384 51.8667L459.785 77.4405L52.9375 76.7564Z" fill="#F5F5F5"/>
<path d="M489.114 87.1992H1.74219V104.111H489.114V87.1992Z" fill="#E0E0E0"/>
<path d="M487.282 77.4304L484.525 72.702C483.736 74.4107 482.598 75.9355 481.185 77.1789C479.626 76.2196 478.465 74.73 477.915 72.9837C476.557 74.1219 475.549 75.6219 475.008 77.3097C472.925 74.2645 471.708 70.7108 471.487 67.0279L466.839 76.2835C466.468 74.9421 465.679 73.7542 464.585 72.8931C464.465 74.2412 464.334 75.5994 464.203 76.9173L460.32 73.3962C460.138 74.7242 459.947 76.0521 459.756 77.4204C459.293 76.1427 458.821 74.865 458.348 73.5873L455.048 77.9636C454.816 76.4344 454.575 74.9455 454.344 73.376L449.434 77.4908L448.126 72.6819L445.34 76.7061L438.418 70.3277L438.82 76.5753L432.784 70.4384L434.957 77.4807L430.933 75.0461C430.601 76.1829 430.259 77.3198 429.927 78.4566C428.708 77.5464 427.878 76.2098 427.603 74.7141C426.503 75.8409 425.403 76.9643 424.303 78.0844C423.804 76.9223 423.761 75.6148 424.182 74.4223L420.47 78.4466C420.52 75.7302 420.581 73.0038 420.631 70.2774C419.027 72.4191 417.762 74.7942 416.878 77.3198C415.344 75.3939 414.09 73.2599 413.156 70.9816C413.518 73.1145 413.89 75.2372 414.263 77.3701L409.896 73.7583L410.651 77.4707L407.482 75.6598L406.164 78.0039L405.58 72.4706L401.888 77.4405C400.111 74.2143 399.271 70.5553 399.464 66.877C397.868 68.1295 396.779 69.9156 396.395 71.9072C396.055 73.8562 395.96 75.8402 396.113 77.8127C393.845 75.8306 392.246 73.1948 391.536 70.2673C390.469 72.038 390.862 74.2211 391.284 76.2131C389.772 74.5315 387.999 73.1047 386.033 71.9877L387.753 77.7725H387.331L385.057 73.8791C384.408 75.325 383.501 76.6408 382.381 77.7624H380.872C379.732 76.8236 378.893 75.5714 378.457 74.1608C377.314 75.1246 376.414 76.3449 375.831 77.7222H375.077C373.297 74.8454 372.26 71.5716 372.059 68.1949L367.391 77.5009C367.024 76.1574 366.238 74.9661 365.147 74.1004C365.026 75.3177 364.916 76.535 364.805 77.7524H364.312L360.881 74.6437C360.731 75.6497 360.59 76.7161 360.439 77.7524H359.986C359.634 76.7463 359.272 75.7906 358.91 74.8046L356.686 77.7524H355.388C355.227 76.7463 355.056 75.6497 354.895 74.6034L351.143 77.7524H349.734C349.382 76.4646 349.03 75.1869 348.728 73.9093L346.062 77.7423H345.74L339.01 71.5551L339.372 77.7423C337.36 75.7302 335.348 73.6913 333.336 71.6255L335.237 77.7423H333.889L331.354 76.2232L330.901 77.7323H328.678C328.349 77.1628 328.124 76.5394 328.014 75.8912L326.203 77.7323H324.322C324.257 77.0075 324.346 76.2772 324.583 75.5894L322.571 77.7323H320.911C320.911 75.6195 321.002 73.5169 321.042 71.4142C319.589 73.3469 318.414 75.4735 317.551 77.7323H316.756C315.462 76.0108 314.388 74.1352 313.557 72.1487C313.879 74.0199 314.211 75.8912 314.563 77.7725H313.768L310.337 74.9254L310.911 77.7624H309.553L307.923 76.8268L307.39 77.7624H306.454L306.021 73.6376L302.953 77.7624H301.897C300.41 74.7467 299.718 71.4018 299.884 68.044C298.305 69.3023 297.234 71.0886 296.866 73.0742C296.573 74.6084 296.465 76.1723 296.544 77.7323H295.377C293.793 75.9486 292.68 73.7977 292.138 71.4746C291.072 73.2352 291.464 75.4284 291.886 77.4103C290.37 75.729 288.594 74.3024 286.625 73.1849L286.856 73.9696C286.194 75.3726 285.288 76.6467 284.18 77.7323H282.882C281.674 76.789 280.779 75.5017 280.317 74.04C279.135 75.0301 278.212 76.2942 277.631 77.7222H277.007C275.169 74.8212 274.096 71.5019 273.888 68.0741L269.24 77.3399C268.87 75.9954 268.081 74.8041 266.987 73.9394L266.634 77.7222H266.292L262.761 74.4626L262.308 77.7021H261.926C261.544 76.696 261.172 75.69 260.789 74.6839L258.475 77.7021H257.288C257.117 76.6155 256.956 75.5189 256.785 74.4324L252.882 77.7021H251.654L250.568 73.7382L247.821 77.7021H247.67L240.809 71.3841L241.171 77.5914L235.085 71.4545L237.016 77.692H235.95L233.203 76.0521L232.72 77.692H230.608C230.234 77.0749 229.981 76.3919 229.863 75.6799L227.932 77.692H226.191C226.099 76.9249 226.185 76.1469 226.443 75.4183L224.33 77.6819H222.771L222.891 71.2432C221.417 73.2127 220.229 75.3803 219.36 77.6819H218.696C217.38 75.91 216.298 73.9759 215.477 71.9273L216.483 77.6719H215.809L212.227 74.704L212.831 77.6719H211.664L209.813 76.6658L209.219 77.6719H208.364L207.911 73.4163L204.762 77.6618H203.857C202.353 74.6128 201.66 71.2276 201.845 67.8327C200.263 69.0893 199.191 70.8764 198.827 72.863C198.728 73.3046 198.654 73.7513 198.605 74.201C198.505 74.03 198.394 73.8589 198.293 73.6779C197.78 74.7184 197.13 75.686 196.362 76.5552C195.188 74.9824 194.353 73.1843 193.907 71.2734C192.841 73.044 193.233 75.2272 193.666 77.2192C193.283 76.7966 192.881 76.3841 192.468 75.9918C192.051 75.3728 191.728 74.6945 191.513 73.9797C191.283 74.1712 191.064 74.3761 190.859 74.5934C190.08 73.9894 189.26 73.4414 188.404 72.9535C188.746 74.1105 189.098 75.2674 189.41 76.4244C189.184 76.8055 188.986 77.2022 188.816 77.6115H188.132C186.321 74.7195 185.262 71.4199 185.054 68.0138L180.396 77.2795C180.052 75.9621 179.302 74.7864 178.253 73.9193C178.132 75.1668 178.021 76.4043 177.901 77.6518H177.498L173.987 74.4626L173.534 77.6518H173.122C172.76 76.6457 172.388 75.6397 172.015 74.6336L169.742 77.6518H168.504C168.343 76.5753 168.172 75.5089 168.011 74.4324L164.168 77.6417H162.87C162.518 76.3338 162.156 75.026 161.804 73.7282L159.088 77.6417H158.896L152.095 71.374L152.458 77.5813L146.371 71.4444C147.005 73.4565 147.649 75.5692 148.283 77.6316H147.065L144.409 76.0421L143.936 77.6316H141.773C141.427 77.0377 141.189 76.3871 141.069 75.7101L139.188 77.6316H137.387C137.303 76.881 137.389 76.1211 137.639 75.4083L135.626 77.6216H133.987C134.037 75.4888 134.077 73.366 134.117 71.2332C132.65 73.1852 131.467 75.3362 130.606 77.6216H129.882C128.563 75.8681 127.471 73.9548 126.632 71.9273L127.638 77.6216H126.944L123.423 74.704C123.614 75.7101 123.815 76.6457 124.007 77.6216H122.769L121.008 76.6155L120.445 77.6216H119.55L119.107 73.4263L115.988 77.6216H114.982C113.483 74.5888 112.79 71.2211 112.97 67.8428C111.39 69.1005 110.318 70.8871 109.952 72.873C109.653 74.4303 109.545 76.0181 109.63 77.6015H108.523C106.909 75.7994 105.774 73.6196 105.224 71.2633C104.157 73.034 104.549 75.2171 104.972 77.2091C103.461 75.5222 101.684 74.0948 99.7104 72.9837C100.032 73.9897 100.344 75.0964 100.666 76.1628L98.7445 72.873C97.9624 74.5947 96.824 76.1309 95.4045 77.3801C93.8192 76.4216 92.6359 74.9201 92.0744 73.1547C90.7192 74.2959 89.7117 75.7948 89.1669 77.4807C87.1125 74.4399 85.9137 70.9025 85.6961 67.2391L81.0481 76.4948C80.6545 75.1676 79.8517 73.9986 78.7543 73.1547L78.3619 77.1789L74.4786 73.6577C74.2975 74.9958 74.1063 76.3238 73.9252 77.6819C73.4524 76.4043 72.9796 75.1266 72.5168 73.8489L69.2069 78.185C68.9755 76.6558 68.734 75.1668 68.5026 73.5974L63.5629 77.7121C63.1202 76.1125 62.6876 74.5028 62.245 72.9032L59.4582 76.9274L52.5366 70.549L52.8988 76.7564L46.8624 70.6195L49.0355 77.6618L45.0113 75.2372L44.0053 78.6478C42.7868 77.7376 41.9568 76.401 41.6813 74.9052L38.3915 78.2755C37.882 77.1163 37.8352 75.8061 38.2607 74.6135L34.5484 78.6377L34.7194 70.4686C33.1099 72.6082 31.8407 74.9837 30.9568 77.5109C29.4258 75.5826 28.1728 73.4491 27.2344 71.1728C27.6066 73.3056 27.9688 75.4284 28.341 77.5612L23.9245 73.8891L24.679 77.6015L21.5099 75.7906L20.192 78.1246L19.6085 72.5913L15.9264 77.6216C14.1479 74.3955 13.3047 70.7372 13.4917 67.058C11.9104 68.3146 10.8381 70.1017 10.4736 72.0883C10.1298 74.0369 10.0318 76.0209 10.1818 77.9938C7.97395 75.9958 6.42355 73.3756 5.73505 70.4786C4.66863 72.2493 5.07105 74.4324 5.49359 76.4244C3.96615 74.7209 2.17213 73.2769 0.181641 72.1487L1.90199 77.9335L1.3386 81.022C0.18164 87.1992 0.664545 91.9276 6.36886 94.1812C12.0732 96.4348 31.0674 94.0806 37.2345 94.4227C55.7056 95.4287 71.7119 94.0504 95.7264 95.4287C145.838 98.3463 200.487 96.3744 250.658 93.7587C250.658 93.7587 265.035 98.4066 286.595 97.8835C308.154 97.3603 331.947 97.6219 346.676 96.8271C361.405 96.0323 389.433 96.5655 401.898 96.8271C414.363 97.0887 422.573 97.0887 428.237 95.8211C433.901 94.5534 444.092 95.5595 453.438 95.5595C462.784 95.5595 470.43 99.5837 480.058 97.974C489.686 96.3643 488.831 90.821 489.113 87.1288C489.395 83.4366 487.282 77.4304 487.282 77.4304Z" fill="#EBEBEB"/>
<path d="M4.20703 179.857C45.5055 187.211 85.7777 194.404 127.599 191.054C165.346 188.036 204.361 180.792 240.277 192.724C250.971 196.275 261.636 201.547 272.873 200.642C283.537 199.786 292.924 193.468 303.216 190.531C313.508 187.593 324.484 188.126 335.208 188.519C385.501 190.561 479.063 192.04 490.13 179.736L4.20703 179.857Z" fill="#F5F5F5"/>
<path d="M63.2302 134.796C61.6205 128.407 57.7774 120.972 54.0449 115.399C57.176 117.723 59.6933 120.776 61.379 124.292C63.1094 127.703 63.5521 131.174 64.6789 134.796" fill="#F5F5F5"/>
<path d="M65.4247 134.796C62.1349 123.075 59.7607 111.657 55.1328 99.584C61.1691 109.966 64.7305 123.105 66.7125 134.796" fill="#F5F5F5"/>
<path d="M71.611 107.481C69.9321 116.485 69.2171 125.641 69.4782 134.796H70.5547C70.5144 125.57 71.611 116.707 71.611 107.481Z" fill="#F5F5F5"/>
<path d="M67.4959 134.796C65.0353 120.246 64.7707 105.409 66.7112 90.7808C67.184 99.4227 67.1237 107.884 67.5864 116.536C67.9084 122.351 68.7434 129.172 68.7434 134.796" fill="#F5F5F5"/>
<path d="M74.2066 134.796C71.6638 135.06 69.1056 135.148 66.5506 135.057C63.9956 135.148 61.4374 135.061 58.8945 134.796C61.4475 134.532 64.0155 134.441 66.5808 134.524C69.1259 134.444 71.6736 134.535 74.2066 134.796Z" fill="#E0E0E0"/>
<path d="M71.7821 135.983C69.6462 136.241 67.4931 136.329 65.3433 136.244C63.1902 136.329 61.0337 136.241 58.8945 135.983C61.0332 135.718 63.1902 135.63 65.3433 135.721C67.4931 135.631 69.6467 135.718 71.7821 135.983Z" fill="#E0E0E0"/>
<path d="M151.441 110.781C149.831 104.382 145.988 96.9477 142.256 91.3843C145.395 93.7144 147.911 96.783 149.58 100.318C151.31 103.729 151.763 107.199 152.88 110.831" fill="#F5F5F5"/>
<path d="M153.634 110.781C150.344 99.0606 147.97 87.642 143.332 75.5693C149.368 85.9619 152.93 99.0908 154.922 110.781" fill="#F5F5F5"/>
<path d="M159.792 83.4668C158.121 92.4709 157.41 101.627 157.669 110.781H158.736C158.716 101.556 159.822 92.6923 159.792 83.4668Z" fill="#F5F5F5"/>
<path d="M155.707 110.781C153.241 96.232 152.976 81.3946 154.922 66.7666C155.395 75.3985 155.324 83.8695 155.797 92.5115C156.109 98.3365 156.954 105.147 156.954 110.781" fill="#F5F5F5"/>
<path d="M162.418 110.781C159.875 111.04 157.317 111.127 154.762 111.043C152.203 111.128 149.642 111.04 147.096 110.781C149.642 110.516 152.203 110.429 154.762 110.52C157.317 110.429 159.875 110.516 162.418 110.781Z" fill="#E0E0E0"/>
<path d="M159.993 111.958C157.854 112.217 155.698 112.304 153.544 112.22C151.391 112.304 149.235 112.217 147.096 111.958C149.235 111.7 151.391 111.612 153.544 111.697C155.698 111.612 157.854 111.7 159.993 111.958Z" fill="#E0E0E0"/>
<path d="M211.635 133.266C210.025 126.878 206.182 119.443 202.439 113.87C205.571 116.194 208.088 119.247 209.774 122.763C211.504 126.174 211.957 129.645 213.073 133.266" fill="#F5F5F5"/>
<path d="M213.817 133.266C210.528 121.546 208.163 110.127 203.525 98.105C209.562 108.487 213.123 121.616 215.115 133.317" fill="#F5F5F5"/>
<path d="M219.983 105.952C218.302 114.955 217.591 124.112 217.86 133.266H218.927C218.907 124.041 220.003 115.178 219.983 105.952Z" fill="#F5F5F5"/>
<path d="M215.9 133.266C213.429 118.717 213.164 103.879 215.115 89.2515C215.578 97.8834 215.518 106.354 215.991 115.006C216.303 120.821 217.148 127.642 217.148 133.266" fill="#F5F5F5"/>
<path d="M222.599 133.267C220.056 133.526 217.498 133.613 214.943 133.528C212.388 133.613 209.83 133.525 207.287 133.267C209.83 133.008 212.388 132.92 214.943 133.005C217.498 132.92 220.056 133.007 222.599 133.267Z" fill="#E0E0E0"/>
<path d="M220.185 134.444C218.046 134.708 215.889 134.796 213.736 134.705C211.583 134.796 209.426 134.708 207.287 134.444C209.426 134.185 211.583 134.098 213.736 134.182C215.889 134.098 218.045 134.185 220.185 134.444Z" fill="#E0E0E0"/>
<path d="M285.629 133.377C284.019 126.989 280.186 119.554 276.443 113.98C279.574 116.305 282.092 119.358 283.777 122.874C285.508 126.284 285.951 129.755 287.077 133.377" fill="#F5F5F5"/>
<path d="M287.823 133.377C284.533 121.656 282.169 110.238 277.531 98.165C283.568 108.547 287.129 121.676 289.121 133.377" fill="#F5F5F5"/>
<path d="M293.949 106.062C292.27 115.066 291.555 124.222 291.816 133.377H292.943C292.943 124.151 294.009 115.288 293.949 106.062Z" fill="#F5F5F5"/>
<path d="M289.924 133.377C287.463 118.827 287.198 103.991 289.139 89.3623C289.612 97.9942 289.551 106.465 290.014 115.117C290.336 120.932 291.171 127.753 291.171 133.377" fill="#F5F5F5"/>
<path d="M296.605 133.377C294.062 133.636 291.504 133.723 288.949 133.638C286.394 133.723 283.836 133.636 281.293 133.377C283.836 133.118 286.394 133.031 288.949 133.115C291.504 133.031 294.062 133.118 296.605 133.377Z" fill="#E0E0E0"/>
<path d="M294.18 134.524C292.045 134.789 289.892 134.876 287.742 134.785C285.589 134.876 283.432 134.789 281.293 134.524C283.432 134.265 285.589 134.178 287.742 134.262C289.892 134.177 292.045 134.265 294.18 134.524Z" fill="#E0E0E0"/>
<path d="M342.892 119.765C341.293 113.377 337.45 105.942 333.707 100.369C336.838 102.693 339.355 105.746 341.041 109.262C342.772 112.673 343.224 116.144 344.341 119.765" fill="#F5F5F5"/>
<path d="M345.087 119.765C341.797 108.045 339.433 96.6258 334.795 84.5532C340.831 94.9357 344.393 108.075 346.385 119.765" fill="#F5F5F5"/>
<path d="M351.294 92.4507C349.613 101.454 348.901 110.611 349.171 119.765H350.237C350.177 110.539 351.294 101.676 351.294 92.4507Z" fill="#F5F5F5"/>
<path d="M347.16 119.765C344.698 105.215 344.437 90.378 346.385 75.7505C346.848 84.3824 346.788 92.8534 347.261 101.505C347.572 107.32 348.418 114.141 348.418 119.765" fill="#F5F5F5"/>
<path d="M353.869 119.765C351.325 120.024 348.768 120.111 346.213 120.027C343.658 120.111 341.1 120.024 338.557 119.765C341.1 119.506 343.658 119.419 346.213 119.503C348.768 119.419 351.325 119.506 353.869 119.765Z" fill="#E0E0E0"/>
<path d="M351.454 120.942C347.162 121.291 342.849 121.291 338.557 120.942C342.849 120.593 347.162 120.593 351.454 120.942Z" fill="#E0E0E0"/>
<path d="M425.47 130.107C423.861 123.719 420.018 116.284 416.285 110.71C419.416 113.035 421.934 116.088 423.619 119.604C425.35 123.014 425.792 126.485 426.919 130.107" fill="#F5F5F5"/>
<path d="M427.663 130.107C424.373 118.387 421.999 106.968 417.371 94.8955C423.407 105.278 426.969 118.417 428.951 130.107" fill="#F5F5F5"/>
<path d="M433.791 102.793C432.112 111.796 431.397 120.953 431.658 130.107H432.785C432.785 120.882 433.851 112.018 433.791 102.793Z" fill="#F5F5F5"/>
<path d="M429.765 130.108C427.305 115.558 427.04 100.721 428.981 86.0928C429.454 94.7348 429.393 103.196 429.856 111.848C430.178 117.663 431.013 124.484 431.013 130.108" fill="#F5F5F5"/>
<path d="M436.445 130.107C431.347 130.456 426.231 130.456 421.133 130.107C426.231 129.759 431.347 129.759 436.445 130.107Z" fill="#E0E0E0"/>
<path d="M434.02 131.294C429.732 131.643 425.422 131.643 421.133 131.294C425.422 130.945 429.732 130.945 434.02 131.294Z" fill="#E0E0E0"/>
<path d="M461.094 34.301C460.656 32.9444 460.033 31.6545 459.243 30.468C458.848 29.8731 458.336 29.3653 457.737 28.976C457.138 28.5867 456.466 28.3241 455.762 28.2044C455.057 28.1013 454.338 28.2351 453.717 28.5846C453.096 28.9342 452.609 29.4798 452.332 30.136C452.29 27.0829 451.553 24.0795 450.179 21.3531C448.66 18.7173 445.823 16.6448 442.784 16.836C439.927 17.007 437.472 19.1298 436.104 21.655C434.879 24.2533 434.097 27.0382 433.79 29.8945C432.704 28.5565 430.41 28.979 429.283 30.2668C428.279 31.6732 427.703 33.3396 427.623 35.0656L461.447 35.4177L461.094 34.301Z" fill="#EBEBEB"/>
<path d="M73.8348 40.0255C73.3948 38.6696 72.772 37.38 71.9837 36.1924C71.5879 35.5972 71.0752 35.0888 70.4768 34.6979C69.8784 34.307 69.2068 34.0419 68.5027 33.9187C67.7967 33.8186 67.0774 33.9534 66.4556 34.3025C65.8339 34.6516 65.3442 35.1955 65.062 35.8503C65.0201 32.7973 64.2838 29.7938 62.9091 27.0675C61.3899 24.4417 58.5328 22.3793 55.5146 22.5604C52.6474 22.7314 50.1926 24.8643 48.8344 27.3894C47.6166 29.9914 46.8478 32.7806 46.5607 35.6391C45.4742 34.3111 43.1804 34.7236 42.0536 36.0214C41.0549 37.4283 40.4884 39.0961 40.4238 40.8202L74.2473 41.1724L73.8348 40.0255Z" fill="#EBEBEB"/>
<path d="M215.225 25.4477C214.915 24.4868 214.475 23.5729 213.918 22.7313C213.635 22.3123 213.271 21.954 212.848 21.6776C212.424 21.4012 211.95 21.2121 211.453 21.1217C210.952 21.0489 210.44 21.1448 210 21.3943C209.559 21.6438 209.214 22.0328 209.018 22.4999C208.989 20.3348 208.466 18.2049 207.489 16.2725C206.988 15.3157 206.237 14.5127 205.316 13.9493C204.394 13.3858 203.337 13.0831 202.257 13.0732C201.246 13.2034 200.284 13.5847 199.458 14.1821C198.632 14.7796 197.969 15.5743 197.529 16.4938C196.664 18.3366 196.12 20.3133 195.919 22.339C195.145 21.3933 193.525 21.6951 192.72 22.6106C192.008 23.6029 191.599 24.7807 191.543 26.001L215.507 26.2525L215.225 25.4477Z" fill="#F5F5F5"/>
<path d="M441.715 431.219H283.202C277.166 432.436 267.819 436.923 263.393 439.831C262.518 440.384 261.877 441.24 261.592 442.235C260.888 444.921 263.604 446.511 265.918 447.265C270.778 448.883 275.89 449.613 281.009 449.418C282.052 449.345 283.091 449.606 283.976 450.163C286.834 452.084 284.801 455.605 282.236 456.471C280.063 457.195 277.709 456.742 275.425 456.762C272.789 456.762 269.711 457.819 269.389 460.787C269.334 461.465 269.432 462.147 269.675 462.783C269.919 463.418 270.303 463.991 270.797 464.459C272.809 466.471 275.646 466.783 278.343 467.004C304.782 469.147 331.351 466.3 357.7 463.262C358.293 463.207 358.862 463.002 359.353 462.666C359.845 462.329 360.242 461.873 360.507 461.34C361.694 458.754 358.374 456.783 355.718 456.41L355.195 456.33C354.767 456.205 354.393 455.941 354.131 455.58C353.87 455.219 353.735 454.782 353.749 454.336C353.763 453.891 353.924 453.463 354.208 453.119C354.491 452.775 354.881 452.535 355.316 452.436L430.709 445.052C434.522 444.68 438.597 444.197 441.494 441.702C444.391 439.207 444.905 433.321 441.715 431.219Z" fill="#F5F5F5"/>
<path d="M186.603 441.651L173.373 453.976C173.143 454.138 172.95 454.35 172.809 454.595C172.669 454.84 172.583 455.113 172.559 455.394C172.629 456.4 174.068 456.581 175.084 456.4L184.692 454.66L180.044 460.978C184.661 459.593 188.94 457.264 192.609 454.136C193.642 455.744 194.498 457.457 195.165 459.247C198.701 453.881 201.541 448.086 203.615 442.003L186.603 441.651Z" fill="#E0E0E0"/>
<path d="M41.1363 440.917L27.9067 453.251C27.6749 453.413 27.4816 453.624 27.3408 453.869C27.1999 454.115 27.1149 454.388 27.0918 454.67C27.1622 455.676 28.6009 455.847 29.6069 455.676L39.2248 453.935L34.5768 460.263C39.1897 458.885 43.4654 456.562 47.1323 453.442C48.164 455.021 49.0209 456.708 49.6877 458.473C53.2277 453.107 56.0708 447.312 58.1486 441.229L41.1363 440.917Z" fill="#E0E0E0"/>
<path d="M106.168 404.8L92.9282 417.134C92.6976 417.295 92.5051 417.504 92.3643 417.748C92.2235 417.991 92.1378 418.262 92.1133 418.542C92.1837 419.599 93.6324 419.73 94.6385 419.549L104.256 417.808L99.5983 424.126C104.217 422.749 108.497 420.423 112.164 417.295C113.196 418.899 114.053 420.609 114.719 422.396C118.255 417.027 121.098 411.234 123.18 405.152L106.168 404.8Z" fill="#E0E0E0"/>
<path d="M78.8023 271.256L65.5727 283.591C65.3409 283.752 65.1476 283.964 65.0068 284.209C64.8659 284.454 64.7809 284.727 64.7578 285.009C64.8282 286.015 66.2669 286.196 67.2729 286.015L76.8908 284.285L72.2428 290.603C76.8573 289.218 81.1332 286.888 84.7984 283.762C85.834 285.368 86.6941 287.082 87.3638 288.872C90.8986 283.501 93.7382 277.704 95.8146 271.619L78.8023 271.256Z" fill="#E0E0E0"/>
<path d="M40.9156 341.68L27.686 354.014C27.4542 354.176 27.2609 354.387 27.12 354.633C26.9792 354.878 26.8942 355.151 26.8711 355.433C26.9415 356.439 28.3802 356.62 29.3963 356.439L39.0041 354.709L34.3863 361.016C39.0039 359.632 43.2831 357.302 46.9519 354.175C47.9719 355.785 48.8184 357.498 49.4771 359.286C53.0139 353.916 55.8536 348.118 57.9279 342.032L40.9156 341.68Z" fill="#F5F5F5"/>
<path d="M489.114 162.452H1.74219V180.632H489.114V162.452Z" fill="#AE7461"/>
<path d="M487.282 151.949L484.525 146.919C483.755 148.746 482.618 150.397 481.185 151.768C479.595 150.696 478.437 149.096 477.915 147.251C476.54 148.505 475.534 150.113 475.008 151.899C472.904 148.573 471.692 144.762 471.487 140.832L466.839 150.782C466.482 149.361 465.695 148.086 464.585 147.13C464.465 148.589 464.334 150.048 464.203 151.496L460.32 147.714C460.138 149.142 459.947 150.581 459.756 152.009C459.293 150.641 458.821 149.263 458.348 147.895L455.048 152.593C454.816 150.953 454.575 149.313 454.344 147.673L449.434 152.09L448.126 146.919L445.34 151.245L438.418 144.394L438.78 151.064L432.744 144.474L434.917 152.019L430.893 149.414C430.561 150.631 430.219 151.848 429.887 153.076C428.647 152.062 427.821 150.631 427.563 149.052L424.263 152.673C423.761 151.414 423.718 150.018 424.142 148.73L420.43 153.015C420.48 150.098 420.54 147.17 420.591 144.243C418.972 146.565 417.707 149.114 416.838 151.808C415.293 149.718 414.041 147.426 413.116 144.997C413.478 147.281 413.85 149.575 414.222 151.859L409.856 147.975L410.611 151.999L407.441 150.058L406.124 152.573L405.54 146.617L401.848 151.969C400.023 148.453 399.155 144.518 399.333 140.561C397.708 141.958 396.623 143.88 396.264 145.993C395.924 148.091 395.829 150.222 395.983 152.341C393.745 150.151 392.199 147.353 391.536 144.293C390.469 146.194 390.862 148.549 391.284 150.681C389.796 148.89 388.021 147.357 386.033 146.144L387.753 152.351H387.331L385.057 148.176C384.415 149.713 383.509 151.126 382.381 152.351H380.872C379.719 151.328 378.878 149.999 378.447 148.518C377.289 149.577 376.39 150.889 375.821 152.351H375.067C373.276 149.22 372.242 145.712 372.049 142.11L367.391 152.019C367.04 150.599 366.256 149.322 365.147 148.368C365.026 149.685 364.916 150.993 364.805 152.301H364.312L360.881 148.951C360.731 150.068 360.59 151.184 360.439 152.301H359.986C359.634 151.295 359.272 150.188 358.91 149.132C358.165 150.138 357.431 151.245 356.686 152.291H355.388C355.227 151.164 355.056 150.038 354.895 148.911L351.143 152.291H349.734C349.382 150.913 349.03 149.535 348.728 148.156C347.836 149.531 346.948 150.909 346.062 152.291H345.74L338.949 145.591L339.312 152.241L333.275 145.671L335.177 152.241H333.889L331.354 150.621L330.901 152.251H328.678C328.346 151.622 328.121 150.942 328.014 150.239L326.203 152.251H324.322C324.257 151.473 324.346 150.69 324.583 149.947L322.571 152.251H320.911C320.911 149.987 321.002 147.724 321.042 145.46C319.581 147.558 318.407 149.842 317.551 152.251H316.756C315.453 150.373 314.379 148.347 313.557 146.215C313.879 148.227 314.211 150.239 314.563 152.251H313.768C312.621 151.238 311.478 150.232 310.337 149.233L310.911 152.251H309.553L307.923 151.245L307.39 152.251H306.454L306.021 147.814L302.953 152.251H301.897C300.405 148.979 299.715 145.399 299.884 141.808C298.274 143.211 297.207 145.133 296.866 147.241C296.571 148.9 296.463 150.587 296.544 152.271H295.377C293.776 150.315 292.665 148.003 292.138 145.53C291.072 147.432 291.464 149.786 291.886 151.919C290.396 150.125 288.618 148.592 286.625 147.382L286.856 148.227C286.2 149.711 285.295 151.072 284.18 152.251H282.882C281.646 151.194 280.753 149.793 280.317 148.227C279.112 149.334 278.191 150.714 277.631 152.251H277.007C275.157 149.091 274.088 145.535 273.888 141.878L269.24 151.828C268.883 150.408 268.096 149.132 266.987 148.176L266.634 152.201H266.292L262.761 148.76L262.308 152.241H261.926C261.544 151.134 261.172 150.038 260.789 148.941L258.475 152.231H257.288C257.117 151.064 256.956 149.887 256.785 148.72L252.882 152.231H251.654L250.568 147.965L247.821 152.231H247.67L240.809 145.44L241.171 152.11L235.085 145.51L237.016 152.221H235.95L233.203 150.46L232.72 152.221H230.608C230.237 151.562 229.985 150.844 229.863 150.098L227.932 152.221H226.191C226.098 151.4 226.184 150.57 226.443 149.786L224.33 152.221H222.771L222.891 145.299C221.407 147.436 220.219 149.765 219.36 152.221H218.696C217.351 150.309 216.25 148.237 215.416 146.054L216.422 152.221H215.748L212.167 149.032L212.77 152.221H211.603L209.752 151.084L209.159 152.211H208.304L207.851 147.643L204.702 152.211H203.796C202.286 148.899 201.596 145.272 201.784 141.637C200.172 143.038 199.104 144.961 198.766 147.07C198.668 147.549 198.594 148.032 198.545 148.518L198.233 147.945C197.779 149.04 197.191 150.074 196.482 151.023C195.302 149.307 194.468 147.376 194.028 145.339C192.961 147.241 193.354 149.595 193.786 151.728C193.404 151.275 193.002 150.832 192.589 150.42C192.171 149.758 191.85 149.04 191.633 148.287C191.403 148.496 191.184 148.717 190.979 148.951C190.203 148.308 189.382 147.72 188.525 147.19C188.867 148.428 189.219 149.675 189.531 150.923C189.304 151.335 189.106 151.762 188.937 152.201H188.253C186.431 149.053 185.376 145.52 185.174 141.889C183.625 145.202 182.072 148.518 180.516 151.838C180.166 150.418 179.382 149.141 178.273 148.186C178.152 149.524 178.042 150.863 177.921 152.211H177.518L174.007 148.79L173.555 152.211H173.142C172.78 151.134 172.408 150.048 172.035 148.971L169.762 152.211H168.524C168.363 151.054 168.192 149.897 168.031 148.75L164.168 152.18H162.87C162.518 150.772 162.156 149.374 161.804 147.965L159.088 152.17H158.896L152.095 145.44L152.458 152.11C150.446 149.91 148.417 147.71 146.371 145.51C147.005 147.734 147.649 149.947 148.283 152.17H147.065L144.409 150.46C144.248 151.023 144.097 151.597 143.936 152.16H141.773C141.424 151.517 141.186 150.82 141.069 150.098C140.445 150.792 139.812 151.476 139.188 152.16H137.387C137.304 151.357 137.389 150.545 137.639 149.776L135.626 152.16H133.987C134.04 149.867 134.084 147.576 134.117 145.289C132.64 147.409 131.459 149.721 130.606 152.16H129.882C128.556 150.26 127.465 148.206 126.632 146.044L127.638 152.15H126.944L123.423 149.021C123.614 150.027 123.815 151.114 124.007 152.15H122.769L121.008 151.074L120.445 152.15H119.55L119.107 147.633L115.988 152.15H114.982C113.477 148.855 112.787 145.245 112.97 141.627C111.359 143.028 110.291 144.951 109.952 147.06C109.657 148.719 109.549 150.406 109.63 152.09H108.523C106.891 150.119 105.759 147.782 105.224 145.279C104.157 147.18 104.549 149.535 104.972 151.667C103.482 149.874 101.704 148.34 99.7104 147.13C100.032 148.267 100.344 149.404 100.666 150.541C100.022 149.363 99.3784 148.186 98.7445 147.009C97.98 148.84 96.8425 150.492 95.4045 151.859C93.8204 150.785 92.6632 149.19 92.1348 147.351C90.7581 148.605 89.7523 150.213 89.2273 151.999C87.1319 148.67 85.92 144.861 85.7061 140.933L81.0582 150.883C80.706 149.465 79.922 148.193 78.8147 147.241L78.3619 151.627L74.4786 147.834C74.2975 149.273 74.1063 150.702 73.9252 152.13C73.4524 150.762 72.9796 149.384 72.5168 148.015L69.2069 152.724C68.9755 151.074 68.734 149.434 68.5026 147.794L63.5629 152.251C63.1202 150.531 62.6876 148.81 62.245 147.08C61.3194 148.528 60.3905 149.97 59.4582 151.406L52.5768 144.585L52.939 151.255L46.9027 144.665L49.0758 152.211L45.0516 149.605L44.0455 153.267C42.8064 152.254 41.98 150.823 41.7215 149.243L38.4317 152.865C37.922 151.611 37.8756 150.216 38.3009 148.931L34.5886 153.217L34.7596 144.434C33.1396 146.757 31.8717 149.306 30.997 151.999C29.4537 149.908 28.2014 147.617 27.2746 145.188C27.6469 147.472 28.009 149.766 28.3813 152.05L24.015 148.166L24.7696 152.191L21.6005 150.249L20.2826 152.764L19.699 146.808L16.0169 152.16C14.2285 148.651 13.3892 144.736 13.5823 140.802C11.9742 142.206 10.9067 144.128 10.5641 146.235C10.2203 148.332 10.1224 150.463 10.2723 152.583C8.03906 150.389 6.49375 147.593 5.82559 144.534C4.75918 146.436 5.1616 148.79 5.58414 150.923C4.05385 149.09 2.22784 147.526 0.181641 146.295L1.90199 152.512L1.3386 155.832C0.18164 162.472 0.664545 167.563 6.36886 169.978C12.0732 172.392 31.0674 169.867 37.2345 170.239C55.7056 171.336 71.7119 169.837 95.7264 171.336C145.838 174.475 200.487 172.342 250.658 169.545C250.658 169.545 265.035 174.575 286.595 173.982C308.154 173.388 331.947 173.69 346.676 172.845C361.405 172 389.433 172.563 401.898 172.845C414.363 173.126 422.573 173.126 428.237 171.708C433.901 170.289 444.092 171.426 453.438 171.426C462.784 171.426 470.4 175.772 480.068 174.022C489.737 172.271 488.841 166.336 489.123 162.362C489.405 158.388 487.282 151.949 487.282 151.949Z" fill="#455A64"/>
<path d="M289.419 236.135C286.502 223.69 279.55 209.223 272.779 198.388C278.635 202.815 282.93 209.042 286.059 215.682C289.188 222.322 290.003 229.073 292.025 236.135" fill="#455A64"/>
<path d="M293.384 236.135C287.429 213.318 283.133 191.084 274.742 167.724C285.608 187.945 292.117 213.509 295.728 236.135" fill="#455A64"/>
<path d="M293.505 236.044C288.656 217.442 284.722 198.599 279.058 180.219C278.314 177.804 277.539 175.4 276.734 173.005C276.342 171.828 275.939 170.651 275.527 169.484C275.447 169.243 275.125 168.045 274.933 168.076C274.742 168.106 275.376 169.082 275.507 169.353C277.519 173.307 279.4 177.402 281.09 181.496C284.436 189.795 287.245 198.301 289.501 206.959C292.025 216.575 294.06 226.313 295.598 236.135C295.598 236.296 295.869 236.225 295.849 236.064C292.881 217.473 288.465 198.911 281.332 181.446C279.404 176.713 277.235 172.083 274.833 167.573C274.762 167.452 274.551 167.572 274.601 167.673C280.829 185.088 285.105 203.076 289.461 220.994C290.688 226.024 291.936 231.054 293.244 236.085C293.259 236.109 293.281 236.127 293.308 236.137C293.334 236.147 293.364 236.148 293.391 236.14C293.418 236.133 293.442 236.116 293.459 236.093C293.476 236.07 293.485 236.043 293.485 236.014L293.505 236.044Z" fill="#263238"/>
<path d="M304.541 182.915C301.504 200.484 300.217 218.312 300.698 236.135H302.63C302.589 218.127 304.581 200.923 304.541 182.915Z" fill="#455A64"/>
<path d="M297.136 236.135C292.911 208.308 291.995 194.454 295.728 164.947C296.573 181.758 296.452 183.78 297.307 200.591C297.881 211.909 299.4 225.179 299.4 236.135" fill="#455A64"/>
<path d="M297.258 236.045C295.849 226.719 294.511 217.362 293.898 207.936C293.358 199.414 293.412 190.866 294.059 182.352C294.481 176.517 295.115 170.702 295.849 164.897H295.598C296 172.774 296.292 180.661 296.604 188.539C297.017 198.529 297.68 208.479 298.425 218.449C298.858 224.314 299.24 230.189 299.25 236.085C299.258 236.112 299.274 236.136 299.297 236.153C299.32 236.17 299.347 236.18 299.376 236.18C299.404 236.18 299.432 236.17 299.454 236.153C299.477 236.136 299.494 236.112 299.501 236.085C299.501 225.582 298.334 215.119 297.65 204.646C297.117 196.356 296.835 188.046 296.503 179.746C296.309 174.796 296.084 169.846 295.829 164.897C295.822 164.869 295.805 164.845 295.782 164.828C295.76 164.811 295.732 164.802 295.704 164.802C295.675 164.802 295.648 164.811 295.625 164.828C295.602 164.845 295.586 164.869 295.578 164.897C294.255 174.631 293.479 184.432 293.254 194.253C293.188 202.754 293.682 211.25 294.733 219.686C295.377 225.179 296.171 230.652 296.996 236.115C296.996 236.276 297.268 236.206 297.238 236.045H297.258Z" fill="#263238"/>
<path d="M309.29 236.135C309.29 236.276 303.072 236.396 295.416 236.396C287.76 236.396 281.553 236.276 281.553 236.135C281.553 235.994 287.76 235.863 295.416 235.863C303.072 235.863 309.29 235.934 309.29 236.135Z" fill="#263238"/>
<path d="M304.903 238.379C304.903 238.52 299.672 238.64 293.233 238.64C286.794 238.64 281.553 238.52 281.553 238.379C281.553 238.238 286.784 238.117 293.233 238.117C299.682 238.117 304.903 238.238 304.903 238.379Z" fill="#263238"/>
<path d="M311.684 240.562C311.684 240.703 306.453 240.823 300.014 240.823C293.575 240.823 288.334 240.703 288.334 240.562C288.334 240.421 293.565 240.3 300.014 240.3C306.463 240.3 311.684 240.421 311.684 240.562Z" fill="#263238"/>
<path d="M376.646 260.603C373.738 248.158 366.776 233.691 360.016 222.855C365.861 227.282 370.157 233.51 373.285 240.15C376.414 246.789 377.229 253.54 379.261 260.603" fill="#455A64"/>
<path d="M380.609 260.602C374.663 237.785 370.367 215.551 361.977 192.191C372.832 212.403 379.351 237.966 382.953 260.602" fill="#455A64"/>
<path d="M380.74 260.562C375.891 241.96 371.957 223.117 366.293 204.736C365.549 202.322 364.774 199.917 363.969 197.523C363.577 196.346 363.175 195.179 362.762 194.002C362.682 193.76 362.36 192.573 362.158 192.593C361.957 192.613 362.601 193.599 362.742 193.871C364.754 197.835 366.635 201.919 368.326 206.014C371.671 214.305 374.477 222.804 376.726 231.457C379.259 241.072 381.297 250.81 382.833 260.633C382.833 260.794 383.104 260.723 383.074 260.562C380.106 241.97 375.7 223.419 368.567 205.944C366.646 201.216 364.48 196.592 362.078 192.09C362.065 192.061 362.04 192.038 362.01 192.027C361.98 192.015 361.946 192.017 361.917 192.03C361.888 192.043 361.865 192.068 361.853 192.098C361.842 192.128 361.843 192.162 361.857 192.191C368.084 209.606 372.36 227.594 376.716 245.512C377.943 250.542 379.181 255.572 380.489 260.602C380.499 260.634 380.522 260.66 380.552 260.676C380.581 260.692 380.616 260.695 380.648 260.686C380.68 260.677 380.708 260.656 380.725 260.628C380.742 260.599 380.747 260.565 380.74 260.532V260.562Z" fill="#263238"/>
<path d="M391.775 207.433C388.738 224.985 387.447 242.795 387.922 260.602H389.864C389.823 242.644 391.815 225.391 391.775 207.433Z" fill="#455A64"/>
<path d="M384.372 260.602C380.136 232.775 379.231 218.932 382.953 189.414C383.808 206.225 383.688 208.247 384.543 225.058C385.116 236.377 386.635 249.646 386.635 260.602" fill="#455A64"/>
<path d="M384.492 260.562C383.074 251.236 381.746 241.88 381.122 232.453C380.582 223.932 380.636 215.383 381.283 206.869C381.716 201.034 382.35 195.219 383.084 189.414H382.832C383.225 197.292 383.527 205.179 383.838 213.056C384.261 223.047 384.925 232.996 385.659 242.966C386.102 248.832 386.484 254.717 386.494 260.602C386.502 260.63 386.519 260.654 386.541 260.671C386.564 260.688 386.592 260.697 386.62 260.697C386.649 260.697 386.676 260.688 386.699 260.671C386.722 260.654 386.738 260.63 386.746 260.602C386.746 250.099 385.579 239.636 384.895 229.163C384.352 220.873 384.08 212.563 383.748 204.264C383.547 199.314 383.322 194.364 383.074 189.414C383.066 189.387 383.05 189.363 383.027 189.346C383.004 189.329 382.977 189.319 382.948 189.319C382.92 189.319 382.892 189.329 382.869 189.346C382.847 189.363 382.83 189.387 382.822 189.414C381.485 199.148 380.699 208.949 380.468 218.771C380.418 227.266 380.922 235.755 381.977 244.184C382.631 249.677 383.416 255.15 384.251 260.612C384.251 260.773 384.513 260.703 384.492 260.542V260.562Z" fill="#263238"/>
<path d="M396.565 260.602C396.565 260.743 390.357 260.864 382.701 260.864C375.045 260.864 368.838 260.743 368.838 260.602C368.838 260.462 375.045 260.341 382.701 260.341C390.357 260.341 396.565 260.451 396.565 260.602Z" fill="#263238"/>
<path d="M392.138 262.896C392.138 263.037 386.906 263.158 380.457 263.158C374.008 263.158 368.787 263.037 368.787 262.896C368.787 262.756 374.008 262.635 380.457 262.635C386.906 262.635 392.138 262.756 392.138 262.896Z" fill="#263238"/>
<path d="M398.919 265.079C398.919 265.22 393.687 265.341 387.239 265.341C380.79 265.341 375.568 265.22 375.568 265.079C375.568 264.939 380.79 264.818 387.239 264.818C393.687 264.818 398.919 264.939 398.919 265.079Z" fill="#263238"/>
<path d="M449.544 279.838C446.627 267.393 439.675 252.926 432.904 242.091C438.76 246.517 443.055 252.745 446.184 259.385C449.313 266.025 450.128 272.785 452.15 279.838" fill="#455A64"/>
<path d="M453.507 279.838C447.552 257.021 443.256 234.787 434.865 211.427C445.731 231.638 452.25 257.202 455.851 279.838" fill="#455A64"/>
<path d="M453.628 279.798C448.778 261.196 444.845 242.353 439.181 223.972C438.436 221.557 437.662 219.153 436.857 216.759C436.464 215.582 436.062 214.415 435.649 213.237C435.569 212.996 435.247 211.809 435.056 211.829C434.865 211.849 435.499 212.835 435.629 213.117C437.641 217.07 439.533 221.165 441.213 225.25C444.556 233.543 447.365 242.041 449.623 250.693C452.146 260.309 454.185 270.047 455.73 279.868C455.73 280.029 455.992 279.959 455.972 279.798C453.004 261.206 448.587 242.654 441.454 225.179C439.533 220.454 437.37 215.83 434.975 211.326C434.905 211.205 434.694 211.326 434.744 211.427C440.971 228.841 445.247 246.829 449.613 264.747C450.827 269.784 452.085 274.814 453.386 279.838C453.386 279.999 453.668 279.929 453.628 279.768V279.798Z" fill="#263238"/>
<path d="M464.665 226.668C461.631 244.221 460.344 262.031 460.822 279.838H462.753C462.713 261.88 464.715 244.626 464.665 226.668Z" fill="#455A64"/>
<path d="M457.259 279.838C453.034 252.011 452.118 238.167 455.851 208.65C456.696 225.461 456.575 227.483 457.43 244.294C458.004 255.612 459.523 268.882 459.523 279.838" fill="#455A64"/>
<path d="M457.379 279.798C455.971 270.472 454.643 261.116 454.019 251.689C453.479 243.168 453.533 234.619 454.18 226.105C454.603 220.27 455.247 214.455 455.971 208.65H455.719C456.122 216.527 456.414 224.415 456.725 232.292C457.138 242.282 457.812 252.232 458.546 262.202C458.979 268.067 459.361 273.953 459.381 279.838C459.389 279.866 459.406 279.89 459.428 279.907C459.451 279.924 459.479 279.933 459.507 279.933C459.536 279.933 459.563 279.924 459.586 279.907C459.609 279.89 459.625 279.866 459.633 279.838C459.633 269.335 458.456 258.872 457.772 248.399C457.239 240.109 456.957 231.799 456.625 223.499C456.43 218.55 456.206 213.6 455.951 208.65C455.943 208.623 455.926 208.599 455.904 208.582C455.881 208.564 455.853 208.555 455.825 208.555C455.797 208.555 455.769 208.564 455.746 208.582C455.724 208.599 455.707 208.623 455.699 208.65C454.377 218.384 453.601 228.185 453.375 238.007C453.335 246.509 453.849 255.004 454.915 263.44C455.558 268.933 456.353 274.406 457.178 279.868C457.178 280.029 457.45 279.959 457.42 279.798H457.379Z" fill="#263238"/>
<path d="M469.413 279.838C469.413 279.979 463.205 280.1 455.549 280.1C447.893 280.1 441.676 279.979 441.676 279.838C441.676 279.697 447.883 279.577 455.549 279.577C463.215 279.577 469.413 279.687 469.413 279.838Z" fill="#263238"/>
<path d="M465.026 282.132C465.026 282.273 459.795 282.393 453.356 282.393C446.917 282.393 441.676 282.273 441.676 282.132C441.676 281.991 446.907 281.87 453.356 281.87C459.805 281.87 465.026 281.991 465.026 282.132Z" fill="#263238"/>
<path d="M471.808 284.315C471.808 284.466 466.576 284.576 460.137 284.576C453.699 284.576 448.457 284.466 448.457 284.315C448.457 284.164 453.689 284.053 460.137 284.053C466.586 284.053 471.808 284.174 471.808 284.315Z" fill="#263238"/>
<path d="M174.589 249.153C171.682 236.708 164.72 222.241 157.959 211.406C163.804 215.833 168.1 222.06 171.229 228.7C174.358 235.34 175.173 242.101 177.205 249.153" fill="#455A64"/>
<path d="M178.554 249.154C172.598 226.336 168.312 204.103 159.922 180.742C170.777 200.954 177.296 226.518 180.898 249.154" fill="#455A64"/>
<path d="M178.674 249.113C173.835 230.511 169.891 211.678 164.227 193.288C163.483 190.873 162.718 188.469 161.913 186.074C161.521 184.897 161.119 183.73 160.706 182.553C160.616 182.311 160.304 181.124 160.102 181.144C159.901 181.165 160.545 182.151 160.686 182.432C162.698 186.386 164.579 190.481 166.27 194.565C169.61 202.868 172.416 211.377 174.67 220.038C177.197 229.654 179.235 239.392 180.777 249.214C180.777 249.375 181.048 249.304 181.018 249.144C178.05 230.552 173.644 212 166.511 194.525C164.588 189.799 162.422 185.175 160.022 180.672C159.962 180.551 159.75 180.672 159.801 180.772C166.028 198.187 170.304 216.175 174.66 234.093C175.887 239.123 177.125 244.153 178.433 249.184C178.433 249.345 178.714 249.274 178.674 249.113Z" fill="#263238"/>
<path d="M189.72 195.983C186.683 213.536 185.393 231.346 185.867 249.153H187.809C187.769 231.195 189.761 213.941 189.72 195.983Z" fill="#455A64"/>
<path d="M182.276 249.154C178.041 221.326 177.135 207.483 180.858 177.965C181.713 194.776 181.592 196.799 182.437 213.61C183.011 224.928 184.54 238.198 184.54 249.154" fill="#455A64"/>
<path d="M182.437 249.113C181.019 239.787 179.691 230.431 179.067 221.004C178.527 212.483 178.581 203.934 179.228 195.42C179.65 189.585 180.294 183.77 181.029 177.965H180.777C181.17 185.853 181.471 193.73 181.783 201.608C182.206 211.598 182.87 221.548 183.604 231.518C184.047 237.383 184.429 243.268 184.439 249.154C184.447 249.181 184.463 249.205 184.486 249.222C184.509 249.239 184.537 249.249 184.565 249.249C184.593 249.249 184.621 249.239 184.644 249.222C184.666 249.205 184.683 249.181 184.691 249.154C184.691 238.651 183.524 228.188 182.84 217.715C182.296 209.425 182.025 201.115 181.693 192.815C181.491 187.865 181.267 182.915 181.019 177.965C181.011 177.938 180.994 177.914 180.972 177.897C180.949 177.88 180.921 177.871 180.893 177.871C180.864 177.871 180.837 177.88 180.814 177.897C180.791 177.914 180.775 177.938 180.767 177.965C179.44 187.699 178.664 197.501 178.443 207.322C178.379 215.823 178.869 224.318 179.912 232.755C180.566 238.248 181.351 243.721 182.186 249.184C182.186 249.345 182.447 249.274 182.427 249.113H182.437Z" fill="#263238"/>
<path d="M194.459 249.154C194.459 249.295 188.252 249.415 180.596 249.415C172.94 249.415 166.732 249.295 166.732 249.154C166.732 249.013 172.94 248.892 180.596 248.892C188.252 248.892 194.459 249.003 194.459 249.154Z" fill="#263238"/>
<path d="M190.083 251.447C190.083 251.598 184.851 251.709 178.403 251.709C171.954 251.709 166.732 251.598 166.732 251.447C166.732 251.296 171.954 251.186 178.403 251.186C184.851 251.186 190.083 251.306 190.083 251.447Z" fill="#263238"/>
<path d="M196.854 253.63C196.854 253.781 191.633 253.892 185.184 253.892C178.735 253.892 173.514 253.781 173.514 253.63C173.514 253.479 178.735 253.369 185.184 253.369C191.633 253.369 196.854 253.489 196.854 253.63Z" fill="#263238"/>
<path d="M107.175 404.971C104.267 392.536 97.3157 378.059 90.5449 367.224C96.3901 371.66 100.686 377.888 103.825 384.528C106.964 391.168 107.769 397.918 109.791 404.971" fill="#455A64"/>
<path d="M111.148 404.971C105.192 382.163 100.896 359.93 92.5059 336.559C103.371 356.781 109.88 382.334 113.492 404.971" fill="#455A64"/>
<path d="M122.305 351.831C119.272 369.381 117.984 387.187 118.462 404.991H120.394C120.354 387.043 122.346 369.769 122.305 351.831Z" fill="#455A64"/>
<path d="M114.871 404.971C110.413 376.621 109.936 347.788 113.453 319.306C114.308 336.117 114.187 352.616 115.042 369.427C115.616 380.755 117.135 394.025 117.135 404.971" fill="#455A64"/>
<path d="M127.043 404.971C127.043 405.121 120.836 405.232 113.18 405.232C105.524 405.232 99.3164 405.121 99.3164 404.971C99.3164 404.82 105.524 404.709 113.18 404.709C120.836 404.709 127.043 404.83 127.043 404.971Z" fill="#263238"/>
<path d="M122.667 407.275C122.667 407.416 117.435 407.536 110.997 407.536C104.558 407.536 99.3164 407.416 99.3164 407.275C99.3164 407.134 104.548 407.013 110.997 407.013C117.445 407.013 122.667 407.164 122.667 407.275Z" fill="#263238"/>
<path d="M129.448 409.458C129.448 409.599 124.217 409.719 117.778 409.719C111.339 409.719 106.098 409.599 106.098 409.458C106.098 409.317 111.329 409.196 117.778 409.196C124.227 409.196 129.448 409.307 129.448 409.458Z" fill="#263238"/>
<path d="M188.494 441.651C185.576 429.206 178.624 414.739 171.854 403.904C177.709 408.331 182.005 414.558 185.133 421.198C188.262 427.838 189.077 434.599 191.099 441.651" fill="#455A64"/>
<path d="M192.457 441.651C186.501 418.834 182.205 396.6 173.814 373.24C184.68 393.451 191.189 419.015 194.801 441.651" fill="#455A64"/>
<path d="M203.614 388.481C200.58 406.034 199.293 423.845 199.771 441.651H201.703C201.662 423.693 203.654 406.439 203.614 388.481Z" fill="#455A64"/>
<path d="M196.209 441.652C191.751 413.302 191.273 384.468 194.79 355.986C195.645 372.787 195.525 389.297 196.38 406.108C196.953 417.426 198.473 430.696 198.473 441.652" fill="#455A64"/>
<path d="M208.364 441.652C208.364 441.793 202.156 441.913 194.5 441.913C186.844 441.913 180.627 441.793 180.627 441.652C180.627 441.511 186.834 441.39 194.5 441.39C202.167 441.39 208.364 441.501 208.364 441.652Z" fill="#263238"/>
<path d="M203.977 443.945C203.977 444.086 198.746 444.207 192.307 444.207C185.868 444.207 180.627 444.086 180.627 443.945C180.627 443.804 185.858 443.684 192.307 443.684C198.756 443.684 203.977 443.804 203.977 443.945Z" fill="#263238"/>
<path d="M210.757 446.128C210.757 446.269 205.525 446.39 199.087 446.39C192.648 446.39 187.406 446.269 187.406 446.128C187.406 445.987 192.638 445.867 199.087 445.867C205.535 445.867 210.757 445.987 210.757 446.128Z" fill="#263238"/>
<path d="M78.8042 270.874C75.8866 258.429 68.9348 243.962 62.1641 233.127C68.0193 237.554 72.3151 243.781 75.4439 250.421C78.5728 257.061 79.3877 263.812 81.4098 270.874" fill="#455A64"/>
<path d="M82.7671 270.874C76.8113 248.057 72.5155 225.823 64.125 202.463C74.9904 222.674 81.4995 248.238 85.1112 270.874" fill="#455A64"/>
<path d="M93.9246 217.704C90.8908 235.257 89.6035 253.067 90.0815 270.874H92.0131C91.9729 252.916 93.9648 235.662 93.9246 217.704Z" fill="#455A64"/>
<path d="M86.5194 270.874C82.0615 242.524 81.584 213.691 85.1009 185.209C85.956 202.01 85.8353 218.519 86.6905 235.33C87.2639 246.649 88.7831 259.918 88.7831 270.874" fill="#455A64"/>
<path d="M98.6724 270.874C98.6724 271.015 92.455 271.135 84.7989 271.135C77.1429 271.135 70.9355 271.015 70.9355 270.874C70.9355 270.733 77.1429 270.612 84.7989 270.612C92.455 270.612 98.6724 270.723 98.6724 270.874Z" fill="#263238"/>
<path d="M94.286 273.168C94.286 273.309 89.0545 273.429 82.6158 273.429C76.1771 273.429 70.9355 273.309 70.9355 273.168C70.9355 273.027 76.167 272.906 82.6158 272.906C89.0646 272.906 94.286 273.027 94.286 273.168Z" fill="#263238"/>
<path d="M101.067 275.371C101.067 275.512 95.8358 275.633 89.3971 275.633C82.9583 275.633 77.7168 275.512 77.7168 275.371C77.7168 275.23 82.9483 275.109 89.3971 275.109C95.8459 275.109 101.067 275.21 101.067 275.371Z" fill="#263238"/>
<path d="M43.1691 440.112C40.2616 427.667 33.2997 413.2 26.5391 402.365C32.3842 406.792 36.6801 413.019 39.8089 419.659C42.9377 426.299 43.7526 433.06 45.7848 440.112" fill="#455A64"/>
<path d="M47.1321 440.112C41.1763 417.295 36.8905 395.061 28.5 371.701C39.3553 391.912 45.8745 417.476 49.4762 440.112" fill="#455A64"/>
<path d="M58.3005 386.942C55.2634 404.495 53.9727 422.305 54.4473 440.112H56.389C56.3487 422.154 58.3407 404.9 58.3005 386.942Z" fill="#455A64"/>
<path d="M50.8941 440.112C46.426 411.763 45.9485 382.928 49.4756 354.447C50.3207 371.248 50.21 387.757 51.0551 404.568C51.6386 415.886 53.1577 429.156 53.1577 440.112" fill="#455A64"/>
<path d="M63.0393 440.112C63.0393 440.253 56.832 440.374 49.1759 440.374C41.5198 440.374 35.3125 440.253 35.3125 440.112C35.3125 439.971 41.5198 439.851 49.1759 439.851C56.832 439.851 63.0393 439.961 63.0393 440.112Z" fill="#263238"/>
<path d="M58.663 442.376C58.663 442.527 53.4315 442.637 46.9827 442.637C40.5339 442.637 35.3125 442.527 35.3125 442.376C35.3125 442.225 40.5339 442.114 46.9827 442.114C53.4315 442.114 58.663 442.265 58.663 442.376Z" fill="#263238"/>
<path d="M65.4322 444.589C65.4322 444.74 60.2108 444.851 53.762 444.851C47.3132 444.851 42.0918 444.74 42.0918 444.589C42.0918 444.438 47.3132 444.328 53.762 444.328C60.2108 444.328 65.4322 444.448 65.4322 444.589Z" fill="#263238"/>
<path d="M42.7866 341.016C39.869 328.581 32.9172 314.104 26.1465 303.269C32.0017 307.706 36.2975 313.933 39.4264 320.573C42.5552 327.213 43.3701 333.964 45.3923 341.016" fill="#455A64"/>
<path d="M46.7496 341.016C40.7937 318.209 36.4979 295.975 28.1074 272.604C38.9728 292.826 45.492 318.38 49.0937 341.016" fill="#455A64"/>
<path d="M57.907 287.856C54.8733 305.406 53.586 323.213 54.0639 341.016H55.9955C55.9552 323.068 57.9573 305.814 57.907 287.856Z" fill="#455A64"/>
<path d="M50.4818 341.016C46.2564 313.199 45.0391 299.235 48.7715 269.727C49.6166 286.528 49.7776 288.671 50.6529 305.472C51.2263 316.8 52.7454 330.07 52.7454 341.016" fill="#455A64"/>
<path d="M62.6548 341.016C62.6548 341.167 56.4475 341.278 48.7914 341.278C41.1354 341.278 34.918 341.167 34.918 341.016C34.918 340.865 41.1253 340.765 48.7914 340.765C56.4575 340.765 62.6548 340.875 62.6548 341.016Z" fill="#263238"/>
<path d="M58.2684 343.32C58.2684 343.461 53.047 343.582 46.5982 343.582C40.1494 343.582 34.918 343.461 34.918 343.32C34.918 343.179 40.1494 343.059 46.5982 343.059C53.047 343.059 58.2684 343.169 58.2684 343.32Z" fill="#263238"/>
<path d="M65.0497 345.503C65.0497 345.644 59.8182 345.765 53.3795 345.765C46.9407 345.765 41.6992 345.644 41.6992 345.503C41.6992 345.362 46.9307 345.242 53.3795 345.242C59.8283 345.242 65.0497 345.352 65.0497 345.503Z" fill="#263238"/>
<path d="M160.193 347.807C157.285 335.372 150.323 320.895 143.553 310.06C149.408 314.497 153.704 320.724 156.833 327.364C159.961 334.004 160.776 340.765 162.809 347.807" fill="#455A64"/>
<path d="M164.168 347.807C158.212 324.99 153.926 302.766 145.525 279.396C156.391 299.617 162.91 325.171 166.512 347.807" fill="#455A64"/>
<path d="M175.324 294.627C172.281 312.182 170.99 329.996 171.471 347.807H173.413C173.372 329.839 175.364 312.595 175.324 294.627Z" fill="#455A64"/>
<path d="M167.919 347.807C163.684 319.98 162.768 306.136 166.501 276.629C167.356 293.44 167.235 295.452 168.08 312.263C168.653 323.571 170.203 336.841 170.203 347.807" fill="#455A64"/>
<path d="M180.063 347.807C180.063 347.948 173.855 348.069 166.199 348.069C158.543 348.069 152.336 347.948 152.336 347.807C152.336 347.666 158.543 347.545 166.199 347.545C173.855 347.545 180.063 347.646 180.063 347.807Z" fill="#263238"/>
<path d="M175.676 350.091C175.676 350.232 170.455 350.352 164.006 350.352C157.557 350.352 152.336 350.232 152.336 350.091C152.336 349.95 157.557 349.829 164.006 349.829C170.455 349.829 175.676 349.94 175.676 350.091Z" fill="#263238"/>
<path d="M182.458 352.274C182.458 352.415 177.236 352.535 170.787 352.535C164.339 352.535 159.117 352.415 159.117 352.274C159.117 352.133 164.339 352.012 170.787 352.012C177.236 352.012 182.458 352.123 182.458 352.274Z" fill="#263238"/>
<path d="M434.03 367.042C431.123 354.608 424.161 340.131 417.4 329.295C423.246 333.732 427.541 339.96 430.67 346.589C433.799 353.219 434.614 359.99 436.646 367.042" fill="#455A64"/>
<path d="M437.993 367.043C432.038 344.226 427.752 322.002 419.361 298.631C430.217 318.843 436.736 344.407 440.338 367.043" fill="#455A64"/>
<path d="M449.16 313.883C446.123 331.432 444.832 349.239 445.307 367.043H447.248C447.208 349.085 449.2 331.831 449.16 313.883Z" fill="#455A64"/>
<path d="M441.757 367.043C437.521 339.216 436.616 325.372 440.338 295.865C441.193 312.666 441.072 314.688 441.918 331.499C442.491 342.827 444.02 356.097 444.02 367.043" fill="#455A64"/>
<path d="M453.91 367.043C453.91 367.184 447.703 367.304 440.047 367.304C432.391 367.304 426.184 367.184 426.184 367.043C426.184 366.902 432.391 366.781 440.047 366.781C447.703 366.781 453.91 366.922 453.91 367.043Z" fill="#263238"/>
<path d="M449.522 369.346C449.522 369.487 444.291 369.608 437.842 369.608C431.393 369.608 426.172 369.487 426.172 369.346C426.172 369.205 431.393 369.075 437.842 369.075C444.291 369.075 449.522 369.195 449.522 369.346Z" fill="#263238"/>
<path d="M456.294 371.529C456.294 371.67 451.072 371.791 444.623 371.791C438.175 371.791 432.953 371.67 432.953 371.529C432.953 371.389 438.175 371.258 444.623 371.258C451.072 371.258 456.294 371.379 456.294 371.529Z" fill="#263238"/>
<path d="M232.628 306.83C229.721 294.395 222.759 279.928 215.998 269.093C221.843 273.52 226.139 279.747 229.268 286.387C232.397 293.027 233.212 299.778 235.244 306.83" fill="#455A64"/>
<path d="M236.603 306.83C230.657 284.023 226.361 261.79 217.971 238.419C228.826 258.641 235.345 284.204 238.947 306.83" fill="#455A64"/>
<path d="M247.759 253.671C244.722 271.22 243.432 289.027 243.906 306.831H245.848C245.808 288.883 247.8 271.629 247.759 253.671Z" fill="#455A64"/>
<path d="M240.354 306.83C236.119 279.013 235.213 265.16 238.936 235.652C239.791 252.463 239.67 254.486 240.525 271.287C241.099 282.615 242.618 295.885 242.618 306.83" fill="#455A64"/>
<path d="M252.498 306.83C252.498 306.981 246.291 307.092 238.635 307.092C230.979 307.092 224.771 306.981 224.771 306.83C224.771 306.679 230.979 306.559 238.615 306.559C246.251 306.559 252.498 306.689 252.498 306.83Z" fill="#263238"/>
<path d="M248.122 309.134C248.122 309.275 242.89 309.396 236.442 309.396C229.993 309.396 224.771 309.275 224.771 309.134C224.771 308.993 229.993 308.873 236.442 308.873C242.89 308.873 248.122 308.993 248.122 309.134Z" fill="#263238"/>
<path d="M254.903 311.317C254.903 311.458 249.672 311.579 243.223 311.579C236.774 311.579 231.553 311.458 231.553 311.317C231.553 311.176 236.774 311.056 243.223 311.056C249.672 311.056 254.903 311.176 254.903 311.317Z" fill="#263238"/>
<path d="M328.215 431.219C328.215 431.359 315.861 431.48 300.629 431.48C285.397 431.48 273.043 431.359 273.043 431.219C273.043 431.078 285.387 430.957 300.629 430.957C315.871 430.957 328.215 431.068 328.215 431.219Z" fill="#263238"/>
<path d="M317.652 437.346C317.652 437.496 310.026 437.607 300.63 437.607C291.233 437.607 283.607 437.496 283.607 437.346C283.607 437.195 291.223 437.084 300.63 437.084C310.036 437.084 317.652 437.245 317.652 437.346Z" fill="#263238"/>
<path d="M447.733 431.219C447.733 431.359 435.378 431.48 420.147 431.48C404.915 431.48 392.551 431.359 392.551 431.219C392.551 431.078 404.905 430.957 420.147 430.957C435.388 430.957 447.733 431.068 447.733 431.219Z" fill="#263238"/>
<path d="M437.16 437.346C437.16 437.496 429.544 437.607 420.138 437.607C410.731 437.607 403.115 437.496 403.115 437.346C403.115 437.195 410.741 437.084 420.138 437.084C429.534 437.084 437.16 437.245 437.16 437.346Z" fill="#263238"/>
<path d="M415.439 383.401C409.863 376.1 403.899 369.104 397.571 362.445L378.748 380.846L413.567 431.219H433.578C433.578 431.219 423.014 393.653 415.439 383.401Z" fill="#FFBF9D"/>
<path d="M291.866 376.107C291.866 376.107 290.859 401.178 290.99 411.108C291.121 421.038 291.866 431.229 291.866 431.229H313.184L321.182 384.468L291.866 376.107Z" fill="#FFBF9D"/>
<path d="M411.353 373.089C411.353 373.089 396.745 276.367 394.25 262.735C390.669 243.228 363.505 223.167 332.469 225.632C301.432 228.097 272.347 375.654 273.202 376.982C274.057 378.31 296.341 404.589 315.547 400.926C327.499 398.653 324.098 393.23 339.068 392.375C354.038 391.52 367.721 402.214 383.546 393.663C393.656 388.022 403.001 381.107 411.353 373.089Z" fill="#263238"/>
<g opacity="0.3">
<path d="M344.49 300.522C344.12 300.102 343.653 299.776 343.13 299.575C342.607 299.373 342.043 299.301 341.485 299.364C340.928 299.427 340.395 299.624 339.93 299.938C339.465 300.252 339.083 300.673 338.816 301.166C336.673 305.191 336.221 308.983 334.792 313.309C327.881 334.185 323.283 356.861 319.39 377.998C319.275 379.001 319.54 380.01 320.134 380.825C321.744 383.361 324.591 382.556 326.895 381.701C331.422 380.011 336.251 378.079 338.877 374.025C341.09 370.604 341.301 366.308 341.452 362.234L343.082 316.388C343.303 310.352 344.279 306.579 344.49 300.522Z" fill="black"/>
</g>
<path d="M342.52 376.107C342.462 375.836 342.425 375.56 342.409 375.282C342.359 374.689 342.289 373.894 342.208 372.908C342.027 370.836 341.836 367.878 341.665 364.145C341.303 356.751 341.142 346.509 341.665 335.211C342.188 323.913 343.194 313.712 344.18 306.378C344.673 302.706 345.116 299.738 345.468 297.696C345.639 296.69 345.78 295.935 345.88 295.352C345.913 295.075 345.974 294.802 346.061 294.537C346.059 294.813 346.032 295.09 345.981 295.362C345.91 295.955 345.8 296.74 345.669 297.726C345.377 299.738 344.995 302.756 344.542 306.418C343.657 313.762 342.671 323.944 342.188 335.231C341.705 346.519 341.816 356.741 342.067 364.135C342.198 367.828 342.329 370.826 342.449 372.888C342.5 373.894 342.53 374.679 342.56 375.272C342.573 375.551 342.56 375.831 342.52 376.107Z" fill="#455A64"/>
<path d="M320.176 372.516C320.174 372.327 320.191 372.138 320.226 371.952C320.297 371.53 320.377 371.007 320.478 370.363C320.709 368.975 321.061 366.983 321.484 364.518C322.419 359.588 323.808 352.807 325.508 345.403C327.208 337.998 329.019 331.248 330.367 326.419C331.041 324.014 331.615 322.062 332.027 320.724L332.51 319.185C332.553 318.999 332.621 318.82 332.711 318.652C332.701 318.843 332.668 319.032 332.611 319.215C332.5 319.628 332.379 320.141 332.218 320.775L330.729 326.519C329.462 331.368 327.761 338.079 326.021 345.513C324.281 352.948 322.832 359.729 321.816 364.628L320.598 370.433L320.256 372.013C320.248 372.183 320.221 372.352 320.176 372.516Z" fill="#455A64"/>
<path d="M234.058 281.709C234.058 281.709 230.577 286.579 241.473 296.317C252.369 306.056 260.246 325.754 260.246 325.754L246.886 347.807C246.886 347.807 256.946 357.797 258.626 356.861C260.306 355.926 289.924 327.153 289.924 327.153L293.164 311.388L252.137 277.082L234.058 281.709Z" fill="#555555"/>
<path opacity="0.3" d="M234.058 281.709C234.058 281.709 230.577 286.579 241.473 296.317C252.369 306.056 260.246 325.754 260.246 325.754L246.886 347.807C246.886 347.807 256.946 357.797 258.626 356.861C260.306 355.926 289.924 327.153 289.924 327.153L293.164 311.388L252.137 277.082L234.058 281.709Z" fill="black"/>
<path d="M246.733 224.827C244.894 223.709 242.817 223.043 240.671 222.884C238.525 222.725 236.372 223.077 234.389 223.912V234.978C236.557 239.527 236.87 244.74 235.264 249.516C234.811 250.824 234.258 252.343 234.972 253.54C235.686 254.737 237.467 254.888 238.926 254.858C240.923 254.98 242.919 254.599 244.731 253.751C246.582 252.665 247.699 250.733 248.755 248.801C250.999 244.646 253.242 240.2 253.011 235.481C252.881 233.336 252.245 231.251 251.154 229.399C250.062 227.547 248.547 225.98 246.733 224.827Z" fill="#555555"/>
<g opacity="0.3">
<path d="M246.733 224.827C244.894 223.709 242.817 223.043 240.671 222.884C238.525 222.725 236.372 223.077 234.389 223.912V234.978C236.557 239.527 236.87 244.74 235.264 249.516C234.811 250.824 234.258 252.343 234.972 253.54C235.686 254.737 237.467 254.888 238.926 254.858C240.923 254.98 242.919 254.599 244.731 253.751C246.582 252.665 247.699 250.733 248.755 248.801C250.999 244.646 253.242 240.2 253.011 235.481C252.881 233.336 252.245 231.251 251.154 229.399C250.062 227.547 248.547 225.98 246.733 224.827Z" fill="black"/>
</g>
<path d="M200.717 220.189C190.657 221.195 182.105 225.803 176.33 234.113C173.081 238.811 172.749 241.437 171.381 245.472C169.918 249.442 169.896 253.801 171.32 257.786C173.131 262.514 175.616 267.122 179.489 270.371C183.364 273.837 187.551 276.939 191.995 279.637C196.47 282.342 201.605 283.759 206.834 283.732L216.069 274.053C220.325 268.138 224.631 262.142 227.196 255.321C229.762 248.5 230.426 240.653 227.378 234.033C223.132 224.847 210.788 219.224 200.717 220.189Z" fill="#263238"/>
<path d="M176.421 244.717L178.534 240.612L194.117 229.888C194.85 228.907 195.924 228.235 197.126 228.006C198.329 227.777 199.574 228.007 200.616 228.65L248.243 261.116L243.836 271.91L238.494 288.068L227.548 280.261C227.548 280.261 220.053 289.396 206.955 284.204C200.435 281.619 190.858 275.532 183.171 270.301C176.24 265.582 170.706 253.329 176.421 244.717Z" fill="#FFBF9D"/>
<path d="M215.728 265.231C215.083 264.929 214.35 264.871 213.666 265.07C213.034 265.249 212.477 265.63 212.081 266.155C211.685 266.68 211.472 267.32 211.473 267.977C211.521 268.689 211.758 269.376 212.159 269.967C212.561 270.557 213.112 271.03 213.756 271.337C214.276 271.323 214.787 271.197 215.254 270.968C215.721 270.739 216.133 270.412 216.463 270.009C216.563 269.889 216.664 269.748 216.754 269.617C217.202 268.931 217.378 268.102 217.247 267.293C217.17 266.855 216.993 266.442 216.729 266.084C216.466 265.726 216.123 265.434 215.728 265.231Z" fill="#FF9A6C"/>
<path d="M195.828 273.208C196.224 273.451 196.7 273.528 197.153 273.425C197.606 273.322 198 273.045 198.252 272.655C198.385 272.469 198.479 272.259 198.528 272.036C198.578 271.814 198.582 271.583 198.541 271.359C198.5 271.135 198.414 270.921 198.288 270.73C198.162 270.54 198 270.377 197.81 270.251C197.413 270.008 196.938 269.931 196.485 270.034C196.032 270.137 195.637 270.414 195.385 270.804C195.252 270.99 195.159 271.2 195.109 271.423C195.059 271.645 195.055 271.876 195.096 272.1C195.138 272.324 195.224 272.538 195.349 272.729C195.475 272.919 195.638 273.082 195.828 273.208Z" fill="#263238"/>
<path d="M188.744 270.271C189.056 270.19 188.885 268.52 189.861 266.87C190.837 265.22 192.396 264.496 192.296 264.204C192.195 263.912 191.782 264.043 191.088 264.335C190.166 264.762 189.4 265.465 188.895 266.347C188.382 267.207 188.153 268.207 188.241 269.204C188.312 269.918 188.593 270.341 188.744 270.271Z" fill="#263238"/>
<path d="M208.101 268.389C207.313 269.097 206.616 269.902 206.029 270.784C205.727 271.186 205.405 271.528 205.083 271.438C204.761 271.347 204.369 270.905 203.997 270.432L201.522 267.283C197.97 262.836 194.952 259.345 194.781 259.496C194.61 259.647 197.336 263.359 200.878 267.806L203.403 270.915C203.755 271.482 204.297 271.906 204.932 272.112C205.113 272.137 205.298 272.121 205.472 272.066C205.646 272.01 205.805 271.916 205.938 271.79C206.141 271.593 206.317 271.369 206.461 271.126C207.123 270.288 207.674 269.368 208.101 268.389Z" fill="#263238"/>
<path d="M227.488 280.271C230.915 274.683 232.723 268.254 232.71 261.699C232.71 261.699 238.484 270.895 230.255 282.213L227.488 280.271Z" fill="#FF9A6C"/>
<path d="M185.394 267.494C185.938 267.333 186.109 265.844 186.793 264.255C187.477 262.665 188.362 261.468 188.081 260.975C187.94 260.754 187.447 260.784 186.813 261.196C186.005 261.789 185.376 262.593 184.993 263.518C184.61 264.444 184.488 265.457 184.64 266.448C184.801 267.182 185.133 267.554 185.394 267.494Z" fill="#263238"/>
<path d="M206.502 255.371C206.893 255.621 207.173 256.014 207.281 256.466C207.39 256.918 207.32 257.394 207.085 257.795C206.977 257.996 206.83 258.173 206.652 258.317C206.474 258.46 206.27 258.566 206.05 258.629C205.831 258.691 205.601 258.71 205.375 258.682C205.148 258.655 204.929 258.583 204.731 258.469C204.338 258.22 204.057 257.828 203.948 257.375C203.839 256.923 203.911 256.446 204.148 256.045C204.256 255.844 204.403 255.667 204.581 255.524C204.759 255.38 204.963 255.274 205.183 255.212C205.402 255.149 205.632 255.13 205.858 255.158C206.085 255.185 206.304 255.258 206.502 255.371Z" fill="#263238"/>
<path d="M202.568 248.278C202.638 248.59 201.069 249.184 200.032 250.804C198.996 252.423 199.026 254.123 198.725 254.174C198.584 254.174 198.352 253.781 198.312 253.027C198.274 252.015 198.552 251.017 199.107 250.17C199.647 249.329 200.439 248.681 201.37 248.319C202.075 248.067 202.537 248.127 202.568 248.278Z" fill="#263238"/>
<path d="M196.834 246.437C197.045 246.971 195.939 248.067 195.073 249.627C194.208 251.186 193.776 252.645 193.212 252.755C192.941 252.755 192.669 252.363 192.619 251.588C192.595 250.552 192.863 249.531 193.393 248.641C193.889 247.737 194.632 246.993 195.536 246.498C196.23 246.196 196.723 246.196 196.834 246.437Z" fill="#263238"/>
<path d="M216.943 239.556L217.678 242.946C203.593 246.045 171.631 249.073 173.492 248.983C174.658 244.061 177.038 239.51 180.414 235.743C185.806 230.059 197.174 220.029 204.629 225.28C212.084 230.532 216.943 239.556 216.943 239.556Z" fill="#263238"/>
<path d="M216.342 264.104C216.613 264.184 216.271 266.236 215.185 268.53C214.098 270.824 212.75 272.404 212.519 272.243C212.287 272.082 213.203 270.301 214.239 268.088C215.275 265.874 216.05 264.023 216.342 264.104Z" fill="#263238"/>
<path d="M204.047 219.032C185.747 217.141 174.871 230.803 171.541 239.495C168.211 248.188 170.907 247.282 170.907 247.282C170.907 247.282 183.282 240.159 194.187 238.721C213.886 236.226 235.808 252.635 235.808 252.635C235.808 252.635 245.848 223.358 204.047 219.032Z" fill="#555555"/>
<path opacity="0.3" d="M204.047 219.032C185.747 217.141 174.871 230.803 171.541 239.495C168.211 248.188 170.907 247.282 170.907 247.282C170.907 247.282 183.282 240.159 194.187 238.721C213.886 236.226 235.808 252.635 235.808 252.635C235.808 252.635 245.848 223.358 204.047 219.032Z" fill="black"/>
<path d="M218.705 243.631C217.81 243.097 216.321 240.824 216.693 239.858C217.699 237.292 220.426 233.168 226.422 236.669C234.621 241.447 228.122 248.741 227.881 248.57C227.639 248.399 221.784 245.462 218.705 243.631Z" fill="#FFBF9D"/>
<path d="M226.21 244.556C226.21 244.505 226.401 244.475 226.653 244.294C226.984 244.05 227.214 243.691 227.297 243.288C227.488 242.232 226.532 240.702 225.084 239.797C224.39 239.368 223.61 239.096 222.8 239.002C222.499 238.929 222.186 238.93 221.886 239.006C221.586 239.081 221.309 239.228 221.079 239.435C220.941 239.575 220.856 239.759 220.837 239.955C220.819 240.151 220.869 240.348 220.979 240.511C221.14 240.753 221.341 240.793 221.321 240.843C221.301 240.894 221.09 240.944 220.788 240.682C220.613 240.515 220.497 240.297 220.456 240.059C220.423 239.731 220.516 239.404 220.717 239.143C220.979 238.846 221.313 238.622 221.686 238.492C222.06 238.361 222.461 238.329 222.85 238.399C223.764 238.46 224.649 238.747 225.426 239.234C227.045 240.24 228.102 242 227.75 243.389C227.683 243.649 227.558 243.89 227.384 244.094C227.209 244.299 226.99 244.46 226.744 244.566C226.422 244.656 226.21 244.596 226.21 244.556Z" fill="#FF9A6C"/>
<path d="M241.3 232.111C240.849 230.193 239.947 228.409 238.67 226.907C237.394 225.406 235.779 224.229 233.958 223.474C232.137 222.72 230.163 222.409 228.198 222.567C226.234 222.725 224.335 223.348 222.658 224.385C226.345 227.425 229.273 231.283 231.21 235.652C231.753 236.89 232.316 238.268 233.524 238.862C234.709 239.279 236.009 239.225 237.155 238.711C238.721 238.362 240.102 237.444 241.029 236.135C241.617 234.874 241.713 233.44 241.3 232.111Z" fill="#555555"/>
<g opacity="0.3">
<path d="M241.3 232.111C240.849 230.193 239.947 228.409 238.67 226.907C237.394 225.406 235.779 224.229 233.958 223.474C232.137 222.72 230.163 222.409 228.198 222.567C226.234 222.725 224.335 223.348 222.658 224.385C226.345 227.425 229.273 231.283 231.21 235.652C231.753 236.89 232.316 238.268 233.524 238.862C234.709 239.279 236.009 239.225 237.155 238.711C238.721 238.362 240.102 237.444 241.029 236.135C241.617 234.874 241.713 233.44 241.3 232.111Z" fill="black"/>
</g>
<path d="M235.91 253.238C236.357 251.253 236.633 249.234 236.735 247.202C236.925 242.259 235.601 237.376 232.94 233.207C230.279 229.037 226.408 225.78 221.845 223.871C219.951 223.106 217.996 222.504 216 222.071C216.143 222.046 216.289 222.046 216.433 222.071C216.704 222.071 217.127 222.131 217.65 222.242C219.134 222.518 220.587 222.943 221.986 223.509C226.675 225.368 230.657 228.659 233.367 232.913C236.076 237.167 237.375 242.167 237.077 247.202C237.005 248.71 236.779 250.206 236.403 251.669C236.306 252.068 236.185 252.461 236.041 252.846C236.017 252.982 235.973 253.115 235.91 253.238Z" fill="#263238"/>
<path d="M235.678 239.153C236.585 238.767 237.424 238.237 238.163 237.584C238.921 236.843 239.499 235.937 239.853 234.938C240.268 233.711 240.358 232.397 240.115 231.125C239.621 228.788 238.299 226.709 236.392 225.27C234.944 224.143 233.867 223.7 233.907 223.61C234.179 223.649 234.442 223.737 234.682 223.871C235.363 224.172 236.01 224.543 236.614 224.978C237.524 225.618 238.325 226.399 238.988 227.292C239.806 228.391 240.366 229.66 240.628 231.004C240.883 232.35 240.772 233.74 240.306 235.029C239.912 236.086 239.262 237.03 238.414 237.775C237.851 238.276 237.195 238.663 236.483 238.912C236.235 239.048 235.96 239.13 235.678 239.153Z" fill="#263238"/>
<path d="M253.032 346.208L238.353 359.88C236.734 361.389 231.844 373.482 233.977 375.091C236.11 376.701 238.353 374.639 238.353 374.639C238.353 374.639 246.784 372.335 249.983 373.311C251.94 373.887 254.031 373.824 255.949 373.129L258.967 358.552L262.921 353.793L252.7 346.208" fill="#FFBF9D"/>
<path d="M246.351 378.109C238.242 372.264 226.693 367.294 217.125 364.367C222.893 364.144 228.63 365.307 233.856 367.757C239.117 370.071 243.071 373.642 247.89 376.811" fill="#455A64"/>
<path d="M248.676 376.067C233.425 365.664 219.501 354.739 202.479 345.231C219.29 351.59 236.282 363.34 250.055 374.87" fill="#455A64"/>
<path d="M227.951 338.934C235.184 350.86 243.578 362.041 253.012 372.314L254.159 371.308C244.903 360.735 237.207 349.517 227.951 338.934Z" fill="#455A64"/>
<path d="M250.91 374.136C234.108 359.88 226.452 352.174 213.484 332.827C222.629 342.314 223.545 343.572 232.74 353.059C238.897 359.457 246.624 366.51 252.248 372.979" fill="#455A64"/>
<path d="M259.43 349.014C259.43 349.014 245.345 358.642 245.034 359.075C244.722 359.507 244.893 362.737 244.339 363.843C243.786 364.95 238.031 370.041 238.363 371.037C238.695 372.033 238.363 373.904 240.245 373.471C241.722 373.07 243.165 372.552 244.561 371.922C244.561 371.922 243.675 375.675 243.233 375.896C242.79 376.117 241.462 379.216 243.233 379.658C245.003 380.101 247.508 378.441 248.464 377.224C249.42 376.007 253.635 377.556 255.949 376.339C258.263 375.121 259.038 372.365 259.43 369.598C259.823 366.831 260.155 361.61 260.155 361.61L268.887 354.276L259.43 349.014Z" fill="#FFBF9D"/>
<path d="M247.891 360.242C247.503 361.124 246.922 361.907 246.191 362.536C245.58 363.285 244.81 363.89 243.938 364.306C244.463 363.514 245.092 362.797 245.809 362.173C246.409 361.435 247.11 360.785 247.891 360.242Z" fill="#FF9A6C"/>
<path d="M251.934 354.176C250.781 355.482 249.422 356.59 247.91 357.455C247.306 357.848 246.642 358.139 246.179 358.461C245.755 358.743 245.409 359.127 245.173 359.578C244.986 360.027 244.855 360.496 244.781 360.976C244.781 360.976 244.469 360.383 244.831 359.427C245.058 358.883 245.43 358.413 245.908 358.069C246.451 357.677 247.045 357.415 247.638 357.063C250.013 355.494 251.833 354.055 251.934 354.176Z" fill="#FF9A6C"/>
<path d="M247.246 369.357C247.377 369.417 246.854 370.544 245.667 371.419C245.001 372.017 244.137 372.347 243.242 372.345C243.242 372.194 244.248 371.821 245.355 370.996C246.462 370.171 247.115 369.276 247.246 369.357Z" fill="#FF9A6C"/>
<path d="M251.361 372.958C250.96 374.012 250.397 374.997 249.691 375.876C249.127 376.853 248.418 377.738 247.588 378.502C247.988 377.448 248.552 376.463 249.258 375.584C249.822 374.608 250.531 373.722 251.361 372.958Z" fill="#FF9A6C"/>
<path d="M255.405 373.099C255.428 373.99 255.111 374.857 254.52 375.524C253.655 376.721 252.508 377.254 252.508 377.133C252.508 377.013 253.323 376.319 254.118 375.222C254.912 374.125 255.254 373.059 255.405 373.099Z" fill="#FF9A6C"/>
<path d="M248.262 283.591C250.013 285.603 275.838 320.875 275.426 322.454L249.269 351.117L260.617 364.055C260.617 364.055 297.358 339.416 300.909 326.831C304.461 314.245 281.311 272.886 278.836 267.474C275.446 260.069 258.715 248.55 248.212 257.574C235.093 268.842 248.262 283.591 248.262 283.591Z" fill="#555555"/>
<path d="M248.263 283.591C248.084 283.413 247.917 283.225 247.76 283.027C247.448 282.645 246.995 282.072 246.452 281.277C244.853 278.956 243.65 276.386 242.89 273.671C242.352 271.707 242.181 269.661 242.387 267.635C242.524 266.473 242.797 265.332 243.202 264.234C243.664 263.059 244.262 261.941 244.983 260.904C245.769 259.803 246.673 258.79 247.679 257.886C248.73 256.89 249.928 256.062 251.231 255.431C254.113 254.127 257.329 253.747 260.436 254.345C263.827 254.975 267.063 256.26 269.963 258.128C273.167 260.068 275.943 262.638 278.122 265.683C281.724 272.504 285.497 279.768 289.239 287.545C291.1 291.438 292.952 295.462 294.702 299.617C296.523 303.858 298.124 308.19 299.501 312.595C300.203 314.869 300.764 317.184 301.181 319.527C301.664 321.928 301.664 324.4 301.181 326.801C300.375 329.148 299.156 331.332 297.579 333.25C296.043 335.202 294.39 337.06 292.63 338.813C287.668 343.71 282.402 348.29 276.865 352.526C271.482 356.721 266.1 360.634 260.768 364.266L260.577 364.387L260.436 364.216L249.098 351.268L248.957 351.107L249.098 350.946L275.255 322.324L275.205 322.404C275.164 322.226 275.1 322.053 275.014 321.891C274.92 321.688 274.816 321.49 274.702 321.298C274.491 320.905 274.259 320.523 274.028 320.141C273.565 319.376 273.082 318.642 272.609 317.907C271.654 316.449 270.708 315.05 269.772 313.682C267.914 310.966 266.14 308.417 264.45 306.036C261.09 301.277 258.152 297.203 255.748 293.873C250.939 287.223 248.212 283.591 248.212 283.591C248.212 283.591 248.404 283.792 248.756 284.225L250.265 286.166C251.573 287.887 253.484 290.442 255.919 293.752C258.354 297.062 261.311 301.116 264.702 305.825C266.392 308.199 268.193 310.734 270.064 313.461C271 314.819 271.955 316.217 272.921 317.676C273.394 318.41 273.927 319.145 274.35 319.909L275.044 321.076C275.155 321.278 275.265 321.479 275.366 321.69C275.498 321.928 275.574 322.193 275.587 322.465L275.537 322.515L249.44 351.208V350.886L260.849 363.904H260.527C265.839 360.282 271.221 356.369 276.623 352.183C282.139 347.955 287.387 343.388 292.338 338.511C294.08 336.767 295.72 334.923 297.247 332.988C298.782 331.128 299.971 329.009 300.759 326.73C301.207 324.403 301.19 322.009 300.708 319.688C300.299 317.368 299.745 315.077 299.048 312.827C297.68 308.432 296.089 304.111 294.28 299.879C292.539 295.724 290.698 291.71 288.847 287.806C285.125 280.039 281.332 272.715 277.78 265.975C275.629 262.974 272.891 260.442 269.732 258.53C266.879 256.682 263.695 255.405 260.356 254.767C257.322 254.164 254.177 254.516 251.351 255.774C250.077 256.387 248.903 257.191 247.87 258.158C246.877 259.044 245.983 260.036 245.204 261.116C244.485 262.127 243.89 263.221 243.434 264.375C243.033 265.45 242.756 266.568 242.609 267.705C242.394 269.709 242.551 271.735 243.072 273.681C243.801 276.384 244.967 278.95 246.522 281.277C247.045 282.082 247.528 282.665 247.78 283.058L248.263 283.591Z" fill="#263238"/>
<path d="M327.148 225.853C327.148 225.853 286.041 235.129 262.891 243.177C239.742 251.226 239.883 255.119 239.883 255.119L236.684 286.75C236.684 286.75 258.646 303.43 274.048 303.038C289.451 302.645 300.276 293.51 310.266 288.047C320.256 282.585 344.251 275.431 344.251 275.431C344.251 275.431 350.649 225.431 327.148 225.853Z" fill="#555555"/>
<path opacity="0.3" d="M276.975 264.456C276.975 264.456 292.226 278.822 298.373 295.17L293.162 297.977L276.975 264.456Z" fill="black"/>
<path d="M313.063 265.583C313.148 265.877 313.196 266.181 313.204 266.488C313.265 267.072 313.315 267.927 313.335 268.973C313.429 274.467 312.606 279.937 310.9 285.16C310.568 286.166 310.277 286.961 310.035 287.494C309.948 287.79 309.812 288.069 309.633 288.319C309.562 288.319 309.975 287.062 310.548 285.05C311.284 282.434 311.862 279.777 312.279 277.092C312.679 274.403 312.907 271.691 312.963 268.973C312.932 267.842 312.966 266.71 313.063 265.583Z" fill="#263238"/>
<path d="M334.189 280.653C334.189 280.653 381.765 263.49 386.906 247.705C388.234 243.681 376.846 236.638 373.023 234.053C362.077 226.548 339.712 222.926 329.209 225.099C329.229 225.069 344.471 253.882 334.189 280.653Z" fill="#455A64"/>
<path d="M369.401 243.097C369.361 243.271 369.293 243.438 369.2 243.59L368.496 244.938C368.194 245.532 367.811 246.246 367.328 247.051C366.846 247.856 366.322 248.791 365.689 249.787C364.441 251.8 362.841 254.123 360.95 256.618C359.059 259.113 356.835 261.729 354.35 264.355C351.865 266.981 349.32 269.295 346.926 271.327C344.531 273.359 342.278 275.039 340.336 276.357C339.33 277.051 338.465 277.615 337.68 278.138C336.895 278.661 336.201 279.074 335.668 279.396L334.35 280.16C334.203 280.264 334.04 280.342 333.867 280.391C333.998 280.271 334.139 280.164 334.29 280.07L335.557 279.224C336.111 278.872 336.795 278.43 337.569 277.886C338.344 277.343 339.229 276.77 340.165 276.055C342.087 274.687 344.29 272.957 346.664 270.935C349.038 268.912 351.533 266.568 354.018 263.973C356.503 261.377 358.697 258.751 360.618 256.297C362.54 253.842 364.149 251.548 365.427 249.566C366.091 248.56 366.634 247.675 367.127 246.88C367.62 246.085 368.043 245.391 368.375 244.818L369.149 243.52C369.22 243.372 369.305 243.23 369.401 243.097Z" fill="#263238"/>
<path d="M347.731 242.514C347.779 243.046 347.779 243.581 347.731 244.113C347.67 245.119 347.519 246.628 347.258 248.449C345.862 257.986 342.486 267.126 337.348 275.281C336.342 276.84 335.507 278.068 334.873 278.882C334.583 279.329 334.246 279.744 333.867 280.12C334.114 279.646 334.396 279.192 334.712 278.762C335.286 277.917 336.081 276.659 337.026 275.09C341.955 266.888 345.302 257.834 346.896 248.399C347.197 246.588 347.409 245.119 347.519 244.093C347.545 243.562 347.615 243.033 347.731 242.514Z" fill="#263238"/>
<g opacity="0.3">
<path d="M357.883 235.703C357.766 235.606 357.632 235.533 357.488 235.488C357.344 235.443 357.192 235.427 357.041 235.441C356.891 235.455 356.744 235.499 356.611 235.57C356.477 235.641 356.359 235.737 356.263 235.854C355.893 236.347 355.664 236.931 355.599 237.544C352.882 250.623 345.589 262.323 338.415 273.651C337.77 274.697 337.065 275.705 336.303 276.669C340.035 274.146 343.515 271.269 346.695 268.078C350.015 264.778 351.021 260.401 352.681 256.005C353.979 252.564 356.363 249.415 356.866 245.763C357.269 242.846 357.681 239.918 358.084 236.991C358.139 236.774 358.149 236.547 358.115 236.326C358.08 236.105 358.001 235.893 357.883 235.703Z" fill="black"/>
</g>
</svg>
