<svg width="346" height="345" viewBox="0 0 346 345" fill="none" xmlns="http://www.w3.org/2000/svg">
<path d="M172.238 344.531C229.047 344.531 275.1 341.517 275.1 337.799C275.1 334.08 229.047 331.066 172.238 331.066C115.429 331.066 69.3762 334.08 69.3762 337.799C69.3762 341.517 115.429 344.531 172.238 344.531Z" fill="black"/>
<path d="M70.1242 291.036C71.5605 291.657 75.069 291.582 75.069 291.582C75.069 291.582 74.3209 289.286 74.2536 289.144C73.5055 287.535 71.0518 284.88 69.0694 285.149C68.7383 285.201 68.4222 285.324 68.142 285.508C67.8618 285.692 67.624 285.933 67.4443 286.216C67.2646 286.499 67.1471 286.817 67.0997 287.149C67.0523 287.481 67.076 287.819 67.1692 288.141C67.4909 289.48 68.8973 290.498 70.1242 291.036Z" fill="black"/>
<path d="M71.3286 301.188C72.8248 301.404 75.9443 300.499 76.1987 300.439C76.7124 302.225 77.3447 303.975 78.0913 305.676C78.5252 306.671 78.989 307.666 79.4678 308.668C79.1835 308.257 78.9217 307.92 78.8768 307.831C77.7098 306.484 74.6651 304.561 72.8248 305.347C72.523 305.485 72.2537 305.685 72.0344 305.934C71.815 306.183 71.6506 306.476 71.5518 306.793C71.453 307.11 71.4221 307.444 71.4609 307.773C71.4998 308.103 71.6077 308.421 71.7775 308.706C72.4582 309.94 74.0816 310.554 75.4057 310.741C76.7298 310.928 79.4229 310.217 80.1336 309.992C80.3206 310.374 80.5001 310.741 80.6872 311.122C81.5998 312.932 82.505 314.728 83.3503 316.516C83.6421 317.144 83.9114 317.78 84.1882 318.408C83.9339 318.034 83.7169 317.728 83.6795 317.66C82.5125 316.314 79.4603 314.391 77.62 315.169C77.319 315.308 77.0506 315.509 76.8319 315.758C76.6132 316.007 76.4493 316.3 76.3506 316.616C76.2519 316.933 76.2207 317.266 76.2589 317.596C76.2972 317.925 76.4041 318.243 76.5727 318.528C77.2535 319.77 78.8843 320.376 80.2009 320.57C81.5175 320.765 83.9413 320.114 84.8016 319.882C85.056 320.533 85.3178 321.191 85.5497 321.835C85.6844 322.284 85.8564 322.695 85.9686 323.151C86.0809 323.608 86.2155 324.042 86.3427 324.483C86.5447 325.336 86.7616 326.218 86.9412 327.049C87.0683 327.632 87.1806 328.193 87.3002 328.754C87.0085 328.119 86.4175 326.899 86.3577 326.802C85.4076 325.306 82.6846 322.927 80.7545 323.421C80.4352 323.512 80.1386 323.669 79.8839 323.882C79.6293 324.096 79.4223 324.36 79.2763 324.658C79.1303 324.957 79.0486 325.282 79.0365 325.614C79.0244 325.946 79.0821 326.277 79.206 326.585C79.6922 327.909 81.2033 328.762 82.4826 329.151C83.8815 329.577 86.9711 329.151 87.375 329.151C87.5621 330.079 87.7341 330.984 87.8838 331.837C88.2204 333.722 88.4673 335.42 88.6318 336.849H89.941C89.7091 335.353 89.4098 333.602 89.0208 331.612C88.8338 330.67 88.6169 329.667 88.385 328.62C89.3202 328.246 90.232 327.817 91.1155 327.333C92.1404 328.44 94.7587 329.742 95.0953 329.907C94.7362 330.782 94.3846 331.627 94.033 332.428C93.2849 334.096 92.6266 335.57 92.0132 336.826H93.4345C93.9507 335.667 94.5267 334.35 95.1252 332.884C95.4918 332.001 95.8733 331.044 96.2399 330.056C96.6139 330.131 99.6885 330.759 101.125 330.438C102.419 330.138 103.998 329.405 104.574 328.119C104.721 327.822 104.804 327.497 104.818 327.166C104.831 326.835 104.775 326.505 104.652 326.197C104.529 325.889 104.342 325.611 104.105 325.38C103.867 325.149 103.583 324.971 103.272 324.857C101.379 324.221 98.4916 326.353 97.4293 327.804C97.3695 327.887 96.7934 328.882 96.4418 329.518C96.5915 329.114 96.7411 328.725 96.8907 328.306C97.1899 327.483 97.4667 326.652 97.7734 325.755C97.9006 325.321 98.0353 324.879 98.1699 324.438C98.3046 323.997 98.4018 323.518 98.5215 323.054C98.7834 321.969 98.9853 320.862 99.1724 319.74C99.9204 320.002 102.471 320.9 103.81 320.81C105.15 320.72 106.803 320.226 107.551 319.044C107.741 318.773 107.872 318.464 107.936 318.138C107.999 317.813 107.993 317.478 107.918 317.154C107.843 316.831 107.701 316.527 107.502 316.263C107.302 315.998 107.048 315.778 106.758 315.618C104.978 314.698 101.798 316.366 100.534 317.645C100.452 317.728 99.6511 318.73 99.2172 319.291C99.322 318.618 99.4342 317.945 99.5165 317.256C99.7633 315.274 99.9504 313.262 100.145 311.272C100.205 310.658 100.272 310.045 100.339 309.431C100.594 309.529 103.631 310.658 105.127 310.554C106.459 310.464 108.119 309.978 108.868 308.796C109.058 308.523 109.188 308.214 109.251 307.889C109.314 307.563 109.307 307.227 109.232 306.904C109.156 306.581 109.013 306.277 108.813 306.013C108.612 305.748 108.358 305.529 108.067 305.369C106.294 304.449 103.115 306.117 101.851 307.397C101.753 307.494 100.594 308.938 100.354 309.319C100.496 307.973 100.654 306.626 100.863 305.309C101.131 303.541 101.516 301.791 102.015 300.073C102.127 300.118 105.299 301.315 106.833 301.21C108.157 301.113 109.825 300.626 110.573 299.445C110.764 299.173 110.895 298.864 110.958 298.539C111.021 298.213 111.015 297.878 110.94 297.555C110.866 297.231 110.724 296.928 110.524 296.663C110.324 296.398 110.071 296.179 109.78 296.018C108 295.098 104.82 296.766 103.556 298.046C103.459 298.143 102.21 299.706 102.008 300.006C102.008 299.901 102.06 299.796 102.09 299.691C102.636 297.969 103.334 296.299 104.177 294.702C104.633 293.811 105.112 292.989 105.606 292.196C106.174 292.48 108.778 293.744 110.169 293.804C111.561 293.864 113.206 293.557 114.104 292.465C114.323 292.216 114.488 291.923 114.587 291.607C114.685 291.29 114.716 290.956 114.678 290.626C114.639 290.297 114.531 289.979 114.361 289.694C114.192 289.409 113.964 289.163 113.693 288.971C112.024 287.864 108.673 289.196 107.282 290.303C107.207 290.363 106.534 291.051 105.995 291.582C106.227 291.231 106.451 290.834 106.676 290.527C107.514 289.271 108.351 288.163 109.107 287.198C109.541 286.652 109.945 286.166 110.326 285.702C111.022 285.702 113.85 285.605 115.084 285.029C116.318 284.453 117.673 283.406 117.964 282.037C118.043 281.715 118.053 281.38 117.994 281.054C117.935 280.728 117.809 280.417 117.622 280.143C117.436 279.869 117.195 279.637 116.914 279.462C116.632 279.287 116.317 279.172 115.989 279.127C113.999 278.917 111.643 281.64 110.917 283.263C110.85 283.406 110.124 285.725 110.169 285.725H110.214C109.833 286.151 109.466 286.607 109.017 287.124C108.269 288.081 107.364 289.166 106.504 290.408C105.555 291.739 104.685 293.125 103.9 294.56C103.002 296.156 102.251 297.831 101.656 299.564C101.656 299.564 101.656 299.609 101.656 299.632C101.656 299.048 101.656 297.387 101.619 297.283C101.394 295.51 99.913 292.233 97.9455 291.866C97.616 291.814 97.2793 291.833 96.9574 291.921C96.6356 292.008 96.3361 292.163 96.0787 292.376C95.8213 292.588 95.6119 292.852 95.4643 293.151C95.3167 293.45 95.2343 293.777 95.2225 294.111C95.1028 295.517 96.1202 296.923 97.1151 297.851C98.2373 298.854 101.349 299.819 101.604 299.893C101.047 301.673 100.608 303.487 100.287 305.324C100.1 306.394 99.9429 307.471 99.7933 308.564C99.7933 308.055 99.7933 307.599 99.7933 307.539C99.5614 305.766 98.0802 302.489 96.1127 302.123C95.7832 302.071 95.4464 302.089 95.1246 302.177C94.8028 302.265 94.5033 302.42 94.2459 302.632C93.9885 302.844 93.7791 303.108 93.6315 303.407C93.4839 303.707 93.4015 304.034 93.3897 304.367C93.27 305.773 94.2948 307.18 95.2823 308.07C96.2698 308.96 98.9255 309.85 99.6287 310.075L99.4716 311.324C99.2322 313.329 99.0003 315.326 98.7235 317.309C98.6263 317.997 98.4991 318.67 98.3794 319.351C98.3794 318.902 98.3794 318.521 98.3794 318.461C98.155 316.695 96.6738 313.411 94.7063 313.045C94.3772 312.995 94.0413 313.015 93.7205 313.104C93.3997 313.193 93.1012 313.348 92.8443 313.56C92.5875 313.771 92.3781 314.035 92.2297 314.333C92.0814 314.631 91.9974 314.956 91.9833 315.289C91.8636 316.688 92.881 318.102 93.8759 318.985C94.8709 319.867 97.2647 320.683 98.0951 320.952C97.953 321.64 97.8034 322.328 97.6313 322.987C97.5041 323.436 97.4144 323.877 97.2573 324.318C97.1002 324.76 96.973 325.201 96.8383 325.635C96.5391 326.458 96.2324 327.311 95.9182 328.111C95.7087 328.665 95.4918 329.188 95.2748 329.72C95.387 329.039 95.5666 327.692 95.5741 327.573C95.5535 325.995 95.1285 324.45 94.3397 323.084C94.3548 322.91 94.3548 322.735 94.3397 322.56C94.2984 322.231 94.1879 321.913 94.0157 321.629C93.8434 321.345 93.6132 321.1 93.34 320.911C93.0668 320.722 92.7568 320.593 92.4303 320.531C92.1037 320.47 91.7678 320.478 91.4446 320.555C89.5146 321.064 88.2952 324.453 88.2054 326.233C88.2054 326.338 88.2653 327.49 88.3176 328.208C88.2204 327.789 88.1306 327.385 88.0259 326.952C87.8239 326.099 87.5995 325.253 87.3601 324.341L86.9561 323.017C86.8364 322.575 86.6494 322.119 86.4923 321.67C86.1108 320.623 85.6694 319.583 85.2056 318.551C85.9537 318.371 88.6019 317.698 89.6941 316.882C90.7863 316.067 91.8187 314.608 91.8187 313.217C91.8281 312.885 91.7676 312.555 91.641 312.248C91.5144 311.941 91.3246 311.664 91.084 311.436C90.8433 311.207 90.5572 311.032 90.2443 310.921C89.9314 310.81 89.5986 310.767 89.2677 310.793C87.2853 311.01 85.5273 314.174 85.1981 315.917C85.1981 316.03 85.056 317.309 85.0111 318.019C84.7268 317.399 84.4426 316.778 84.1358 316.157C83.2456 314.369 82.2955 312.588 81.353 310.808C81.0612 310.262 80.7769 309.708 80.4927 309.162C80.762 309.102 83.9189 308.369 85.1084 307.457C86.1706 306.649 87.2928 305.324 87.2778 303.911C87.2862 303.579 87.2249 303.25 87.0978 302.944C86.9707 302.638 86.7808 302.362 86.5403 302.134C86.2997 301.907 86.014 301.732 85.7016 301.622C85.3892 301.511 85.0571 301.468 84.7268 301.494C82.7444 301.704 80.9864 304.868 80.6572 306.619C80.6572 306.746 80.4627 308.594 80.4403 309.065C79.8194 307.86 79.206 306.656 78.6524 305.444C77.8949 303.809 77.2427 302.128 76.6999 300.41C76.827 300.41 80.1261 299.661 81.3455 298.696C82.4003 297.881 83.5224 296.557 83.5149 295.15C83.5233 294.818 83.4618 294.488 83.3344 294.181C83.2069 293.874 83.0164 293.598 82.7752 293.369C82.534 293.141 82.2474 292.965 81.9341 292.855C81.6208 292.744 81.2877 292.7 80.9565 292.727C78.974 292.944 77.2161 296.108 76.8944 297.851C76.8944 297.993 76.6849 299.976 76.6774 300.335C76.6774 300.237 76.6026 300.14 76.5727 300.035C76.0788 298.299 75.7409 296.521 75.5628 294.724C75.4506 293.729 75.3982 292.779 75.3758 291.844C76.0042 291.769 78.8768 291.388 80.0663 290.669C81.2557 289.951 82.4601 288.784 82.6097 287.378C82.6549 287.051 82.6312 286.719 82.5404 286.402C82.4495 286.086 82.2934 285.791 82.082 285.538C81.8707 285.285 81.6088 285.08 81.3132 284.934C81.0176 284.788 80.6948 284.706 80.3655 284.692C78.3681 284.692 76.3109 287.647 75.7573 289.338C75.7573 289.435 75.5254 290.408 75.3907 291.118C75.3907 290.692 75.3907 290.266 75.3907 289.862C75.3907 288.365 75.488 286.966 75.5777 285.74C75.6376 285.044 75.7049 284.415 75.7797 283.832C76.3558 283.435 78.6673 281.805 79.378 280.638C80.0887 279.471 80.6348 277.862 80.1261 276.546C80.0143 276.233 79.8381 275.948 79.6089 275.709C79.3797 275.469 79.1027 275.28 78.7958 275.155C78.4889 275.029 78.159 274.969 77.8275 274.98C77.4961 274.99 77.1705 275.07 76.8719 275.214C75.099 276.127 74.6277 279.703 74.9269 281.461C74.9269 281.61 75.6226 283.944 75.675 283.922C75.6002 284.483 75.5254 285.089 75.4506 285.755C75.3309 286.974 75.2037 288.358 75.1663 289.876C75.1115 291.511 75.1515 293.147 75.286 294.776C75.4282 296.6 75.7311 298.407 76.1912 300.178V300.245C75.877 299.751 74.9493 298.397 74.8671 298.3C73.7 296.953 70.6553 295.031 68.8151 295.816C68.5133 295.954 68.2439 296.155 68.0246 296.404C67.8053 296.653 67.6409 296.945 67.5421 297.262C67.4433 297.579 67.4123 297.913 67.4512 298.243C67.4901 298.572 67.5979 298.89 67.7677 299.175C68.3886 300.395 70.012 300.993 71.3286 301.188Z" fill="black"/>
<path d="M105.583 291.806C105.583 291.806 106.219 289.472 106.242 289.323C106.489 287.557 105.927 283.996 104.125 283.129C103.822 282.992 103.494 282.922 103.163 282.92C102.831 282.919 102.503 282.988 102.199 283.122C101.896 283.256 101.624 283.453 101.402 283.699C101.179 283.945 101.011 284.235 100.908 284.55C100.429 285.874 101.035 287.505 101.761 288.619C102.613 289.921 105.583 291.799 105.583 291.806Z" fill="black"/>
<path d="M244.211 297.126C245.46 297.672 248.498 297.597 248.498 297.597C248.498 297.597 247.847 295.607 247.787 295.487C247.121 294.096 245.012 291.792 243.298 292.024C243.014 292.069 242.743 292.174 242.502 292.331C242.261 292.489 242.056 292.696 241.901 292.938C241.745 293.18 241.643 293.453 241.6 293.737C241.557 294.022 241.575 294.312 241.653 294.59C241.937 295.779 243.156 296.654 244.211 297.126Z" fill="black"/>
<path d="M245.266 305.93C246.553 306.118 249.268 305.332 249.478 305.265C249.927 306.817 250.477 308.339 251.123 309.821C251.497 310.688 251.871 311.541 252.32 312.401C252.066 312.035 251.849 311.713 251.812 311.653C250.794 310.479 248.153 308.818 246.575 309.491C246.314 309.611 246.081 309.785 245.891 310.001C245.702 310.217 245.56 310.47 245.474 310.745C245.389 311.019 245.362 311.309 245.396 311.594C245.43 311.879 245.523 312.154 245.67 312.401C246.253 313.479 247.667 314.01 248.812 314.174C249.956 314.339 252.298 313.718 252.911 313.546L253.398 314.526C254.146 316.09 254.968 317.646 255.702 319.202C255.956 319.748 256.188 320.294 256.45 320.84L256.008 320.211C254.991 319.044 252.35 317.376 250.772 318.049C250.51 318.169 250.276 318.343 250.085 318.56C249.895 318.776 249.752 319.031 249.667 319.306C249.582 319.581 249.555 319.872 249.59 320.158C249.624 320.444 249.718 320.72 249.867 320.967C250.45 322.037 251.864 322.568 253.009 322.732C254.153 322.897 256.263 322.336 256.996 322.134C257.22 322.703 257.445 323.271 257.632 323.832C257.759 324.214 257.901 324.58 258.006 324.969C258.11 325.358 258.215 325.717 258.327 326.121C258.499 326.869 258.686 327.618 258.844 328.366C258.956 328.874 259.053 329.353 259.15 329.862C258.903 329.316 258.402 328.253 258.342 328.171C257.519 326.862 255.156 324.82 253.48 325.246C253.203 325.324 252.945 325.459 252.724 325.643C252.503 325.828 252.323 326.057 252.197 326.315C252.071 326.574 252 326.856 251.99 327.144C251.981 327.431 252.032 327.718 252.141 327.984C252.56 329.136 253.869 329.869 254.976 330.228C256.195 330.602 258.888 330.266 259.225 330.228C259.382 331.029 259.532 331.814 259.659 332.555C259.951 334.193 260.168 335.659 260.332 336.901H261.469C261.267 335.622 261.013 334.088 260.669 332.368C260.512 331.552 260.325 330.677 260.123 329.787C260.931 329.461 261.721 329.088 262.487 328.672C263.531 329.575 264.694 330.33 265.943 330.917C265.629 331.665 265.322 332.413 265.023 333.101C264.394 334.545 263.796 335.831 263.272 336.916H264.499C264.948 335.914 265.449 334.769 265.995 333.497C266.317 332.749 266.639 331.897 266.96 331.044C267.289 331.111 269.953 331.657 271.194 331.373C272.324 331.119 273.686 330.483 274.187 329.368C274.313 329.109 274.384 328.827 274.395 328.539C274.406 328.252 274.356 327.965 274.249 327.698C274.141 327.43 273.979 327.189 273.773 326.988C273.566 326.787 273.32 326.632 273.05 326.533C271.411 325.987 268.905 327.849 267.985 329.091C267.933 329.166 267.432 330.026 267.125 330.587C267.26 330.236 267.387 329.899 267.521 329.533C267.783 328.822 268.023 328.104 268.269 327.326C268.382 326.944 268.494 326.578 268.614 326.181C268.733 325.785 268.816 325.381 268.92 324.977C269.145 324.042 269.324 323.084 269.481 322.112C270.11 322.336 272.347 323.114 273.499 323.032C274.651 322.949 276.102 322.531 276.768 321.536C276.936 321.299 277.053 321.03 277.11 320.745C277.167 320.461 277.163 320.167 277.098 319.884C277.033 319.601 276.908 319.336 276.733 319.104C276.557 318.873 276.334 318.682 276.079 318.543C274.538 317.75 271.778 319.209 270.686 320.301C270.611 320.369 269.938 321.244 269.541 321.73C269.631 321.139 269.728 320.556 269.803 319.965C270.013 318.244 270.177 316.501 270.349 314.728C270.401 314.197 270.454 313.666 270.514 313.135C270.738 313.217 273.371 314.204 274.666 314.107C275.818 314.032 277.261 313.606 277.935 312.611C278.103 312.374 278.219 312.105 278.276 311.82C278.332 311.535 278.327 311.241 278.261 310.958C278.196 310.675 278.07 310.409 277.894 310.178C277.718 309.947 277.495 309.757 277.239 309.619C275.743 308.826 272.945 310.284 271.845 311.377C271.763 311.459 270.761 312.716 270.521 313.045C270.648 311.878 270.783 310.711 270.963 309.574C271.193 308.027 271.525 306.498 271.958 304.995C272.062 305.033 274.808 306.073 276.132 305.975C277.284 305.901 278.735 305.474 279.401 304.479C279.57 304.243 279.686 303.974 279.743 303.689C279.8 303.404 279.796 303.111 279.731 302.828C279.666 302.545 279.541 302.279 279.366 302.048C279.19 301.817 278.968 301.626 278.713 301.487C277.172 300.694 274.411 302.153 273.319 303.245C273.229 303.335 272.152 304.681 271.972 304.943C271.972 304.853 272.017 304.763 272.04 304.674C272.517 303.182 273.126 301.735 273.858 300.35C274.247 299.602 274.666 298.854 275.092 298.173C275.586 298.42 277.845 299.519 279.049 299.564C280.254 299.609 281.683 299.355 282.461 298.405C282.65 298.188 282.791 297.934 282.876 297.66C282.961 297.385 282.987 297.096 282.953 296.81C282.92 296.525 282.826 296.25 282.68 296.002C282.533 295.755 282.336 295.541 282.102 295.375C280.658 294.417 277.755 295.57 276.543 296.535C276.483 296.587 275.87 297.193 275.436 297.642C275.631 297.335 275.825 297.013 276.02 296.729C276.768 295.637 277.516 294.679 278.129 293.841C278.503 293.363 278.877 292.944 279.184 292.555C279.79 292.555 282.244 292.465 283.313 291.964C284.383 291.463 285.558 290.557 285.812 289.36C285.88 289.081 285.888 288.79 285.836 288.507C285.784 288.224 285.674 287.955 285.512 287.718C285.349 287.48 285.139 287.279 284.895 287.128C284.65 286.977 284.376 286.878 284.091 286.839C282.371 286.652 280.351 289.009 279.7 290.423C279.64 290.55 279.012 292.555 279.042 292.555H279.079C278.758 292.921 278.406 293.303 278.039 293.767C277.366 294.597 276.618 295.54 275.863 296.617C275.044 297.771 274.295 298.973 273.618 300.215C272.849 301.605 272.203 303.059 271.688 304.562C271.691 304.579 271.691 304.597 271.688 304.614C271.688 304.105 271.688 302.684 271.688 302.579C271.486 301.083 270.192 298.195 268.494 297.881C268.21 297.838 267.92 297.855 267.643 297.931C267.366 298.006 267.108 298.14 266.886 298.322C266.664 298.504 266.482 298.73 266.353 298.987C266.225 299.243 266.151 299.524 266.137 299.811C266.033 301.031 266.885 302.25 267.776 303.02C268.748 303.888 271.449 304.726 271.666 304.793C271.179 306.334 270.797 307.906 270.521 309.499C270.357 310.427 270.222 311.362 270.095 312.304C270.095 311.863 270.095 311.474 270.095 311.421C269.893 309.888 268.599 307.038 266.908 306.723C266.623 306.679 266.333 306.695 266.055 306.77C265.777 306.846 265.518 306.979 265.295 307.161C265.072 307.343 264.89 307.57 264.761 307.827C264.631 308.084 264.557 308.366 264.544 308.654C264.439 309.873 265.329 311.092 266.19 311.855C267.05 312.618 269.347 313.404 269.93 313.598L269.796 314.683C269.586 316.419 269.384 318.154 269.137 319.852C269.055 320.451 268.943 321.034 268.838 321.618C268.838 321.229 268.838 320.87 268.838 320.87C268.643 319.374 267.342 316.486 265.651 316.172C265.367 316.127 265.076 316.143 264.798 316.219C264.52 316.294 264.261 316.427 264.038 316.609C263.815 316.791 263.633 317.018 263.504 317.276C263.374 317.533 263.301 317.814 263.287 318.102C263.19 319.321 264.073 320.541 264.933 321.304C266.057 322.059 267.291 322.634 268.591 323.009C268.464 323.608 268.337 324.206 268.187 324.775C268.082 325.164 268 325.523 267.865 325.934C267.731 326.346 267.619 326.682 267.499 327.071C267.237 327.782 266.975 328.523 266.706 329.218C266.519 329.697 266.332 330.154 266.145 330.617C266.242 330.019 266.399 328.852 266.407 328.755C266.387 327.395 266.018 326.064 265.337 324.887C265.348 324.735 265.348 324.583 265.337 324.431C265.301 324.145 265.205 323.871 265.055 323.625C264.906 323.38 264.707 323.168 264.471 323.004C264.234 322.841 263.966 322.729 263.684 322.675C263.401 322.622 263.111 322.629 262.831 322.695C261.155 323.136 260.093 326.076 260.018 327.618C260.018 327.707 260.07 328.702 260.123 329.331C260.033 328.964 259.958 328.583 259.868 328.238C259.689 327.49 259.494 326.742 259.285 325.994C259.173 325.62 259.053 325.246 258.941 324.85C258.829 324.453 258.672 324.101 258.537 323.683C258.2 322.777 257.826 321.872 257.422 320.975C258.073 320.825 260.362 320.226 261.282 319.531C262.202 318.835 263.168 317.675 263.16 316.456C263.169 316.165 263.116 315.876 263.004 315.608C262.892 315.339 262.725 315.097 262.512 314.898C262.3 314.7 262.048 314.548 261.773 314.454C261.497 314.36 261.205 314.326 260.916 314.354C259.195 314.541 257.699 317.286 257.392 318.798C257.392 318.895 257.265 320.009 257.228 320.615C256.981 320.084 256.734 319.538 256.48 319.007C255.732 317.458 254.879 315.91 254.063 314.369C253.809 313.89 253.57 313.419 253.315 312.948C253.54 312.888 256.308 312.259 257.317 311.451C258.23 310.748 259.203 309.596 259.195 308.377C259.204 308.086 259.151 307.797 259.039 307.528C258.927 307.26 258.76 307.018 258.548 306.819C258.335 306.62 258.083 306.469 257.808 306.375C257.533 306.281 257.24 306.247 256.951 306.275C255.23 306.462 253.734 309.207 253.42 310.718C253.42 310.83 253.255 312.431 253.24 312.843C252.694 311.795 252.163 310.756 251.684 309.701C251.027 308.285 250.462 306.828 249.994 305.34C250.098 305.34 252.986 304.659 254.018 303.843C254.939 303.14 255.904 301.988 255.896 300.769C255.905 300.478 255.852 300.189 255.74 299.92C255.628 299.652 255.461 299.41 255.249 299.211C255.036 299.012 254.784 298.861 254.509 298.767C254.234 298.673 253.941 298.639 253.652 298.667C251.931 298.854 250.435 301.599 250.128 303.11C250.128 303.23 249.949 304.958 249.941 305.265C249.941 305.182 249.874 305.093 249.852 305.01C249.424 303.503 249.131 301.961 248.976 300.402C248.879 299.542 248.834 298.711 248.812 297.904C249.358 297.836 251.849 297.507 252.874 296.886C253.899 296.265 254.961 295.248 255.081 294.028C255.121 293.744 255.1 293.454 255.021 293.177C254.941 292.901 254.804 292.644 254.618 292.425C254.432 292.205 254.202 292.027 253.943 291.903C253.683 291.778 253.401 291.71 253.113 291.702C251.378 291.702 249.597 294.26 249.118 295.734C249.118 295.816 248.916 296.654 248.804 297.268C248.804 296.909 248.804 296.52 248.804 296.183C248.804 294.874 248.894 293.677 248.976 292.615C249.021 292.009 249.081 291.463 249.141 290.954C249.642 290.61 251.647 289.196 252.26 288.186C252.874 287.176 253.36 285.777 252.911 284.64C252.814 284.369 252.661 284.121 252.462 283.913C252.263 283.705 252.022 283.54 251.755 283.431C251.489 283.322 251.202 283.27 250.914 283.278C250.626 283.287 250.343 283.356 250.083 283.48C248.55 284.273 248.146 287.371 248.4 288.897C248.4 289.031 248.999 291.051 249.029 291.036C248.961 291.522 248.894 292.046 248.834 292.622C248.729 293.684 248.617 294.866 248.587 296.198C248.536 297.615 248.568 299.034 248.685 300.447C248.807 302.031 249.072 303.601 249.478 305.138C249.475 305.155 249.475 305.173 249.478 305.19C249.201 304.763 248.4 303.589 248.333 303.507C247.316 302.34 244.675 300.671 243.096 301.345C242.835 301.466 242.602 301.64 242.412 301.857C242.223 302.073 242.081 302.327 241.995 302.602C241.91 302.877 241.883 303.167 241.917 303.453C241.951 303.739 242.044 304.015 242.191 304.262C242.707 305.235 244.121 305.766 245.266 305.93Z" fill="black"/>
<path d="M274.965 297.791C274.965 297.791 275.511 295.771 275.533 295.644C275.743 294.148 275.257 291.021 273.701 290.273C273.438 290.155 273.154 290.093 272.866 290.092C272.578 290.091 272.293 290.151 272.03 290.267C271.767 290.384 271.531 290.555 271.338 290.768C271.145 290.982 270.999 291.234 270.91 291.507C270.491 292.652 271.023 294.066 271.658 295.031C272.384 296.175 274.957 297.791 274.965 297.791Z" fill="black"/>
<path d="M210.158 304.741C211.18 305.009 212.237 305.125 213.293 305.085C213.293 305.085 212.814 303.626 212.777 303.544C212.29 302.519 210.742 300.836 209.485 301C209.276 301.034 209.077 301.111 208.9 301.227C208.723 301.342 208.573 301.494 208.459 301.673C208.346 301.851 208.271 302.051 208.24 302.26C208.209 302.469 208.223 302.682 208.281 302.886C208.442 303.312 208.693 303.698 209.017 304.018C209.341 304.338 209.73 304.585 210.158 304.741Z" fill="black"/>
<path d="M210.929 311.182C211.975 311.174 213.013 311.01 214.011 310.696C214.338 311.834 214.74 312.948 215.215 314.032C215.495 314.661 215.786 315.289 216.091 315.918C215.911 315.648 215.746 315.416 215.716 315.387C214.968 314.526 213.046 313.307 211.879 313.808C211.688 313.895 211.517 314.022 211.378 314.179C211.239 314.337 211.135 314.521 211.072 314.722C211.009 314.922 210.989 315.134 211.014 315.342C211.038 315.551 211.106 315.752 211.213 315.933C211.478 316.303 211.821 316.611 212.218 316.835C212.614 317.059 213.055 317.192 213.51 317.227C214.525 317.23 215.534 317.076 216.502 316.77L216.861 317.519C217.437 318.663 218.013 319.763 218.544 320.937C218.731 321.334 218.903 321.738 219.075 322.142C218.918 321.902 218.776 321.708 218.754 321.678C218.006 320.825 216.076 319.606 214.916 320.099C214.724 320.186 214.552 320.313 214.413 320.471C214.273 320.629 214.168 320.815 214.105 321.016C214.042 321.218 214.023 321.43 214.048 321.639C214.073 321.849 214.142 322.051 214.25 322.231C214.516 322.601 214.859 322.908 215.256 323.132C215.652 323.355 216.093 323.49 216.547 323.526C217.536 323.532 218.521 323.383 219.464 323.084C219.629 323.503 219.794 323.915 219.936 324.326C220.025 324.61 220.13 324.872 220.205 325.164C220.28 325.456 220.362 325.725 220.437 326.009C220.572 326.548 220.706 327.109 220.818 327.64C220.901 328.007 220.976 328.388 221.043 328.717C220.863 328.313 220.489 327.535 220.452 327.476C219.846 326.518 218.118 325.022 216.891 325.336C216.688 325.393 216.5 325.492 216.338 325.627C216.176 325.762 216.045 325.93 215.952 326.119C215.86 326.308 215.808 326.515 215.801 326.726C215.794 326.936 215.831 327.146 215.911 327.341C216.119 327.746 216.413 328.101 216.772 328.381C217.131 328.662 217.547 328.861 217.991 328.964C219.019 329.122 220.066 329.122 221.095 328.964C221.215 329.555 221.327 330.131 221.417 330.67C221.626 331.867 221.791 332.914 221.911 333.857H222.734C222.591 332.914 222.397 331.792 222.15 330.535C222.03 329.937 221.896 329.301 221.746 328.643C222.34 328.405 222.92 328.133 223.482 327.827C224.243 328.484 225.092 329.032 226.003 329.458C225.778 330.012 225.554 330.558 225.337 331.059C224.873 332.114 224.439 333.056 224.05 333.857H224.978C225.314 333.109 225.673 332.278 226.055 331.351C226.287 330.79 226.526 330.184 226.758 329.555C227.775 329.794 228.822 329.875 229.863 329.795C230.315 329.72 230.745 329.547 231.124 329.289C231.503 329.03 231.82 328.692 232.055 328.298C232.148 328.11 232.201 327.903 232.21 327.693C232.218 327.482 232.182 327.272 232.103 327.076C232.025 326.881 231.906 326.704 231.755 326.557C231.603 326.411 231.422 326.298 231.224 326.226C230.02 325.822 228.187 327.184 227.484 328.096C227.446 328.149 227.08 328.777 226.855 329.181C226.953 328.927 227.05 328.68 227.147 328.433C227.334 327.917 227.514 327.386 227.701 326.817C227.783 326.54 227.873 326.264 227.955 325.979C228.037 325.695 228.105 325.396 228.18 325.104C228.344 324.416 228.479 323.713 228.591 323.002C229.531 323.374 230.523 323.601 231.531 323.675C231.987 323.675 232.438 323.576 232.851 323.383C233.265 323.191 233.631 322.91 233.925 322.561C234.047 322.388 234.13 322.192 234.171 321.984C234.211 321.777 234.207 321.564 234.159 321.358C234.111 321.152 234.02 320.959 233.892 320.791C233.764 320.623 233.602 320.485 233.416 320.384C232.294 319.808 230.274 320.877 229.474 321.67C229.421 321.723 228.913 322.359 228.636 322.718C228.703 322.291 228.771 321.865 228.823 321.424C228.98 320.167 229.1 318.895 229.227 317.623C229.264 317.227 229.302 316.838 229.347 316.456C230.318 316.843 231.342 317.083 232.384 317.167C232.84 317.164 233.29 317.062 233.704 316.868C234.117 316.674 234.483 316.393 234.778 316.045C234.898 315.872 234.981 315.677 235.02 315.47C235.06 315.264 235.056 315.051 235.008 314.847C234.96 314.642 234.869 314.45 234.742 314.282C234.615 314.115 234.453 313.976 234.269 313.875C233.147 313.292 231.127 314.362 230.327 315.162C230.259 315.222 229.526 316.142 229.354 316.381C229.444 315.529 229.541 314.676 229.676 313.838C229.853 312.706 230.103 311.586 230.424 310.487C231.4 310.888 232.432 311.14 233.483 311.235C233.939 311.232 234.388 311.131 234.8 310.937C235.213 310.743 235.578 310.462 235.87 310.113C235.992 309.94 236.076 309.744 236.117 309.537C236.158 309.331 236.155 309.117 236.107 308.912C236.06 308.706 235.97 308.513 235.842 308.345C235.715 308.176 235.554 308.037 235.369 307.936C234.239 307.36 232.219 308.429 231.419 309.23C231.359 309.29 230.566 310.277 230.439 310.464C230.439 310.404 230.439 310.337 230.491 310.27C230.835 309.177 231.279 308.118 231.815 307.105C232.1 306.544 232.406 306.02 232.72 305.519C233.628 306.003 234.604 306.346 235.616 306.537C236.069 306.583 236.527 306.53 236.958 306.383C237.389 306.236 237.784 305.998 238.114 305.684C238.259 305.526 238.367 305.338 238.433 305.134C238.499 304.93 238.52 304.715 238.495 304.502C238.47 304.289 238.4 304.084 238.289 303.901C238.178 303.718 238.029 303.56 237.852 303.44C236.79 302.736 234.665 303.582 233.783 304.285C233.738 304.322 233.289 304.764 232.967 305.093C233.109 304.868 233.259 304.637 233.401 304.427C233.932 303.627 234.463 302.931 234.942 302.31L235.69 301.367C236.704 301.377 237.713 301.233 238.683 300.941C239.108 300.776 239.492 300.52 239.808 300.19C240.123 299.861 240.362 299.466 240.508 299.033C240.559 298.829 240.567 298.617 240.531 298.409C240.494 298.202 240.414 298.004 240.297 297.83C240.179 297.656 240.025 297.508 239.846 297.397C239.668 297.286 239.467 297.214 239.259 297.186C237.994 297.051 236.498 298.779 236.034 299.811C236.034 299.901 235.533 301.375 235.563 301.375C235.324 301.652 235.069 301.943 234.815 302.265C234.329 302.871 233.775 303.559 233.222 304.352C232.623 305.2 232.072 306.079 231.568 306.986C231.028 307.99 230.575 309.038 230.214 310.12V310.157C230.214 309.791 230.214 308.751 230.214 308.661C230.065 307.539 229.122 305.459 227.88 305.228C227.672 305.194 227.459 305.204 227.255 305.258C227.051 305.312 226.861 305.409 226.697 305.542C226.533 305.675 226.399 305.84 226.304 306.029C226.209 306.217 226.155 306.423 226.145 306.634C226.164 307.089 226.281 307.535 226.489 307.941C226.697 308.346 226.99 308.702 227.349 308.983C228.227 309.555 229.185 309.994 230.192 310.285C229.838 311.412 229.561 312.561 229.362 313.726C229.242 314.407 229.137 315.087 229.047 315.783C229.047 315.461 229.047 315.17 229.047 315.132C228.898 314.01 227.955 311.923 226.713 311.698C226.505 311.664 226.291 311.675 226.087 311.73C225.882 311.784 225.692 311.882 225.528 312.015C225.364 312.149 225.23 312.316 225.135 312.505C225.04 312.694 224.987 312.901 224.978 313.112C224.994 313.568 225.11 314.015 225.319 314.421C225.527 314.827 225.822 315.182 226.182 315.461C227.03 316.023 227.958 316.451 228.935 316.733C228.935 316.995 228.868 317.264 228.838 317.526C228.681 318.798 228.539 320.07 228.352 321.311C228.292 321.745 228.209 322.179 228.135 322.606C228.135 322.321 228.135 322.082 228.135 322.044C227.993 320.922 227.05 318.835 225.801 318.603C225.592 318.57 225.38 318.582 225.176 318.637C224.973 318.692 224.783 318.79 224.62 318.923C224.457 319.057 224.324 319.223 224.229 319.412C224.135 319.6 224.082 319.807 224.073 320.017C224.091 320.473 224.208 320.919 224.416 321.324C224.624 321.73 224.918 322.085 225.277 322.366C226.1 322.916 227.004 323.335 227.955 323.608C227.858 324.049 227.768 324.483 227.656 324.902C227.581 325.186 227.521 325.471 227.424 325.748L227.155 326.585C226.96 327.109 226.773 327.648 226.571 328.156C226.437 328.508 226.302 328.837 226.167 329.174C226.235 328.74 226.347 327.887 226.354 327.812C226.348 326.822 226.091 325.849 225.606 324.984C225.621 324.873 225.621 324.76 225.606 324.648C225.58 324.439 225.511 324.238 225.402 324.057C225.293 323.877 225.147 323.722 224.974 323.602C224.801 323.482 224.605 323.4 224.398 323.361C224.191 323.322 223.978 323.327 223.773 323.376C222.554 323.705 221.776 325.852 221.716 326.982C221.716 327.049 221.754 327.775 221.791 328.239C221.731 327.969 221.671 327.707 221.604 327.438C221.477 326.9 221.335 326.361 221.178 325.777C221.095 325.508 221.013 325.224 220.923 324.94C220.833 324.655 220.729 324.371 220.631 324.087C220.392 323.421 220.108 322.763 219.816 322.104C220.807 321.9 221.761 321.544 222.644 321.05C223.02 320.796 223.338 320.464 223.576 320.077C223.813 319.69 223.965 319.256 224.02 318.805C224.026 318.594 223.988 318.385 223.907 318.19C223.826 317.995 223.705 317.82 223.552 317.675C223.399 317.53 223.217 317.419 223.018 317.35C222.818 317.28 222.607 317.254 222.397 317.272C221.14 317.406 220.04 319.411 219.816 320.518C219.816 320.593 219.726 321.401 219.696 321.85C219.517 321.461 219.337 321.064 219.143 320.668C218.582 319.538 217.976 318.424 217.377 317.279L216.831 316.239C217.854 316.024 218.84 315.658 219.756 315.155C220.135 314.903 220.454 314.572 220.691 314.184C220.929 313.796 221.08 313.362 221.133 312.91C221.139 312.7 221.1 312.491 221.02 312.297C220.94 312.103 220.819 311.928 220.667 311.783C220.515 311.638 220.333 311.527 220.135 311.457C219.937 311.387 219.726 311.36 219.517 311.377C218.252 311.511 217.16 313.516 216.936 314.623C216.936 314.713 216.809 315.88 216.801 316.179C216.405 315.431 216.016 314.683 215.664 313.883C215.179 312.847 214.764 311.78 214.422 310.689C215.454 310.474 216.447 310.105 217.37 309.596C217.749 309.346 218.069 309.015 218.307 308.627C218.545 308.239 218.695 307.804 218.746 307.352C218.753 307.141 218.716 306.93 218.635 306.734C218.555 306.539 218.434 306.362 218.281 306.217C218.128 306.071 217.945 305.96 217.745 305.89C217.546 305.82 217.334 305.793 217.123 305.811C215.866 305.953 214.774 307.958 214.542 309.065C214.542 309.155 214.415 310.412 214.407 310.644C214.388 310.578 214.366 310.513 214.34 310.449C214.028 309.346 213.816 308.217 213.704 307.075C213.629 306.447 213.599 305.841 213.577 305.257C214.607 305.161 215.616 304.909 216.569 304.509C216.974 304.3 217.329 304.005 217.608 303.644C217.887 303.284 218.084 302.867 218.185 302.422C218.215 302.213 218.2 302 218.141 301.798C218.083 301.595 217.982 301.407 217.846 301.246C217.709 301.084 217.54 300.954 217.35 300.863C217.16 300.772 216.952 300.722 216.741 300.717C215.477 300.717 214.168 302.587 213.824 303.664C213.824 303.724 213.674 304.337 213.592 304.794C213.592 304.524 213.592 304.248 213.592 303.993C213.592 303.036 213.652 302.16 213.712 301.382C213.749 300.941 213.794 300.537 213.839 300.17C214.655 299.608 215.384 298.927 216.001 298.151C216.263 297.778 216.441 297.353 216.523 296.905C216.604 296.456 216.587 295.996 216.472 295.555C216.402 295.356 216.292 295.173 216.147 295.02C216.002 294.867 215.826 294.746 215.631 294.666C215.436 294.585 215.226 294.547 215.015 294.553C214.804 294.559 214.597 294.61 214.407 294.702C213.285 295.285 212.986 297.552 213.173 298.667C213.173 298.764 213.614 300.245 213.637 300.23C213.592 300.589 213.54 300.978 213.495 301.397C213.42 302.145 213.338 303.051 213.315 304.016C213.282 305.051 213.307 306.088 213.39 307.12C213.482 308.279 213.674 309.428 213.966 310.554C213.966 310.554 213.966 310.554 213.966 310.591C213.764 310.277 213.18 309.417 213.128 309.357C212.38 308.504 210.45 307.285 209.283 307.778C209.091 307.866 208.919 307.992 208.78 308.15C208.64 308.308 208.535 308.494 208.472 308.695C208.409 308.897 208.39 309.109 208.415 309.318C208.44 309.528 208.509 309.73 208.617 309.911C208.887 310.278 209.233 310.582 209.633 310.801C210.032 311.021 210.474 311.151 210.929 311.182Z" fill="black"/>
<path d="M232.661 305.227C232.661 305.227 233.065 303.731 233.08 303.649C233.237 302.534 232.878 300.275 231.733 299.721C231.541 299.636 231.334 299.591 231.124 299.591C230.913 299.591 230.706 299.635 230.514 299.72C230.322 299.805 230.15 299.93 230.009 300.086C229.869 300.243 229.763 300.427 229.698 300.627C229.596 301.07 229.591 301.531 229.684 301.976C229.777 302.422 229.966 302.842 230.237 303.207C230.942 303.996 231.758 304.676 232.661 305.227Z" fill="black"/>
<path d="M273.91 43.6063C273.287 46.0679 273.446 48.6622 274.364 51.0295C275.282 53.3968 276.914 55.4197 279.034 56.8175C281.154 58.2153 283.656 58.9187 286.194 58.8303C288.731 58.7418 291.178 57.8658 293.196 56.3238L297.931 60.8572C297.809 61.3511 297.818 61.8682 297.957 62.3576C298.096 62.8469 298.361 63.2916 298.724 63.6475L309.01 73.7243C309.286 73.992 309.612 74.2027 309.97 74.3443C310.327 74.486 310.709 74.5559 311.094 74.55C311.478 74.5441 311.858 74.4625 312.211 74.3099C312.564 74.1573 312.883 73.9367 313.151 73.6607C313.418 73.3846 313.629 73.0585 313.771 72.701C313.913 72.3436 313.982 71.9617 313.977 71.5772C313.971 71.1927 313.889 70.8131 313.736 70.4601C313.584 70.1072 313.363 69.7877 313.087 69.52L302.779 59.4358C302.407 59.0785 301.948 58.8253 301.448 58.7019C300.947 58.5784 300.423 58.589 299.928 58.7326L295.298 54.274C296.415 52.9046 297.217 51.3056 297.647 49.591C298.04 48.0324 298.122 46.4117 297.888 44.8214C297.655 43.2311 297.111 41.7023 296.286 40.3224C295.462 38.9424 294.374 37.7383 293.085 36.7788C291.795 35.8194 290.329 35.1233 288.771 34.7303C287.212 34.3373 285.591 34.2552 284.001 34.4886C282.411 34.722 280.882 35.2663 279.502 36.0906C278.122 36.9148 276.918 38.0027 275.959 39.2923C274.999 40.5818 274.303 42.0478 273.91 43.6063ZM295.522 49.0374C295.037 50.9646 293.992 52.7047 292.517 54.0375C291.043 55.3704 289.207 56.2361 287.241 56.5253C285.275 56.8145 283.267 56.5141 281.472 55.6621C279.677 54.8101 278.174 53.4448 277.155 51.7389C276.135 50.033 275.645 48.0631 275.745 46.0784C275.846 44.0936 276.532 42.1832 277.718 40.5888C278.904 38.9943 280.537 37.7874 282.409 37.1208C284.281 36.4542 286.309 36.3577 288.236 36.8436C290.818 37.4967 293.035 39.1475 294.401 41.4336C295.767 43.7197 296.17 46.4543 295.522 49.0374Z" stroke="black" stroke-miterlimit="10"/>
<path d="M47.6817 191.854C45.8261 192.298 44.1545 193.308 42.8986 194.744C41.6427 196.18 40.8646 197.971 40.6723 199.869C40.4799 201.767 40.8828 203.678 41.8251 205.337C42.7673 206.996 44.2023 208.321 45.9311 209.128L44.5547 213.863C44.1827 213.952 43.8407 214.137 43.5625 214.4C43.2842 214.662 43.0795 214.993 42.9687 215.359L39.7894 225.735C39.6327 226.298 39.7013 226.899 39.9807 227.411C40.26 227.924 40.7281 228.307 41.2855 228.481C41.8479 228.637 42.4491 228.569 42.9617 228.289C43.4743 228.01 43.8578 227.542 44.031 226.984L47.1879 216.609C47.3002 216.236 47.3109 215.841 47.2188 215.464C47.1267 215.086 46.9352 214.74 46.6643 214.462L48.0258 209.808C49.3768 210.087 50.7732 210.058 52.1115 209.723C53.4498 209.389 54.6958 208.758 55.7574 207.878C56.819 206.997 57.669 205.889 58.2445 204.635C58.82 203.381 59.1063 202.014 59.0821 200.635C59.058 199.256 58.7241 197.9 58.1051 196.667C57.4861 195.434 56.5978 194.357 55.5061 193.513C54.4143 192.67 53.1469 192.084 51.7977 191.796C50.4486 191.509 49.0521 191.529 47.7116 191.854H47.6817ZM51.5567 208.163C50.1028 208.508 48.579 208.415 47.1781 207.895C45.7771 207.375 44.562 206.45 43.6862 205.239C42.8105 204.028 42.3136 202.585 42.2583 201.092C42.203 199.598 42.5918 198.122 43.3755 196.849C44.1593 195.577 45.3028 194.566 46.6614 193.943C48.0201 193.32 49.5328 193.115 51.0083 193.352C52.4838 193.589 53.8558 194.259 54.9508 195.276C56.0458 196.293 56.8145 197.612 57.1599 199.066C57.6217 201.011 57.2947 203.06 56.2504 204.764C55.206 206.469 53.5293 207.691 51.5867 208.163H51.5567Z" stroke="black" stroke-miterlimit="10"/>
<path d="M297.093 122.912H275.399C273.99 122.912 272.639 123.471 271.643 124.467C270.647 125.463 270.088 126.814 270.088 128.223V140.23C270.088 141.638 270.647 142.989 271.643 143.986C272.639 144.982 273.99 145.541 275.399 145.541H290.51L289.762 153.022L296.794 145.541H297.093C297.791 145.541 298.482 145.404 299.126 145.137C299.77 144.87 300.356 144.479 300.849 143.986C301.342 143.492 301.734 142.907 302.001 142.262C302.267 141.618 302.405 140.927 302.405 140.23V128.223C302.405 127.526 302.267 126.835 302.001 126.19C301.734 125.546 301.342 124.961 300.849 124.467C300.356 123.974 299.77 123.583 299.126 123.316C298.482 123.049 297.791 122.912 297.093 122.912Z" stroke="black" stroke-miterlimit="10"/>
<path d="M49.2528 151.339H63.9527C64.4252 151.339 64.8931 151.432 65.3297 151.613C65.7663 151.794 66.163 152.059 66.4971 152.393C66.8312 152.727 67.0963 153.124 67.2771 153.56C67.4579 153.997 67.551 154.465 67.551 154.937V163.069C67.551 163.541 67.4579 164.009 67.2771 164.446C67.0963 164.882 66.8312 165.279 66.4971 165.613C66.163 165.947 65.7663 166.212 65.3297 166.393C64.8931 166.574 64.4252 166.667 63.9527 166.667H53.7189L54.25 171.724L49.4548 166.667H49.2528C48.2985 166.667 47.3833 166.288 46.7085 165.613C46.0336 164.938 45.6545 164.023 45.6545 163.069V154.937C45.6545 153.983 46.0336 153.068 46.7085 152.393C47.3833 151.718 48.2985 151.339 49.2528 151.339Z" stroke="black" stroke-miterlimit="10"/>
<path d="M157.912 14.2598H172.612C173.566 14.2598 174.482 14.6389 175.156 15.3137C175.831 15.9885 176.21 16.9037 176.21 17.8581V25.9897C176.21 26.9441 175.831 27.8593 175.156 28.5341C174.482 29.2089 173.566 29.588 172.612 29.588H162.378L162.909 34.6451L158.114 29.588H157.912C156.958 29.588 156.043 29.2089 155.368 28.5341C154.693 27.8593 154.314 26.9441 154.314 25.9897V17.8581C154.314 16.9037 154.693 15.9885 155.368 15.3137C156.043 14.6389 156.958 14.2598 157.912 14.2598Z" stroke="black" stroke-miterlimit="10"/>
<path d="M137.938 30.7771L173.906 131.29L251.146 32.363" stroke="black" stroke-miterlimit="10"/>
<path d="M281.825 96.377L173.906 131.29L246.381 212.757" stroke="black" stroke-miterlimit="10"/>
<path d="M90.8537 209.585L173.906 131.29L60.6984 112.244" stroke="black" stroke-miterlimit="10"/>
<path d="M291.06 101.763C293.862 96.4119 291.794 89.8027 286.443 87.0015C281.091 84.2002 274.482 86.2676 271.681 91.6191C268.879 96.9706 270.947 103.58 276.298 106.381C281.65 109.182 288.259 107.115 291.06 101.763Z" fill="black" stroke="black" stroke-width="0.5" stroke-miterlimit="10"/>
<path d="M284.989 95.9353H277.86C277.191 95.9353 276.55 96.2009 276.077 96.6737C275.604 97.1465 275.339 97.7877 275.339 98.4563V104.441C277.081 105.801 279.232 106.531 281.441 106.513C283.651 106.495 285.79 105.731 287.51 104.344V98.4563C287.51 97.7877 287.245 97.1465 286.772 96.6737C286.299 96.2009 285.658 95.9353 284.989 95.9353Z" fill="black" stroke="black" stroke-miterlimit="10"/>
<path d="M281.301 94.8353C282.019 94.8353 282.72 94.6225 283.317 94.2238C283.914 93.8252 284.379 93.2585 284.653 92.5955C284.928 91.9326 285 91.203 284.86 90.4992C284.72 89.7954 284.374 89.149 283.867 88.6415C283.359 88.1341 282.713 87.7886 282.009 87.6486C281.305 87.5086 280.576 87.5804 279.913 87.855C279.25 88.1297 278.683 88.5947 278.285 89.1914C277.886 89.788 277.673 90.4895 277.673 91.2071C277.673 92.1693 278.055 93.0922 278.736 93.7726C279.416 94.453 280.339 94.8353 281.301 94.8353Z" fill="black" stroke="black" stroke-miterlimit="10"/>
<path d="M257.581 213.094C259.912 207.522 257.286 201.114 251.714 198.782C246.142 196.45 239.734 199.077 237.402 204.649C235.07 210.221 237.697 216.628 243.269 218.96C248.841 221.292 255.249 218.666 257.581 213.094Z" fill="black" stroke="black" stroke-width="0.5" stroke-miterlimit="10"/>
<path d="M251.161 208.148H244.032C243.701 208.147 243.373 208.212 243.068 208.338C242.762 208.464 242.484 208.649 242.25 208.882C242.015 209.116 241.83 209.393 241.703 209.698C241.576 210.004 241.511 210.331 241.511 210.662V216.647C243.253 218.006 245.404 218.736 247.613 218.719C249.823 218.701 251.962 217.937 253.682 216.549V210.662C253.682 210.331 253.617 210.004 253.49 209.698C253.363 209.393 253.177 209.116 252.943 208.882C252.709 208.649 252.431 208.464 252.125 208.338C251.819 208.212 251.492 208.147 251.161 208.148Z" fill="black" stroke="black" stroke-miterlimit="10"/>
<path d="M247.42 207.041C248.138 207.041 248.84 206.828 249.436 206.43C250.033 206.031 250.498 205.464 250.772 204.801C251.047 204.138 251.119 203.409 250.979 202.705C250.839 202.001 250.493 201.355 249.986 200.847C249.479 200.34 248.832 199.994 248.128 199.854C247.424 199.714 246.695 199.786 246.032 200.061C245.369 200.335 244.802 200.801 244.404 201.397C244.005 201.994 243.792 202.695 243.792 203.413C243.792 203.889 243.886 204.361 244.068 204.801C244.251 205.242 244.518 205.642 244.855 205.978C245.192 206.315 245.592 206.583 246.032 206.765C246.472 206.947 246.944 207.041 247.42 207.041Z" fill="black" stroke="black" stroke-miterlimit="10"/>
<path d="M137.467 37.8388C141.755 37.8388 145.232 34.3623 145.232 30.0737C145.232 25.7852 141.755 22.3086 137.467 22.3086C133.178 22.3086 129.702 25.7852 129.702 30.0737C129.702 34.3623 133.178 37.8388 137.467 37.8388Z" fill="black" stroke="black" stroke-width="0.5" stroke-miterlimit="10"/>
<path d="M140.04 29.5876H134.983C134.509 29.5876 134.054 29.776 133.719 30.1113C133.384 30.4466 133.195 30.9014 133.195 31.3756V35.5723C134.432 36.5336 135.957 37.0498 137.523 37.0376C139.09 37.0254 140.606 36.4854 141.828 35.505V31.3382C141.818 30.8705 141.626 30.4253 141.292 30.098C140.957 29.7708 140.508 29.5875 140.04 29.5876Z" fill="black" stroke="black" stroke-miterlimit="10"/>
<path d="M137.452 28.7648C137.961 28.7648 138.458 28.6138 138.882 28.3311C139.305 28.0483 139.635 27.6464 139.829 27.1761C140.024 26.7059 140.075 26.1885 139.976 25.6893C139.877 25.1901 139.632 24.7316 139.272 24.3717C138.912 24.0118 138.453 23.7667 137.954 23.6674C137.455 23.5681 136.937 23.619 136.467 23.8138C135.997 24.0086 135.595 24.3384 135.312 24.7616C135.029 25.1848 134.879 25.6824 134.879 26.1913C134.879 26.8738 135.15 27.5284 135.632 28.011C136.115 28.4936 136.769 28.7648 137.452 28.7648Z" fill="black" stroke="black" stroke-miterlimit="10"/>
<path d="M96.8287 211.305C98.4802 207.347 96.6106 202.8 92.6528 201.149C88.695 199.497 84.1477 201.367 82.4962 205.324C80.8447 209.282 82.7143 213.83 86.6721 215.481C90.6299 217.133 95.1772 215.263 96.8287 211.305Z" fill="black" stroke="black" stroke-width="0.5" stroke-miterlimit="10"/>
<path d="M92.2377 207.789H87.1807C86.9446 207.788 86.7107 207.834 86.4924 207.924C86.2742 208.014 86.0758 208.146 85.9089 208.313C85.742 208.48 85.6098 208.678 85.5199 208.896C85.4301 209.115 85.3843 209.348 85.3853 209.584V213.826C86.6211 214.793 88.1481 215.313 89.7172 215.301C91.2863 215.288 92.805 214.745 94.0257 213.759V209.584C94.0266 209.349 93.9811 209.116 93.8917 208.898C93.8023 208.68 93.6708 208.482 93.5046 208.315C93.3385 208.149 93.1411 208.016 92.9237 207.926C92.7063 207.836 92.4732 207.789 92.2377 207.789Z" fill="black" stroke="black" stroke-miterlimit="10"/>
<path d="M89.6193 207.004C90.1283 207.004 90.6258 206.853 91.049 206.57C91.4722 206.287 91.8021 205.885 91.9968 205.415C92.1916 204.945 92.2426 204.427 92.1433 203.928C92.044 203.429 91.7989 202.971 91.439 202.611C91.0791 202.251 90.6206 202.006 90.1214 201.906C89.6222 201.807 89.1047 201.858 88.6345 202.053C88.1643 202.248 87.7624 202.577 87.4796 203.001C87.1968 203.424 87.0459 203.921 87.0459 204.43C87.0459 205.113 87.317 205.767 87.7996 206.25C88.2822 206.733 88.9368 207.004 89.6193 207.004Z" fill="black" stroke="black" stroke-miterlimit="10"/>
<path d="M258.231 32.3323C259.793 28.3383 257.822 23.8343 253.828 22.2723C249.834 20.7103 245.33 22.6818 243.768 26.6757C242.206 30.6697 244.177 35.1737 248.171 36.7357C252.165 38.2977 256.669 36.3263 258.231 32.3323Z" fill="black" stroke="black" stroke-width="0.5" stroke-miterlimit="10"/>
<path d="M253.592 28.9817H248.528C248.293 28.9817 248.061 29.0279 247.844 29.1178C247.627 29.2076 247.43 29.3393 247.264 29.5054C247.098 29.6714 246.966 29.8685 246.876 30.0854C246.786 30.3023 246.74 30.5348 246.74 30.7696V35.0187C247.978 35.9806 249.504 36.4971 251.072 36.4849C252.639 36.4727 254.157 35.9325 255.38 34.9514V30.7696C255.38 30.5348 255.334 30.3023 255.244 30.0854C255.154 29.8685 255.023 29.6714 254.857 29.5054C254.691 29.3393 254.493 29.2076 254.277 29.1178C254.06 29.0279 253.827 28.9817 253.592 28.9817Z" fill="black" stroke="black" stroke-miterlimit="10"/>
<path d="M250.974 28.1961C251.483 28.1961 251.98 28.0452 252.404 27.7624C252.827 27.4797 253.157 27.0778 253.351 26.6075C253.546 26.1373 253.597 25.6199 253.498 25.1207C253.398 24.6215 253.153 24.163 252.793 23.8031C252.434 23.4432 251.975 23.1981 251.476 23.0988C250.977 22.9995 250.459 23.0504 249.989 23.2452C249.519 23.44 249.117 23.7698 248.834 24.193C248.551 24.6162 248.4 25.1138 248.4 25.6227C248.4 26.3052 248.672 26.9598 249.154 27.4424C249.637 27.925 250.291 28.1961 250.974 28.1961Z" fill="black" stroke="black" stroke-miterlimit="10"/>
<path d="M72.8036 115.899C75.8477 108.686 72.4678 100.371 65.2545 97.3268C58.0412 94.2828 49.726 97.6626 46.6819 104.876C43.6379 112.089 47.0177 120.404 54.231 123.449C61.4443 126.493 69.7596 123.113 72.8036 115.899Z" fill="black" stroke="black" stroke-width="0.5" stroke-miterlimit="10"/>
<path d="M64.4462 109.431H55.2074C54.3416 109.431 53.5112 109.774 52.8984 110.386C52.2855 110.997 51.9402 111.827 51.9382 112.693V120.443C54.1969 122.2 56.9822 123.144 59.8438 123.122C62.7055 123.101 65.4761 122.114 67.7079 120.323V112.693C67.7079 111.828 67.3642 110.998 66.7526 110.386C66.1409 109.775 65.3113 109.431 64.4462 109.431Z" fill="black" stroke="black" stroke-miterlimit="10"/>
<path d="M59.651 107.995C60.5802 107.995 61.4885 107.719 62.261 107.203C63.0336 106.687 63.6358 105.953 63.9913 105.094C64.3469 104.236 64.44 103.291 64.2587 102.38C64.0774 101.469 63.63 100.632 62.9729 99.9746C62.3159 99.3176 61.4788 98.8702 60.5675 98.6889C59.6562 98.5076 58.7116 98.6007 57.8531 98.9563C56.9947 99.3118 56.261 99.914 55.7448 100.687C55.2285 101.459 54.953 102.367 54.953 103.297C54.953 104.543 55.448 105.738 56.329 106.619C57.2101 107.5 58.405 107.995 59.651 107.995Z" fill="black" stroke="black" stroke-miterlimit="10"/>
<path d="M105.86 54.005C105.86 53.9601 105.86 53.9153 105.86 53.8704C105.648 51.929 104.884 50.0893 103.657 48.5697C102.43 47.05 100.794 45.9143 98.9407 45.2973C97.0602 44.6591 95.0299 44.6095 93.1205 45.1552C93.5432 43.7195 93.6879 42.2164 93.547 40.7265C93.2691 37.7471 91.8688 34.9847 89.6298 32.9995C87.3908 31.0143 84.4807 29.9547 81.4894 30.0356C78.4981 30.1164 75.6495 31.3317 73.5211 33.435C71.3926 35.5383 70.1436 38.3723 70.0272 41.3624C69.8551 41.3624 69.683 41.3624 69.511 41.3624C66.3821 41.3624 63.3814 42.6053 61.169 44.8177C58.9566 47.0302 57.7137 50.0309 57.7137 53.1597C57.7108 54.2162 57.8517 55.2682 58.1326 56.2867C58.5285 57.6545 59.3601 58.8557 60.5011 59.7078C61.642 60.5598 63.03 61.016 64.4539 61.0071H99.2997C100.2 61.0114 101.092 60.8297 101.919 60.4735C102.747 60.1173 103.491 59.5942 104.107 58.937C104.723 58.2797 105.197 57.5025 105.498 56.6539C105.8 55.8052 105.923 54.9035 105.86 54.005Z" stroke="black" stroke-miterlimit="10"/>
<path d="M284.825 173.751C284.821 173.726 284.821 173.701 284.825 173.676C284.711 172.626 284.298 171.631 283.635 170.808C282.972 169.986 282.087 169.372 281.084 169.038C280.069 168.692 278.973 168.666 277.942 168.963C278.174 168.188 278.255 167.375 278.182 166.569C278.071 164.929 277.33 163.395 276.114 162.289C274.898 161.182 273.301 160.589 271.658 160.634C270.014 160.678 268.452 161.357 267.297 162.527C266.143 163.698 265.486 165.27 265.464 166.914H265.188C263.498 166.916 261.879 167.588 260.685 168.783C259.492 169.978 258.821 171.598 258.821 173.287C258.823 173.856 258.898 174.421 259.046 174.97C259.258 175.71 259.706 176.361 260.322 176.823C260.937 177.285 261.687 177.533 262.457 177.529H281.264C281.752 177.534 282.235 177.438 282.684 177.248C283.133 177.057 283.537 176.775 283.872 176.42C284.206 176.065 284.464 175.645 284.628 175.185C284.792 174.726 284.859 174.238 284.825 173.751Z" stroke="black" stroke-miterlimit="10"/>
<path d="M119.423 231.398C119.423 231.398 119.423 231.353 119.423 231.331C119.311 230.281 118.898 229.285 118.235 228.462C117.572 227.64 116.686 227.026 115.683 226.693C114.668 226.347 113.571 226.321 112.541 226.618C112.77 225.842 112.849 225.03 112.773 224.224C112.613 222.677 111.898 221.241 110.761 220.181C109.623 219.12 108.14 218.508 106.586 218.456C104.916 218.416 103.297 219.034 102.079 220.178C100.861 221.322 100.142 222.899 100.078 224.568H99.8011C98.9638 224.567 98.1345 224.732 97.3608 225.051C96.5871 225.371 95.884 225.841 95.292 226.433C94.6999 227.025 94.2305 227.728 93.9105 228.502C93.5906 229.275 93.4264 230.105 93.4274 230.942C93.4278 231.511 93.5059 232.077 93.6593 232.625C93.8691 233.366 94.3165 234.018 94.9328 234.481C95.5491 234.943 96.3002 235.19 97.0706 235.184H115.87C116.358 235.188 116.841 235.091 117.29 234.9C117.738 234.708 118.142 234.425 118.476 234.07C118.81 233.714 119.066 233.293 119.229 232.833C119.392 232.373 119.458 231.885 119.423 231.398Z" stroke="black" stroke-miterlimit="10"/>
<path d="M226.474 36.5371C226.478 36.5148 226.478 36.492 226.474 36.4698C226.363 35.4187 225.951 34.4219 225.288 33.5992C224.624 32.7765 223.738 32.1627 222.734 31.8316C221.72 31.4831 220.623 31.4544 219.592 31.7493C219.825 30.9768 219.904 30.1659 219.824 29.3629C219.713 27.7226 218.972 26.1886 217.756 25.0822C216.54 23.9757 214.943 23.3827 213.3 23.4271C211.656 23.4716 210.094 24.1502 208.939 25.3207C207.785 26.4913 207.128 28.0631 207.106 29.7071H206.829C205.85 29.7094 204.884 29.9373 204.007 30.373C203.129 30.8087 202.364 31.4406 201.77 32.2197C201.176 32.9987 200.77 33.9041 200.582 34.8655C200.394 35.827 200.43 36.8187 200.688 37.7639C200.9 38.5039 201.348 39.1544 201.964 39.6162C202.579 40.0781 203.329 40.3261 204.099 40.3224H222.906C223.395 40.33 223.881 40.2356 224.332 40.0451C224.782 39.8547 225.189 39.5724 225.524 39.2163C225.86 38.8601 226.118 38.438 226.281 37.9767C226.445 37.5154 226.511 37.0251 226.474 36.5371Z" stroke="black" stroke-miterlimit="10"/>
<path d="M230.883 186.729C262.63 154.982 262.63 103.509 230.883 71.7613C199.135 40.0138 147.663 40.0138 115.915 71.7613C84.1678 103.509 84.1678 154.982 115.915 186.729C147.663 218.476 199.135 218.476 230.883 186.729Z" fill="white" stroke="black" stroke-miterlimit="10"/>
<path d="M170.472 91.6117L178.193 95.0828L180.31 98.5539L183.788 99.9079L184.17 103.574L182.823 105.691L180.123 106.274L174.333 103.955V103.207L177.609 101.853L176.457 97.8058L171.22 95.8758L168.909 92.7862L170.472 91.6117ZM219.098 180.746L212.926 178.24L205.4 175.539H199.416L193.82 174.38L187.641 175.726L184.17 175.921H182.053L177.998 178.24L174.108 179.781L168.871 176.504L170.218 171.096L166.941 169.749H163.081L162.505 168.014L162.887 164.535L161.54 162.612L158.84 162.994L158.092 164.924L154.815 165.119L151.92 161.647L150.76 157.017L153.655 151.608L159.251 151.997L160.8 153.351H163.111L166.006 151.608L168.512 152.356L171.984 158.341L173.338 158.146L172.949 153.71L171.864 151.421L172.245 147.755L179.382 144.666L180.347 137.529L183.437 135.016L185.943 130.579L187.873 130.198L192.309 127.303L192.504 125.762L189.421 125.949L188.838 124.408H186.721L183.437 125.156L184.978 122.65L191.711 120.72L193.252 118.984L195.952 123.226L197.695 124.961L200.396 124.213L199.236 121.707L195.182 118.812L190.551 113.575L185.733 110.291L181.103 109.543L178.784 107.232L175.694 106.484L175.313 107.232L174.924 112.827L175.672 114.75L173.936 120.929L170.091 117.862L170.667 115.161L166.627 113.216L164.877 111.129L165.842 106.312L171.437 102.257L171.826 97.6263L169.702 97.8208L168.348 96.0852L167.772 93.1901L166.418 92.9956L165.67 96.0852L163.553 96.4667L162.588 89.734L161.017 88.6867L158.316 87.5271L155.234 89.0682L159.087 92.7338L159.835 96.0179L152.885 90.7813L148.06 85.5447L147.678 80.3081L142.689 78.8718L138.828 81.3853C137.898 81.9485 136.939 82.4629 135.956 82.9264C134.433 83.2895 132.885 83.5395 131.325 83.6745L130.577 86.9586L126.141 87.1456L126.53 89.2702L133.667 90.4297L137.332 94.4768V101.21L135.208 107.194L135.597 113.56L130.195 123.009L129.036 137.095L130.719 145.242L133.225 151.421L136.12 151.803L135.155 148.721L133.614 146.401L132.649 142.16L134.385 141.771L137.085 148.721L139.015 154.892V159.904L142.681 164.348L149.242 169.166L159.274 171.874L162.363 174.761L164.675 177.851L168.153 179.976L172.395 181.128L176.637 180.941C176.637 180.941 176.45 182.871 176.45 183.836C176.45 184.801 173.749 188.077 173.749 188.077L171.632 191.922L173.173 196.164L177.422 197.9L183.407 204.079L186.107 205.231V208.126L186.444 209.473C201.45 207.048 215.471 200.447 226.9 190.426L227.005 189.027L232.242 179.572L229.736 177.836L219.098 180.746ZM239.192 104.539L237.067 100.865L234.366 96.6238L233.618 90.8337L237.089 91.4172L237.284 89.4871L234.77 89.2926L236.895 88.3276L239.214 86.981V85.051L236.895 81.9614L236.401 77.8095C225.189 64.0881 209.802 54.4045 192.581 50.2319C175.36 46.0592 157.247 47.6259 140.998 54.6936L145.441 57.8431L142.689 61.3142L139.023 62.0623L138.641 67.2989L137.093 67.8749L135.163 69.9845L135.357 73.4556L138.641 73.8446L137.287 77.1213H140.571L146.16 69.9845L146.743 66.8949L152.144 66.5134L153.491 64.1943L159.087 63.6183L159.67 60.3342L163.717 60.1472C163.717 60.1472 166.612 58.5987 167.196 58.5987C168.31 58.8407 169.405 59.1632 170.472 59.5637L173.367 61.8827H177.422L180.893 59.7582L185.329 60.1472C185.968 60.5622 186.696 60.8187 187.454 60.8953C188.419 60.8953 191.314 59.5412 191.314 59.5412L196.902 63.0124L199.221 64.7554V67.643L202.116 68.032L203.081 66.2965L205.588 67.456L205.393 68.997L199.61 70.5381L202.887 74.7872L209.829 78.6473L212.724 82.5L216.973 82.889L217.938 80.9589L219.479 80.5699L214.46 76.7173L211.378 76.3283L213.884 75.5802L211.572 72.2961L214.849 72.1091L219.09 74.4207L220.056 79.0513L222.18 81.5574L223.916 87.1531L228.165 90.2427V96.6089L232.601 99.504L232.406 101.629L231.83 104.135L232.982 107.606L233.371 109.341L236.648 109.925L238.197 106.641L239.192 104.539ZM241.698 85.0884V86.1955L240.688 89.2926L241.264 91.9932L243.388 92.7413V96.4069L241.077 95.4419L240.508 105.893L238.197 110.134L239.738 115.543L242.244 117.855V128.275L244.757 136.377L247.458 142.549L251.894 143.708L253.435 139.848L254.063 139.354C254.481 136.002 254.691 132.626 254.692 129.248C254.716 113.58 250.191 98.2423 241.668 85.0958L241.698 85.0884ZM197.127 83.8839L184.409 78.2883L178.814 78.4828L177.467 82.1484L175.148 79.6348L170.906 80.5998L170.517 86.9735L173.988 89.4796L176.502 85.814L179.345 88.6867L185.329 93.9232L186.489 99.5189L191.501 105.885L199.61 104.539L199.416 101.644L197.68 98.3594L197.299 90.6466L199.229 87.3625L197.127 83.8839ZM207.548 88.1256L204.652 87.3775L202.146 89.5021L203.493 95.0977H206.006L207.548 88.1256ZM225.502 91.7912L218.941 88.3201L217.587 86.0085L216.046 86.5845L217.392 90.4447L218.552 95.4568L221.447 96.6164L222.023 95.8683L220.287 92.9732L225.307 94.9032L225.502 91.7912ZM169.163 161.445L168.415 162.194L174.205 163.929L176.524 166.63L180.19 167.019L181.537 164.894L177.1 164.146L169.163 161.445ZM186.369 165.111L182.315 166.271L182.898 167.812H187.91L188.875 166.271L187.14 166.458L186.369 165.111Z" fill="black" stroke="black" stroke-miterlimit="10"/>
<path d="M230.963 230.074C230.895 232.177 231.147 234.278 231.711 236.305C232.601 239.148 233.484 241.819 234.374 242.889C235.264 243.958 236.693 242.178 235.444 240.038C234.195 237.899 234.913 235.595 235.623 235.595C236.334 235.595 242.027 239.148 242.917 240.397C243.807 241.647 246.478 244.849 246.478 242.709C246.478 240.57 242.386 236.126 241.675 234.877C240.965 233.627 237.045 228.293 237.045 228.293L230.963 230.074Z" fill="#FFBDA7" stroke="black" stroke-linejoin="round"/>
<path d="M233.484 223.483L237.045 228.294L230.282 232.027L227.08 228.114L233.484 223.483Z" fill="black" stroke="black" stroke-linejoin="round"/>
<path d="M195.758 323.144C195.758 323.144 193.087 329.016 192.017 330.625C190.948 332.233 190.057 332.936 188.277 333.295C186.497 333.654 183.474 334.006 183.474 335.427C183.495 336.31 183.753 337.17 184.222 337.918C184.222 337.918 192.586 339.699 195.444 338.988C198.301 338.277 201.137 334.357 201.137 334.357L202.917 335.427L208.079 330.445C207.754 328.695 207.145 327.009 206.276 325.455C204.675 322.253 203.785 319.942 203.785 319.942C203.785 319.942 199.85 323.144 195.758 323.144Z" fill="#616161" stroke="black" stroke-linejoin="round"/>
<path d="M206.942 326.929C205.071 328.687 200.747 332.914 199.565 333.954C198.069 335.278 195.002 337.926 192.653 337.926C190.962 337.926 186.242 337.245 183.676 336.856C183.791 337.227 183.952 337.581 184.155 337.911C184.155 337.911 192.518 339.692 195.376 338.981C198.234 338.27 201.069 334.35 201.069 334.35L202.85 335.42L208.011 330.438C207.815 329.225 207.455 328.045 206.942 326.929Z" stroke="black" stroke-linejoin="round"/>
<path d="M181.881 299.474C181.881 299.474 185.262 306.589 188.614 310.86C191.965 315.132 195.728 324.745 195.728 324.745C195.728 324.745 198.758 325.814 200.89 324.206C202.245 323.102 203.238 321.616 203.74 319.942C203.74 319.942 199.468 306.768 197.868 301.075C196.267 295.382 192.347 282.919 190.566 279.897C189.217 277.671 187.744 275.523 186.153 273.463C186.153 273.463 184.193 285.208 183.302 289.652C182.412 294.096 181.881 299.474 181.881 299.474Z" fill="black" stroke="black" stroke-linejoin="round"/>
<path d="M166.036 217.611L166.216 228.997C166.216 228.997 163.224 250.003 165.685 260.678C168.146 271.353 172.088 283.121 172.088 283.121C172.088 283.121 170.136 302.698 169.418 307.501C168.7 312.304 165.677 321.385 165.677 321.385C165.677 321.385 170.839 324.056 171.729 324.056H173.51C173.51 324.056 178.844 309.64 179.913 307.501C180.983 305.361 184.716 301.277 185.965 292.375C187.215 283.472 187.574 274.211 187.574 274.211C187.574 274.211 196.469 262.818 198.608 259.249C200.748 255.681 204.121 248.387 204.121 248.387C204.121 248.387 208.041 238.243 207.503 228.458C206.964 218.673 203.949 213.691 203.949 213.691C203.949 213.691 186.504 217.783 178.32 217.783C170.136 217.783 166.036 217.611 166.036 217.611Z" fill="black" stroke="black" stroke-linejoin="round"/>
<path d="M170.577 153.695C170.577 153.695 174.033 157.151 173.51 158.355C172.986 159.56 164.024 160.083 162.124 162.327C160.224 164.572 152.115 193.044 152.115 193.044C152.115 193.044 142.449 190.276 141.589 189.588C140.729 188.899 139.689 189.416 139.173 191.488C138.657 193.56 133.48 198.221 134.168 199.425C134.856 200.629 144.349 205.29 149.01 206.502C151.848 207.232 154.736 207.75 157.65 208.05L156.962 216.855C156.962 216.855 165.76 221.86 182.846 219.616C199.932 217.372 207.024 213.751 207.024 213.751L204.959 195.976C204.959 195.976 216.181 217.028 218.073 220.663C219.966 224.299 222.382 229.64 224.454 230.328C226.527 231.017 233.948 226.184 234.12 224.119C234.292 222.055 227.911 212.038 222.898 203.412C217.886 194.787 210.989 170.452 209.957 165.26C208.924 160.068 206.156 155.767 203.224 155.079C200.291 154.39 192.354 154.383 188.898 153.695C185.442 153.006 180.617 147.313 178.372 140.064L170.577 153.695Z" fill="black" stroke="black" stroke-miterlimit="10"/>
<path d="M164.383 169.756C165.258 167.901 165.932 166.637 165.932 166.637" stroke="black" stroke-miterlimit="10"/>
<path d="M157.651 208.051C157.651 208.051 159.723 185.795 160.583 180.446C161.128 177.801 161.958 175.222 163.059 172.756" stroke="black" stroke-miterlimit="10"/>
<path d="M199.222 175.576C198.967 174.349 198.728 173.145 198.533 171.985" stroke="black" stroke-miterlimit="10"/>
<path d="M204.922 195.976C204.922 195.976 202.057 187.486 199.984 178.913" stroke="black" stroke-miterlimit="10"/>
<path d="M168.872 159.837C169.702 161.617 172.365 165.215 180.437 165.073C189.96 164.916 194.149 158.34 195.69 154.338C193.413 154.246 191.143 154.026 188.89 153.68C185.442 152.992 180.609 147.299 178.365 140.05L170.577 153.695C170.577 153.695 174.033 157.151 173.51 158.355C173.27 158.917 171.191 159.335 168.872 159.837Z" fill="#FFBDA7" stroke="black" stroke-miterlimit="10"/>
<path d="M177.033 144.979L174.684 146.476L170.577 153.672C171.555 154.655 172.423 155.741 173.166 156.911C177.033 152.311 177.033 144.979 177.033 144.979Z" fill="black" stroke="black" stroke-linejoin="round"/>
<path d="M150.566 137.312C150.566 137.312 153.843 143.005 154.703 145.593C155.964 148.765 158.365 151.35 161.436 152.842C164.54 154.218 166.096 155.43 168.857 155.602C172.814 155.849 175.754 150.253 177.31 145.937C178.866 141.621 178.866 140.932 178.866 140.932C178.866 140.932 181.275 137.312 181.275 133.511C181.275 129.711 176.966 125.402 172.133 123.158C167.301 120.914 164.024 117.637 159.019 122.125C154.015 126.614 150.566 137.312 150.566 137.312Z" fill="#FFBDA7" stroke="black" stroke-miterlimit="10"/>
<path d="M159.191 142.825C159.558 143.825 159.789 144.869 159.88 145.93C159.88 147.142 161.436 147.658 162.812 145.069" stroke="black" stroke-miterlimit="10"/>
<path d="M163.156 148.533C163.156 148.533 167.473 149.221 168.333 144.044" stroke="black" stroke-miterlimit="10"/>
<path d="M164.039 136.84C164.443 137.528 164.458 138.269 164.039 138.501C163.62 138.733 163.007 138.351 162.603 137.663C162.199 136.975 162.191 136.227 162.603 136.002C163.014 135.778 163.635 136.152 164.039 136.84Z" fill="black"/>
<path d="M157.074 140.304C157.478 140.992 157.493 141.74 157.074 141.965C156.655 142.189 156.042 141.815 155.645 141.127C155.249 140.438 155.227 139.69 155.645 139.466C156.064 139.242 156.678 139.601 157.074 140.304Z" fill="black"/>
<path d="M159.094 134.536C159.094 134.536 159.842 131.828 164.697 132.187" stroke="black" stroke-miterlimit="10"/>
<path d="M155.473 137.251C155.473 137.251 152.765 137.251 152.945 139.421" stroke="black" stroke-miterlimit="10"/>
<path d="M162.984 124.878C162.984 124.878 160.74 127.467 158.152 130.055C155.563 132.643 151.254 136.444 151.254 141.097C151.254 145.75 151.426 146.274 151.426 146.274C151.426 146.274 144.005 142.481 141.933 137.297C139.861 132.112 144.522 120.21 150.215 114.854C155.908 109.498 162.64 108.473 170.061 108.989C177.482 109.505 184.903 116.926 186.803 124.347C188.704 131.768 184.903 139.877 183.691 141.254C182.479 142.63 178.687 142.81 178.687 142.81C179.496 140.186 179.676 137.407 179.21 134.701C178.343 130.728 175.926 131.596 175.582 133.317C175.238 135.037 175.066 135.733 175.066 135.733C175.066 135.733 171.617 133.317 167.989 130.728C165.855 129.231 164.133 127.219 162.984 124.878Z" fill="black" stroke="black" stroke-linejoin="round"/>
<path d="M130.203 194.6L134.856 187.695L137.101 189.94L130.203 194.6Z" fill="black" stroke="black" stroke-linejoin="round"/>
<path d="M146.653 184.419L135.814 184.463L125.483 164.564L136.322 164.52L146.653 184.419Z" fill="black" stroke="black" stroke-linejoin="round"/>
<path d="M127.271 174.229C127.271 174.229 130.031 176.818 130.203 178.03C130.375 179.242 131.752 183.895 132.447 186.139C133.143 188.383 135.724 190.799 135.724 190.799L137.968 188.555L137.1 184.755C137.928 184.021 138.792 183.33 139.689 182.683C140.729 181.994 141.933 180.094 141.245 180.094C140.722 180.11 140.202 180.17 139.689 180.274C139.689 180.274 141.245 177.858 140.213 177.686C139.527 177.574 138.835 177.514 138.14 177.506C138.14 177.506 139.861 175.441 138.484 175.262C137.108 175.082 132.268 177.678 132.268 177.678L130.203 174.566C129.763 174.314 129.276 174.154 128.771 174.096C128.267 174.038 127.757 174.084 127.271 174.229Z" fill="#FFBDA7" stroke="black" stroke-linejoin="round"/>
<path d="M127.839 173.093C127.691 173.22 127.582 173.387 127.524 173.573C127.466 173.76 127.461 173.959 127.51 174.148C127.559 174.337 127.66 174.509 127.801 174.644C127.943 174.778 128.119 174.871 128.31 174.911C128.628 175.022 128.969 175.05 129.301 174.991C129.633 174.932 129.943 174.789 130.203 174.574C131.063 173.542 134.512 170.781 134.512 169.397C134.512 168.013 132.964 169.569 132.268 169.921C130.712 170.862 129.231 171.923 127.839 173.093Z" fill="#FFBDA7" stroke="black" stroke-linejoin="round"/>
<path d="M138.14 177.506C138.14 177.506 132.963 180.095 132.096 181.135" stroke="black" stroke-linejoin="round"/>
<path d="M139.696 180.274C139.696 180.274 135.559 182.167 134.176 183.723" stroke="black" stroke-linejoin="round"/>
<path d="M140.033 189.416L137.624 187.344L130.203 194.593L135.208 198.393C135.208 198.393 139.861 193.904 140.033 189.416Z" fill="black" stroke="black" stroke-linejoin="round"/>
<path d="M187.753 229.535C187.753 229.535 179.741 248.394 177.961 256.257C176.181 264.119 172.799 279.036 172.799 279.926" stroke="#757575" stroke-linejoin="round"/>
<path d="M176.18 234.877L180.811 240.211" stroke="#757575" stroke-linejoin="round"/>
<path d="M165.685 320.832C165.685 320.832 164.615 323.144 159.453 324.206C154.291 325.268 149.489 323.323 148.599 323.495C147.708 323.667 146.818 325.276 146.818 326.705C146.818 328.133 153.05 332.038 155.541 333.288C157.526 334.132 159.626 334.672 161.772 334.889H162.655L162.483 336.669C163.93 337.245 165.414 337.72 166.927 338.09C168.286 338.291 169.667 338.291 171.026 338.09C171.567 335.814 171.865 333.487 171.916 331.148C172.037 328.702 172.579 326.296 173.517 324.034L165.685 320.832Z" fill="#616161" stroke="black" stroke-linejoin="round"/>
<path d="M171.565 335.308C168.056 334.851 161.585 333.811 157.658 332.315C153.499 330.744 148.838 327.542 146.863 326.121C146.833 326.307 146.818 326.494 146.818 326.682C146.818 328.104 153.05 332.016 155.541 333.265C157.526 334.11 159.626 334.649 161.772 334.866H162.655L162.483 336.647C163.93 337.223 165.414 337.698 166.927 338.068C168.286 338.269 169.667 338.269 171.026 338.068C171.026 338.068 171.31 336.931 171.565 335.308Z" stroke="black" stroke-linejoin="round"/>
</svg>
