<svg width="378" height="350" viewBox="0 0 378 350" fill="none" xmlns="http://www.w3.org/2000/svg">
<path d="M183.112 308.102C180.191 308.616 178.785 311.126 176.748 313.345C175.878 314.421 174.934 315.434 173.921 316.377C174.711 314.593 175.453 312.698 176.085 310.795C177.522 309.105 179.243 306.926 180.459 305.228C182.212 302.805 184.328 299.094 181.856 297.222C180.033 295.841 178.185 297.017 177.119 298.802C175.808 301.083 176.053 303.594 176.037 306.429C176.075 307.747 176.014 309.067 175.856 310.376C175.856 310.519 175.58 311.245 175.54 311.363C175.066 312.737 174.514 314.135 173.961 315.453C174.411 313.558 174.869 311.04 175.098 309.224C175.477 306.255 175.027 301.612 171.347 302.054C168.631 302.386 168.41 305.118 168.529 307.147C168.679 309.721 169.997 311.245 171.608 313.416C171.963 313.898 173.337 315.508 173.542 316.361C173.542 316.424 173.463 316.598 173.44 316.645L173.321 316.717H173.4C172.266 319.172 170.963 321.547 169.5 323.823C169.389 323.996 169.263 324.178 169.145 324.336C169.303 322.117 169.429 319.733 169.421 317.53C169.421 314.727 168.126 310.384 164.636 311.3C162.054 311.979 162.086 314.458 162.497 316.401C163.018 318.809 164.581 320.088 166.508 321.857C166.973 322.283 168.774 323.538 169.05 324.43C169.05 324.43 169.05 324.486 169.05 324.494H168.931L169.003 324.557C168.141 325.724 167.207 326.837 166.207 327.889C165.041 328.815 163.829 329.682 162.576 330.486C163.199 328.794 163.592 327.025 163.744 325.228C163.973 322.528 163.239 318.122 159.852 318.225C157.341 318.288 156.875 320.593 157.017 322.433C157.191 324.802 158.596 326.183 160.223 328.07C160.586 328.489 162.039 329.886 162.283 330.644C160.467 331.947 158.549 333.131 156.757 334.482C157.126 332.749 157.287 330.978 157.238 329.207C157.072 326.641 155.264 323.301 152.13 323.68C149.808 323.98 149.414 325.986 149.887 327.715C150.48 329.902 152.09 330.873 154.017 332.287C154.483 332.634 156.338 333.708 156.638 334.497C154.569 336.076 152.58 337.656 151.174 339.843C151.174 339.843 151.135 339.779 151.111 339.779C151.087 339.779 151.111 339.835 151.151 339.85C151.19 339.866 151.111 340.095 151.087 339.977C150.677 338.145 150.89 336.59 150.543 334.529C150.132 332.058 147.945 329.144 144.85 329.957C142.56 330.557 142.671 332.847 143.46 334.434C144.463 336.44 146.003 337.142 148.15 338.24C148.687 338.516 150.622 339.266 151.04 340.024C149.678 342.728 148.662 345.593 148.016 348.551H148.332C148.963 345.623 149.978 342.791 151.348 340.127C152.383 341.665 153.529 343.127 154.775 344.501C156.733 346.483 160.302 348.528 163.112 346.435C165.189 344.856 164.234 342.914 162.528 341.785C160.373 340.348 157.98 340.451 155.138 340.285C154.498 340.245 152.28 340.285 151.466 339.993C152.738 337.798 154.814 336.282 156.843 334.71C157.856 336.23 158.974 337.676 160.191 339.037C162.094 341.043 165.844 342.811 168.608 340.727C170.645 339.195 169.95 337.15 168.221 336.1C166.026 334.766 163.863 335.129 161.067 334.995C160.404 334.995 157.83 335.097 156.97 334.663C158.651 333.392 160.546 332.208 162.299 330.968C162.173 330.865 162.07 330.763 162.639 331.094C164.219 332.185 165.873 333.163 167.589 334.024C169.729 334.987 174.537 335.374 176.148 332.239C177.332 329.926 175.911 328.37 173.724 328.205C170.945 328.007 169.35 329.349 166.618 330.226C165.892 330.455 163.46 331.386 162.41 330.936C163.681 329.981 165.26 329.152 166.413 328.118C167.446 327.042 168.401 325.894 169.271 324.683C170.85 325.523 172.508 326.205 174.221 326.72C177.214 327.51 181.209 326.72 182.599 323.483C183.625 321.114 182.149 319.417 179.859 319.338C176.961 319.235 175.311 320.917 172.753 322.425C172.232 322.741 170.384 324.13 169.524 324.344C169.563 324.257 169.682 324.107 169.76 323.98C171.252 321.659 172.572 319.231 173.708 316.717C175.597 316.854 177.492 316.891 179.385 316.827C182.543 316.638 186.531 314.656 186.981 311.261C187.297 308.876 185.425 307.7 183.112 308.102Z" fill="black"/>
<path d="M126.453 340.356C127.942 343.336 129.758 346.141 131.87 348.717H132.351C130.167 346.103 128.311 343.231 126.824 340.166C129.094 340.278 131.369 340.225 133.63 340.008C137.01 339.535 141.636 337.513 141.636 333.226C141.636 330.068 138.991 329.547 136.631 330.399C133.646 331.465 131.996 333.897 129.754 336.558C129.24 337.166 127.693 339.4 126.769 339.953C125.553 337.095 125.585 333.952 125.53 330.802C127.761 330.924 129.999 330.882 132.225 330.676C135.588 330.281 140.073 327.889 140.049 323.649C140.049 320.491 137.515 319.701 135.217 320.641C132.304 321.817 131.08 324.209 128.901 326.854C128.38 327.486 126.635 330.115 125.577 330.652C125.577 328.07 125.782 325.331 125.853 322.701C125.648 322.757 125.482 322.772 126.224 322.457C128.45 321.705 130.621 320.8 132.722 319.748C135.233 318.335 139.134 313.898 137.239 310.029C135.833 307.163 133.291 307.423 131.499 309.46C129.264 312.034 129.414 314.593 128.277 317.917C127.977 318.801 127.085 321.904 125.909 322.567C125.909 320.617 126.248 318.461 126.066 316.566C125.885 314.672 125.198 313.013 124.787 311.237C126.911 310.061 128.269 309.571 130.417 307.866C133.386 305.497 135.525 301.004 133.37 297.27C131.791 294.514 129.035 294.735 127.282 296.922C125.064 299.694 125.506 302.552 125.127 306.152C125.056 306.894 125.08 309.721 124.653 310.732C124.59 310.629 124.535 310.4 124.464 310.226C123.251 307.045 121.805 303.957 120.137 300.989C121.654 299.223 123.077 297.378 124.4 295.462C126.54 292.201 127.496 286.856 124.495 283.926C122.277 281.755 119.758 282.742 118.455 285.308C116.821 288.553 118.258 291.774 118.945 295.399C119.087 296.141 119.892 299.244 119.853 300.396C118.66 298.344 117.358 296.196 115.96 294.183C115.344 291.538 114.452 288.269 113.686 285.805C112.589 282.308 110.489 277.515 106.841 278.573C104.148 279.363 103.951 282.031 104.97 284.376C106.249 287.337 108.917 288.932 111.673 291.032C112.999 291.96 114.253 292.987 115.423 294.104C115.542 294.238 116.079 295.012 116.158 295.13V295.185C117.16 296.662 118.131 298.217 119.008 299.757C117.429 297.925 115.328 295.635 113.71 294.072C111.081 291.53 106.185 288.545 103.927 292.493C102.253 295.406 104.788 297.617 106.872 298.991C109.509 300.72 111.965 300.57 115.281 300.57C116.015 300.57 118.605 300.396 119.592 300.831C119.663 300.831 119.766 301.068 119.789 301.131C119.804 301.188 119.804 301.247 119.789 301.304L119.876 301.241C121.489 304.158 122.895 307.184 124.085 310.297C124.172 310.534 124.25 310.787 124.329 311.024C122.261 309.239 120.011 307.368 117.839 305.773C115.068 303.728 109.873 301.825 108.215 305.907C106.991 308.939 109.478 310.747 111.657 311.742C114.405 312.998 116.813 312.398 119.963 311.798C120.753 311.655 123.271 310.795 124.353 311.182C124.361 311.184 124.368 311.187 124.374 311.191C124.38 311.196 124.385 311.202 124.388 311.209C124.392 311.215 124.394 311.223 124.395 311.23C124.396 311.238 124.395 311.246 124.393 311.253C124.376 311.299 124.352 311.341 124.322 311.379C124.358 311.387 124.396 311.387 124.432 311.379C124.948 313.084 125.36 314.819 125.664 316.574C125.845 318.367 125.553 320.238 125.561 322.046C124.353 320.193 122.9 318.512 121.242 317.048C118.763 314.845 113.907 312.311 111.507 315.745C109.738 318.256 111.641 320.388 113.576 321.612C116.015 323.191 118.439 322.788 121.471 322.591C122.15 322.543 124.582 322.133 125.506 322.449C125.458 325.188 125.214 327.936 125.222 330.7C123.795 329.065 122.175 327.609 120.397 326.365C117.752 324.644 113.149 323.996 111.247 327.36C109.841 329.847 111.523 331.71 113.568 332.516C116.15 333.534 118.266 332.642 121.092 331.797C121.771 331.592 124.179 330.557 125.174 330.842C125.245 334.055 125.293 337.158 126.43 340.127C126.43 340.127 126.343 340.127 126.319 340.127C126.295 340.127 126.39 340.127 126.422 340.127C126.453 340.127 126.635 340.34 126.493 340.277C124.4 339.337 123.019 337.987 120.753 336.819C118.013 335.413 113.552 335.429 112.068 339.077C110.986 341.761 113.315 343.325 115.455 343.711C118.155 344.193 119.979 343.198 122.624 341.888C123.295 341.564 125.411 340.214 126.453 340.356Z" fill="black"/>
<path d="M211.031 286.556C215.507 287.345 217.655 291.182 220.774 294.577C221.413 295.272 223.932 298.399 225.108 299.228C223.94 296.496 222.74 293.583 221.784 290.677C219.597 288.095 216.984 284.763 215.089 282.15C212.404 278.447 209.167 272.754 212.949 269.896C215.744 267.788 218.579 269.58 220.166 272.351C222.171 275.849 221.8 279.686 221.824 284.037C221.767 286.057 221.859 288.078 222.1 290.085C222.155 290.298 222.526 291.419 222.59 291.593V291.664C223.316 293.756 224.169 295.904 225.037 297.925C224.358 295.012 223.656 291.159 223.3 288.379C222.716 283.839 223.411 276.726 229.048 277.405C233.209 277.91 233.533 282.095 233.351 285.205C233.122 289.153 231.109 291.482 228.614 294.806C228.069 295.541 225.961 297.965 225.653 299.315C225.67 299.468 225.724 299.614 225.811 299.741C225.863 299.792 225.925 299.833 225.993 299.86H225.874C227.602 303.621 229.597 307.255 231.843 310.732C232.009 310.992 232.206 311.269 232.388 311.521C232.143 308.118 231.946 304.471 231.962 301.107C231.962 296.804 233.936 290.156 239.281 291.561C243.229 292.604 243.229 296.441 242.565 299.362C241.776 303.057 239.407 305.023 236.423 307.731C235.704 308.379 232.949 310.297 232.522 311.679C232.522 311.679 232.522 311.766 232.522 311.782H232.712C232.675 311.817 232.636 311.849 232.593 311.877C234.038 313.558 235.223 315.469 236.881 316.985C238.539 318.501 240.631 319.614 242.407 320.933C241.453 318.338 240.851 315.626 240.615 312.871C240.26 308.75 241.405 302.023 246.576 302.149C250.414 302.244 251.132 305.75 250.919 308.6C250.658 312.2 248.463 314.348 246.008 317.23C245.455 317.877 243.229 320.009 242.85 321.178C245.629 323.183 248.566 324.991 251.322 327.06C250.887 324.17 250.382 322.078 250.579 318.991C250.832 315.043 253.611 309.95 258.404 310.566C261.949 311.016 262.565 314.087 261.838 316.74C260.93 320.088 258.459 321.541 255.522 323.736C254.804 324.265 251.969 325.915 251.511 327.123C254.669 329.586 257.717 331.931 259.88 335.303C259.88 335.263 259.928 335.216 259.975 335.208C260.022 335.2 259.975 335.295 259.912 335.318C259.849 335.342 259.967 335.69 260.015 335.508C260.638 332.705 260.315 330.321 260.804 327.17C261.436 323.38 264.752 318.927 269.529 320.175C273.034 321.091 272.861 324.596 271.653 327.02C270.121 330.092 267.752 331.173 264.476 332.847C263.647 333.266 260.694 334.426 260.046 335.587C262.196 339.741 263.804 344.154 264.831 348.717H264.357C263.389 344.235 261.833 339.899 259.73 335.824C257.922 338.192 256.73 340.253 254.488 342.519C251.495 345.551 246.016 348.678 241.721 345.48C238.562 343.111 240.015 340.087 242.621 338.374C245.921 336.187 249.585 336.337 253.927 336.084C254.914 336.021 258.309 336.14 259.557 335.634C257.606 332.279 254.425 329.957 251.322 327.557C249.498 330.021 248.495 331.75 246.189 334.174C243.284 337.245 237.504 339.953 233.312 336.771C230.154 334.403 231.259 331.244 233.904 329.665C237.26 327.636 240.568 328.189 244.855 327.976C245.874 327.928 249.806 328.134 251.172 327.478C248.598 325.528 245.645 323.712 243 321.817C243.205 321.651 243.355 321.501 242.479 322.007C240.963 322.883 238.199 325.031 234.915 326.499C231.63 327.968 224.271 328.56 221.808 323.759C219.984 320.222 222.163 317.838 225.519 317.585C229.767 317.277 232.214 319.338 236.399 320.672C237.504 321.035 241.286 322.449 242.834 321.762C240.884 320.301 238.468 319.038 236.707 317.443C234.946 315.848 233.793 313.929 232.325 312.185C229.561 313.432 228.053 314.427 224.745 315.343C220.174 316.559 214.055 315.343 211.923 310.384C210.344 306.729 212.618 304.155 216.123 304.028C220.553 303.871 223.087 306.444 226.972 308.766C227.761 309.239 230.588 311.371 231.922 311.703C231.859 311.561 231.677 311.34 231.551 311.142C229.263 307.587 227.234 303.872 225.479 300.025C222.589 300.234 219.69 300.289 216.794 300.191C211.923 299.891 205.859 296.867 205.164 291.672C204.619 287.74 207.493 285.94 211.031 286.556Z" fill="black"/>
<path d="M302.524 334.687C305.033 339.688 308.092 344.394 311.643 348.717H312.433C308.742 344.324 305.602 339.495 303.085 334.339C307.111 334.3 310.277 334.663 314.533 334.071C320.218 333.281 328.003 329.87 328.003 322.662C328.003 317.332 323.55 316.48 319.586 317.925C314.565 319.725 311.786 323.807 308.011 328.291C307.151 329.31 304.545 333.068 302.998 334.008C300.953 329.199 300.992 323.901 300.905 318.611C305.027 318.611 307.704 318.935 312.18 318.398C317.826 317.727 325.374 313.708 325.334 306.555C325.334 301.297 321.071 299.931 317.202 301.494C312.307 303.476 310.246 307.502 306.567 311.955C305.69 313.013 302.753 317.427 300.977 318.327C300.977 313.985 301.324 309.382 301.442 304.96C301.095 305.047 300.811 305.086 302.058 304.549C304.229 303.618 308.777 302.362 313.001 299.994C317.226 297.625 323.779 290.156 320.589 283.642C318.22 278.826 313.902 279.26 310.933 282.687C307.182 287.013 307.435 291.317 305.516 296.899C305.011 298.383 303.503 303.61 301.513 304.731C301.513 301.454 302.082 297.83 301.782 294.641C301.482 291.451 300.329 288.672 299.634 285.687C303.203 283.705 305.485 282.876 309.109 280.018C314.107 276.07 317.699 268.467 314.075 262.19C311.391 257.547 306.788 257.926 303.811 261.613C300.084 266.272 300.826 271.088 300.195 277.128C300.069 278.384 300.108 283.137 299.405 284.834C299.288 284.558 299.186 284.276 299.097 283.989C297.109 278.657 294.734 273.477 291.991 268.49C294.668 265.095 296.555 263.224 299.161 259.245C302.761 253.718 304.364 244.764 299.318 239.838C295.592 236.19 291.344 237.84 289.165 242.159C286.409 247.623 288.833 253.031 289.954 259.134C290.191 260.382 291.533 265.609 291.486 267.543C289.473 264.093 287.286 260.477 284.933 257.089C283.906 252.644 282.406 247.141 281.111 243.004C279.264 237.121 275.727 229.052 269.6 230.837C265.068 232.155 264.736 236.656 266.441 240.595C268.605 245.57 273.05 248.262 277.724 251.783C278.648 252.478 282.761 255.439 284.041 256.955C284.23 257.176 285.138 258.487 285.272 258.692L285.328 258.771C287.009 261.242 288.644 263.872 290.12 266.453C287.522 263.374 283.93 259.521 281.206 256.9C276.777 252.62 268.573 247.646 264.744 254.271C261.933 259.174 266.189 262.893 269.702 265.198C274.14 268.119 278.277 267.827 283.843 267.843C285.083 267.843 289.433 267.551 291.099 268.269C291.225 268.317 291.391 268.672 291.431 268.783C291.456 268.878 291.456 268.979 291.431 269.075C291.478 269.041 291.523 269.004 291.565 268.964C294.232 273.858 296.549 278.934 298.497 284.155C298.647 284.55 298.789 284.984 298.916 285.379C295.434 282.371 291.66 279.228 288.004 276.544C283.338 273.109 274.582 269.864 271.818 276.765C269.757 281.866 273.942 284.913 277.598 286.587C282.225 288.695 286.283 287.685 291.573 286.682C292.852 286.437 297.139 284.992 298.955 285.64C298.995 285.64 299.05 285.695 299.026 285.758C298.993 285.834 298.951 285.906 298.9 285.971C298.968 285.965 299.034 285.949 299.097 285.924C299.753 288.837 300.858 291.656 301.166 294.664C301.474 297.672 300.984 300.823 300.984 303.87C298.95 300.753 296.507 297.922 293.72 295.454C289.56 291.751 281.396 287.558 277.353 293.267C274.376 297.483 277.574 301.068 280.819 303.136C284.925 305.75 289.007 305.102 294.099 304.778C295.236 304.699 299.326 303.989 300.874 304.534C300.795 309.153 300.392 313.771 300.408 318.414C297.637 315.619 295.781 313.392 292.291 311.126C287.838 308.237 280.101 307.116 276.903 312.792C274.534 316.985 277.361 320.119 280.803 321.478C285.154 323.191 288.699 321.699 293.436 320.27C294.581 319.93 298.639 318.185 300.313 318.69C300.432 324.091 300.511 329.263 302.421 334.308C302.358 334.308 302.279 334.308 302.24 334.308C302.2 334.308 302.358 334.308 302.406 334.308C302.453 334.308 302.761 334.671 302.524 334.568C299.003 332.989 296.689 330.715 292.868 328.757C288.265 326.389 280.764 326.389 278.293 332.539C276.469 337.063 280.393 339.693 283.985 340.34C288.525 341.13 291.589 339.471 296.042 337.277C297.163 336.716 300.787 334.442 302.524 334.687Z" fill="black"/>
<path d="M117.808 19.5122L125.624 27.3288" stroke="black" stroke-linecap="round" stroke-linejoin="round"/>
<path d="M125.624 19.5122L117.808 27.3288" stroke="black" stroke-linecap="round" stroke-linejoin="round"/>
<path d="M271.771 192.425L279.588 200.241" stroke="black" stroke-linecap="round" stroke-linejoin="round"/>
<path d="M279.588 192.425L271.771 200.241" stroke="black" stroke-linecap="round" stroke-linejoin="round"/>
<path d="M344.41 48.7256L352.227 56.5422" stroke="black" stroke-linecap="round" stroke-linejoin="round"/>
<path d="M352.227 48.7256L344.41 56.5422" stroke="black" stroke-linecap="round" stroke-linejoin="round"/>
<path d="M239.399 8.4585L247.216 16.2751" stroke="black" stroke-linecap="round" stroke-linejoin="round"/>
<path d="M247.216 8.4585L239.399 16.2751" stroke="black" stroke-linecap="round" stroke-linejoin="round"/>
<path d="M14.3759 212.953L22.1925 220.77" stroke="black" stroke-linecap="round" stroke-linejoin="round"/>
<path d="M22.1925 212.953L14.3759 220.77" stroke="black" stroke-linecap="round" stroke-linejoin="round"/>
<path d="M159.654 279.276L167.471 287.092" stroke="black" stroke-linecap="round" stroke-linejoin="round"/>
<path d="M167.471 279.276L159.654 287.092" stroke="black" stroke-linecap="round" stroke-linejoin="round"/>
<path d="M143.034 28.9474C147.394 28.9474 150.929 25.4124 150.929 21.0518C150.929 16.6912 147.394 13.1562 143.034 13.1562C138.673 13.1562 135.138 16.6912 135.138 21.0518C135.138 25.4124 138.673 28.9474 143.034 28.9474Z" stroke="black" stroke-linecap="round" stroke-linejoin="round"/>
<path d="M127.243 52.6343C128.987 52.6343 130.401 51.2203 130.401 49.4761C130.401 47.7319 128.987 46.3179 127.243 46.3179C125.499 46.3179 124.085 47.7319 124.085 49.4761C124.085 51.2203 125.499 52.6343 127.243 52.6343Z" stroke="black" stroke-linecap="round" stroke-linejoin="round"/>
<path d="M112.241 255.55C115.294 255.55 117.768 253.075 117.768 250.023C117.768 246.971 115.294 244.496 112.241 244.496C109.189 244.496 106.714 246.971 106.714 250.023C106.714 253.075 109.189 255.55 112.241 255.55Z" stroke="black" stroke-linecap="round" stroke-linejoin="round"/>
<path d="M362.925 198.702C364.887 198.702 366.478 197.111 366.478 195.149C366.478 193.186 364.887 191.596 362.925 191.596C360.963 191.596 359.372 193.186 359.372 195.149C359.372 197.111 360.963 198.702 362.925 198.702Z" stroke="black" stroke-linecap="round" stroke-linejoin="round"/>
<path d="M264.625 162.382C266.37 162.382 267.784 160.968 267.784 159.224C267.784 157.48 266.37 156.066 264.625 156.066C262.881 156.066 261.467 157.48 261.467 159.224C261.467 160.968 262.881 162.382 264.625 162.382Z" stroke="black" stroke-linecap="round" stroke-linejoin="round"/>
<path d="M127.638 175.805C129.6 175.805 131.191 174.214 131.191 172.252C131.191 170.289 129.6 168.699 127.638 168.699C125.675 168.699 124.085 170.289 124.085 172.252C124.085 174.214 125.675 175.805 127.638 175.805Z" stroke="black" stroke-linecap="round" stroke-linejoin="round"/>
<path d="M99.2453 68.7251C99.2453 68.7251 106.138 73.6756 105.925 80.3631C105.712 87.0507 101.614 88.764 102.261 91.7801C102.909 94.7962 106.351 99.3283 103.983 101.476C101.614 103.623 96.0081 101.91 94.7212 103.418C93.4342 104.926 93.8527 108.59 89.7628 109.45C85.6729 110.311 82.8621 109.671 79.846 105.36C76.8299 101.049 75.1086 86.8217 82.0014 77.5602C84.0043 74.8623 86.6016 72.6619 89.592 71.1297C92.5825 69.5976 95.8856 68.7747 99.2453 68.7251Z" fill="black" stroke="black" stroke-linecap="round" stroke-linejoin="round"/>
<path d="M102.427 82.5186C102.609 84.3108 102.474 86.0558 101.551 86.9795C99.182 89.3482 97.8161 91.2431 100.216 93.6513C102.617 96.0594 106.351 99.7861 103.154 100.852" stroke="#878787" stroke-linecap="round" stroke-linejoin="round"/>
<path d="M101.014 76.5737C101.354 77.529 101.644 78.5015 101.882 79.4872" stroke="#878787" stroke-linecap="round" stroke-linejoin="round"/>
<path d="M75.7322 322.133C76.0846 324.894 76.5934 327.633 77.2561 330.336C78.557 334.306 80.1239 338.184 81.946 341.943C83.2409 344.406 87.1018 346.633 87.3387 347.335C87.5756 348.038 86.5491 348.504 84.97 348.622C83.3909 348.741 73.253 348.622 73.253 348.622C72.6382 347.84 72.2333 346.913 72.0766 345.93C71.6089 343.86 70.9014 341.851 69.9685 339.945C69.3655 338.862 68.668 337.834 67.884 336.874V348.599H66.3602C66.3602 348.599 65.3022 337.813 65.1838 337.229C65.0653 336.645 63.7784 334.766 63.8968 331.955C64.0152 329.144 65.0653 327.849 65.768 327.383C66.2919 326.962 66.7313 326.445 67.0629 325.859L67.1734 321.051L75.8586 320.704L75.7322 322.133Z" fill="#FFBDA7" stroke="black" stroke-linecap="round" stroke-linejoin="round"/>
<path d="M65.768 327.399C65.0653 327.865 64.0152 329.16 63.8968 331.971C63.7784 334.782 65.0653 336.661 65.1838 337.245C65.3022 337.829 66.3602 348.615 66.3602 348.615H67.884V336.874C68.675 337.826 69.3805 338.846 69.9922 339.922C70.9251 341.828 71.6326 343.836 72.1003 345.906C72.257 346.889 72.6619 347.816 73.2767 348.599C73.2767 348.599 83.4699 348.717 84.9937 348.599C86.5175 348.48 87.5756 348.014 87.3624 347.312C87.1808 346.775 84.8832 345.338 83.233 343.601C82.854 343.696 82.4434 343.798 82.0881 343.909C79.7195 344.611 76.6955 343.561 75.8743 342.503C75.0532 341.445 69.779 334.529 68.1367 331.371C67.1637 329.703 66.793 327.752 67.0866 325.844C66.7513 326.442 66.3036 326.97 65.768 327.399Z" fill="black" stroke="black" stroke-linecap="round" stroke-linejoin="round"/>
<path d="M53.6565 322.133C54.0089 324.894 54.5176 327.633 55.1803 330.336C56.4752 334.307 58.0395 338.185 59.8624 341.943C61.1573 344.406 65.0261 346.633 65.2551 347.335C65.484 348.038 64.4655 348.504 62.8864 348.622C61.3073 348.741 51.1694 348.622 51.1694 348.622C50.5588 347.837 50.1543 346.912 49.993 345.93C49.5253 343.86 48.8178 341.851 47.8848 339.945C47.2819 338.862 46.5844 337.834 45.8004 336.874V348.599H44.2766C44.2766 348.599 43.2186 337.813 43.1001 337.229C42.9817 336.645 41.6947 334.766 41.8132 331.955C41.9316 329.144 42.9817 327.849 43.6923 327.383C44.2147 326.962 44.6516 326.445 44.9793 325.86L45.1293 321.083L53.8144 320.735L53.6565 322.133Z" fill="#FFBDA7" stroke="black" stroke-linecap="round" stroke-linejoin="round"/>
<path d="M43.6923 327.399C42.9817 327.865 41.9316 329.16 41.8132 331.971C41.6947 334.782 42.9817 336.661 43.1001 337.245C43.2186 337.829 44.2766 348.615 44.2766 348.615H45.8004V336.874C46.5914 337.826 47.2968 338.846 47.9085 339.922C48.8415 341.828 49.5489 343.836 50.0166 345.906C50.178 346.888 50.5824 347.813 51.1931 348.599C51.1931 348.599 61.3862 348.717 62.9101 348.599C64.4339 348.48 65.4919 348.014 65.2787 347.312C65.105 346.775 62.7995 345.338 61.1494 343.601L60.0045 343.909C57.6359 344.611 54.6119 343.561 53.7907 342.503C52.9696 341.445 47.6954 334.529 46.0531 331.371C45.0849 329.701 44.7145 327.752 45.003 325.844C44.6716 326.443 44.2264 326.971 43.6923 327.399Z" fill="black" stroke="black" stroke-linecap="round" stroke-linejoin="round"/>
<path d="M36.973 218.622C36.973 218.622 41.1814 248.625 40.9208 260.208C40.6602 271.791 36.6888 284.597 37.2336 297.317C37.6104 305.346 38.4885 313.344 39.8628 321.264C39.8628 321.264 39.6022 322.843 45.3897 323.104C48.9489 323.252 52.5079 322.809 55.9223 321.793C55.9223 321.793 56.7119 290.732 59.3411 276.26C61.9703 261.787 65.6576 241.259 65.6576 234.942V222.57L36.973 218.622Z" fill="black" stroke="black" stroke-linecap="round" stroke-linejoin="round"/>
<path d="M67.4973 223.36C67.4973 223.36 64.3391 261.519 63.818 273.102C63.2969 284.684 63.0285 302.055 63.289 305.473C63.5496 308.892 64.6076 322.315 64.6076 322.315C66.72 323.474 69.0465 324.191 71.4451 324.423C75.1323 324.683 79.6091 322.583 79.6091 322.583C79.6091 322.583 83.2884 275.21 83.8174 270.733C84.3464 266.256 85.136 262.577 85.136 262.577C85.136 262.577 94.8002 229.637 94.8002 220.225L67.4973 223.36Z" fill="black" stroke="black" stroke-linecap="round" stroke-linejoin="round"/>
<path d="M59.5859 97.8124C59.5859 97.8124 42.7762 104.918 42.1367 107.729C41.4972 110.54 44.9317 156.216 44.9317 156.216C44.9317 156.216 44.9317 167.641 43.8579 171.517C42.7841 175.394 36.7519 183.803 34.5885 191.777C32.4252 199.752 31.5724 220.02 31.5724 220.02C31.5724 220.02 44.2922 225.405 53.1273 226.265C61.9624 227.126 64.1179 227.126 64.1179 227.126V228.421C70.4417 228.644 76.7734 228.428 83.0672 227.773C92.763 226.699 104.18 220.88 104.18 220.88C104.18 220.88 102.032 191.785 100.516 183.384C99.0005 174.984 94.271 164.435 93.6236 161.182C92.9762 157.929 95.0922 133.232 95.0922 133.232L111.389 141.277C111.389 141.277 120.563 145.02 124.021 140.062C127.48 135.103 125.095 131.661 121.432 129.071C117.768 126.481 103.327 115.925 97.9425 111.187C92.5577 106.45 83.9358 104.287 80.9197 103.86C77.9035 103.434 74.3663 95.1753 74.3663 95.1753C74.3663 95.1753 62.6099 98.0335 59.5859 97.8124Z" fill="black" stroke="black" stroke-linecap="round" stroke-linejoin="round"/>
<path d="M62.2861 134.574L67.7656 139.406" stroke="black" stroke-linecap="round" stroke-linejoin="round"/>
<path d="M54.8643 102.818L52.2351 119.667L60.9202 122.825L54.3432 127.563L60.8965 133.342" stroke="black" stroke-linecap="round" stroke-linejoin="round"/>
<path d="M63.8732 221.496L64.0785 224.41" stroke="black" stroke-linecap="round" stroke-linejoin="round"/>
<path d="M71.8712 129.062L61.4491 155.718L60.6595 176.515L63.6678 218.63" stroke="black" stroke-linecap="round" stroke-linejoin="round"/>
<path d="M65.397 174.667C65.397 174.302 65.2887 173.945 65.0857 173.641C64.8826 173.337 64.5941 173.1 64.2565 172.96C63.9189 172.821 63.5474 172.784 63.189 172.855C62.8306 172.927 62.5014 173.103 62.243 173.361C61.9847 173.619 61.8087 173.949 61.7374 174.307C61.6661 174.665 61.7027 175.037 61.8425 175.374C61.9824 175.712 62.2192 176.001 62.523 176.204C62.8268 176.407 63.1841 176.515 63.5495 176.515C64.0395 176.515 64.5094 176.32 64.8559 175.974C65.2024 175.627 65.397 175.157 65.397 174.667Z" fill="black" stroke="black" stroke-linecap="round" stroke-linejoin="round"/>
<path d="M80.3986 173.618C80.4002 173.252 80.2931 172.894 80.0911 172.589C79.889 172.284 79.601 172.046 79.2636 171.905C78.9261 171.764 78.5544 171.726 78.1955 171.797C77.8365 171.867 77.5066 172.042 77.2474 172.301C76.9883 172.559 76.8115 172.888 76.7396 173.246C76.6676 173.605 76.7038 173.977 76.8434 174.315C76.983 174.653 77.2198 174.942 77.5238 175.145C77.8278 175.349 78.1853 175.457 78.551 175.457C78.7933 175.458 79.0334 175.412 79.2575 175.32C79.4816 175.228 79.6853 175.092 79.857 174.921C80.0286 174.75 80.1649 174.547 80.2578 174.323C80.3507 174.1 80.3986 173.86 80.3986 173.618Z" fill="black" stroke="black" stroke-linecap="round" stroke-linejoin="round"/>
<path d="M79.08 157.826C79.0816 157.46 78.9744 157.102 78.772 156.797C78.5696 156.492 78.2811 156.254 77.9432 156.113C77.6053 155.972 77.2331 155.935 76.874 156.006C76.5149 156.077 76.1849 156.253 75.9261 156.512C75.6672 156.771 75.4911 157.101 75.4201 157.46C75.349 157.819 75.3863 158.191 75.5271 158.529C75.6679 158.867 75.9059 159.155 76.211 159.358C76.516 159.56 76.8743 159.667 77.2404 159.666C77.482 159.666 77.7212 159.618 77.9444 159.526C78.1676 159.433 78.3704 159.298 78.5412 159.127C78.7121 158.956 78.8476 158.753 78.94 158.53C79.0325 158.307 79.08 158.068 79.08 157.826Z" fill="black" stroke="black" stroke-linecap="round" stroke-linejoin="round"/>
<path d="M66.7078 156.776C66.7078 156.412 66.5999 156.057 66.3977 155.754C66.1956 155.452 65.9083 155.216 65.5721 155.077C65.236 154.937 64.8661 154.901 64.5092 154.972C64.1523 155.043 63.8246 155.218 63.5673 155.475C63.31 155.733 63.1348 156.06 63.0638 156.417C62.9928 156.774 63.0292 157.144 63.1685 157.48C63.3077 157.816 63.5435 158.104 63.846 158.306C64.1486 158.508 64.5043 158.616 64.8681 158.616C65.356 158.616 65.8239 158.422 66.1689 158.077C66.514 157.732 66.7078 157.264 66.7078 156.776Z" fill="white" stroke="black" stroke-linecap="round" stroke-linejoin="round"/>
<path d="M88.1599 112.127L85.3965 105.716" stroke="black" stroke-linecap="round" stroke-linejoin="round"/>
<path d="M65.9182 153.35L88.8153 124.665L81.7093 121.507L90.3944 117.299L88.9021 113.84" stroke="black" stroke-linecap="round" stroke-linejoin="round"/>
<path d="M95.1081 133.224L94.3422 123.875" stroke="black" stroke-linecap="round" stroke-linejoin="round"/>
<path d="M59.5858 97.812C59.5858 97.812 61.7412 108.163 64.1178 114.393C66.4944 120.622 71.8712 129.047 71.8712 129.047L80.9274 103.836C80.9274 103.836 70.7974 96.5093 66.7154 95.0012C62.6334 93.4932 59.5858 97.812 59.5858 97.812Z" fill="#FFBDA7" stroke="black" stroke-linecap="round" stroke-linejoin="round"/>
<path d="M64.1178 114.409C66.4865 120.662 71.8713 129.063 71.8713 129.063L77.6429 112.98C76.6009 113.225 75.5467 113.414 74.4847 113.548C70.4436 114.03 66.361 113.086 62.9414 110.879C63.2888 112.127 63.7073 113.335 64.1178 114.409Z" stroke="black" stroke-linecap="round" stroke-linejoin="round"/>
<path d="M76.0639 105.274C75.2399 105.747 74.5862 106.468 74.1963 107.334C73.8064 108.2 73.7001 109.168 73.8926 110.098" stroke="black" stroke-linecap="round" stroke-linejoin="round"/>
<path d="M96.4503 73.6751C96.4503 73.6751 92.8499 78.6256 98.0294 86.7659C100.106 90.0426 95.4002 90.2715 94.9738 92.6402C94.5475 95.0089 93.679 96.738 91.3103 99.5409C88.9416 102.344 85.4913 105.573 83.549 106.647C82.4781 107.194 81.2668 107.403 80.0745 107.248C78.8822 107.093 77.7648 106.581 76.8693 105.778C74.927 104.057 72.132 99.9594 71.0503 98.4513C69.9686 96.9433 65.1918 92.427 68.0263 86.8212C70.8608 81.2154 74.9191 77.7729 82.033 73.0356C89.1469 68.2982 96.4503 73.6751 96.4503 73.6751Z" fill="#FFBDA7" stroke="black" stroke-linecap="round" stroke-linejoin="round"/>
<path d="M96.008 88.5508C94.9454 88.5736 93.9066 88.87 92.9919 89.4114C91.6971 90.272 91.0575 97.3859 89.5416 99.3282C88.0256 101.271 85.8781 98.8939 85.8781 98.8939" stroke="black" stroke-linecap="round" stroke-linejoin="round"/>
<path d="M84.8042 101.697C84.0921 101.435 83.4396 101.033 82.885 100.515C82.3304 99.9969 81.885 99.3733 81.575 98.6807" stroke="black" stroke-linecap="round" stroke-linejoin="round"/>
<path d="M86.5255 88.7642L84.8043 90.7066C84.8043 90.7066 81.6461 91.3382 81.0065 88.3379" stroke="black" stroke-linecap="round" stroke-linejoin="round"/>
<path d="M85.3492 91.7407C85.3492 91.7407 83.399 92.1749 81.512 89.6562" stroke="black" stroke-linecap="round" stroke-linejoin="round"/>
<path d="M92.5024 92.9958C92.9743 93.2778 93.4779 93.5031 94.0026 93.667L95.0053 91.1641" stroke="black" stroke-linecap="round" stroke-linejoin="round"/>
<path d="M92.3602 93.667L94.0262 94.3302" stroke="black" stroke-linecap="round" stroke-linejoin="round"/>
<path d="M84.1568 84.666C85.1337 84.6935 86.095 84.9174 86.9835 85.3243C87.872 85.7313 88.6695 86.313 89.3284 87.0347" stroke="black" stroke-linecap="round" stroke-linejoin="round"/>
<path d="M47.5767 102.123C47.5767 102.123 39.6022 102.992 36.5861 104.926C33.57 106.86 26.0218 135.316 23.8742 140.274C21.7267 145.233 19.7765 156.002 20.6371 157.724C21.4977 159.445 27.7431 160.526 31.4145 160.092C35.0859 159.658 37.2335 156.642 38.3073 153.191C39.3811 149.741 47.1424 130.136 47.1424 130.136" fill="black"/>
<path d="M47.5767 102.123C47.5767 102.123 39.6022 102.992 36.5861 104.926C33.57 106.86 26.0218 135.316 23.8742 140.274C21.7267 145.233 19.7765 156.002 20.6371 157.724C21.4977 159.445 27.7431 160.526 31.4145 160.092C35.0859 159.658 37.2335 156.642 38.3073 153.191C39.3811 149.741 47.1424 130.136 47.1424 130.136" stroke="black" stroke-linecap="round" stroke-linejoin="round"/>
<path d="M95.5422 137.409C95.9459 137.45 96.3322 137.595 96.664 137.828C96.9958 138.062 97.262 138.377 97.4371 138.743C98.2267 140.085 98.1082 144.215 98.1082 144.215L102.056 143.291C102.357 142.084 102.308 140.816 101.914 139.635C101.243 137.851 100.761 137.685 100.761 137.685L95.5422 137.409Z" fill="black" stroke="black" stroke-linecap="round" stroke-linejoin="round"/>
<path d="M85.0491 129.813C85.0491 129.813 92.7157 131.542 93.4342 132.182C94.1527 132.821 96.4898 136.674 96.4898 137.219C96.4898 137.764 95.495 137.922 94.9581 137.669C94.4212 137.416 92.7157 135.056 92.7157 135.056L88.1205 133.887C88.1205 133.887 85.207 131.139 85.0491 129.813Z" fill="#FFBDA7" stroke="black" stroke-linecap="round" stroke-linejoin="round"/>
<path d="M67.7814 147.167L70.8606 142.88C70.8606 142.88 74.4373 134.195 75.1084 133.721C75.7796 133.248 84.3778 129.584 85.0489 129.813C85.7201 130.042 88.9967 134.835 89.0678 135.506C89.1388 136.177 89.2888 137.874 89.2888 137.874C89.2888 137.874 77.4455 147.349 76.4428 148.486C75.44 149.623 72.3134 150.942 72.3134 150.942L67.734 155.181C66.7017 152.607 66.7187 149.73 67.7814 147.167Z" fill="#FFBDA7" stroke="black" stroke-linecap="round" stroke-linejoin="round"/>
<path d="M79.3485 133.161L84.4885 140.535" stroke="black" stroke-linecap="round" stroke-linejoin="round"/>
<path d="M77.1455 137.566L78.4088 139.635" stroke="black" stroke-miterlimit="1" stroke-linecap="round"/>
<path d="M83.2569 131.598L87.8363 138.522" stroke="black" stroke-linecap="round" stroke-linejoin="round"/>
<path d="M29.046 151.478C29.046 151.478 45.974 150.239 51.7931 149.378C57.6121 148.517 67.1657 147.38 67.1657 147.38C67.2307 149.557 67.4364 151.728 67.7815 153.878C68.0104 154.857 68.3716 155.8 68.8553 156.681C68.8553 156.681 47.5768 162.287 41.1104 164.443C34.6439 166.598 28.8249 168.967 23.6533 167.025C18.4817 165.082 19.1291 158.624 19.5634 155.181C19.9977 151.739 22.0979 145.754 22.0979 145.754" fill="black"/>
<path d="M29.046 151.478C29.046 151.478 45.974 150.239 51.7931 149.378C57.6121 148.517 67.1657 147.38 67.1657 147.38C67.2307 149.557 67.4364 151.728 67.7815 153.878C68.0104 154.857 68.3716 155.8 68.8553 156.681C68.8553 156.681 47.5768 162.287 41.1104 164.443C34.6439 166.598 28.8249 168.967 23.6533 167.025C18.4817 165.082 19.1291 158.624 19.5634 155.181C19.9977 151.739 22.0979 145.754 22.0979 145.754" stroke="black" stroke-linecap="round" stroke-linejoin="round"/>
<path d="M99.1978 75.3734C98.2288 76.3403 97.0416 77.0601 95.7363 77.4723C94.4309 77.8846 93.0456 77.9771 91.697 77.742C87.1729 76.8814 86.0991 75.1602 84.591 77.9552C83.083 80.7502 81.5749 85.0612 79.4195 85.5034C77.264 85.9455 74.4611 85.2823 73.3794 87.2246C72.2977 89.1669 74.6742 99.7233 71.6581 101.231C68.642 102.739 61.1018 99.5101 59.8148 101.879C58.5278 104.247 59.8148 108.779 55.717 110.501C51.6192 112.222 42.5709 110.501 39.5548 107.698C36.5387 104.895 38.481 98.6495 38.6942 96.9203C38.9074 95.1912 35.6781 93.0436 36.973 88.3063C38.2678 83.569 43.2184 83.569 43.2184 80.3318C43.2184 77.0946 41.9235 73.2258 44.5132 70.6281C47.103 68.0305 49.4716 68.9069 51.8403 67.612C54.209 66.3172 56.3566 63.1195 59.3411 57.5136C62.3256 51.9078 76.6165 48.8917 84.3779 50.8261C92.1392 52.7605 100.28 61.3272 102.001 64.9907C103.722 68.6543 102.214 74.7417 99.1978 75.3734Z" fill="black" stroke="black" stroke-linecap="round" stroke-linejoin="round"/>
<path d="M83.3516 70.4619C81.8198 70.833 80.5013 71.5357 80.1933 72.8306C79.4038 76.2967 74.3269 82.7 72.4557 82.9685C70.5844 83.2369 63.6521 83.4975 62.8547 85.6372C62.0572 87.7769 61.5204 94.4407 59.3807 94.9776C57.241 95.5145 50.056 93.9117 46.8504 97.6384C43.6448 101.365 47.1189 107.776 49.5191 108.305C51.9194 108.834 54.8565 106.173 54.8565 104.042C54.8565 101.91 49.5191 101.105 49.5191 103.252" stroke="#878787" stroke-linecap="round" stroke-linejoin="round"/>
<path d="M89.0126 70.17C88.225 70.1034 87.4344 70.077 86.644 70.0911" stroke="#878787" stroke-linecap="round" stroke-linejoin="round"/>
<path d="M40.4865 91.0693C40.1473 91.2244 39.8576 91.4704 39.6495 91.7799L38.3152 93.9117" stroke="#878787" stroke-linecap="round" stroke-linejoin="round"/>
<path d="M65.1127 71.4648C59.9569 74.0309 48.611 73.4308 47.3872 77.1023C46.0528 81.1053 50.5454 89.6483 49.2505 90.1773C48.3267 90.5484 44.6948 90.1773 42.1445 90.5879" stroke="#878787" stroke-linecap="round" stroke-linejoin="round"/>
<path d="M91.7129 62.1636C91.7129 62.1636 82.3725 57.3552 75.1323 58.6895C68.8158 59.8581 70.087 65.5192 67.6394 69.2459" stroke="#878787" stroke-linecap="round" stroke-linejoin="round"/>
<path d="M81.804 62.9614C81.804 62.9614 89.2732 62.9614 92.7473 65.1011C96.2213 67.2408 98.8821 69.9016 98.8821 71.236" stroke="#878787" stroke-linecap="round" stroke-linejoin="round"/>
<path d="M83.4779 146.591C83.4779 146.591 87.4257 146.702 89.1785 146.702C90.9313 146.702 94.2 144.246 93.6474 141.901C92.5845 141.354 91.4572 140.943 90.2917 140.677C88.6179 140.338 79.3485 144.025 79.7986 145.588C80.2486 147.152 83.4779 146.591 83.4779 146.591Z" fill="white" stroke="black" stroke-linecap="round" stroke-linejoin="round"/>
<path d="M100.753 137.685C100.753 137.685 94.7211 137.25 92.7788 137.25C90.8365 137.25 87.173 135.963 85.6728 135.963C84.1726 135.963 78.1325 139.84 76.8377 140.274C75.5428 140.709 74.6822 146.733 74.6822 147.601C74.6822 148.47 75.3296 151.044 76.1902 151.265C77.0509 151.486 77.2719 150.831 77.0509 149.97C76.8298 149.109 77.9194 146.52 77.9194 146.52L80.288 144.799C80.288 144.799 87.394 144.577 88.4757 144.577C89.5574 144.577 91.705 145.225 94.2947 145.446C96.8845 145.667 99.0321 143.504 99.0321 143.504L102.056 143.29C102.056 143.29 102.475 141.348 100.753 137.685Z" fill="#FFBDA7" stroke="black" stroke-linecap="round" stroke-linejoin="round"/>
<path d="M81.1329 138.632C81.1329 138.632 77.6746 141.869 77.5641 142.651C77.4535 143.433 76.3324 150.247 76.6719 150.918C77.0114 151.589 77.6746 152.592 78.3457 152.26C79.0169 151.928 79.0169 149.576 79.0169 148.794C79.0169 148.012 80.0907 145.375 80.2801 144.799C80.4696 144.222 83.1462 141.317 83.1462 141.317L85.0491 139.414" fill="#FFBDA7"/>
<path d="M81.1329 138.632C81.1329 138.632 77.6746 141.869 77.5641 142.651C77.4535 143.433 76.3324 150.247 76.6719 150.918C77.0114 151.589 77.6746 152.592 78.3457 152.26C79.0169 151.928 79.0169 149.576 79.0169 148.794C79.0169 148.012 80.0907 145.375 80.2801 144.799C80.4696 144.222 83.1462 141.317 83.1462 141.317L85.0491 139.414" stroke="black" stroke-linecap="round" stroke-linejoin="round"/>
<path d="M83.391 138.19C83.391 138.19 79.6564 141.719 79.5379 142.564C79.4195 143.409 78.2115 150.839 78.5747 151.573C78.9379 152.307 79.6564 153.397 80.3827 153.034C81.1091 152.67 81.1012 150.112 81.1012 149.26C81.1012 148.407 82.2619 145.533 82.4672 144.901C82.6725 144.27 85.5622 141.103 85.5622 141.103L87.6151 139.035" fill="#FFBDA7"/>
<path d="M83.391 138.19C83.391 138.19 79.6564 141.719 79.5379 142.564C79.4195 143.409 78.2115 150.839 78.5747 151.573C78.9379 152.307 79.6564 153.397 80.3827 153.034C81.1091 152.67 81.1012 150.112 81.1012 149.26C81.1012 148.407 82.2619 145.533 82.4672 144.901C82.6725 144.27 85.5622 141.103 85.5622 141.103L87.6151 139.035" stroke="black" stroke-linecap="round" stroke-linejoin="round"/>
<path d="M90.3075 144.688C89.9687 144.656 89.6277 144.656 89.289 144.688C87.9048 144.932 86.5553 145.343 85.2701 145.912C85.2701 145.912 82.8146 151.162 82.3646 151.273C81.9145 151.383 81.0223 150.941 81.3618 150.27C81.7013 149.599 83.0278 143.322 83.8173 142.643C85.2496 141.75 86.7429 140.958 88.2862 140.274" fill="#FFBDA7"/>
<path d="M90.3075 144.688C89.9687 144.656 89.6277 144.656 89.289 144.688C87.9048 144.932 86.5553 145.343 85.2701 145.912C85.2701 145.912 82.8146 151.162 82.3646 151.273C81.9145 151.383 81.0223 150.941 81.3618 150.27C81.7013 149.599 83.0278 143.322 83.8173 142.643C85.2496 141.75 86.7429 140.958 88.2862 140.274" stroke="black" stroke-linecap="round" stroke-linejoin="round"/>
<path d="M121.226 132.513L100.532 136.824C100.532 136.824 100.532 144.578 100.106 146.52L99.6716 148.462C99.6716 148.462 113.039 148.462 117.129 148.028C121.219 147.594 127.045 147.381 128.767 143.717C130.488 140.054 127.693 134.243 126.185 132.727C125.581 132.022 124.85 131.438 124.029 131.005" fill="black"/>
<path d="M121.226 132.513L100.532 136.824C100.532 136.824 100.532 144.578 100.106 146.52L99.6716 148.462C99.6716 148.462 113.039 148.462 117.129 148.028C121.219 147.594 127.045 147.381 128.767 143.717C130.488 140.054 127.693 134.243 126.185 132.727C125.581 132.022 124.85 131.438 124.029 131.005" stroke="black" stroke-linecap="round" stroke-linejoin="round"/>
<path d="M94.4291 137.409L96.8846 139.525L102.356 139.193L102.246 138.301L99.0085 135.932L94.5397 136.153C94.5397 136.153 94.0817 137.18 94.4291 137.409Z" fill="black" stroke="black" stroke-linecap="round" stroke-linejoin="round"/>
<path d="M252.94 91.3221H253.027C253.027 91.3221 249.719 83.4265 243.308 79.2182C236.896 75.0098 226.727 75.6889 226.727 75.6889C226.727 75.6889 170.882 77.4496 161.612 78.5549C152.343 79.6603 147.921 84.0818 147.921 84.0818L144.432 91.3221H159.267C157.822 93.8919 157.064 96.7905 157.064 99.7387V218.44C157.064 220.892 157.565 223.317 158.537 225.567C159.51 227.817 160.932 229.844 162.718 231.523L142.884 230.852C142.884 230.852 149.508 238.132 155.027 239.901C160.546 241.669 170.921 241.882 170.921 241.882L235.815 244.093C235.815 244.093 239.565 243.651 241.776 241.669C243.15 240.207 244.304 238.553 245.202 236.758C247.918 235.16 250.17 232.882 251.738 230.149C253.307 227.417 254.137 224.323 254.148 221.172L254.535 98.5386C254.547 96.0443 254.003 93.5788 252.94 91.3221Z" fill="#878787" stroke="black" stroke-linecap="round" stroke-linejoin="round"/>
<path d="M355.425 83.1899C354.098 77.0077 329.598 47.6599 312.386 37.4983C295.174 27.3368 288.099 25.3629 256.098 26.6814C224.098 28 195.84 40.5934 183.917 54.9396C176.511 63.7834 168.146 71.7779 158.975 78.7763C158.975 78.7763 229.388 76.1234 231.614 76.1234C233.841 76.1234 237.568 78.7763 240.663 83.632C243.758 88.4878 247.287 92.2382 250.374 91.3539C252.088 90.8644 252.119 89.4116 251.811 88.1957C251.538 87.251 251.039 86.3867 250.358 85.677C242.297 76.9919 242.866 70.8097 242.866 70.8097C244.445 62.1956 251.701 55.3581 251.701 55.3581C265.384 64.1853 273.105 78.5315 273.105 78.5315C273.105 78.5315 272.442 84.9348 271.124 93.9831C269.805 103.031 270.018 111.195 272.663 115.396C275.308 119.596 281.72 128.195 285.249 142.762C288.778 157.329 287.673 171.454 287.673 183.598C287.673 195.741 290.768 203.905 290.768 203.905C290.768 203.905 288.999 216.925 279.951 239.222C270.903 261.519 256.114 272.77 256.114 272.77C245.518 264.164 241.989 250.481 241.989 245.846C241.989 241.211 246.845 236.577 249.048 233.924C251.251 231.271 252.996 228.184 249.49 228.397C245.984 228.61 242.644 235.685 239.557 239.656C238.682 240.803 237.544 241.723 236.238 242.337C234.933 242.952 233.498 243.243 232.057 243.185L159.875 240.982C162.987 242.872 165.822 245.184 168.3 247.852C172.714 252.486 180.222 264.851 191.481 273.678C202.74 282.505 212.444 290.014 232.309 293.543C252.174 297.073 273.366 297.491 288.154 294.649C301.265 292.075 313.236 285.446 322.374 275.699C329.875 267.527 339.807 251.42 346.21 230.008C352.614 208.595 353.711 195.354 355.038 174.826C356.364 154.297 350.845 116.991 350.845 116.991C350.845 116.991 354.595 105.74 355.922 98.6731C357.248 91.6066 356.775 89.3721 355.425 83.1899ZM344.142 100.852L338.718 103.434C338.718 103.434 290.705 109.379 286.054 107.311C281.404 105.242 283.212 98.531 283.212 98.531L339.752 85.6217C339.752 85.6217 345.437 87.2008 345.95 92.0803C346.229 95.1161 345.609 98.1669 344.165 100.852H344.142Z" fill="white" stroke="black" stroke-linecap="round" stroke-linejoin="round"/>
<path d="M340.762 213.601C342.697 205.2 343.921 198.702 343.921 198.702" stroke="black" stroke-linecap="round" stroke-linejoin="round"/>
<path d="M264.768 279.418C272.152 283.765 280.607 285.954 289.173 285.734C310.088 285.221 326.866 256.308 332.804 241.33C335.472 234.611 337.983 225.341 339.91 217.169" stroke="black" stroke-linecap="round" stroke-linejoin="round"/>
<path d="M257.63 274.262C259.028 275.506 260.505 276.659 262.052 277.713" stroke="black" stroke-linecap="round" stroke-linejoin="round"/>
<path d="M316.602 115.222C325.753 114.749 333.183 114.259 333.183 114.259C333.183 114.259 339.744 112.948 343.021 107.05C346.297 101.152 348.271 94.2596 346.629 86.7193C344.987 79.1791 324 60.4824 324 60.4824H279.43L277.464 85.4087C277.464 85.4087 274.511 94.8833 274.187 100.813C273.863 106.742 276.485 114.914 284.68 115.901C287.317 116.217 293.271 116.162 300.14 115.941M306.227 115.712L312.844 115.412L306.227 115.712ZM344.165 100.852L338.741 103.434C338.741 103.434 290.728 109.38 286.078 107.311C281.427 105.242 283.235 98.5311 283.235 98.5311L339.776 85.6219C339.776 85.6219 345.46 87.201 345.974 92.0804C346.246 95.1185 345.617 98.1696 344.165 100.852Z" fill="white"/>
<path d="M316.602 115.222C325.753 114.749 333.183 114.259 333.183 114.259C333.183 114.259 339.744 112.948 343.021 107.05C346.297 101.152 348.271 94.2596 346.629 86.7193C344.987 79.1791 324 60.4824 324 60.4824H279.43L277.464 85.4087C277.464 85.4087 274.511 94.8833 274.187 100.813C273.863 106.742 276.485 114.914 284.68 115.901C287.317 116.217 293.271 116.162 300.14 115.941M306.227 115.712L312.844 115.412M344.165 100.852L338.741 103.434C338.741 103.434 290.728 109.38 286.078 107.311C281.427 105.242 283.235 98.5311 283.235 98.5311L339.776 85.6219C339.776 85.6219 345.46 87.201 345.974 92.0804C346.246 95.1185 345.617 98.1696 344.165 100.852Z" stroke="black" stroke-linecap="round" stroke-linejoin="round"/>
<path d="M251.677 163.756H246.655C245.055 163.756 243.758 165.053 243.758 166.654V204.56C243.758 206.16 245.055 207.458 246.655 207.458H251.677C253.277 207.458 254.575 206.16 254.575 204.56V166.654C254.575 165.053 253.277 163.756 251.677 163.756Z" fill="#B8B8B8" stroke="black" stroke-linecap="round" stroke-linejoin="round"/>
<path d="M250.603 163.961C249.472 164.262 248.471 164.929 247.757 165.857C247.043 166.785 246.656 167.923 246.655 169.094V202.144C246.657 203.315 247.045 204.452 247.759 205.38C248.473 206.308 249.472 206.974 250.603 207.276C251.734 206.974 252.734 206.308 253.447 205.38C254.161 204.452 254.549 203.315 254.551 202.144V169.086C254.549 167.916 254.16 166.78 253.447 165.854C252.733 164.927 251.733 164.262 250.603 163.961Z" fill="#B8B8B8" stroke="black" stroke-linecap="round" stroke-linejoin="round"/>
<path d="M243.537 128.66C243.537 120.251 248.132 113.43 253.801 113.43H248.724C243.055 113.43 238.46 120.251 238.46 128.66C238.46 137.069 243.055 143.891 248.724 143.891H253.801C248.132 143.891 243.537 137.069 243.537 128.66Z" fill="#B8B8B8" stroke="black" stroke-linecap="round" stroke-linejoin="round"/>
<path d="M253.801 143.891C259.47 143.891 264.065 137.072 264.065 128.66C264.065 120.249 259.47 113.43 253.801 113.43C248.132 113.43 243.537 120.249 243.537 128.66C243.537 137.072 248.132 143.891 253.801 143.891Z" fill="#B8B8B8" stroke="black" stroke-linecap="round" stroke-linejoin="round"/>
<path d="M255.364 140.22C259.197 140.22 262.304 135.045 262.304 128.661C262.304 122.277 259.197 117.102 255.364 117.102C251.531 117.102 248.424 122.277 248.424 128.661C248.424 135.045 251.531 140.22 255.364 140.22Z" fill="#878787" stroke="black" stroke-linecap="round" stroke-linejoin="round"/>
<path d="M251.708 55.3816C251.708 55.3816 260.259 43.025 275.49 39.6694C290.72 36.3138 301.829 38.8799 316.026 51.2838C330.222 63.6877 342.618 90.5326 342.618 90.5326C342.618 90.5326 345.2 98.0176 344.197 100.852C343.194 103.687 339.033 108.345 333.096 108.858C327.158 109.371 303.408 109.379 303.408 109.379C303.408 109.379 291.012 110.666 286.109 107.311C286.109 107.311 281.617 88.7798 273.145 78.555C273.113 78.555 261.467 61.019 251.708 55.3816Z" fill="white" stroke="black" stroke-linecap="round" stroke-linejoin="round"/>
<path d="M307.049 58.5004C305.933 57.6372 304.827 56.8345 303.732 56.0923" stroke="black" stroke-linecap="round" stroke-linejoin="round"/>
<path d="M299.69 53.6051C289.718 48.0782 279.793 47.3676 266.915 49.831C261.592 50.8809 256.463 52.7451 251.708 55.3579C261.483 60.9953 273.113 78.5313 273.113 78.5313C281.585 88.7956 286.078 107.287 286.078 107.287C290.981 110.643 303.377 109.348 303.377 109.348C303.377 109.348 327.127 109.348 333.064 108.834C333.966 108.756 334.856 108.575 335.717 108.298C335.726 105.729 335.429 103.169 334.833 100.67C334.833 100.67 324.75 73.8256 310.609 61.4296" stroke="black" stroke-linecap="round" stroke-linejoin="round"/>
<path d="M317.778 233.268C315.212 235.345 311.967 234.926 310.514 232.329C309.062 229.731 309.978 225.941 312.536 223.865C315.094 221.788 318.355 222.214 319.8 224.812C321.245 227.41 320.337 231.192 317.778 233.268Z" fill="white" stroke="black" stroke-linecap="round" stroke-linejoin="round"/>
<path d="M320.423 228.381C319.673 228.275 318.908 228.331 318.181 228.545C317.454 228.759 316.781 229.126 316.207 229.621C314.728 230.848 313.78 232.599 313.562 234.508C314.313 234.616 315.078 234.561 315.805 234.347C316.532 234.133 317.205 233.765 317.778 233.269C319.256 232.041 320.204 230.29 320.423 228.381Z" fill="white" stroke="black" stroke-linecap="round" stroke-linejoin="round"/>
<path d="M299.232 215.282C295.553 212.231 292.654 208.347 290.776 203.952" stroke="black" stroke-linecap="round" stroke-linejoin="round"/>
<path d="M350.813 116.959C349.418 125.202 348.663 133.541 348.555 141.901C348.555 154.297 351.65 169.267 346.976 188.635C342.302 208.003 331.485 214.966 325.027 218.062C320.976 220.012 312.165 222.009 303.867 218.148" stroke="black" stroke-linecap="round" stroke-linejoin="round"/>
<path d="M328.619 183.432C327.735 193.523 320.621 201.134 312.741 200.439C304.861 199.744 299.184 191.012 300.108 180.921C301.032 170.831 308.051 163.227 315.947 163.962C323.842 164.696 329.511 173.349 328.619 183.432Z" fill="#878787" stroke="black" stroke-linecap="round" stroke-linejoin="round"/>
<path d="M315.513 89.3167C318.008 91.867 318.292 95.6332 316.152 97.7255C314.012 99.8178 310.254 99.4467 307.759 96.9359C305.264 94.4251 304.98 90.6195 307.12 88.5272C309.259 86.4348 313.018 86.7744 315.513 89.3167Z" fill="white" stroke="black" stroke-linecap="round" stroke-linejoin="round"/>
<path d="M310.357 87.1693C310.455 88.8938 311.186 90.5215 312.41 91.7408C313.072 92.439 313.872 92.9913 314.76 93.3624C315.648 93.7336 316.603 93.9154 317.565 93.8963C317.465 92.1699 316.735 90.5404 315.513 89.3169C314.851 88.6186 314.05 88.0667 313.162 87.6968C312.274 87.3269 311.318 87.1472 310.357 87.1693Z" fill="white" stroke="black" stroke-linecap="round" stroke-linejoin="round"/>
<path d="M218.76 81.5792L155.414 82.5582C150.895 82.6267 146.583 84.4703 143.412 87.6908C140.24 90.9114 138.462 95.2503 138.463 99.7705V218.441C138.462 223.08 140.25 227.54 143.454 230.895C146.659 234.249 151.033 236.239 155.667 236.45L216.542 239.285C218.994 239.402 221.444 239.021 223.745 238.165C226.046 237.309 228.149 235.994 229.928 234.302C231.706 232.61 233.123 230.575 234.093 228.319C235.063 226.064 235.565 223.635 235.57 221.18L235.957 98.5467C235.966 96.2967 235.525 94.0676 234.661 91.99C233.797 89.9125 232.527 88.0283 230.925 86.448C229.324 84.8677 227.423 83.623 225.334 82.7869C223.245 81.9509 221.01 81.5403 218.76 81.5792Z" fill="black" stroke="black" stroke-linecap="round" stroke-linejoin="round"/>
<path d="M174.316 211.998C173.48 211.92 172.708 211.519 172.162 210.881C171.617 210.242 171.342 209.417 171.395 208.579C171.37 208.168 171.428 207.756 171.565 207.367C171.701 206.978 171.914 206.62 172.19 206.314C172.467 206.008 172.801 205.761 173.174 205.586C173.547 205.411 173.952 205.312 174.363 205.295C175.199 205.377 175.97 205.78 176.515 206.419C177.06 207.058 177.336 207.883 177.285 208.721C177.308 209.132 177.25 209.543 177.113 209.931C176.975 210.319 176.763 210.676 176.486 210.981C176.21 211.286 175.876 211.533 175.503 211.708C175.131 211.882 174.727 211.981 174.316 211.998ZM174.379 201.734C171.039 201.647 168.308 204.671 168.284 208.477C168.26 212.282 170.96 215.44 174.3 215.519C177.64 215.598 180.372 212.574 180.396 208.777C180.419 204.979 177.719 201.813 174.379 201.734ZM174.292 216.427C170.51 216.333 167.463 212.756 167.486 208.453C167.51 204.15 170.645 200.723 174.387 200.818C178.13 200.913 181.217 204.497 181.193 208.8C181.169 213.103 178.035 216.522 174.292 216.427ZM174.411 197.557C169.05 197.423 164.652 202.294 164.612 208.382C164.573 214.469 168.908 219.562 174.269 219.696C179.63 219.83 184.028 214.959 184.059 208.871C184.091 202.784 179.772 197.691 174.411 197.557ZM174.269 220.604C168.465 220.462 163.775 214.967 163.823 208.366C163.87 201.765 168.615 196.523 174.411 196.641C180.206 196.76 184.88 202.31 184.88 208.911C184.88 215.511 180.088 220.754 174.292 220.628M174.458 193.601C167.171 193.42 161.202 200.028 161.154 208.319C161.107 216.609 166.981 223.51 174.269 223.691C181.556 223.873 187.525 217.272 187.573 208.982C187.62 200.692 181.738 193.783 174.458 193.601Z" fill="white"/>
<path d="M174.245 223.691C166.957 223.51 161.075 216.585 161.13 208.319C161.186 200.052 167.147 193.42 174.434 193.601C181.722 193.783 187.604 200.707 187.549 208.982C187.494 217.256 181.533 223.873 174.245 223.691ZM174.434 193.151C166.934 192.962 160.783 199.76 160.728 208.311C160.673 216.862 166.721 223.968 174.245 224.149C181.769 224.331 187.896 217.533 187.952 208.99C188.007 200.447 181.935 193.333 174.434 193.175" fill="black"/>
<path d="M174.269 219.72C168.908 219.586 164.581 214.509 164.612 208.406C164.644 202.302 169.05 197.447 174.411 197.581C179.772 197.715 184.091 202.784 184.091 208.895C184.091 215.006 179.661 219.854 174.3 219.72M174.442 196.665C168.647 196.523 163.894 201.781 163.854 208.39C163.815 214.998 168.497 220.486 174.3 220.628C180.104 220.77 184.849 215.519 184.888 208.911C184.928 202.302 180.246 196.815 174.442 196.665Z" fill="black"/>
<path d="M174.3 215.543C170.96 215.464 168.26 212.298 168.284 208.5C168.308 204.703 171.039 201.671 174.379 201.758C177.719 201.845 180.419 204.995 180.396 208.8C180.372 212.606 177.632 215.63 174.3 215.543ZM174.387 200.842C170.613 200.747 167.51 204.174 167.486 208.477C167.463 212.78 170.51 216.372 174.292 216.451C178.074 216.53 181.162 213.119 181.193 208.824C181.225 204.529 178.161 200.929 174.387 200.842Z" fill="black"/>
<path d="M174.363 205.294C173.952 205.312 173.547 205.411 173.174 205.586C172.801 205.761 172.467 206.008 172.19 206.314C171.914 206.62 171.701 206.978 171.565 207.366C171.428 207.755 171.37 208.168 171.395 208.579C171.342 209.417 171.617 210.242 172.162 210.88C172.708 211.519 173.48 211.919 174.316 211.998C174.727 211.981 175.131 211.882 175.503 211.707C175.876 211.533 176.21 211.286 176.486 210.981C176.763 210.676 176.975 210.319 177.113 209.931C177.25 209.543 177.308 209.132 177.285 208.721C177.336 207.883 177.06 207.058 176.515 206.419C175.97 205.78 175.199 205.377 174.363 205.294Z" fill="black"/>
<path d="M179.085 162.572L179.124 155.671H179.914L179.875 162.572C180.238 162.713 180.549 162.963 180.764 163.289C180.979 163.614 181.088 163.998 181.075 164.388C181.075 164.631 181.03 164.872 180.94 165.099L192.452 171.96L192.357 172.165L180.846 165.296C180.717 165.558 180.519 165.78 180.272 165.936C180.025 166.092 179.74 166.177 179.448 166.18C179.065 166.168 178.701 166.01 178.43 165.738L171.182 171.581L170.716 170.839L177.964 164.996C177.883 164.776 177.846 164.543 177.853 164.309C177.835 163.923 177.946 163.542 178.167 163.225C178.388 162.907 178.708 162.673 179.077 162.556M179.582 145.597C170.503 145.376 163.073 153.603 163.002 163.938C162.931 174.273 170.266 182.887 179.338 183.085C188.41 183.282 195.847 175.087 195.918 164.759C195.989 154.432 188.654 145.81 179.582 145.597Z" fill="white"/>
<path d="M179.354 183.1C170.282 182.879 162.947 174.281 163.018 163.953C163.089 153.626 170.511 145.391 179.598 145.612C188.686 145.833 195.989 154.439 195.934 164.751C195.879 175.062 188.433 183.305 179.354 183.076M179.59 145.138C170.297 144.909 162.678 153.334 162.615 163.914C162.552 174.494 170.06 183.298 179.354 183.534C188.647 183.771 196.258 175.339 196.329 164.759C196.4 154.179 188.883 145.367 179.59 145.138Z" fill="black"/>
<path d="M179.78 164.672L178.777 165.462C178.968 165.627 179.212 165.719 179.464 165.722C179.679 165.723 179.89 165.664 180.073 165.551C180.256 165.438 180.403 165.276 180.498 165.083L179.78 164.656M179.875 163.077V164.49L180.601 164.917C180.658 164.752 180.687 164.578 180.688 164.404C180.699 164.13 180.63 163.859 180.49 163.623C180.35 163.388 180.144 163.198 179.898 163.077M179.109 163.077C178.863 163.187 178.655 163.368 178.514 163.598C178.373 163.828 178.305 164.095 178.319 164.364C178.318 164.5 178.334 164.635 178.367 164.767L179.156 164.151V163.077" fill="black"/>
<path d="M180.498 165.098C180.403 165.291 180.256 165.454 180.073 165.567C179.89 165.68 179.679 165.739 179.464 165.738C179.212 165.734 178.968 165.642 178.777 165.477L178.438 165.754C178.709 166.025 179.073 166.183 179.456 166.196C179.748 166.192 180.033 166.107 180.28 165.951C180.527 165.795 180.725 165.574 180.854 165.311L180.498 165.098ZM179.883 162.587V163.061C180.129 163.182 180.334 163.372 180.474 163.607C180.615 163.843 180.683 164.114 180.672 164.388C180.672 164.562 180.642 164.736 180.585 164.901L180.941 165.114C181.03 164.888 181.075 164.647 181.075 164.403C181.088 164.014 180.979 163.629 180.764 163.304C180.549 162.979 180.238 162.728 179.875 162.587M179.085 162.587C178.716 162.704 178.396 162.939 178.175 163.256C177.954 163.573 177.843 163.954 177.861 164.34C177.853 164.574 177.891 164.807 177.972 165.027L178.303 164.751C178.271 164.619 178.255 164.484 178.256 164.348C178.242 164.079 178.31 163.812 178.451 163.582C178.592 163.352 178.799 163.171 179.046 163.061V162.587" fill="black"/>
<path d="M179.922 155.687L179.125 155.671L179.085 162.572V163.045L179.077 164.119L178.311 164.735L177.972 165.011L170.724 170.854L171.19 171.596L178.438 165.754L178.777 165.477L179.78 164.672L179.425 164.459L179.512 164.261L179.867 164.474L179.875 163.061L179.883 162.587L179.922 155.687Z" fill="black"/>
<path d="M179.511 164.261L179.424 164.459L179.78 164.672L180.506 165.098L180.861 165.311L192.365 172.18L192.46 171.975L180.948 165.114L180.593 164.901L179.867 164.474L179.511 164.261Z" fill="black"/>
<path d="M215.199 145.415C207.912 145.233 201.951 151.834 201.895 160.124C201.84 168.415 207.73 175.323 215.01 175.505C222.29 175.686 228.306 169.078 228.306 160.803C228.306 152.529 222.471 145.612 215.184 145.431" fill="black"/>
<path d="M222.597 153.981L207.698 153.61C207.469 153.621 207.244 153.678 207.036 153.777C206.829 153.875 206.643 154.014 206.489 154.185C206.336 154.357 206.218 154.557 206.142 154.774C206.066 154.991 206.034 155.221 206.048 155.45L205.985 165.012C205.956 165.481 206.11 165.943 206.415 166.301C206.72 166.658 207.152 166.884 207.619 166.93L222.51 167.301C222.74 167.292 222.966 167.237 223.175 167.14C223.383 167.042 223.57 166.904 223.725 166.734C223.879 166.563 223.998 166.364 224.074 166.146C224.15 165.929 224.182 165.699 224.169 165.469L224.232 155.9C224.261 155.431 224.106 154.969 223.802 154.611C223.497 154.253 223.065 154.028 222.597 153.981ZM221.966 165.391C221.951 165.409 221.931 165.424 221.909 165.434C221.887 165.443 221.863 165.447 221.839 165.446C221.807 165.444 221.776 165.434 221.75 165.416C221.723 165.398 221.702 165.372 221.689 165.343L218.278 160.093L215.223 162.959C215.206 162.977 215.185 162.991 215.162 163C215.138 163.01 215.114 163.014 215.089 163.014C215.041 163.013 214.996 162.993 214.962 162.959L211.654 159.722L208.038 164.996C208.02 165.023 207.996 165.046 207.967 165.061C207.937 165.076 207.905 165.084 207.872 165.083C207.828 165.081 207.787 165.064 207.754 165.035C207.718 164.99 207.698 164.935 207.698 164.877C207.698 164.82 207.718 164.764 207.754 164.719L211.378 159.421L207.556 155.695C207.52 155.65 207.501 155.594 207.501 155.537C207.501 155.479 207.52 155.424 207.556 155.379C207.59 155.337 207.638 155.309 207.691 155.3C207.74 155.303 207.788 155.322 207.825 155.355L215.136 162.461L221.681 156.319C221.697 156.3 221.716 156.286 221.738 156.276C221.76 156.267 221.784 156.262 221.808 156.263C221.837 156.266 221.866 156.276 221.892 156.291C221.918 156.306 221.94 156.326 221.958 156.35C221.977 156.373 221.992 156.399 222 156.428C222.008 156.456 222.01 156.487 222.005 156.516C222 156.573 221.975 156.626 221.934 156.666L218.626 159.777L222.045 165.043C222.082 165.097 222.098 165.163 222.087 165.228C222.077 165.293 222.042 165.351 221.989 165.391H221.966Z" fill="white"/>
<path d="M215.01 175.505C207.73 175.323 201.848 168.399 201.895 160.124C201.943 151.85 207.912 145.233 215.199 145.415C222.487 145.596 228.369 152.521 228.322 160.787C228.274 169.054 222.297 175.686 215.01 175.505ZM215.199 144.957C207.699 144.775 201.556 151.573 201.501 160.116C201.445 168.659 207.509 175.765 215.01 175.955C222.511 176.144 228.661 169.346 228.717 160.795C228.772 152.244 222.708 145.146 215.199 144.957Z" fill="black"/>
<path d="M187.786 138.862C187.248 138.831 186.741 138.601 186.363 138.217C185.985 137.834 185.764 137.323 185.741 136.785C185.607 135.317 187.178 135.206 187.897 135.056C188.343 134.903 188.739 134.63 189.041 134.266L189.105 124.334V120.386L198.113 119.257H199.108V123.157L199.037 134.543C199.043 135.406 198.787 136.251 198.303 136.967C198.121 137.184 197.892 137.358 197.634 137.474C197.375 137.59 197.094 137.646 196.811 137.638C196.275 137.609 195.769 137.382 195.391 137.001C195.013 136.621 194.79 136.113 194.766 135.577C194.631 134.109 196.203 133.998 196.921 133.832C197.372 133.683 197.772 133.409 198.074 133.043L198.137 123.11L190.131 124.121L190.068 134.385C190.068 134.606 190.068 134.859 190.068 135.111V135.688C190.073 136.555 189.814 137.403 189.326 138.119C189.144 138.335 188.916 138.507 188.659 138.623C188.402 138.739 188.123 138.796 187.841 138.791M193.826 114.717C186.546 114.535 180.577 121.136 180.522 129.426C180.467 137.717 186.302 144.696 193.566 144.878C200.829 145.06 206.822 138.459 206.87 130.161C206.917 121.863 201.043 114.97 193.755 114.788" fill="white"/>
<path d="M193.566 144.878C186.286 144.696 180.404 137.772 180.451 129.497C180.498 121.223 186.475 114.606 193.755 114.788C201.035 114.969 206.925 121.894 206.87 130.16C206.814 138.427 200.853 145.059 193.566 144.878ZM193.755 114.33C186.254 114.148 180.112 120.946 180.056 129.489C180.001 138.032 186.065 145.138 193.566 145.328C201.066 145.517 207.217 138.719 207.272 130.168C207.328 121.617 201.264 114.519 193.755 114.33Z" fill="black"/>
<path d="M199.132 119.336H198.137L189.128 120.465V124.413L189.065 134.345C188.763 134.709 188.367 134.982 187.92 135.135C187.202 135.277 185.63 135.395 185.765 136.864C185.787 137.402 186.009 137.913 186.387 138.296C186.765 138.68 187.272 138.91 187.81 138.941C188.091 138.946 188.371 138.889 188.628 138.773C188.884 138.657 189.112 138.485 189.294 138.269C189.782 137.553 190.041 136.705 190.036 135.838V135.261C190.036 135.009 190.036 134.756 190.036 134.535L190.099 124.271L198.105 123.26L198.05 133.169C197.748 133.536 197.348 133.809 196.897 133.959C196.179 134.109 194.608 134.235 194.742 135.703C194.767 136.239 194.99 136.747 195.367 137.128C195.745 137.509 196.251 137.735 196.787 137.764C197.07 137.773 197.352 137.717 197.61 137.6C197.869 137.484 198.097 137.311 198.279 137.093C198.763 136.378 199.019 135.533 199.013 134.669L199.084 123.284V119.383" fill="black"/>
<path d="M152.508 139.098C151.822 139.339 151.172 139.671 150.574 140.085C151.635 141.56 153.153 142.643 154.893 143.165C153.732 142.063 152.91 140.652 152.524 139.098M160.996 139.304C160.603 140.835 159.755 142.211 158.564 143.252C160.298 142.822 161.834 141.817 162.923 140.401C162.332 139.952 161.684 139.583 160.996 139.304ZM156.567 138.451C155.325 138.432 154.089 138.611 152.903 138.98C153.693 141.515 154.996 143.252 156.535 143.425V138.451M156.938 138.451V143.433C158.517 143.33 159.836 141.657 160.625 139.162C159.453 138.73 158.218 138.491 156.969 138.451M151.837 134.235L148.624 134.148C148.642 136.132 149.234 138.068 150.329 139.722C150.969 139.277 151.664 138.919 152.398 138.656C152.024 137.212 151.836 135.726 151.837 134.235ZM156.575 134.353L152.216 134.243C152.218 135.692 152.401 137.135 152.761 138.538C153.987 138.153 155.266 137.966 156.551 137.985V134.353M161.288 134.472L156.93 134.361V137.993C158.224 138.043 159.503 138.294 160.72 138.735C161.094 137.344 161.293 135.912 161.312 134.472M164.928 134.559L161.707 134.48C161.692 135.966 161.485 137.444 161.091 138.877C161.825 139.173 162.515 139.566 163.144 140.046C164.266 138.432 164.886 136.523 164.928 134.559ZM152.832 129.387C152.427 130.818 152.215 132.297 152.201 133.785L156.559 133.895V130.113C155.279 130.068 154.013 129.823 152.809 129.387M160.704 129.584C159.487 129.959 158.219 130.143 156.946 130.129V133.903L161.304 134.014C161.306 132.518 161.112 131.029 160.728 129.584M150.424 128.116C149.256 129.746 148.611 131.693 148.577 133.698L151.79 133.777C151.81 132.246 152.033 130.725 152.453 129.253C151.731 128.963 151.048 128.581 150.424 128.116ZM163.136 128.432C162.509 128.866 161.827 129.214 161.107 129.466C161.504 130.955 161.705 132.489 161.707 134.03L164.92 134.108C164.904 132.081 164.283 130.104 163.136 128.432ZM154.972 125.005C153.276 125.426 151.77 126.401 150.693 127.776C151.275 128.203 151.909 128.556 152.58 128.826C152.982 127.35 153.805 126.022 154.948 125.005M158.612 125.1C159.76 126.164 160.582 127.533 160.98 129.047C161.655 128.816 162.295 128.494 162.883 128.092C161.827 126.669 160.34 125.625 158.643 125.115M156.614 124.839C155.098 124.942 153.756 126.552 152.959 128.976C154.123 129.396 155.346 129.633 156.583 129.679V124.839M156.977 124.839V129.671C158.207 129.691 159.433 129.518 160.609 129.158C159.82 126.687 158.533 125.013 157.009 124.839M156.693 143.899C151.956 143.781 148.142 139.304 148.174 133.911C148.205 128.518 152.082 124.239 156.819 124.357C161.557 124.476 165.37 128.953 165.331 134.337C165.291 139.722 161.43 144.017 156.693 143.899ZM156.851 119.083C149.563 118.902 143.594 125.502 143.539 133.793C143.484 142.083 149.374 148.992 156.662 149.173C163.949 149.355 169.91 142.754 169.966 134.456C170.021 126.158 164.131 119.265 156.851 119.083Z" fill="white"/>
<path d="M156.646 149.181C149.358 148.999 143.476 142.075 143.524 133.801C143.571 125.526 149.548 118.91 156.835 119.091C164.123 119.273 169.997 126.197 169.95 134.464C169.903 142.73 163.934 149.363 156.646 149.181ZM156.835 118.641C149.327 118.452 143.184 125.25 143.129 133.793C143.074 142.336 149.137 149.45 156.646 149.631C164.155 149.813 170.297 143.023 170.345 134.472C170.392 125.921 164.352 118.823 156.835 118.641Z" fill="black"/>
<path d="M154.877 143.164C153.138 142.642 151.619 141.56 150.559 140.085C151.156 139.671 151.807 139.339 152.493 139.098C152.879 140.652 153.7 142.063 154.862 143.164M158.517 143.251C159.708 142.211 160.555 140.835 160.949 139.303C161.637 139.583 162.284 139.952 162.876 140.401C161.787 141.817 160.251 142.821 158.517 143.251ZM156.457 143.433C154.917 143.259 153.583 141.522 152.825 138.988C154.01 138.618 155.247 138.44 156.488 138.459V143.433M156.891 143.433V138.451C158.14 138.49 159.374 138.73 160.546 139.161C159.757 141.656 158.399 143.33 156.859 143.433M150.251 139.722C149.155 138.068 148.563 136.131 148.545 134.148L151.759 134.234C151.757 135.726 151.946 137.212 152.319 138.656C151.586 138.918 150.89 139.277 150.251 139.722ZM152.698 138.538C152.338 137.134 152.155 135.691 152.153 134.242L156.512 134.353V137.985C155.227 137.966 153.948 138.153 152.722 138.538M160.704 138.735C159.487 138.293 158.209 138.043 156.914 137.993V134.361L161.273 134.471C161.254 135.912 161.055 137.344 160.681 138.735M163.105 140.046C162.476 139.566 161.785 139.172 161.052 138.877C161.446 137.444 161.653 135.966 161.668 134.479L164.889 134.558C164.847 136.523 164.226 138.432 163.105 140.046ZM152.161 133.784C152.175 132.297 152.388 130.818 152.793 129.387C153.998 129.822 155.263 130.068 156.543 130.113V133.895L152.185 133.784M156.922 133.903V130.129C158.196 130.142 159.464 129.959 160.681 129.584C161.065 131.029 161.259 132.518 161.257 134.013L158.573 133.95L156.899 133.903M148.529 133.698C148.564 131.692 149.209 129.745 150.377 128.115C151.001 128.581 151.683 128.963 152.406 129.252C151.986 130.724 151.763 132.246 151.743 133.777L148.529 133.698ZM161.66 134.029C161.658 132.488 161.457 130.954 161.06 129.466C161.78 129.214 162.462 128.866 163.089 128.431C164.236 130.104 164.857 132.08 164.873 134.108L161.66 134.029ZM152.532 128.826C151.862 128.556 151.228 128.203 150.645 127.776C151.723 126.401 153.229 125.425 154.925 125.005C153.782 126.022 152.959 127.35 152.556 128.826M160.949 129.031C160.551 127.517 159.729 126.148 158.58 125.084C160.277 125.593 161.764 126.637 162.82 128.06C162.232 128.462 161.592 128.784 160.918 129.016M156.52 129.647C155.283 129.601 154.06 129.364 152.896 128.944C153.685 126.521 155.035 124.91 156.551 124.807V129.647M156.946 129.647V124.815C158.47 124.989 159.781 126.663 160.546 129.134C159.37 129.494 158.145 129.667 156.914 129.647M156.757 124.333C152.019 124.215 148.142 128.502 148.111 133.887C148.079 139.272 151.901 143.757 156.63 143.875C161.36 143.993 165.236 139.706 165.268 134.313C165.3 128.921 161.486 124.444 156.757 124.333Z" fill="black"/>
<path d="M152.745 168.588C146.429 168.43 141.329 174.115 141.281 181.268C141.234 188.422 146.311 194.359 152.588 194.517C158.865 194.675 164.012 188.99 164.052 181.837C164.091 174.684 159.03 168.746 152.745 168.588Z" fill="black"/>
<path d="M152.588 194.517C146.311 194.36 141.242 188.422 141.281 181.269C141.321 174.115 146.469 168.431 152.745 168.588C159.022 168.746 164.099 174.684 164.052 181.837C164.005 188.991 158.865 194.675 152.588 194.517ZM152.753 168.131C146.247 167.973 140.91 173.863 140.91 181.253C140.91 188.643 146.113 194.81 152.619 194.975C159.125 195.141 164.462 189.243 164.462 181.845C164.462 174.447 159.259 168.296 152.761 168.131" fill="black"/>
<path d="M154.561 173.389C154.405 173.396 154.252 173.434 154.11 173.5C153.969 173.567 153.842 173.661 153.737 173.777C153.632 173.893 153.551 174.029 153.499 174.176C153.446 174.324 153.424 174.48 153.432 174.636C153.413 174.955 153.518 175.268 153.726 175.51C153.934 175.752 154.228 175.903 154.546 175.931C154.701 175.925 154.854 175.888 154.995 175.822C155.136 175.756 155.263 175.663 155.367 175.547C155.472 175.432 155.552 175.297 155.603 175.15C155.655 175.003 155.676 174.847 155.667 174.691C155.687 174.373 155.583 174.06 155.377 173.817C155.171 173.574 154.878 173.421 154.561 173.389Z" fill="black"/>
<path d="M153.938 176.713H153.89L150.732 176.926C150.606 176.941 150.489 177.001 150.403 177.096C150.318 177.19 150.269 177.312 150.266 177.439L149.982 180.597C149.965 180.742 150.002 180.887 150.087 181.006C150.172 181.124 150.298 181.206 150.44 181.237H150.487C150.621 181.231 150.749 181.175 150.844 181.08C150.939 180.985 150.995 180.858 151 180.724L151.237 178.079L152.382 178L150.803 185.169L148.3 187.932C148.214 188.046 148.168 188.185 148.168 188.327C148.168 188.47 148.214 188.608 148.3 188.722C148.345 188.775 148.4 188.818 148.463 188.847C148.526 188.876 148.594 188.891 148.663 188.891C148.733 188.891 148.801 188.876 148.864 188.847C148.927 188.818 148.982 188.775 149.027 188.722L151.624 185.84C151.69 185.763 151.736 185.671 151.758 185.572L152.548 182.113L154.917 184.371L152.098 186.219C151.977 186.306 151.892 186.435 151.859 186.58C151.826 186.725 151.846 186.877 151.916 187.009C151.954 187.093 152.014 187.166 152.091 187.218C152.168 187.269 152.258 187.298 152.351 187.301C152.446 187.308 152.54 187.283 152.619 187.23L156.069 184.964C156.143 184.911 156.204 184.842 156.247 184.763C156.291 184.684 156.317 184.596 156.322 184.506C156.328 184.414 156.314 184.322 156.281 184.236C156.249 184.15 156.198 184.073 156.133 184.008L153.953 181.971L154.459 179.737L154.948 180.874C155.005 181.009 155.113 181.117 155.248 181.174C155.298 181.18 155.348 181.18 155.398 181.174C155.487 181.173 155.575 181.149 155.651 181.103L158.02 179.689C158.143 179.604 158.231 179.477 158.267 179.332C158.304 179.187 158.286 179.033 158.217 178.9C158.179 178.813 158.118 178.738 158.04 178.683C157.961 178.629 157.87 178.597 157.775 178.592C157.688 178.593 157.604 178.618 157.53 178.663L155.659 179.792L154.451 176.965C154.415 176.873 154.354 176.793 154.274 176.734C154.194 176.675 154.1 176.641 154.001 176.634" fill="black"/>
<path d="M198.019 200.423C197.062 199.971 196.258 199.248 195.707 198.345C195.155 197.441 194.881 196.396 194.916 195.339C194.916 192.417 197.032 190.096 199.598 190.159C200.529 190.215 201.422 190.545 202.167 191.107C202.911 191.668 203.473 192.437 203.783 193.317H204.098C205 193.368 205.868 193.673 206.603 194.197C207.338 194.721 207.91 195.443 208.251 196.278H208.394C210.999 196.341 213.131 198.805 213.083 201.766C213.079 202.67 212.869 203.561 212.468 204.371C212.258 204.807 211.928 205.174 211.517 205.429C211.106 205.683 210.63 205.815 210.146 205.808L200.332 205.563C199.58 205.499 198.881 205.147 198.381 204.581C197.881 204.015 197.619 203.278 197.648 202.523C197.652 201.82 197.777 201.123 198.019 200.463M204.098 183.929C196.811 183.748 190.85 190.349 190.794 198.639C190.739 206.929 196.629 213.838 203.909 214.019C211.189 214.201 217.165 207.6 217.221 199.302C217.276 191.004 211.386 184.111 204.098 183.929Z" fill="white"/>
<path d="M203.909 213.98C196.629 213.798 190.747 206.874 190.794 198.599C190.841 190.325 196.81 183.708 204.098 183.89C211.386 184.071 217.268 190.996 217.22 199.262C217.173 207.529 211.196 214.161 203.909 213.98ZM204.098 183.432C196.597 183.25 190.447 190.048 190.399 198.591C190.352 207.134 196.408 214.24 203.909 214.43C211.409 214.619 217.56 207.821 217.615 199.27C217.67 190.719 211.607 183.621 204.098 183.432Z" fill="black"/>
<path d="M199.59 190.609C197.221 190.554 195.326 192.678 195.31 195.346C195.276 196.322 195.532 197.285 196.045 198.116C196.558 198.946 197.305 199.606 198.192 200.013C198.468 199.402 198.863 198.851 199.353 198.394C199.33 197.216 199.716 196.067 200.446 195.142C201.176 194.218 202.205 193.575 203.356 193.325C203.051 192.561 202.535 191.9 201.868 191.419C201.201 190.938 200.411 190.657 199.59 190.609Z" fill="black"/>
<path d="M199.598 190.159C197.032 190.096 194.931 192.417 194.915 195.338C194.88 196.396 195.155 197.441 195.707 198.345C196.258 199.248 197.062 199.971 198.018 200.423C198.074 200.281 198.129 200.147 198.192 200.013C197.305 199.606 196.557 198.946 196.045 198.116C195.532 197.285 195.276 196.322 195.31 195.346C195.31 192.678 197.245 190.554 199.59 190.609C200.411 190.657 201.201 190.938 201.868 191.419C202.535 191.9 203.051 192.561 203.356 193.325L203.782 193.286C203.473 192.406 202.911 191.637 202.167 191.075C201.422 190.513 200.529 190.184 199.598 190.127" fill="black"/>
<path d="M204.098 193.728C201.729 193.672 199.779 195.82 199.748 198.512V198.623L199.669 198.686C199.151 199.169 198.739 199.755 198.46 200.406C198.182 201.057 198.042 201.76 198.05 202.468C198.021 203.112 198.243 203.742 198.668 204.226C199.093 204.71 199.69 205.011 200.332 205.066L210.146 205.31C210.556 205.319 210.96 205.21 211.31 204.996C211.66 204.782 211.941 204.472 212.12 204.102C212.488 203.367 212.68 202.556 212.681 201.734C212.681 199.018 210.77 196.767 208.393 196.712H208.006L207.951 196.578C207.651 195.783 207.128 195.092 206.444 194.588C205.761 194.083 204.946 193.787 204.098 193.735" fill="white"/>
<path d="M200.332 205.065C199.69 205.011 199.093 204.71 198.668 204.226C198.243 203.742 198.021 203.112 198.05 202.468C198.042 201.76 198.182 201.057 198.461 200.406C198.739 199.755 199.151 199.169 199.669 198.686L199.748 198.623V198.512C199.748 195.82 201.729 193.672 204.098 193.727C204.946 193.779 205.761 194.075 206.444 194.58C207.128 195.084 207.651 195.775 207.951 196.57L208.006 196.704H208.393C210.762 196.759 212.696 199.01 212.681 201.726C212.68 202.548 212.488 203.359 212.12 204.094C211.941 204.464 211.66 204.774 211.31 204.988C210.96 205.202 210.556 205.311 210.146 205.302L200.332 205.058M204.098 193.27H203.782L203.356 193.309C202.205 193.559 201.176 194.202 200.446 195.126C199.716 196.051 199.33 197.2 199.353 198.378C198.863 198.835 198.468 199.386 198.192 199.997C198.129 200.131 198.074 200.265 198.019 200.407C197.777 201.068 197.652 201.765 197.647 202.468C197.618 203.222 197.881 203.959 198.381 204.525C198.881 205.091 199.579 205.443 200.332 205.508L210.146 205.808C210.63 205.815 211.105 205.683 211.517 205.428C211.928 205.174 212.258 204.807 212.467 204.371C212.868 203.56 213.079 202.669 213.083 201.765C213.083 198.804 210.999 196.341 208.393 196.278H208.251C207.909 195.442 207.338 194.721 206.603 194.197C205.868 193.673 204.999 193.368 204.098 193.317" fill="black"/>
<path d="M215.128 95.6332C209.396 95.4911 204.698 100.686 204.659 107.216C204.619 113.746 209.246 119.178 214.986 119.32C220.726 119.462 225.416 114.267 225.456 107.737C225.495 101.207 220.868 95.7753 215.128 95.6332Z" fill="black"/>
<path d="M214.986 119.32C209.246 119.178 204.619 113.746 204.659 107.216C204.698 100.686 209.396 95.4912 215.128 95.6333C220.861 95.7754 225.495 101.208 225.456 107.737C225.416 114.267 220.718 119.462 214.986 119.32ZM215.136 95.1832C209.183 95.0332 204.296 100.426 204.256 107.208C204.217 113.99 208.994 119.628 214.978 119.77C220.963 119.912 225.811 114.527 225.858 107.745C225.906 100.963 221.121 95.3332 215.136 95.1832Z" fill="black"/>
<path d="M214.828 101.586C211.22 101.491 208.267 104.136 208.243 107.484C208.256 108.479 208.512 109.456 208.989 110.328C209.467 111.201 210.152 111.943 210.983 112.49L211.094 112.569V112.711C211.021 113.408 210.812 114.084 210.478 114.701C211.412 114.447 212.302 114.05 213.115 113.524L213.178 113.477H213.249C213.746 113.596 214.254 113.665 214.765 113.682C218.373 113.769 221.326 111.124 221.342 107.784C221.358 104.444 218.444 101.649 214.844 101.562" fill="white"/>
<path d="M210.462 114.725C210.796 114.108 211.005 113.432 211.078 112.735V112.593L210.967 112.514C210.136 111.968 209.451 111.225 208.974 110.353C208.496 109.48 208.24 108.503 208.228 107.508C208.228 104.161 211.204 101.516 214.812 101.61C218.421 101.705 221.334 104.492 221.31 107.832C221.287 111.172 218.342 113.817 214.733 113.73C214.223 113.713 213.715 113.644 213.218 113.525H213.146L213.083 113.572C212.27 114.098 211.381 114.495 210.446 114.749" fill="white"/>
<path d="M175.129 92.8382C169.713 92.7039 165.276 97.5755 165.244 103.781C165.213 109.987 169.579 115.072 174.995 115.206C180.411 115.34 184.88 110.429 184.88 104.271C184.88 98.1124 180.546 92.9724 175.129 92.8382Z" fill="black"/>
<path d="M174.995 115.206C169.579 115.072 165.205 109.94 165.244 103.781C165.283 97.6229 169.713 92.7277 175.129 92.8382C180.546 92.9487 184.92 98.0966 184.88 104.271C184.841 110.445 180.403 115.325 174.995 115.206ZM175.137 92.3881C169.5 92.246 164.873 97.3544 164.873 103.766C164.873 110.177 169.389 115.514 175.019 115.656C180.648 115.798 185.283 110.698 185.283 104.279C185.283 97.8598 180.775 92.5224 175.145 92.3881" fill="black"/>
<path d="M171.15 97.2915C170.484 97.5712 169.919 98.0478 169.531 98.6574C169.324 99.2588 169.248 99.8975 169.308 100.531C169.368 101.164 169.563 101.777 169.879 102.329C170.613 103.608 172.934 107.611 176.14 109.656C177.099 110.171 178.129 110.544 179.196 110.761C179.285 110.775 179.375 110.775 179.464 110.761C180.254 110.493 180.838 108.393 180.838 108.393L177.885 106.632L176.961 106.908C176.803 106.956 176.637 106.978 176.472 106.971C176.081 106.961 175.706 106.813 175.414 106.553C174.478 105.737 173.655 104.799 172.966 103.766C172.769 103.458 172.649 103.107 172.616 102.743C172.583 102.379 172.638 102.012 172.777 101.674L173.108 100.884L171.15 97.3152" fill="black"/>
<path d="M357.003 348.678H367.189" stroke="black" stroke-linecap="round" stroke-linejoin="round"/>
<path d="M10.7912 348.678H345.95" stroke="black" stroke-linecap="round" stroke-linejoin="round"/>
</svg>
