<svg width="568" height="423" viewBox="0 0 568 423" fill="none" xmlns="http://www.w3.org/2000/svg">
<path d="M567.893 371.272H0.892578V371.555H567.893V371.272Z" fill="#EBEBEB"/>
<path d="M511.078 389.514H473.52V389.798H511.078V389.514Z" fill="#EBEBEB"/>
<path d="M376.495 392.6H366.641V392.884H376.495V392.6Z" fill="#EBEBEB"/>
<path d="M472.386 378.995H450.625V379.278H472.386V378.995Z" fill="#EBEBEB"/>
<path d="M109.358 380.897H60.3809V381.18H109.358V380.897Z" fill="#EBEBEB"/>
<path d="M126.641 380.897H119.463V381.18H126.641V380.897Z" fill="#EBEBEB"/>
<path d="M256.214 385.682H149.98V385.966H256.214V385.682Z" fill="#EBEBEB"/>
<path d="M269.651 320.694H50.6865C48.9711 320.691 47.327 320.007 46.1152 318.793C44.9033 317.579 44.2227 315.934 44.2227 314.219V6.41698C44.2376 4.71147 44.9248 3.08072 46.1351 1.87896C47.3453 0.677187 48.9809 0.00145678 50.6865 -0.00146484H269.651C271.368 -0.00146484 273.015 0.680736 274.229 1.89506C275.443 3.10938 276.126 4.75636 276.126 6.47368V314.219C276.126 315.936 275.443 317.583 274.229 318.797C273.015 320.012 271.368 320.694 269.651 320.694ZM50.6865 0.225336C49.0463 0.22834 47.4743 0.881995 46.3156 2.04283C45.1569 3.20366 44.5062 4.77681 44.5062 6.41698V314.219C44.5062 315.859 45.1569 317.432 46.3156 318.593C47.4743 319.754 49.0463 320.407 50.6865 320.41H269.651C271.292 320.407 272.865 319.754 274.025 318.593C275.186 317.433 275.839 315.86 275.842 314.219V6.41698C275.839 4.77577 275.186 3.20264 274.025 2.04214C272.865 0.881627 271.292 0.228334 269.651 0.225336H50.6865Z" fill="#EBEBEB"/>
<path d="M514.947 320.694H295.971C294.255 320.691 292.61 320.008 291.396 318.794C290.182 317.58 289.499 315.935 289.496 314.219V6.41698C289.514 4.71043 290.204 3.0797 291.416 1.87825C292.628 0.67679 294.265 0.00142492 295.971 -0.00146484H514.947C516.65 0.00443706 518.283 0.681486 519.491 1.88293C520.699 3.08438 521.384 4.71343 521.399 6.41698V314.219C521.399 315.932 520.72 317.576 519.511 318.789C518.301 320.003 516.66 320.688 514.947 320.694ZM295.971 0.225336C294.33 0.228334 292.757 0.881627 291.596 2.04214C290.436 3.20264 289.783 4.77577 289.78 6.41698V314.219C289.783 315.86 290.436 317.433 291.596 318.593C292.757 319.754 294.33 320.407 295.971 320.41H514.947C516.588 320.407 518.161 319.754 519.321 318.593C520.482 317.433 521.135 315.86 521.138 314.219V6.41698C521.135 4.77577 520.482 3.20264 519.321 2.04214C518.161 0.881627 516.588 0.228334 514.947 0.225336H295.971Z" fill="#EBEBEB"/>
<path d="M439.546 81.0813L449.752 88.5543C387.938 173.196 310.27 223.795 218.802 238.934C154.164 249.639 104.483 237.959 96.7832 235.974V259.301C118.859 263.973 141.374 266.254 163.939 266.105C183.189 266.101 202.408 264.55 221.41 261.467C265.276 254.356 307.396 238.991 345.537 216.186C391.43 188.834 432.606 150.414 468.009 101.981L478.057 109.363L478.227 68.8228L439.546 81.0813Z" fill="#E0E0E0"/>
<path d="M108.055 268.405H97.8828V370.59H108.055V268.405Z" fill="#EBEBEB"/>
<path d="M132.596 272.944H122.424V370.593H132.596V272.944Z" fill="#EBEBEB"/>
<path d="M157.147 275.209H146.975V370.59H157.147V275.209Z" fill="#EBEBEB"/>
<path d="M181.688 275.209H171.516V370.59H181.688V275.209Z" fill="#EBEBEB"/>
<path d="M206.236 274.077H196.064V370.591H206.236V274.077Z" fill="#EBEBEB"/>
<path d="M230.775 270.674H220.604V370.591H230.775V270.674Z" fill="#EBEBEB"/>
<path d="M255.318 265.002H245.146V370.589H255.318V265.002Z" fill="#EBEBEB"/>
<path d="M279.867 259.331H269.695V370.587H279.867V259.331Z" fill="#EBEBEB"/>
<path d="M304.406 254.799H294.234V370.592H304.406V254.799Z" fill="#EBEBEB"/>
<path d="M328.959 239.975H318.787V370.601H328.959V239.975Z" fill="#EBEBEB"/>
<path d="M353.498 227.514H343.326V370.602H353.498V227.514Z" fill="#EBEBEB"/>
<path d="M378.051 213.315H367.879V370.589H378.051V213.315Z" fill="#EBEBEB"/>
<path d="M402.59 194.401H392.418V370.59H402.59V194.401Z" fill="#EBEBEB"/>
<path d="M427.141 174.659H416.969V370.591H427.141V174.659Z" fill="#EBEBEB"/>
<path d="M451.682 148.334H441.51V370.587H451.682V148.334Z" fill="#EBEBEB"/>
<path d="M476.231 119.624H466.059V370.589H476.231V119.624Z" fill="#EBEBEB"/>
<path d="M284.393 422.481C405.824 422.481 504.264 416.734 504.264 409.644C504.264 402.554 405.824 396.807 284.393 396.807C162.961 396.807 64.5215 402.554 64.5215 409.644C64.5215 416.734 162.961 422.481 284.393 422.481Z" fill="#F5F5F5"/>
<path d="M451.659 244.253C429.875 298.36 398.882 348.283 360.054 391.809L289.814 348.207C328.646 304.677 359.643 254.75 381.43 200.639L451.659 244.253Z" fill="#555555"/>
<path opacity="0.4" d="M451.67 244.238C429.874 298.347 398.874 348.274 360.043 391.805L329.686 372.958L289.814 348.214C328.646 304.685 359.643 254.758 381.43 200.647C404.836 215.192 428.249 229.723 451.67 244.238Z" fill="white"/>
<path opacity="0.2" d="M392.986 212.976C392.491 214.302 391.702 215.499 390.677 216.476C389.652 217.453 388.419 218.184 387.071 218.616C385.723 219.047 384.294 219.167 382.893 218.966C381.491 218.765 380.154 218.248 378.981 217.455C359.76 261.201 334.427 301.997 303.74 338.623C304.971 339.322 306.027 340.292 306.829 341.458C307.631 342.625 308.158 343.958 308.37 345.358C308.581 346.758 308.473 348.187 308.052 349.539C307.631 350.89 306.909 352.129 305.94 353.161L349.724 380.377C351.812 378.062 354.632 376.534 357.712 376.049C360.792 375.564 363.945 376.151 366.643 377.712C397.33 341.082 422.663 300.282 441.884 256.533C439.289 254.807 437.366 252.242 436.435 249.268C435.504 246.293 435.622 243.09 436.77 240.192V240.101L392.997 212.885L392.986 212.976ZM395.016 312.484C388.28 323.314 373.595 326.353 362.81 319.663C352.026 312.972 349.202 299.047 355.927 288.217C362.652 277.387 376.441 273.781 387.237 280.483C398.032 287.185 401.775 301.643 395.016 312.484Z" fill="black"/>
<g opacity="0.2">
<path d="M387.168 304.719L390.059 306.511C389.628 307.225 389.186 307.94 388.744 308.643L385.863 306.862C384.371 309.117 382.221 310.859 379.706 311.852L377.835 309.074C379.921 308.284 381.739 306.915 383.074 305.127L377.891 301.907C375.397 304.356 372.494 306.84 368.899 304.606C366.257 302.961 365.191 299.639 367.334 295.352L364.408 293.538C364.85 292.823 365.293 292.12 365.724 291.406L368.604 293.186C369.827 291.373 371.479 289.889 373.412 288.866L375.374 291.565C373.829 292.415 372.474 293.573 371.394 294.967L376.621 298.221C379.116 295.76 381.917 293.152 385.512 295.386C388.154 296.974 389.265 300.364 387.168 304.719ZM374.762 299.968L370.146 297.11C369.284 299.128 369.727 300.512 370.861 301.181C371.995 301.85 373.378 301.204 374.762 299.968ZM383.72 298.834C382.45 298.051 381.157 298.834 379.763 300.115L384.299 302.961C385.228 300.886 384.832 299.525 383.72 298.834Z" fill="black"/>
</g>
<path opacity="0.2" d="M451.67 244.245C429.874 298.354 398.873 348.28 360.043 391.812L329.685 372.965L305.588 332.266C305.588 332.266 401.694 292.44 451.67 244.245Z" fill="black"/>
<path d="M503.824 320.241C459.071 357.666 408.173 387.056 353.387 407.106C339.621 383.239 325.846 359.372 312.064 335.505C366.848 315.471 417.746 286.097 462.501 248.686C476.283 272.53 490.057 296.382 503.824 320.241Z" fill="#555555"/>
<path opacity="0.4" d="M503.824 320.241C459.071 357.666 408.173 387.056 353.387 407.106C339.621 383.239 325.846 359.372 312.064 335.505C366.848 315.471 417.746 286.097 462.501 248.686C476.283 272.53 490.057 296.382 503.824 320.241Z" fill="white"/>
<path opacity="0.2" d="M466.865 264.972C465.802 265.907 464.541 266.589 463.177 266.966C461.813 267.343 460.381 267.406 458.989 267.149C457.597 266.893 456.281 266.323 455.141 265.485C454.001 264.646 453.066 263.56 452.406 262.307C414.786 291.799 373.169 315.8 328.8 333.59C329.554 334.787 330.026 336.14 330.182 337.546C330.337 338.952 330.172 340.374 329.698 341.707C329.224 343.04 328.454 344.248 327.447 345.24C326.439 346.233 325.219 346.984 323.879 347.437L349.632 392.059C352.569 391.008 355.778 390.997 358.722 392.029C361.666 393.062 364.166 395.074 365.803 397.729C410.171 379.939 451.789 355.938 489.409 326.446C487.926 323.694 487.435 320.516 488.019 317.445C488.604 314.374 490.228 311.598 492.618 309.584L492.697 309.516L466.967 264.915L466.865 264.972ZM421.664 353.651C410.607 360.013 396.239 355.76 389.912 344.76C383.584 333.76 387.644 320.164 398.7 313.802C409.757 307.44 423.648 310.763 429.942 321.74C436.236 332.717 432.732 347.3 421.664 353.651Z" fill="black"/>
<g opacity="0.2">
<path d="M418.41 343.093C418.988 344.068 419.544 345.054 420.122 346.041L417.945 347.3L416.255 344.363C413.873 345.648 411.154 346.17 408.465 345.859C408.352 344.725 408.249 343.591 408.136 342.526C410.347 342.818 412.595 342.468 414.611 341.516L411.572 336.243C408.17 337.218 404.485 338.035 402.364 334.372C400.81 331.673 401.445 328.237 405.358 325.47C404.779 324.472 404.224 323.486 403.634 322.488L405.8 321.229L407.49 324.166C409.425 323.143 411.583 322.613 413.772 322.624C413.931 323.758 414.078 324.824 414.237 325.924C412.48 325.948 410.747 326.334 409.145 327.058C410.166 328.842 411.19 330.619 412.218 332.388C415.564 331.401 419.272 330.426 421.393 334.089C422.946 336.731 422.322 340.201 418.41 343.093ZM409.724 333.045L407.013 328.351C405.301 329.723 405.04 331.118 405.721 332.274C406.401 333.431 407.932 333.476 409.724 333.045ZM418.161 336.277C417.412 334.984 415.893 335.064 414.056 335.54C414.963 337.094 415.859 338.659 416.754 340.212C418.524 338.795 418.818 337.411 418.206 336.277H418.161Z" fill="black"/>
</g>
<path d="M434.115 407.065H478.375V398.378H434.115V407.065Z" fill="#555555"/>
<path opacity="0.2" d="M434.115 407.065H443.867V398.378H434.115V407.065Z" fill="black"/>
<path opacity="0.2" d="M448.551 398.37H445.002V407.056H448.551V398.37Z" fill="black"/>
<path opacity="0.2" d="M453.099 398.37H450.672V407.056H453.099V398.37Z" fill="black"/>
<path opacity="0.2" d="M457.555 398.37H456.342V407.056H457.555V398.37Z" fill="black"/>
<path opacity="0.2" d="M464.892 398.37H464.279V407.056H464.892V398.37Z" fill="black"/>
<path d="M436.201 398.424H480.461V389.738H436.201V398.424Z" fill="#555555"/>
<path opacity="0.2" d="M436.201 398.424H445.953V389.738H436.201V398.424Z" fill="black"/>
<path opacity="0.2" d="M450.637 389.725H447.088V398.412H450.637V389.725Z" fill="black"/>
<path opacity="0.2" d="M455.185 389.725H452.758V398.412H455.185V389.725Z" fill="black"/>
<path opacity="0.2" d="M459.641 389.725H458.428V398.412H459.641V389.725Z" fill="black"/>
<path opacity="0.2" d="M466.978 389.725H466.365V398.412H466.978V389.725Z" fill="black"/>
<path d="M432.256 389.784H476.516V381.097H432.256V389.784Z" fill="#555555"/>
<path opacity="0.2" d="M432.253 389.784H442.006V381.097H432.253V389.784Z" fill="black"/>
<path opacity="0.2" d="M446.68 381.084H443.131V389.771H446.68V381.084Z" fill="black"/>
<path opacity="0.2" d="M451.228 381.084H448.801V389.771H451.228V381.084Z" fill="black"/>
<path opacity="0.2" d="M455.684 381.084H454.471V389.771H455.684V381.084Z" fill="black"/>
<path opacity="0.2" d="M463.021 381.084H462.408V389.771H463.021V381.084Z" fill="black"/>
<path d="M434.115 381.143H478.375V372.457H434.115V381.143Z" fill="#555555"/>
<path opacity="0.2" d="M434.115 381.143H443.867V372.457H434.115V381.143Z" fill="black"/>
<path opacity="0.2" d="M448.551 372.444H445.002V381.13H448.551V372.444Z" fill="black"/>
<path opacity="0.2" d="M453.099 372.444H450.672V381.13H453.099V372.444Z" fill="black"/>
<path opacity="0.2" d="M457.555 372.444H456.342V381.13H457.555V372.444Z" fill="black"/>
<path opacity="0.2" d="M464.892 372.444H464.279V381.13H464.892V372.444Z" fill="black"/>
<path d="M435.238 372.502H479.498V363.816H435.238V372.502Z" fill="#555555"/>
<path opacity="0.2" d="M435.238 372.502H444.99V363.816H435.238V372.502Z" fill="black"/>
<path opacity="0.2" d="M449.686 363.803H446.137V372.49H449.686V363.803Z" fill="black"/>
<path opacity="0.2" d="M454.231 363.803H451.805V372.49H454.231V363.803Z" fill="black"/>
<path opacity="0.2" d="M458.688 363.803H457.475V372.49H458.688V363.803Z" fill="black"/>
<path opacity="0.2" d="M466.024 363.803H465.412V372.49H466.024V363.803Z" fill="black"/>
<path d="M434.103 363.858H478.363V355.171H434.103V363.858Z" fill="#555555"/>
<path opacity="0.2" d="M434.103 363.858H443.855V355.171H434.103V363.858Z" fill="black"/>
<path opacity="0.2" d="M448.551 355.163H445.002V363.849H448.551V355.163Z" fill="black"/>
<path opacity="0.2" d="M453.099 355.163H450.672V363.849H453.099V355.163Z" fill="black"/>
<path opacity="0.2" d="M457.555 355.163H456.342V363.849H457.555V355.163Z" fill="black"/>
<path opacity="0.2" d="M464.892 355.163H464.279V363.849H464.892V355.163Z" fill="black"/>
<path d="M434.103 355.217H478.363V346.531H434.103V355.217Z" fill="#555555"/>
<path opacity="0.2" d="M434.103 355.217H443.855V346.531H434.103V355.217Z" fill="black"/>
<path opacity="0.2" d="M448.551 346.522H445.002V355.208H448.551V346.522Z" fill="black"/>
<path opacity="0.2" d="M453.099 346.522H450.672V355.208H453.099V346.522Z" fill="black"/>
<path opacity="0.2" d="M457.555 346.522H456.342V355.208H457.555V346.522Z" fill="black"/>
<path opacity="0.2" d="M464.892 346.522H464.279V355.208H464.892V346.522Z" fill="black"/>
<path d="M436.371 346.577H480.631V337.89H436.371V346.577Z" fill="#555555"/>
<path opacity="0.2" d="M436.371 346.577H446.123V337.89H436.371V346.577Z" fill="black"/>
<path opacity="0.2" d="M450.819 337.877H447.27V346.564H450.819V337.877Z" fill="black"/>
<path opacity="0.2" d="M455.366 337.877H452.939V346.564H455.366V337.877Z" fill="black"/>
<path opacity="0.2" d="M459.823 337.877H458.609V346.564H459.823V337.877Z" fill="black"/>
<path opacity="0.2" d="M467.159 337.877H466.547V346.564H467.159V337.877Z" fill="black"/>
<path d="M434.103 337.936H478.363V329.25H434.103V337.936Z" fill="#555555"/>
<path opacity="0.2" d="M434.103 337.936H443.855V329.25H434.103V337.936Z" fill="black"/>
<path opacity="0.2" d="M448.551 329.237H445.002V337.923H448.551V329.237Z" fill="black"/>
<path opacity="0.2" d="M453.099 329.237H450.672V337.923H453.099V329.237Z" fill="black"/>
<path opacity="0.2" d="M457.555 329.237H456.342V337.923H457.555V329.237Z" fill="black"/>
<path opacity="0.2" d="M464.892 329.237H464.279V337.923H464.892V329.237Z" fill="black"/>
<path d="M431.836 329.295H476.096V320.609H431.836V329.295Z" fill="#555555"/>
<path opacity="0.2" d="M431.835 329.295H441.588V320.609H431.835V329.295Z" fill="black"/>
<path opacity="0.2" d="M446.284 320.596H442.734V329.283H446.284V320.596Z" fill="black"/>
<path opacity="0.2" d="M450.831 320.596H448.404V329.283H450.831V320.596Z" fill="black"/>
<path opacity="0.2" d="M455.288 320.596H454.074V329.283H455.288V320.596Z" fill="black"/>
<path opacity="0.2" d="M462.622 320.596H462.01V329.283H462.622V320.596Z" fill="black"/>
<path d="M395.082 407.065H439.342V398.378H395.082V407.065Z" fill="#555555"/>
<path opacity="0.2" d="M395.084 407.065H404.836V398.378H395.084V407.065Z" fill="black"/>
<path opacity="0.2" d="M409.506 398.37H405.957V407.056H409.506V398.37Z" fill="black"/>
<path opacity="0.2" d="M414.054 398.37H411.627V407.056H414.054V398.37Z" fill="black"/>
<path opacity="0.2" d="M418.512 398.37H417.299V407.056H418.512V398.37Z" fill="black"/>
<path opacity="0.2" d="M425.849 398.37H425.236V407.056H425.849V398.37Z" fill="black"/>
<path d="M397.349 398.424H441.609V389.738H397.349V398.424Z" fill="#555555"/>
<path opacity="0.2" d="M397.351 398.424H407.104V389.738H397.351V398.424Z" fill="black"/>
<path opacity="0.2" d="M411.774 389.725H408.225V398.412H411.774V389.725Z" fill="black"/>
<path opacity="0.2" d="M416.321 389.725H413.895V398.412H416.321V389.725Z" fill="black"/>
<path opacity="0.2" d="M420.78 389.725H419.566V398.412H420.78V389.725Z" fill="black"/>
<path opacity="0.2" d="M428.116 389.725H427.504V398.412H428.116V389.725Z" fill="black"/>
<path d="M395.082 389.784H439.342V381.097H395.082V389.784Z" fill="#555555"/>
<path opacity="0.2" d="M395.084 389.784H404.836V381.097H395.084V389.784Z" fill="black"/>
<path opacity="0.2" d="M409.506 381.084H405.957V389.771H409.506V381.084Z" fill="black"/>
<path opacity="0.2" d="M414.054 381.084H411.627V389.771H414.054V381.084Z" fill="black"/>
<path opacity="0.2" d="M418.512 381.084H417.299V389.771H418.512V381.084Z" fill="black"/>
<path opacity="0.2" d="M425.849 381.084H425.236V389.771H425.849V381.084Z" fill="black"/>
<path d="M396.217 381.143H440.477V372.457H396.217V381.143Z" fill="#555555"/>
<path opacity="0.2" d="M396.216 381.143H405.969V372.457H396.216V381.143Z" fill="black"/>
<path opacity="0.2" d="M410.641 372.444H407.092V381.13H410.641V372.444Z" fill="black"/>
<path opacity="0.2" d="M415.188 372.444H412.762V381.13H415.188V372.444Z" fill="black"/>
<path opacity="0.2" d="M419.645 372.444H418.432V381.13H419.645V372.444Z" fill="black"/>
<path opacity="0.2" d="M426.981 372.444H426.369V381.13H426.981V372.444Z" fill="black"/>
<path d="M395.082 372.502H439.342V363.816H395.082V372.502Z" fill="#555555"/>
<path opacity="0.2" d="M395.084 372.502H404.836V363.816H395.084V372.502Z" fill="black"/>
<path opacity="0.2" d="M409.518 363.803H405.969V372.49H409.518V363.803Z" fill="black"/>
<path opacity="0.2" d="M414.065 363.803H411.639V372.49H414.065V363.803Z" fill="black"/>
<path opacity="0.2" d="M418.522 363.803H417.309V372.49H418.522V363.803Z" fill="black"/>
<path opacity="0.2" d="M425.86 363.803H425.248V372.49H425.86V363.803Z" fill="black"/>
<path d="M398.484 363.858H442.744V355.171H398.484V363.858Z" fill="#555555"/>
<path opacity="0.2" d="M398.484 363.858H408.236V355.171H398.484V363.858Z" fill="black"/>
<path opacity="0.2" d="M412.921 355.163H409.371V363.849H412.921V355.163Z" fill="black"/>
<path opacity="0.2" d="M417.468 355.163H415.041V363.849H417.468V355.163Z" fill="black"/>
<path opacity="0.2" d="M421.924 355.163H420.711V363.849H421.924V355.163Z" fill="black"/>
<path opacity="0.2" d="M429.263 355.163H428.65V363.849H429.263V355.163Z" fill="black"/>
<path d="M365.824 48.1938H200.612C194.099 48.1938 188.818 53.474 188.818 59.9874V395.266C188.818 401.779 194.099 407.06 200.612 407.06H365.824C372.338 407.06 377.618 401.779 377.618 395.266V59.9874C377.618 53.474 372.338 48.1938 365.824 48.1938Z" fill="#263238"/>
<path d="M371.312 59.5671V395.072C371.312 395.685 371.191 396.292 370.954 396.857C370.717 397.422 370.37 397.935 369.933 398.364C369.496 398.794 368.977 399.132 368.408 399.359C367.839 399.587 367.23 399.698 366.618 399.688H199.443C198.887 399.696 198.335 399.591 197.82 399.38C197.305 399.169 196.838 398.856 196.447 398.459C196.056 398.063 195.749 397.592 195.545 397.074C195.341 396.557 195.244 396.003 195.259 395.447V59.1815C195.239 58.6915 195.316 58.2024 195.486 57.7421C195.655 57.2819 195.914 56.8596 196.247 56.4994C196.579 56.1392 196.98 55.8481 197.425 55.6429C197.871 55.4376 198.352 55.3222 198.842 55.3032H240.642C241.226 55.3139 241.794 55.4988 242.273 55.8341C242.752 56.1695 243.119 56.6401 243.329 57.1857L245.064 61.4495C245.278 61.9909 245.647 62.4566 246.125 62.7877C246.604 63.1189 247.17 63.3004 247.752 63.3093H318.91C319.49 63.3052 320.056 63.1282 320.534 62.801C321.013 62.4737 321.383 62.011 321.598 61.4722L323.333 57.197C323.541 56.6493 323.908 56.1763 324.387 55.8388C324.866 55.5014 325.435 55.3148 326.02 55.3032H367.173C368.286 55.3241 369.346 55.784 370.121 56.5826C370.896 57.3813 371.325 58.454 371.312 59.5671Z" fill="#555555"/>
<path opacity="0.7" d="M371.313 69.2759H195.248V385.843H371.313V69.2759Z" fill="white"/>
<path opacity="0.6" d="M279.3 58.1419C280.634 58.1419 281.716 57.0605 281.716 55.7265C281.716 54.3925 280.634 53.311 279.3 53.311C277.966 53.311 276.885 54.3925 276.885 55.7265C276.885 57.0605 277.966 58.1419 279.3 58.1419Z" fill="white"/>
<path opacity="0.6" d="M286.66 55.7201C286.66 56.0279 286.568 56.3287 286.397 56.5844C286.226 56.8401 285.983 57.0393 285.698 57.1565C285.414 57.2738 285.101 57.3038 284.799 57.243C284.497 57.1821 284.221 57.033 284.004 56.8146C283.787 56.5962 283.64 56.3183 283.581 56.0162C283.523 55.7141 283.555 55.4014 283.674 55.1177C283.794 54.834 283.994 54.5922 284.251 54.4228C284.508 54.2535 284.81 54.1643 285.118 54.1665C285.321 54.1665 285.523 54.2068 285.71 54.285C285.898 54.3632 286.069 54.4779 286.212 54.6223C286.356 54.7667 286.469 54.938 286.546 55.1265C286.623 55.3149 286.661 55.5166 286.66 55.7201Z" fill="white"/>
<path opacity="0.6" d="M215.104 64.647H217.281V61.7439H215.104V64.647Z" fill="white"/>
<path opacity="0.6" d="M211.567 64.647H213.744V60.78H211.567V64.647Z" fill="white"/>
<path opacity="0.6" d="M208.016 64.6392H210.193V59.8083H208.016V64.6392Z" fill="white"/>
<path opacity="0.6" d="M204.479 64.647H206.656V58.8409H204.479V64.647Z" fill="white"/>
<path opacity="0.6" d="M351.853 60.6899H350.561V63.593H351.853V60.6899Z" fill="white"/>
<path opacity="0.6" d="M352.726 64.6392H363V59.6269H352.726V64.6392Z" fill="white"/>
<path d="M371.404 69.311H195.033V97.8878H371.404V69.311Z" fill="#263238"/>
<g opacity="0.7">
<path d="M239.505 79.4567V82.3598H244.109V83.8453H239.505V87.4968H237.736V77.9712H244.699V79.4567H239.505Z" fill="white"/>
<path d="M245.832 78.0191C245.835 77.876 245.867 77.735 245.926 77.6048C245.985 77.4746 246.071 77.3581 246.177 77.2624C246.284 77.1666 246.408 77.0938 246.544 77.0484C246.68 77.003 246.823 76.986 246.966 76.9985C247.106 76.981 247.248 76.993 247.383 77.0337C247.518 77.0744 247.642 77.1429 247.749 77.2348C247.856 77.3266 247.942 77.4399 248.003 77.5671C248.063 77.6944 248.096 77.8329 248.1 77.9737C248.031 78.2093 247.888 78.4162 247.692 78.5634C247.495 78.7106 247.257 78.7902 247.011 78.7902C246.766 78.7902 246.527 78.7106 246.331 78.5634C246.135 78.4162 245.991 78.2093 245.923 77.9737L245.832 78.0191ZM246.059 80.2871H247.76V87.5561H246.059V80.2871Z" fill="white"/>
<path d="M257.173 83.3377V87.4995H255.472V83.5531C255.472 82.2604 254.837 81.6367 253.748 81.6367C253.463 81.6188 253.178 81.6646 252.913 81.7706C252.647 81.8767 252.409 82.0403 252.215 82.2498C252.02 82.4592 251.875 82.7092 251.789 82.9817C251.704 83.2542 251.679 83.5423 251.719 83.8253V87.4995H250.018V80.2305H251.639V81.1717C251.953 80.8271 252.34 80.5568 252.772 80.3802C253.203 80.2037 253.668 80.1254 254.134 80.1511C254.554 80.1194 254.976 80.1814 255.369 80.3325C255.762 80.4836 256.117 80.7201 256.408 81.025C256.699 81.3298 256.918 81.6954 257.05 82.0953C257.183 82.4953 257.225 82.9196 257.173 83.3377Z" fill="white"/>
<path d="M265.441 83.2493V87.5018H263.842V86.6173C263.575 86.9561 263.228 87.2228 262.832 87.3931C262.436 87.5634 262.003 87.632 261.574 87.5925C259.918 87.5925 258.875 86.6853 258.875 85.4152C258.875 84.1452 259.68 83.2606 261.891 83.2606H263.763V83.1472C263.763 82.1607 263.173 81.571 261.959 81.571C261.162 81.561 260.384 81.8163 259.748 82.2967L259.09 81.0493C259.994 80.4325 261.07 80.1188 262.164 80.1535C264.227 80.1535 265.441 81.1514 265.441 83.2493ZM263.74 85.2338V84.3833H261.993C260.859 84.3833 260.519 84.8256 260.519 85.3472C260.519 85.8688 261.041 86.3565 261.903 86.3565C262.288 86.3864 262.673 86.294 263.003 86.0925C263.333 85.8909 263.591 85.5904 263.74 85.2338Z" fill="white"/>
<path d="M274.772 83.3386V87.5003H273.048V83.554C273.048 82.2613 272.413 81.6376 271.325 81.6376C271.039 81.6197 270.754 81.6655 270.489 81.7715C270.223 81.8776 269.985 82.0412 269.791 82.2507C269.597 82.4601 269.451 82.7101 269.366 82.9826C269.28 83.2551 269.256 83.5432 269.295 83.8262V87.5003H267.594V80.2314H269.215V81.1726C269.531 80.8271 269.92 80.5563 270.353 80.3798C270.787 80.2032 271.254 80.1254 271.722 80.152C272.142 80.1185 272.566 80.1792 272.96 80.3295C273.355 80.4798 273.711 80.7161 274.003 81.0211C274.295 81.3262 274.516 81.6924 274.649 82.0932C274.782 82.4941 274.824 82.9195 274.772 83.3386Z" fill="white"/>
<path d="M276.452 83.918C276.444 83.4099 276.542 82.9059 276.739 82.4377C276.937 81.9694 277.229 81.5472 277.598 81.1976C277.966 80.8481 278.404 80.5788 278.882 80.4068C279.36 80.2348 279.868 80.1639 280.375 80.1984C281 80.1534 281.626 80.2887 282.176 80.5881C282.727 80.8876 283.18 81.3388 283.482 81.8881L282.178 82.6479C281.991 82.3351 281.725 82.0772 281.406 81.9C281.088 81.7229 280.728 81.6327 280.364 81.6386C279.762 81.6386 279.185 81.8776 278.76 82.3029C278.335 82.7282 278.096 83.3051 278.096 83.9066C278.096 84.5081 278.335 85.085 278.76 85.5104C279.185 85.9357 279.762 86.1746 280.364 86.1746C280.728 86.1806 281.088 86.0904 281.406 85.9132C281.725 85.736 281.991 85.4781 282.178 85.1654L283.482 85.9252C283.179 86.4738 282.725 86.9249 282.175 87.2261C281.625 87.5272 281.001 87.6659 280.375 87.6262C279.869 87.6606 279.362 87.59 278.884 87.4187C278.407 87.2474 277.97 86.9791 277.602 86.6308C277.233 86.2825 276.941 85.8616 276.743 85.3947C276.545 84.9279 276.446 84.425 276.452 83.918Z" fill="white"/>
<path d="M291.613 84.4173H285.943C286.054 84.9456 286.357 85.4143 286.792 85.7343C287.226 86.0542 287.764 86.203 288.301 86.1524C288.667 86.1654 289.03 86.1027 289.37 85.968C289.71 85.8333 290.018 85.6297 290.275 85.3699L291.182 86.4132C290.631 86.9588 289.937 87.3364 289.179 87.5018C288.422 87.6672 287.633 87.6135 286.905 87.3471C286.177 87.0806 285.54 86.6124 285.068 85.9972C284.597 85.382 284.31 84.6452 284.242 83.873C284.227 83.3778 284.315 82.8849 284.499 82.4249C284.683 81.9648 284.96 81.5475 285.311 81.1988C285.663 80.8501 286.083 80.5773 286.545 80.3975C287.007 80.2177 287.5 80.1347 287.995 80.1535C288.489 80.1353 288.982 80.2205 289.441 80.4038C289.901 80.587 290.317 80.8643 290.663 81.2177C291.008 81.5711 291.277 81.9928 291.45 82.456C291.624 82.9191 291.698 83.4134 291.669 83.907C291.635 84.0431 291.624 84.2472 291.613 84.4173ZM285.943 83.2833H290.059C290.008 82.7822 289.766 82.3197 289.385 81.9908C289.003 81.6619 288.51 81.4914 288.007 81.5143C287.496 81.4848 286.993 81.6514 286.601 81.9802C286.209 82.3091 285.957 82.7752 285.897 83.2833H285.943Z" fill="white"/>
<path d="M303.362 85.2968H298.611L297.669 87.4968H295.844L300.13 77.9712H301.877L306.174 87.4968H304.315L303.362 85.2968ZM302.784 83.902L300.992 79.7402L299.2 83.9133L302.784 83.902Z" fill="white"/>
<path d="M314.928 83.9166C314.954 84.409 314.876 84.9013 314.701 85.3619C314.525 85.8226 314.255 86.2414 313.908 86.5916C313.561 86.9418 313.145 87.2157 312.686 87.3955C312.227 87.5754 311.735 87.6574 311.242 87.6362C310.807 87.6532 310.374 87.5747 309.972 87.4063C309.57 87.2378 309.211 86.9834 308.918 86.6609V90.1877H307.217V80.2765H308.838V81.2291C309.135 80.8863 309.505 80.6153 309.922 80.4366C310.338 80.2578 310.79 80.176 311.242 80.1971C311.735 80.1759 312.227 80.2579 312.686 80.4377C313.145 80.6176 313.561 80.8914 313.908 81.2416C314.255 81.5919 314.525 82.0107 314.701 82.4714C314.876 82.932 314.954 83.4243 314.928 83.9166ZM313.204 83.9166C313.182 83.4956 313.037 83.0903 312.787 82.7509C312.536 82.4116 312.192 82.1532 311.796 82.0077C311.4 81.8623 310.97 81.8361 310.56 81.9326C310.15 82.029 309.776 82.2437 309.487 82.5502C309.197 82.8567 309.004 83.2414 308.931 83.6567C308.858 84.072 308.908 84.4996 309.076 84.8865C309.243 85.2734 309.521 85.6026 309.874 85.8334C310.227 86.0642 310.639 86.1863 311.061 86.1846C311.355 86.1902 311.646 86.1344 311.917 86.0207C312.188 85.907 312.432 85.738 312.634 85.5245C312.836 85.311 312.991 85.0577 313.089 84.7808C313.187 84.5039 313.226 84.2096 313.204 83.9166Z" fill="white"/>
<path d="M324.272 83.9167C324.298 84.409 324.22 84.9013 324.044 85.3619C323.869 85.8226 323.599 86.2414 323.252 86.5917C322.905 86.9419 322.488 87.2157 322.029 87.3956C321.57 87.5754 321.079 87.6574 320.586 87.6362C320.149 87.6541 319.714 87.5761 319.31 87.4076C318.906 87.2391 318.545 86.9843 318.25 86.6609V90.1877H316.561V80.2765H318.171V81.2291C318.47 80.8861 318.842 80.6151 319.26 80.4364C319.679 80.2577 320.132 80.1759 320.586 80.1971C321.079 80.1759 321.57 80.2579 322.029 80.4378C322.488 80.6176 322.905 80.8915 323.252 81.2417C323.599 81.5919 323.869 82.0107 324.044 82.4714C324.22 82.932 324.298 83.4243 324.272 83.9167ZM322.537 83.9167C322.515 83.4956 322.369 83.0903 322.119 82.7509C321.869 82.4116 321.524 82.1532 321.128 82.0078C320.733 81.8623 320.303 81.8361 319.892 81.9326C319.482 82.029 319.109 82.2437 318.819 82.5502C318.53 82.8567 318.336 83.2414 318.263 83.6567C318.19 84.072 318.24 84.4996 318.408 84.8865C318.576 85.2734 318.853 85.6027 319.206 85.8334C319.559 86.0642 319.972 86.1863 320.393 86.1847C320.687 86.1902 320.979 86.1344 321.25 86.0207C321.521 85.907 321.765 85.738 321.967 85.5245C322.168 85.311 322.323 85.0577 322.421 84.7808C322.52 84.5039 322.559 84.2096 322.537 83.9167Z" fill="white"/>
</g>
<g opacity="0.7">
<path d="M206.997 88.9028C206.699 88.9016 206.414 88.7835 206.203 88.574L201.939 84.3215C201.833 84.2161 201.748 84.0907 201.691 83.9525C201.633 83.8143 201.604 83.6661 201.604 83.5163C201.604 83.3666 201.633 83.2184 201.691 83.0802C201.748 82.9421 201.833 82.8166 201.939 82.7112L206.203 78.4587C206.42 78.2729 206.699 78.1759 206.984 78.1869C207.27 78.1979 207.54 78.3162 207.742 78.5182C207.944 78.7201 208.063 78.9909 208.074 79.2763C208.085 79.5617 207.988 79.8407 207.802 80.0577L204.343 83.5163L207.802 86.9183C208.013 87.1308 208.131 87.4182 208.131 87.7178C208.131 88.0174 208.013 88.3048 207.802 88.5173C207.701 88.6327 207.577 88.7264 207.439 88.7926C207.3 88.8589 207.15 88.8964 206.997 88.9028Z" fill="white"/>
</g>
<g opacity="0.7">
<path d="M364.839 79.3772C364.839 79.6329 364.764 79.8829 364.622 80.0954C364.479 80.308 364.278 80.4737 364.041 80.5716C363.805 80.6694 363.545 80.695 363.294 80.6452C363.044 80.5953 362.813 80.4721 362.633 80.2913C362.452 80.1106 362.329 79.8802 362.279 79.6294C362.229 79.3787 362.254 79.1187 362.352 78.8825C362.45 78.6463 362.616 78.4444 362.828 78.3023C363.041 78.1603 363.291 78.0845 363.547 78.0845C363.89 78.0845 364.218 78.2207 364.461 78.4631C364.703 78.7056 364.839 79.0344 364.839 79.3772Z" fill="white"/>
<path d="M364.839 83.5178C364.839 83.7735 364.764 84.0235 364.622 84.2361C364.479 84.4487 364.278 84.6144 364.041 84.7122C363.805 84.81 363.545 84.8357 363.294 84.7858C363.044 84.7359 362.813 84.6128 362.633 84.432C362.452 84.2512 362.329 84.0208 362.279 83.7701C362.229 83.5193 362.254 83.2594 362.352 83.0231C362.45 82.7869 362.616 82.585 362.828 82.443C363.041 82.3009 363.291 82.2251 363.547 82.2251C363.89 82.2251 364.218 82.3613 364.461 82.6037C364.703 82.8462 364.839 83.175 364.839 83.5178Z" fill="white"/>
<path d="M364.839 87.6663C364.839 87.922 364.764 88.1719 364.622 88.3845C364.479 88.5971 364.278 88.7628 364.041 88.8606C363.805 88.9585 363.545 88.9841 363.294 88.9342C363.044 88.8843 362.813 88.7612 362.633 88.5804C362.452 88.3996 362.329 88.1693 362.279 87.9185C362.229 87.6677 362.254 87.4078 362.352 87.1716C362.45 86.9354 362.616 86.7335 362.828 86.5914C363.041 86.4494 363.291 86.3735 363.547 86.3735C363.89 86.3735 364.218 86.5097 364.461 86.7522C364.703 86.9946 364.839 87.3234 364.839 87.6663Z" fill="white"/>
</g>
<path d="M262.347 123.435V124.966H261.213V123.458C260.013 123.422 258.852 123.027 257.879 122.324L258.491 120.951C259.282 121.547 260.226 121.905 261.213 121.983V119.262C259.705 118.899 258.083 118.411 258.083 116.518C258.083 115.134 259.092 113.921 261.213 113.717V112.174H262.347V113.683C263.326 113.731 264.277 114.024 265.114 114.533L264.547 115.905C263.874 115.507 263.124 115.256 262.347 115.168V117.935C263.855 118.309 265.499 118.786 265.499 120.668C265.499 122.029 264.479 123.219 262.347 123.435ZM261.213 117.618V115.202C260.249 115.35 259.841 115.837 259.841 116.438C259.841 117.039 260.442 117.391 261.236 117.618H261.213ZM263.742 120.759C263.742 120.09 263.141 119.783 262.324 119.545V121.961C263.345 121.802 263.764 121.337 263.764 120.759H263.742Z" fill="#555555"/>
<path d="M273.629 113.807V123.333H271.917V115.293H269.898V113.807H273.629Z" fill="#555555"/>
<path d="M283.258 120.6C283.258 122.369 281.727 123.469 279.357 123.469C276.987 123.469 275.479 122.335 275.479 120.6C275.472 120.112 275.614 119.634 275.885 119.229C276.157 118.824 276.545 118.511 276.998 118.332C276.641 118.139 276.346 117.849 276.145 117.496C275.945 117.143 275.847 116.741 275.864 116.336C275.864 114.703 277.293 113.682 279.402 113.682C281.512 113.682 282.963 114.703 282.963 116.336C282.974 116.75 282.866 117.158 282.65 117.512C282.435 117.866 282.122 118.151 281.75 118.332C282.202 118.511 282.589 118.825 282.858 119.23C283.128 119.635 283.267 120.113 283.258 120.6ZM281.478 120.6C281.478 119.658 280.661 119.08 279.357 119.08C278.053 119.08 277.259 119.658 277.259 120.6C277.259 121.541 278.053 122.13 279.357 122.13C280.661 122.13 281.466 121.507 281.466 120.543L281.478 120.6ZM277.588 116.404C277.588 117.22 278.257 117.742 279.38 117.742C280.502 117.742 281.205 117.22 281.205 116.404C281.205 115.587 280.468 115.066 279.38 115.066C278.291 115.066 277.588 115.553 277.588 116.404Z" fill="#555555"/>
<path d="M284.471 122.301C284.471 122.076 284.537 121.857 284.662 121.67C284.786 121.484 284.964 121.339 285.171 121.253C285.378 121.167 285.606 121.145 285.826 121.188C286.046 121.232 286.248 121.34 286.407 121.499C286.565 121.657 286.673 121.859 286.717 122.079C286.761 122.299 286.738 122.527 286.652 122.734C286.567 122.942 286.421 123.119 286.235 123.243C286.048 123.368 285.829 123.435 285.605 123.435C285.304 123.435 285.016 123.315 284.803 123.102C284.59 122.89 284.471 122.601 284.471 122.301Z" fill="#555555"/>
<path d="M290.936 113.807V123.333H289.167V115.293H287.16V113.807H290.936Z" fill="#555555"/>
<path d="M299.725 121.839V123.336H292.705V122.202L296.493 118.619C297.411 117.734 297.627 117.179 297.627 116.646C297.627 115.772 297.026 115.273 295.858 115.273C295.428 115.244 294.998 115.319 294.603 115.49C294.209 115.662 293.861 115.926 293.59 116.26L292.354 115.307C292.793 114.782 293.348 114.366 293.976 114.092C294.604 113.819 295.287 113.695 295.971 113.731C298.035 113.731 299.373 114.786 299.373 116.464C299.359 117.053 299.21 117.63 298.937 118.151C298.663 118.673 298.273 119.124 297.797 119.469L295.245 121.896L299.725 121.839Z" fill="#555555"/>
<path d="M308.479 120.6C308.479 122.369 306.936 123.469 304.578 123.469C302.219 123.469 300.699 122.335 300.699 120.6C300.693 120.112 300.835 119.634 301.106 119.229C301.377 118.824 301.766 118.511 302.219 118.332C301.862 118.139 301.566 117.849 301.366 117.496C301.165 117.143 301.068 116.741 301.085 116.336C301.085 114.703 302.514 113.682 304.623 113.682C306.732 113.682 308.184 114.703 308.184 116.336C308.192 116.749 308.082 117.157 307.867 117.51C307.653 117.864 307.341 118.148 306.97 118.332C307.423 118.511 307.809 118.825 308.079 119.23C308.348 119.635 308.488 120.113 308.479 120.6ZM306.698 120.6C306.698 119.658 305.882 119.08 304.578 119.08C303.274 119.08 302.48 119.658 302.48 120.6C302.48 121.541 303.262 122.13 304.578 122.13C305.893 122.13 306.698 121.507 306.698 120.543V120.6ZM302.775 116.46C302.775 117.277 303.455 117.799 304.578 117.799C305.7 117.799 306.392 117.277 306.392 116.46C306.392 115.644 305.666 115.122 304.578 115.122C303.489 115.122 302.775 115.553 302.775 116.404V116.46Z" fill="#555555"/>
<path d="M271.792 179.872V180.711H271.169V179.872C270.504 179.854 269.86 179.636 269.32 179.248L269.66 178.488C270.1 178.815 270.623 179.011 271.169 179.055V177.547C270.33 177.343 269.434 177.071 269.434 176.028C269.434 175.256 269.989 174.587 271.169 174.474V173.624H271.792V174.463C272.333 174.482 272.86 174.638 273.323 174.916L273.017 175.676C272.64 175.461 272.223 175.323 271.792 175.268V176.799C272.632 177.003 273.539 177.264 273.539 178.318C273.539 179.078 272.972 179.747 271.792 179.872ZM271.169 176.64V175.291C270.636 175.381 270.409 175.653 270.409 175.982C270.409 176.311 270.783 176.515 271.169 176.64ZM272.575 178.386C272.575 178.012 272.246 177.842 271.792 177.706V179.044C272.337 178.965 272.575 178.704 272.575 178.386Z" fill="black"/>
<path d="M278.041 174.534V179.807H277.066V175.35H275.932V174.534H278.041Z" fill="black"/>
<path d="M280.912 174.534V179.807H279.937V175.35H278.803V174.534H280.912Z" fill="black"/>
<path d="M285.8 178.185C285.8 179.115 285.131 179.886 283.713 179.886C283.003 179.901 282.307 179.686 281.729 179.274L282.148 178.514C282.592 178.859 283.14 179.043 283.702 179.036C284.405 179.036 284.836 178.718 284.836 178.231C284.836 177.743 284.518 177.403 283.418 177.403H282.125L282.398 174.534H285.527V175.35H283.259L283.146 176.575H283.645C285.176 176.575 285.8 177.255 285.8 178.185Z" fill="black"/>
<path d="M287.569 179.238C287.555 179.462 287.497 179.682 287.399 179.884L287.013 180.95H286.401L286.707 179.816C286.598 179.771 286.505 179.694 286.442 179.594C286.379 179.495 286.349 179.378 286.355 179.26C286.343 179.174 286.35 179.086 286.375 179.002C286.4 178.918 286.443 178.841 286.501 178.775C286.558 178.709 286.629 178.656 286.709 178.62C286.788 178.584 286.875 178.565 286.962 178.565C287.049 178.565 287.136 178.584 287.215 178.62C287.295 178.656 287.366 178.709 287.423 178.775C287.481 178.841 287.524 178.918 287.549 179.002C287.574 179.086 287.581 179.174 287.569 179.26V179.238Z" fill="black"/>
<path d="M292.103 178.979V179.807H288.214V179.172L290.312 177.188C290.492 177.057 290.639 176.887 290.743 176.69C290.847 176.494 290.905 176.276 290.913 176.054C290.913 175.577 290.584 175.294 289.938 175.294C289.7 175.28 289.463 175.323 289.246 175.42C289.029 175.517 288.838 175.664 288.69 175.85L288.01 175.317C288.254 175.025 288.562 174.795 288.91 174.643C289.259 174.492 289.638 174.423 290.017 174.443C291.151 174.443 291.899 175.022 291.899 175.963C291.893 176.289 291.811 176.61 291.659 176.899C291.507 177.188 291.291 177.439 291.026 177.63L289.62 178.968L292.103 178.979Z" fill="black"/>
<path d="M292.646 177.166C292.646 175.431 293.599 174.456 294.846 174.456C296.094 174.456 297.058 175.431 297.058 177.166C297.058 178.901 296.105 179.887 294.846 179.887C293.588 179.887 292.646 178.901 292.646 177.166ZM296.048 177.166C296.048 175.896 295.55 175.306 294.824 175.306C294.098 175.306 293.61 175.896 293.61 177.166C293.61 178.436 294.109 179.037 294.824 179.037C295.538 179.037 296.071 178.447 296.071 177.166H296.048Z" fill="black"/>
<path d="M242.15 167.512C240.153 175.636 240.611 184.17 243.464 192.034C246.317 199.899 251.439 206.74 258.181 211.694C264.922 216.648 272.982 219.491 281.339 219.864C289.697 220.237 297.978 218.123 305.134 213.79C312.291 209.457 318.001 203.099 321.544 195.52C325.087 187.941 326.303 179.482 325.038 171.212C323.773 162.942 320.084 155.233 314.437 149.06C308.791 142.887 301.441 138.526 293.316 136.531C287.923 135.204 282.32 134.953 276.829 135.792C271.338 136.632 266.067 138.544 261.315 141.421C256.564 144.298 252.426 148.083 249.137 152.56C245.849 157.037 243.475 162.117 242.15 167.512ZM259.625 171.798C260.771 167.13 263.275 162.907 266.822 159.662C270.368 156.417 274.797 154.297 279.548 153.57C284.299 152.842 289.159 153.54 293.514 155.575C297.869 157.609 301.522 160.89 304.012 165.001C306.502 169.112 307.717 173.87 307.504 178.672C307.29 183.473 305.657 188.104 302.812 191.978C299.966 195.852 296.036 198.795 291.518 200.435C287 202.075 282.097 202.338 277.429 201.191C271.171 199.654 265.779 195.694 262.44 190.182C259.102 184.669 258.089 178.057 259.625 171.798Z" fill="#263238"/>
<path d="M247.163 199.731C251.04 206.049 256.509 211.237 263.022 214.776C269.535 218.315 276.864 220.08 284.274 219.894C291.685 219.709 298.916 217.579 305.244 213.718C311.572 209.858 316.775 204.402 320.33 197.898C323.886 191.394 325.67 184.07 325.503 176.659C325.336 169.248 323.225 162.011 319.381 155.673C315.537 149.335 310.095 144.119 303.6 140.547C297.105 136.975 289.785 135.172 282.374 135.319C283.758 135.296 285.129 135.593 286.38 136.187C287.631 136.781 288.727 137.657 289.583 138.745C290.44 139.833 291.033 141.104 291.317 142.459C291.601 143.815 291.567 145.217 291.219 146.557C290.728 148.47 289.61 150.163 288.044 151.366C286.489 152.588 284.578 153.269 282.6 153.305H282.09C286.366 153.106 290.619 154.04 294.418 156.012C298.218 157.985 301.428 160.926 303.726 164.538C306.023 168.15 307.326 172.305 307.502 176.582C307.677 180.859 306.72 185.107 304.727 188.895C302.734 192.684 299.775 195.879 296.151 198.156C292.526 200.434 288.364 201.714 284.086 201.866C279.808 202.019 275.565 201.038 271.788 199.025C268.01 197.011 264.832 194.035 262.574 190.398C261.32 188.345 259.307 186.87 256.972 186.293C255.244 185.868 253.429 185.966 251.756 186.574C250.084 187.182 248.63 188.274 247.579 189.71C246.528 191.146 245.928 192.862 245.853 194.64C245.779 196.418 246.235 198.178 247.163 199.697V199.731Z" fill="#555555"/>
<path d="M214.31 249.479H210.273V262.667H214.31V249.479Z" fill="#555555"/>
<path d="M224.449 252.881H220.412V262.668H224.449V252.881Z" fill="#555555"/>
<path d="M234.574 238.135H230.537V262.664H234.574V238.135Z" fill="#555555"/>
<path d="M244.715 232.471H240.678V262.67H244.715V232.471Z" fill="#555555"/>
<path d="M254.851 238.135H250.814V262.664H254.851V238.135Z" fill="#555555"/>
<path d="M264.978 249.479H260.941V262.667H264.978V249.479Z" fill="#555555"/>
<path d="M275.103 251.749H271.066V262.669H275.103V251.749Z" fill="#555555"/>
<path d="M285.242 252.881H281.205V262.668H285.242V252.881Z" fill="#555555"/>
<path d="M295.381 249.479H291.344V262.667H295.381V249.479Z" fill="#555555"/>
<path d="M305.508 243.807H301.471V262.666H305.508V243.807Z" fill="#555555"/>
<path d="M315.644 239.272H311.607V262.666H315.644V239.272Z" fill="#555555"/>
<path d="M325.771 234.737H321.734V262.667H325.771V234.737Z" fill="#555555"/>
<path d="M335.908 229.069H331.871V262.669H335.908V229.069Z" fill="#555555"/>
<path d="M346.047 237.002H342.01V262.665H346.047V237.002Z" fill="#555555"/>
<path d="M356.174 249.479H352.137V262.667H356.174V249.479Z" fill="#555555"/>
<path d="M234.574 238.135H230.537V243.805H234.574V238.135Z" fill="#263238"/>
<path d="M244.715 232.471H240.678V243.811H244.715V232.471Z" fill="#263238"/>
<path d="M254.851 238.135H250.814V243.805H254.851V238.135Z" fill="#263238"/>
<path d="M315.644 239.272H311.607V243.808H315.644V239.272Z" fill="#263238"/>
<path d="M325.771 234.737H321.734V243.809H325.771V234.737Z" fill="#263238"/>
<path d="M335.908 229.069H331.871V243.811H335.908V229.069Z" fill="#263238"/>
<path d="M346.047 237.002H342.01V243.806H346.047V237.002Z" fill="#263238"/>
<path d="M356.118 278.963H210.342C208.476 278.963 206.963 280.476 206.963 282.343V299.727C206.963 301.593 208.476 303.106 210.342 303.106H356.118C357.984 303.106 359.497 301.593 359.497 299.727V282.343C359.497 280.476 357.984 278.963 356.118 278.963Z" fill="#555555"/>
<g opacity="0.7">
<path d="M321.507 290.972H320.18V292.299H319.364V290.972H318.037V290.224H319.364V288.897H320.18V290.224H321.507V290.972Z" fill="white"/>
<path d="M326.805 293.298V294.148H326.192V293.309C325.527 293.295 324.882 293.077 324.344 292.685L324.684 291.926C325.124 292.251 325.647 292.447 326.192 292.493V290.984C325.353 290.78 324.457 290.508 324.457 289.465C324.457 288.694 325.013 288.025 326.192 287.911V287.049H326.805V287.888C327.345 287.917 327.87 288.076 328.335 288.353L328.029 289.113C327.655 288.892 327.237 288.753 326.805 288.705V290.236C327.644 290.429 328.551 290.701 328.551 291.744C328.551 292.572 327.995 293.184 326.805 293.298ZM326.192 290.066V288.728C325.648 288.807 325.421 289.079 325.421 289.419C325.421 289.76 325.75 289.941 326.192 290.066ZM327.587 291.812C327.587 291.449 327.258 291.268 326.805 291.143V292.481C327.36 292.39 327.587 292.141 327.587 291.812Z" fill="white"/>
<path d="M335.218 287.959V288.617L333.154 293.244H332.1L334.084 288.787H332.02V289.694H331.113V287.959H335.218Z" fill="white"/>
<path d="M339.514 291.622C339.514 292.552 338.845 293.323 337.428 293.323C336.718 293.338 336.022 293.123 335.443 292.711L335.863 291.951C336.311 292.287 336.857 292.466 337.417 292.461C338.12 292.461 338.551 292.155 338.551 291.656C338.551 291.157 338.233 290.84 337.133 290.84H335.863L336.135 287.959H339.231V288.787H336.963L336.85 290.012H337.349C338.891 290.012 339.514 290.681 339.514 291.622Z" fill="white"/>
<path d="M341.284 292.659C341.272 292.888 341.214 293.111 341.113 293.317L340.728 294.372H340.115L340.422 293.238C340.312 293.191 340.219 293.111 340.156 293.01C340.093 292.908 340.063 292.79 340.07 292.671C340.058 292.584 340.065 292.496 340.09 292.412C340.115 292.328 340.158 292.251 340.215 292.185C340.273 292.119 340.344 292.066 340.423 292.03C340.503 291.994 340.589 291.975 340.677 291.975C340.764 291.975 340.851 291.994 340.93 292.03C341.01 292.066 341.081 292.119 341.138 292.185C341.196 292.251 341.238 292.328 341.264 292.412C341.289 292.496 341.295 292.584 341.284 292.671V292.659Z" fill="white"/>
<path d="M341.828 290.599C341.828 288.864 342.781 287.889 344.028 287.889C345.275 287.889 346.296 288.864 346.296 290.599C346.296 292.334 345.355 293.321 344.028 293.321C342.701 293.321 341.828 292.334 341.828 290.599ZM345.23 290.599C345.23 289.329 344.731 288.74 344.005 288.74C343.28 288.74 342.792 289.329 342.792 290.599C342.792 291.87 343.291 292.459 344.005 292.459C344.72 292.459 345.253 291.881 345.253 290.599H345.23Z" fill="white"/>
<path d="M350.741 291.622C350.741 292.552 350.072 293.323 348.654 293.323C347.944 293.338 347.248 293.123 346.67 292.711L347.089 291.951C347.537 292.287 348.083 292.466 348.643 292.461C349.346 292.461 349.777 292.155 349.777 291.656C349.777 291.157 349.46 290.84 348.36 290.84H347.089L347.362 287.959H350.457V288.787H348.189L348.076 290.012H348.575C350.163 290.012 350.741 290.681 350.741 291.622Z" fill="white"/>
</g>
<path opacity="0.7" d="M253.501 289.17H217.984C217.626 289.17 217.283 289.028 217.03 288.775C216.777 288.521 216.635 288.178 216.635 287.82C216.633 287.642 216.667 287.465 216.734 287.3C216.801 287.135 216.901 286.985 217.026 286.859C217.151 286.732 217.301 286.632 217.465 286.563C217.63 286.495 217.806 286.459 217.984 286.459H253.501C253.86 286.462 254.203 286.607 254.456 286.862C254.709 287.117 254.851 287.461 254.851 287.82C254.848 288.177 254.705 288.519 254.452 288.771C254.2 289.024 253.858 289.167 253.501 289.17Z" fill="white"/>
<path opacity="0.7" d="M237.625 295.576H217.984C217.806 295.576 217.63 295.541 217.465 295.472C217.301 295.404 217.151 295.303 217.026 295.177C216.901 295.05 216.801 294.9 216.734 294.735C216.667 294.57 216.633 294.393 216.635 294.215C216.635 293.857 216.777 293.514 217.03 293.261C217.283 293.008 217.626 292.866 217.984 292.866H237.625C237.982 292.869 238.324 293.012 238.576 293.264C238.829 293.517 238.972 293.858 238.975 294.215C238.975 294.574 238.833 294.919 238.58 295.173C238.327 295.428 237.984 295.573 237.625 295.576Z" fill="white"/>
<path d="M356.118 311.85H210.342C208.476 311.85 206.963 313.363 206.963 315.229V332.614C206.963 334.48 208.476 335.993 210.342 335.993H356.118C357.984 335.993 359.497 334.48 359.497 332.614V315.229C359.497 313.363 357.984 311.85 356.118 311.85Z" fill="#555555"/>
<g opacity="0.7">
<path d="M318.898 323.627H320.974V324.421H318.898V323.627Z" fill="white"/>
<path d="M326.201 326.18V327.031H325.577V326.192C324.912 326.174 324.268 325.956 323.729 325.568L324.069 324.808C324.511 325.13 325.032 325.326 325.577 325.375V323.867C324.749 323.663 323.842 323.391 323.842 322.348C323.842 321.576 324.409 320.907 325.577 320.794V319.932H326.201V320.771C326.741 320.8 327.267 320.959 327.732 321.236L327.482 322.053C327.107 321.833 326.69 321.694 326.257 321.644V323.175C327.097 323.368 328.004 323.64 328.004 324.684C327.947 325.455 327.38 326.067 326.201 326.18ZM325.577 322.949V321.61C325.044 321.69 324.817 321.962 324.817 322.302C324.817 322.642 325.146 322.824 325.577 322.949ZM326.983 324.695C326.983 324.332 326.654 324.151 326.201 324.026V325.364C326.745 325.273 326.983 325.024 326.983 324.695Z" fill="white"/>
<path d="M334.469 324.505C334.469 325.435 333.8 326.206 332.371 326.206C331.661 326.218 330.966 326.004 330.387 325.594L330.806 324.834C331.255 325.168 331.8 325.348 332.36 325.344C333.063 325.344 333.494 325.038 333.494 324.539C333.494 324.04 333.165 323.723 332.076 323.723H330.795L331.067 320.842H334.163V321.67H331.895L331.782 322.895H332.292C333.845 322.895 334.469 323.564 334.469 324.505Z" fill="white"/>
<path d="M338.823 324.505C338.823 325.435 338.142 326.206 336.725 326.206C336.015 326.218 335.32 326.004 334.74 325.594L335.16 324.834C335.608 325.168 336.154 325.348 336.713 325.344C337.416 325.344 337.847 325.038 337.847 324.539C337.847 324.04 337.519 323.723 336.419 323.723H335.148L335.421 320.842H338.516V321.67H336.248L336.135 322.895H336.645C338.21 322.895 338.823 323.564 338.823 324.505Z" fill="white"/>
<path d="M340.603 325.545C340.591 325.773 340.533 325.997 340.433 326.203L340.047 327.257H339.435L339.73 326.123C339.621 326.074 339.53 325.994 339.468 325.893C339.405 325.792 339.374 325.675 339.378 325.556C339.373 325.474 339.386 325.392 339.415 325.315C339.443 325.238 339.488 325.167 339.546 325.109C339.604 325.05 339.673 325.004 339.749 324.974C339.826 324.943 339.908 324.929 339.99 324.933C340.071 324.931 340.151 324.946 340.226 324.976C340.301 325.006 340.37 325.051 340.427 325.109C340.484 325.166 340.529 325.234 340.559 325.309C340.589 325.384 340.604 325.464 340.603 325.545Z" fill="white"/>
<path d="M345.911 324.925H344.97V326.127H344.018V324.925H341.092V324.244L343.689 320.842H344.743L342.294 324.097H344.018V323.031H344.936V324.097H345.877L345.911 324.925Z" fill="white"/>
<path d="M350.673 324.604C350.673 325.591 349.822 326.203 348.507 326.203C347.192 326.203 346.364 325.591 346.364 324.604C346.357 324.333 346.434 324.067 346.584 323.842C346.734 323.617 346.95 323.443 347.203 323.345C346.995 323.24 346.823 323.077 346.706 322.876C346.589 322.675 346.533 322.444 346.545 322.211C346.545 321.316 347.339 320.749 348.507 320.749C349.675 320.749 350.491 321.316 350.491 322.211C350.501 322.446 350.442 322.679 350.321 322.88C350.2 323.082 350.023 323.244 349.811 323.345C350.067 323.441 350.287 323.613 350.441 323.839C350.595 324.064 350.676 324.331 350.673 324.604ZM349.686 324.604C349.686 324.082 349.233 323.754 348.552 323.754C347.872 323.754 347.418 324.082 347.418 324.604C347.418 325.126 347.861 325.455 348.552 325.455C349.244 325.455 349.686 325.114 349.686 324.581V324.604ZM347.52 322.336C347.52 322.79 347.895 323.085 348.507 323.085C349.119 323.085 349.528 322.79 349.528 322.336C349.528 321.883 349.119 321.588 348.507 321.588C347.895 321.588 347.52 321.803 347.52 322.279V322.336Z" fill="white"/>
</g>
<path opacity="0.7" d="M253.501 322.053H217.984C217.626 322.053 217.283 321.91 217.03 321.657C216.777 321.404 216.635 321.061 216.635 320.703C216.633 320.525 216.667 320.348 216.734 320.183C216.801 320.018 216.901 319.868 217.026 319.742C217.151 319.615 217.301 319.515 217.465 319.446C217.63 319.378 217.806 319.342 217.984 319.342H253.501C253.86 319.345 254.203 319.49 254.456 319.745C254.709 320 254.851 320.344 254.851 320.703C254.848 321.06 254.705 321.402 254.452 321.654C254.2 321.906 253.858 322.05 253.501 322.053Z" fill="white"/>
<path opacity="0.7" d="M237.625 328.463H217.984C217.806 328.463 217.63 328.427 217.465 328.359C217.301 328.29 217.151 328.19 217.026 328.063C216.901 327.937 216.801 327.787 216.734 327.622C216.667 327.457 216.633 327.28 216.635 327.102C216.635 326.744 216.777 326.401 217.03 326.148C217.283 325.895 217.626 325.752 217.984 325.752H237.625C237.982 325.755 238.324 325.899 238.576 326.151C238.829 326.403 238.972 326.745 238.975 327.102C238.975 327.461 238.833 327.805 238.58 328.06C238.327 328.315 237.984 328.46 237.625 328.463Z" fill="white"/>
<path d="M356.118 344.737H210.342C208.476 344.737 206.963 346.25 206.963 348.116V365.5C206.963 367.367 208.476 368.88 210.342 368.88H356.118C357.984 368.88 359.497 367.367 359.497 365.5V348.116C359.497 346.25 357.984 344.737 356.118 344.737Z" fill="#555555"/>
<g opacity="0.7">
<path d="M322.368 356.742H321.03V358.069H320.225V356.742H318.898V355.993H320.225V354.667H321.03V355.993H322.368V356.742Z" fill="white"/>
<path d="M327.665 359.067V359.918H327.042V359.079C326.377 359.06 325.733 358.843 325.193 358.455L325.534 357.695C325.976 358.017 326.497 358.213 327.042 358.262V356.754C326.214 356.55 325.307 356.278 325.307 355.234C325.307 354.463 325.874 353.794 327.042 353.681V352.819H327.665V353.658C328.206 353.686 328.731 353.846 329.196 354.123L328.89 354.883C328.515 354.663 328.098 354.524 327.665 354.474V356.005C328.505 356.198 329.412 356.47 329.412 357.514C329.412 358.341 328.845 358.954 327.665 359.067ZM327.042 355.835V354.497C326.509 354.577 326.282 354.849 326.282 355.189C326.282 355.529 326.611 355.711 327.042 355.835ZM328.448 357.582C328.448 357.219 328.119 357.037 327.665 356.913V358.251C328.221 358.16 328.448 357.91 328.448 357.582Z" fill="white"/>
<path d="M333.912 353.729V359.013H332.937V354.557H331.803V353.729H333.912Z" fill="white"/>
<path d="M339.243 357.491C339.243 358.477 338.393 359.09 337.077 359.09C335.762 359.09 334.934 358.477 334.934 357.491C334.927 357.22 335.004 356.954 335.155 356.729C335.305 356.503 335.521 356.33 335.773 356.232C335.566 356.127 335.393 355.964 335.276 355.763C335.159 355.561 335.104 355.331 335.115 355.098C335.115 354.202 335.909 353.635 337.077 353.635C338.245 353.635 339.062 354.202 339.062 355.098C339.071 355.331 339.013 355.563 338.894 355.764C338.776 355.965 338.602 356.128 338.393 356.232C338.646 356.33 338.864 356.503 339.016 356.728C339.168 356.953 339.247 357.219 339.243 357.491ZM338.257 357.491C338.257 356.969 337.803 356.64 337.123 356.64C336.442 356.64 335.989 356.969 335.989 357.491C335.989 358.012 336.431 358.341 337.123 358.341C337.814 358.341 338.257 358.001 338.257 357.468V357.491ZM336.091 355.223C336.091 355.676 336.465 355.971 337.077 355.971C337.69 355.971 338.098 355.676 338.098 355.223C338.098 354.769 337.69 354.474 337.077 354.474C336.465 354.474 336.091 354.69 336.091 355.166V355.223Z" fill="white"/>
<path d="M341.158 358.432C341.146 358.66 341.088 358.884 340.987 359.089L340.602 360.144H339.956L340.262 359.01C340.151 358.964 340.056 358.885 339.991 358.783C339.927 358.682 339.894 358.563 339.899 358.443C339.899 358.281 339.963 358.125 340.078 358.01C340.193 357.895 340.349 357.831 340.511 357.831C340.674 357.831 340.829 357.895 340.944 358.01C341.059 358.125 341.124 358.281 341.124 358.443L341.158 358.432Z" fill="white"/>
<path d="M345.693 358.182V359.01H341.804V358.341L343.902 356.345C344.412 355.857 344.503 355.551 344.503 355.211C344.503 354.723 344.162 354.451 343.516 354.451C343.282 354.439 343.048 354.481 342.833 354.576C342.618 354.67 342.429 354.814 342.28 354.995L341.6 354.474C341.842 354.18 342.15 353.948 342.499 353.797C342.847 353.645 343.227 353.578 343.607 353.601C344.741 353.601 345.489 354.179 345.489 355.109C345.483 355.435 345.4 355.756 345.249 356.045C345.097 356.334 344.881 356.584 344.616 356.776L343.199 358.125L345.693 358.182Z" fill="white"/>
<path d="M346.238 356.369C346.238 354.634 347.18 353.659 348.438 353.659C349.697 353.659 350.65 354.634 350.65 356.369C350.65 358.104 349.697 359.091 348.438 359.091C347.18 359.091 346.238 358.104 346.238 356.369ZM349.64 356.369C349.64 355.099 349.141 354.509 348.416 354.509C347.69 354.509 347.202 355.099 347.202 356.369C347.202 357.639 347.701 358.229 348.416 358.229C349.13 358.229 349.663 357.65 349.663 356.369H349.64Z" fill="white"/>
</g>
<path opacity="0.7" d="M253.501 354.943H217.984C217.626 354.943 217.283 354.801 217.03 354.548C216.777 354.295 216.635 353.952 216.635 353.594C216.633 353.416 216.667 353.239 216.734 353.074C216.801 352.909 216.901 352.759 217.026 352.632C217.151 352.506 217.301 352.405 217.465 352.337C217.63 352.268 217.806 352.233 217.984 352.233H253.501C253.86 352.236 254.203 352.381 254.456 352.635C254.709 352.89 254.851 353.235 254.851 353.594C254.848 353.951 254.705 354.292 254.452 354.545C254.2 354.797 253.858 354.94 253.501 354.943Z" fill="white"/>
<path opacity="0.7" d="M237.625 361.345H217.984C217.806 361.346 217.63 361.31 217.465 361.242C217.301 361.173 217.151 361.073 217.026 360.946C216.901 360.82 216.801 360.67 216.734 360.505C216.667 360.34 216.633 360.163 216.635 359.985C216.635 359.627 216.777 359.284 217.03 359.03C217.283 358.777 217.626 358.635 217.984 358.635H237.625C237.982 358.638 238.324 358.781 238.576 359.034C238.829 359.286 238.972 359.628 238.975 359.985C238.975 360.344 238.833 360.688 238.58 360.943C238.327 361.198 237.984 361.343 237.625 361.345Z" fill="white"/>
<path d="M124.798 114.266L140.357 114.277C142.668 114.278 144.542 112.406 144.544 110.095L144.555 94.5368C144.556 92.2258 142.684 90.3511 140.373 90.3495L124.815 90.3386C122.504 90.337 120.629 92.2091 120.627 94.5201L120.617 110.079C120.615 112.39 122.487 114.264 124.798 114.266Z" fill="#555555"/>
<path opacity="0.6" d="M126.005 97.5893C127.706 94.845 130.927 95.8996 132.594 98.0316C134.261 95.8996 137.493 94.8564 139.182 97.6007C142.029 102.227 136.155 106.514 133.376 108.181L132.594 108.657C132.367 108.532 132.118 108.374 131.8 108.181C129.033 106.503 123.159 102.216 126.005 97.5893Z" fill="white"/>
<path d="M130.021 112.414C130.021 112.414 133.151 119.593 140.227 121.838C140.227 121.838 136.338 119.57 136.644 112.12L130.021 112.414Z" fill="#555555"/>
<path d="M123.363 159.721C123.381 159.854 123.368 159.989 123.327 160.116C123.285 160.243 123.216 160.36 123.123 160.456C123.031 160.553 122.918 160.628 122.792 160.676C122.667 160.723 122.533 160.742 122.4 160.73L112.023 160.458C111.737 160.444 111.465 160.327 111.257 160.129C111.049 159.932 110.919 159.666 110.889 159.381L109.12 138.867C109.11 138.728 109.126 138.589 109.169 138.457C109.213 138.325 109.282 138.202 109.372 138.097C109.463 137.992 109.573 137.905 109.698 137.843C109.822 137.78 109.957 137.743 110.096 137.733L120.449 138.016C120.748 138.059 121.023 138.203 121.229 138.424C121.436 138.644 121.56 138.929 121.583 139.23L123.363 159.721Z" fill="#263238"/>
<path opacity="0.5" d="M120.459 139.049L122.228 159.756C122.255 159.877 122.254 160.003 122.223 160.123C122.193 160.243 122.134 160.354 122.052 160.447C121.97 160.54 121.867 160.612 121.752 160.658C121.637 160.703 121.512 160.721 121.389 160.709L112.611 160.47C112.022 160.47 110.945 160.096 110.899 159.518L109.107 138.743C109.107 138.153 110.083 137.711 110.672 137.734L119.45 137.972C119.724 137.986 119.983 138.107 120.171 138.308C120.359 138.508 120.462 138.774 120.459 139.049Z" fill="white"/>
<path d="M116.9 165.361L115.686 161.369C116.214 159.931 116.62 158.452 116.9 156.946C117.002 155.597 113.418 145.096 113.418 145.096C113.418 145.096 109.495 148.203 107.136 149.768C104.777 151.333 108.531 161.471 109.12 161.732C109.71 161.993 110.855 162.662 110.855 162.662L111.638 165.916L116.9 165.361Z" fill="#E4897B"/>
<path d="M110.426 169.066C111.639 173.761 116.89 192.744 123.172 195.296C124.816 195.965 126.756 195.545 128.842 194.49C135.646 190.964 143.357 180.327 143.357 180.327L141.804 172.57L140.364 165.358C134.694 168.159 128.173 181.812 126.37 181.71C124.85 181.631 121.074 169.939 119.963 166.379C119.869 166.108 119.677 165.883 119.425 165.749C119.173 165.614 118.879 165.58 118.602 165.653L111.254 167.728C110.969 167.801 110.724 167.981 110.57 168.23C110.416 168.48 110.364 168.779 110.426 169.066Z" fill="#555555"/>
<path d="M117.342 163.217L117.954 165.814L111.196 167.731L110.391 164.907L117.342 163.217Z" fill="#555555"/>
<path opacity="0.2" d="M117.342 163.217L117.954 165.814L111.196 167.731L110.391 164.907L117.342 163.217Z" fill="black"/>
<path opacity="0.2" d="M128.783 194.489C135.587 190.962 143.298 180.325 143.298 180.325L141.745 172.569C138.241 175.823 129.895 184.533 128.783 194.489Z" fill="black"/>
<path d="M180.303 310.555L180.246 300.655C180.247 300.494 180.303 300.338 180.404 300.212C180.504 300.087 180.645 299.999 180.802 299.963L188.059 298.319C188.371 298.251 188.696 298.31 188.964 298.482C189.232 298.655 189.42 298.926 189.488 299.237C189.499 299.324 189.499 299.411 189.488 299.498C189.488 302.707 189.273 305.043 189.284 309.069C189.284 311.541 189.602 319.014 189.613 322.439C189.624 325.864 186.211 326.317 185.939 324.922C184.533 318.651 182.616 313.923 180.802 311.927C180.466 311.55 180.288 311.059 180.303 310.555Z" fill="#263238"/>
<path d="M136.086 219.381L132.889 236.153C132.889 236.153 107.612 277.068 107.623 300.689C107.623 328.914 181.254 312.63 181.254 312.63V299.635C181.254 299.635 137.254 303.422 133.285 299.011C128.477 293.647 158.143 252.188 158.143 252.188L136.086 219.381Z" fill="#263238"/>
<path opacity="0.2" d="M107.623 300.69C107.623 316.248 130.008 318.278 150.091 316.974C160.094 316.259 170.041 314.903 179.87 312.914C180.755 312.744 181.242 312.631 181.242 312.631V299.635L179.632 299.76C174.631 300.168 159.05 301.291 147.268 301.12C140.26 301.03 134.59 300.451 133.285 299C130.915 296.369 136.88 285.018 143.56 274.154C150.466 262.927 158.143 252.2 158.143 252.2L148.481 237.809L136.098 219.393L132.889 236.165C132.889 236.165 107.612 277.068 107.623 300.69Z" fill="white"/>
<path opacity="0.2" d="M147.27 301.118L150.093 316.994C160.096 316.279 170.043 314.923 179.872 312.934L179.634 299.78C174.633 300.165 159.052 301.288 147.27 301.118Z" fill="black"/>
<path opacity="0.2" d="M148.435 255.75C148.435 255.75 144.33 265.423 143.558 274.144C150.465 262.917 158.142 252.19 158.142 252.19L148.48 237.799L143.388 236.155C143.388 236.155 142.254 242.766 148.435 255.75Z" fill="black"/>
<path d="M155.014 397.769H164.914C165.077 397.769 165.236 397.825 165.362 397.929C165.488 398.032 165.574 398.176 165.606 398.336L167.216 405.594C167.249 405.748 167.251 405.907 167.222 406.062C167.194 406.218 167.134 406.365 167.048 406.497C166.961 406.629 166.849 406.742 166.718 406.831C166.588 406.919 166.441 406.98 166.286 407.012C166.2 407.023 166.112 407.023 166.025 407.012C162.828 406.955 160.491 406.762 156.466 406.762C153.982 406.762 146.509 407.023 143.085 407.023C139.66 407.023 139.218 403.621 140.624 403.326C146.906 401.954 151.635 400.06 153.642 398.257C154.021 397.925 154.511 397.751 155.014 397.769Z" fill="#263238"/>
<path d="M180.201 219.914C180.201 219.914 182.389 228.135 180.201 265.784C176.799 323.618 166.105 400.548 166.105 400.548L153.631 398.28C153.631 398.28 155.23 283.157 153.552 251.382C153.552 251.382 135.952 235.597 136.077 219.369C136.202 203.142 180.201 219.914 180.201 219.914Z" fill="#263238"/>
<path opacity="0.2" d="M180.201 219.914C180.201 219.914 182.389 228.135 180.201 265.784C176.799 323.618 166.105 400.548 166.105 400.548L153.631 398.28C153.631 398.28 155.23 283.157 153.552 251.382C153.552 251.382 135.952 235.597 136.077 219.369C136.202 203.142 180.201 219.914 180.201 219.914Z" fill="white"/>
<path d="M135.168 218.303C135.165 218.495 135.2 218.685 135.271 218.863C135.342 219.041 135.447 219.203 135.581 219.34C135.715 219.478 135.875 219.587 136.051 219.662C136.227 219.737 136.417 219.776 136.608 219.778L177.659 220.696L180.574 220.764C180.954 220.777 181.324 220.64 181.606 220.384C181.888 220.128 182.058 219.772 182.082 219.392L182.91 208.585L183.352 202.768L185.461 175.053L185.903 169.201C165.797 154.187 140.305 165.357 140.305 165.357C135.724 179.77 135.225 210.445 135.168 218.303Z" fill="#555555"/>
<path d="M181.344 220.573L135.451 219.167L134.918 221.899L181.344 223.408V220.573Z" fill="#555555"/>
<path opacity="0.2" d="M181.344 220.573L135.451 219.167L134.918 221.899L181.344 223.408V220.573Z" fill="black"/>
<path opacity="0.2" d="M183.352 202.768L185.461 175.053C184.211 175.45 183.055 176.094 182.059 176.947C182.059 176.947 174.892 188.106 183.352 202.768Z" fill="black"/>
<path opacity="0.2" d="M177.658 220.699L180.573 220.768C180.953 220.78 181.324 220.644 181.605 220.388C181.887 220.131 182.057 219.775 182.081 219.395L182.909 208.588C180.897 212.507 179.143 216.553 177.658 220.699Z" fill="black"/>
<g opacity="0.7">
<path d="M139.875 187.665L140.374 186.349C141.047 186.788 141.84 187.006 142.642 186.973C143.572 186.973 143.946 186.61 143.923 186.111C143.855 184.728 140.045 186.202 139.909 183.31C139.909 181.938 140.873 181.042 142.563 180.917C143.39 180.865 144.215 181.046 144.944 181.439L144.434 182.755C143.893 182.413 143.258 182.25 142.619 182.29C141.723 182.29 141.315 182.687 141.338 183.163C141.406 184.637 145.216 183.163 145.352 185.998C145.409 187.347 144.377 188.266 142.608 188.368C141.645 188.435 140.686 188.188 139.875 187.665Z" fill="white"/>
</g>
<path d="M171.774 164.982C167.828 168.576 158.166 167.25 158.166 167.25C158.166 167.25 152.122 165.594 153.392 163.7C156.953 163.111 158.677 161.432 159.391 159.323C159.775 158.006 159.894 156.626 159.743 155.263C159.689 154.502 159.591 153.745 159.448 152.995L171.423 144.127C169.858 149.979 167.907 160.741 171.774 164.982Z" fill="#E4897B"/>
<path opacity="0.2" d="M168.632 149.764C168.156 156.942 162.248 158.927 159.367 159.324C159.751 158.007 159.87 156.627 159.719 155.264L168.632 149.764Z" fill="black"/>
<path d="M175.38 125.518C175.38 125.518 178.725 136.325 173.497 141.451C168.27 146.576 165.174 126.006 165.174 126.006L175.38 125.518Z" fill="#263238"/>
<path d="M157.78 152.792C159.287 154.414 161.279 155.502 163.457 155.893C165.636 156.283 167.882 155.955 169.858 154.958C172.438 153.69 174.44 151.489 175.46 148.801C175.607 148.438 175.72 148.052 175.834 147.667C177.705 140.477 176.854 128.525 169.03 125.168C167.707 124.59 166.284 124.278 164.841 124.251C163.398 124.223 161.964 124.479 160.62 125.006C159.277 125.532 158.05 126.319 157.01 127.319C155.97 128.32 155.138 129.516 154.56 130.838C153.859 132.42 153.548 134.146 153.653 135.873C153.982 143.879 153.789 148.619 157.78 152.792Z" fill="#E4897B"/>
<path d="M165.832 138.347C165.832 138.994 166.15 139.538 166.58 139.538C167.011 139.538 167.363 139.028 167.386 138.404C167.408 137.78 167.057 137.213 166.626 137.213C166.195 137.213 165.843 137.678 165.832 138.347Z" fill="#263238"/>
<path d="M173.259 138.496C173.203 139.143 173.588 139.687 174.008 139.698C174.427 139.71 174.79 139.177 174.813 138.564C174.836 137.952 174.484 137.374 174.053 137.374C173.622 137.374 173.259 137.873 173.259 138.496Z" fill="#263238"/>
<path d="M170.868 138.764C171.601 140.787 172.617 142.696 173.885 144.434C173.428 144.748 172.908 144.957 172.361 145.047C171.814 145.138 171.254 145.106 170.721 144.956L170.868 138.764Z" fill="#DE5753"/>
<path d="M163.586 135.909C163.656 135.919 163.727 135.91 163.793 135.884C163.858 135.859 163.916 135.816 163.961 135.761C164.25 135.377 164.626 135.065 165.057 134.851C165.488 134.636 165.963 134.525 166.444 134.525C166.536 134.52 166.624 134.482 166.69 134.417C166.757 134.353 166.798 134.267 166.806 134.175C166.814 134.083 166.789 133.991 166.735 133.916C166.681 133.841 166.602 133.787 166.512 133.766C165.903 133.749 165.3 133.878 164.751 134.142C164.203 134.406 163.725 134.798 163.36 135.285C163.324 135.32 163.296 135.362 163.277 135.407C163.258 135.453 163.248 135.502 163.248 135.552C163.248 135.601 163.258 135.65 163.277 135.696C163.296 135.742 163.324 135.783 163.36 135.818C163.428 135.864 163.505 135.895 163.586 135.909Z" fill="#263238"/>
<path d="M176.445 136.01C176.52 136.027 176.598 136.027 176.672 136.01C176.766 135.968 176.839 135.891 176.877 135.796C176.915 135.701 176.915 135.595 176.876 135.5C176.642 134.929 176.271 134.424 175.797 134.028C175.323 133.633 174.759 133.36 174.155 133.232C174.054 133.219 173.952 133.246 173.872 133.308C173.791 133.37 173.738 133.461 173.724 133.561C173.711 133.662 173.738 133.763 173.8 133.844C173.861 133.925 173.952 133.978 174.053 133.992C174.522 134.104 174.958 134.325 175.326 134.636C175.694 134.947 175.984 135.34 176.173 135.784C176.198 135.84 176.235 135.89 176.283 135.929C176.33 135.968 176.386 135.996 176.445 136.01Z" fill="#263238"/>
<path d="M159.776 125.952L160.309 129.478C159.707 129.78 159.243 130.3 159.013 130.933C158.783 131.566 158.805 132.263 159.073 132.88C160.298 135.829 158.733 140.49 156.499 142.395C156.499 142.395 156.397 141.113 155.365 141.442C154.333 141.771 154.764 148.496 156.975 151.648C154.157 148.731 152.144 145.132 151.135 141.204C149.275 134.729 149.468 129.932 150.738 127.369L159.776 125.952Z" fill="#263238"/>
<path d="M150.035 142.373C150.895 144.205 152.444 145.623 154.344 146.319C156.862 147.227 158.325 145.015 157.746 142.532C157.259 140.321 155.354 137.123 152.745 137.315C152.175 137.359 151.625 137.545 151.145 137.857C150.666 138.169 150.273 138.597 150.003 139.101C149.733 139.605 149.594 140.169 149.6 140.741C149.605 141.313 149.755 141.874 150.035 142.373Z" fill="#E4897B"/>
<path d="M169.857 147.304C168.997 148.167 168.201 149.092 167.475 150.071L166.908 149.776C164.323 148.415 163.586 146.929 163.506 145.693C163.497 145.093 163.63 144.499 163.892 143.958C164.033 143.649 164.221 143.362 164.447 143.108C165.676 144.658 167.223 145.926 168.983 146.827C169.471 147.134 169.857 147.304 169.857 147.304Z" fill="#263238"/>
<path d="M168.939 146.827L168.224 147.621C165.797 146.328 164.255 145.104 163.881 143.958C164.022 143.649 164.21 143.362 164.437 143.108C165.655 144.654 167.19 145.922 168.939 146.827Z" fill="white"/>
<path d="M166.863 149.772C164.277 148.412 163.54 146.926 163.461 145.69C164.43 146.231 165.298 146.937 166.024 147.777C166.506 148.337 166.799 149.036 166.863 149.772Z" fill="#DE5753"/>
<path d="M149.719 132.675C149.417 130.816 149.624 128.909 150.319 127.158C151.014 125.407 152.17 123.876 153.666 122.73C158.939 118.319 173.749 116.255 175.994 122.73C178.239 129.205 167.308 135.148 159.37 129.421L149.719 132.675Z" fill="#263238"/>
<path d="M170.425 159.565L158.926 164.747L158.257 160.597L153.982 162.082C153.251 162.347 152.63 162.85 152.218 163.51C151.807 164.17 151.629 164.949 151.714 165.723L152.19 170.259L158.019 167.072L160.922 171.177L174.734 164.532L170.425 159.565Z" fill="#555555"/>
<path opacity="0.7" d="M170.425 159.565L158.926 164.747L158.257 160.597L153.982 162.082C153.251 162.347 152.63 162.85 152.218 163.51C151.807 164.17 151.629 164.949 151.714 165.723L152.19 170.259L158.019 167.072L160.922 171.177L174.734 164.532L170.425 159.565Z" fill="white"/>
<path opacity="0.2" d="M172.26 223.395C172.26 223.395 172.521 229.53 180.447 232.15C180.709 229.202 180.495 226.23 179.812 223.35L172.26 223.395Z" fill="black"/>
<path d="M185.905 169.198C192.936 176.002 203.403 197.764 200.296 207.176C197.665 215.182 185.406 227.225 181.766 230.672C181.635 230.798 181.48 230.897 181.31 230.962C181.14 231.026 180.958 231.057 180.776 231.05C180.595 231.044 180.416 231.001 180.251 230.925C180.086 230.848 179.938 230.739 179.816 230.604L175.461 225.819C175.245 225.584 175.118 225.281 175.101 224.962C175.085 224.643 175.18 224.329 175.37 224.072C178.205 220.341 188.91 206.064 189.636 203.139C190.475 199.737 181.347 186.548 181.347 186.548C180.525 182.73 180.468 178.788 181.176 174.947C182.39 169.051 185.905 169.198 185.905 169.198Z" fill="#555555"/>
<path d="M175.152 225.28L173.564 226.924C173.564 226.924 176.037 230.666 179.03 231.46L179.813 230.655L175.152 225.28Z" fill="#555555"/>
<path opacity="0.2" d="M175.152 225.28L173.564 226.924C173.564 226.924 176.037 230.666 179.03 231.46L179.813 230.655L175.152 225.28Z" fill="black"/>
</svg>
