<svg width="362" height="328" viewBox="0 0 362 328" fill="none" xmlns="http://www.w3.org/2000/svg">
<path opacity="0.1" d="M146.558 327.059C179.543 327.059 206.283 311.621 206.283 292.577C206.283 273.532 179.543 258.094 146.558 258.094C113.573 258.094 86.834 273.532 86.834 292.577C86.834 311.621 113.573 327.059 146.558 327.059Z" fill="black"/>
<path opacity="0.1" d="M292.242 267.151C321.642 267.151 345.474 253.392 345.474 236.42C345.474 219.448 321.642 205.689 292.242 205.689C262.843 205.689 239.01 219.448 239.01 236.42C239.01 253.392 262.843 267.151 292.242 267.151Z" fill="black"/>
<path d="M69.3781 28.0796L69.3229 28.0244C69.0037 27.7417 68.659 27.4892 68.293 27.2704C66.9873 26.498 61.1114 23.1232 60.808 22.9301C57.6999 20.9623 52.7803 21.3945 48.3849 23.6106C42.1136 26.783 36.8814 33.4865 32.8814 44.6313C32.8814 44.6313 28.8446 41.7348 27.5297 41.0084C24.2837 39.2336 20.4952 40.0888 16.2193 42.8474C11.4009 45.9831 8.11813 50.0475 5.12042 56.1992L5.06525 56.3096C2.46974 61.5295 1.04797 67.2543 0.89971 73.082C0.853732 85.9556 6.17789 92.1349 13.0469 96.7511C15.0055 98.066 20.1917 100.852 20.7067 101.192C24.853 103.929 29.4373 105.935 34.2607 107.123L41.0378 108.705L47.8056 99.3074C52.7346 92.3799 57.2601 85.1741 61.3597 77.7257C68.2287 65.1739 73.5528 52.898 73.5069 40.0244C73.5161 34.5256 71.9344 30.4244 69.3781 28.0796Z" fill="#555555"/>
<path opacity="0.3" d="M69.3781 28.0796L69.3229 28.0244C69.0037 27.7417 68.659 27.4892 68.293 27.2704C66.9873 26.498 61.1114 23.1232 60.808 22.9301C57.6999 20.9623 52.7803 21.3945 48.3849 23.6106C42.1136 26.783 36.8814 33.4865 32.8814 44.6313C32.8814 44.6313 28.8446 41.7348 27.5297 41.0084C24.2837 39.2336 20.4952 40.0888 16.2193 42.8474C11.4009 45.9831 8.11813 50.0475 5.12042 56.1992L5.06525 56.3096C2.46974 61.5295 1.04797 67.2543 0.89971 73.082C0.853732 85.9556 6.17789 92.1349 13.0469 96.7511C15.0055 98.066 20.1917 100.852 20.7067 101.192C24.853 103.929 29.4373 105.935 34.2607 107.123L41.0378 108.705L47.8056 99.3074C52.7346 92.3799 57.2601 85.1741 61.3597 77.7257C68.2287 65.1739 73.5528 52.898 73.5069 40.0244C73.5161 34.5256 71.9344 30.4244 69.3781 28.0796Z" fill="black"/>
<path d="M69.3785 28.0796L69.3233 28.0244C69.0042 27.7417 68.6594 27.4892 68.2934 27.2704C66.9877 26.498 61.1118 23.1232 60.8084 22.9301C57.7003 20.9623 52.7808 21.3945 48.3853 23.6106C42.1049 26.783 36.8818 33.4865 32.8818 44.6313C32.8818 44.6313 28.845 41.7348 27.5301 41.0084C24.2841 39.2336 20.4956 40.0888 16.2197 42.8474C11.4013 45.9831 8.11853 50.0475 5.12082 56.1992L5.06565 56.3096L4.70703 57.1096L56.0819 86.774C57.921 83.8223 59.6773 80.8154 61.3693 77.7257C68.2383 65.174 73.5624 52.898 73.5164 40.0244C73.5164 34.5256 71.9348 30.4244 69.3785 28.0796Z" fill="#555555"/>
<path opacity="0.15" d="M69.3785 28.0796L69.3233 28.0244C69.0042 27.7417 68.6594 27.4892 68.2934 27.2704C66.9877 26.498 61.1118 23.1232 60.8084 22.9301C57.7003 20.9623 52.7808 21.3945 48.3853 23.6106C42.1049 26.783 36.8818 33.4865 32.8818 44.6313C32.8818 44.6313 28.845 41.7348 27.5301 41.0084C24.2841 39.2336 20.4956 40.0888 16.2197 42.8474C11.4013 45.9831 8.11853 50.0475 5.12082 56.1992L5.06565 56.3096L4.70703 57.1096L56.0819 86.774C57.921 83.8223 59.6773 80.8154 61.3693 77.7257C68.2383 65.174 73.5624 52.898 73.5164 40.0244C73.5164 34.5256 71.9348 30.4244 69.3785 28.0796Z" fill="black"/>
<path d="M32.8916 44.6129L39.779 53.5877L50.8687 40.4658L38.3353 33.229C36.0974 36.8063 34.2712 40.6252 32.8916 44.6129Z" fill="#555555"/>
<path opacity="0.3" d="M32.8916 44.6129L39.779 53.5877L50.8687 40.4658L38.3353 33.229C36.0974 36.8063 34.2712 40.6252 32.8916 44.6129Z" fill="black"/>
<path d="M69.3787 28.0798L69.3236 28.0246C66.3258 25.3395 60.8638 25.6246 56.0454 28.0246C49.4706 31.3626 44.0361 38.5626 39.9717 50.7281C35.9074 43.2614 30.4729 43.0224 23.8889 47.2982C19.0705 50.4339 15.7878 54.4983 12.7716 60.65L12.7165 60.7695C10.1244 65.9932 8.70875 71.7215 8.56934 77.5512C8.56934 90.4248 13.8475 96.595 20.7165 101.211C24.8628 103.947 29.4471 105.953 34.2706 107.142L41.0476 108.724L47.8154 99.326C52.7411 92.3963 57.2666 85.1907 61.3695 77.7443C68.2385 65.1925 73.5627 52.9166 73.5167 40.043C73.5167 34.5258 71.9351 30.4246 69.3787 28.0798Z" fill="#555555"/>
<g opacity="0.07">
<path d="M63.5948 26.7554C65.4965 26.6519 67.3704 27.2471 68.8638 28.429L68.9833 28.5669C71.5029 30.875 72.9098 35.0037 72.9282 40.052C72.9282 53.4682 66.85 66.4797 60.8546 77.4315C56.7687 84.8543 52.2585 92.0356 47.3465 98.9396L40.8361 107.988L34.5005 106.507C29.7496 105.336 25.234 103.361 21.1487 100.668C14.9602 96.512 9.19462 90.8292 9.28658 77.551C9.43288 71.8168 10.8294 66.1837 13.3786 61.0452V60.9349C16.3947 54.7555 19.6406 50.8199 24.2476 47.8498C27.0062 46.0107 29.4338 45.1555 31.6039 45.1555C34.7211 45.1555 37.2775 47.0865 39.4292 51.0406C39.4866 51.1438 39.5706 51.2298 39.6725 51.2896C39.7744 51.3495 39.8904 51.3809 40.0085 51.3808H40.0637C40.1892 51.3674 40.3085 51.3189 40.4077 51.2408C40.5069 51.1628 40.5821 51.0583 40.6246 50.9394C44.5143 39.3164 49.6637 32.0152 56.3856 28.6221C58.6291 27.4645 61.1076 26.8354 63.6316 26.783M63.6316 26.1301C61.0034 26.1877 58.4236 26.8484 56.0913 28.0612C49.4706 31.3623 44.0361 38.5624 39.9717 50.7279C37.6177 46.3969 34.8039 44.5026 31.5671 44.5026C29.2223 44.5026 26.6567 45.5049 23.8889 47.2612C19.0705 50.4337 15.7878 54.4981 12.7716 60.6498L12.7165 60.7693C10.1244 65.993 8.70875 71.7213 8.56934 77.551C8.56934 90.4246 13.8475 96.5947 20.7165 101.211C24.8628 103.947 29.4471 105.953 34.2706 107.142L41.0476 108.724L47.8154 99.3258C52.7444 92.3983 57.2699 85.1925 61.3695 77.7441C68.2385 65.1923 73.5627 52.9164 73.5167 40.0428C73.5167 34.5256 71.9167 30.4152 69.3603 28.0888L69.3052 28.0336C67.6935 26.7117 65.6494 26.0336 63.5672 26.1301H63.6316Z" fill="black"/>
</g>
<path d="M68.6333 62.7737L55.4471 70.3784L50.6011 52.5668C50.5235 52.2992 50.3594 52.0648 50.1345 51.9004C49.9095 51.736 49.6364 51.6508 49.3578 51.6582C49.0793 51.6655 48.8111 51.765 48.5951 51.9411C48.3791 52.1171 48.2276 52.3598 48.1643 52.6312L40.5321 87.4819L34.0953 69.9186C34.0051 69.669 33.8379 69.4545 33.6178 69.3063C33.3976 69.158 33.1361 69.0836 32.8709 69.0939C32.6057 69.1041 32.3506 69.1984 32.1426 69.3632C31.9345 69.528 31.7843 69.7547 31.7137 70.0105L27.3918 85.4037L12.8906 93.7807C13.3695 94.473 13.8852 95.1391 14.4355 95.7761L29.093 87.3163C29.3725 87.1514 29.5769 86.8844 29.6631 86.5715L33.093 74.4152L39.6585 92.3738C39.7462 92.6319 39.9181 92.8529 40.1466 93.0013C40.3751 93.1498 40.6469 93.217 40.9183 93.1922C41.1895 93.1744 41.4474 93.0687 41.6531 92.8912C41.8589 92.7136 42.0012 92.4739 42.0585 92.2083L49.5528 58.176L53.4885 72.6312C53.5374 72.8177 53.6288 72.9903 53.7554 73.1356C53.8821 73.281 54.0407 73.395 54.2187 73.4689C54.3968 73.5428 54.5895 73.5745 54.7819 73.5616C54.9742 73.5487 55.161 73.4915 55.3275 73.3945L67.0241 66.599C67.5759 65.3209 68.1184 64.0427 68.6333 62.7737Z" fill="white"/>
<path d="M282.283 106.507V233.404C282.283 234.931 283.286 236.448 285.299 237.616C287.559 238.758 290.055 239.354 292.587 239.354C295.118 239.354 297.615 238.758 299.874 237.616C301.879 236.448 302.89 234.931 302.89 233.404V106.507H282.283Z" fill="#B16668"/>
<path d="M360.857 172.199L297.032 18.0288H288.14L224.268 172.199C223.808 173.314 223.6 174.518 223.659 175.723C223.719 176.928 224.045 178.104 224.614 179.168C225.183 180.232 225.981 181.157 226.95 181.876C227.919 182.595 229.035 183.09 230.218 183.326L231.257 183.528C233.282 183.927 235.08 185.078 236.288 186.751C237.496 188.424 238.025 190.492 237.767 192.54C237.598 193.891 237.77 195.264 238.268 196.532C238.765 197.801 239.572 198.924 240.616 199.8C241.659 200.676 242.905 201.277 244.24 201.547C245.576 201.818 246.957 201.75 248.259 201.349L251.413 200.374C253.311 199.792 255.355 199.921 257.164 200.737C258.973 201.553 260.423 202.999 261.243 204.806L264.416 211.804C264.885 212.851 265.57 213.788 266.427 214.552C267.283 215.316 268.291 215.89 269.385 216.238C270.479 216.585 271.634 216.697 272.774 216.567C273.915 216.437 275.014 216.067 276.002 215.482L288.388 208.126C289.648 207.381 291.085 206.988 292.549 206.988C294.013 206.988 295.45 207.381 296.71 208.126L309.087 215.482C310.075 216.067 311.176 216.437 312.317 216.567C313.458 216.697 314.613 216.585 315.708 216.238C316.802 215.891 317.811 215.316 318.669 214.552C319.526 213.788 320.212 212.852 320.683 211.804L323.855 204.806C324.669 202.991 326.119 201.537 327.931 200.717C329.744 199.897 331.793 199.769 333.694 200.356L336.848 201.331C338.15 201.731 339.532 201.799 340.867 201.529C342.202 201.258 343.448 200.657 344.492 199.781C345.535 198.906 346.342 197.782 346.84 196.514C347.337 195.246 347.509 193.873 347.34 192.521C347.084 190.476 347.613 188.409 348.819 186.737C350.025 185.065 351.819 183.912 353.841 183.51L354.89 183.298C356.072 183.065 357.188 182.573 358.157 181.857C359.126 181.142 359.925 180.22 360.495 179.159C361.066 178.097 361.394 176.923 361.457 175.72C361.52 174.516 361.315 173.314 360.857 172.199Z" fill="#555555"/>
<path opacity="0.5" d="M360.857 172.199L297.032 18.0288H288.14L224.268 172.199C223.808 173.314 223.6 174.518 223.659 175.723C223.719 176.928 224.045 178.104 224.614 179.168C225.183 180.232 225.981 181.157 226.95 181.876C227.919 182.595 229.035 183.09 230.218 183.326L231.257 183.528C233.282 183.927 235.08 185.078 236.288 186.751C237.496 188.424 238.025 190.492 237.767 192.54C237.598 193.891 237.77 195.264 238.268 196.532C238.765 197.801 239.572 198.924 240.616 199.8C241.659 200.676 242.905 201.277 244.24 201.547C245.576 201.818 246.957 201.75 248.259 201.349L251.413 200.374C253.311 199.792 255.355 199.921 257.164 200.737C258.973 201.553 260.423 202.999 261.243 204.806L264.416 211.804C264.885 212.851 265.57 213.788 266.427 214.552C267.283 215.316 268.291 215.89 269.385 216.238C270.479 216.585 271.634 216.697 272.774 216.567C273.915 216.437 275.014 216.067 276.002 215.482L288.388 208.126C289.648 207.381 291.085 206.988 292.549 206.988C294.013 206.988 295.45 207.381 296.71 208.126L309.087 215.482C310.075 216.067 311.176 216.437 312.317 216.567C313.458 216.697 314.613 216.585 315.708 216.238C316.802 215.891 317.811 215.316 318.669 214.552C319.526 213.788 320.212 212.852 320.683 211.804L323.855 204.806C324.669 202.991 326.119 201.537 327.931 200.717C329.744 199.897 331.793 199.769 333.694 200.356L336.848 201.331C338.15 201.731 339.532 201.799 340.867 201.529C342.202 201.258 343.448 200.658 344.492 199.782C345.535 198.906 346.342 197.782 346.84 196.514C347.337 195.246 347.509 193.873 347.34 192.521C347.084 190.476 347.613 188.409 348.819 186.737C350.025 185.065 351.819 183.912 353.841 183.51L354.89 183.298C356.072 183.065 357.188 182.573 358.157 181.857C359.126 181.142 359.925 180.22 360.495 179.159C361.066 178.097 361.394 176.923 361.457 175.72C361.52 174.516 361.315 173.314 360.857 172.199Z" fill="black"/>
<path opacity="0.1" d="M281.004 35.2522L288.139 19.0498H297.031L308.866 46.4982L347.385 139.528C347.206 140.506 346.721 141.402 346.001 142.088C345.281 142.773 344.362 143.213 343.376 143.344C341.812 143.603 340.407 144.454 339.453 145.721C338.499 146.988 338.07 148.574 338.254 150.149L338.392 151.326C338.506 152.375 338.35 153.437 337.937 154.408C337.524 155.379 336.868 156.229 336.033 156.874C335.198 157.52 334.212 157.941 333.168 158.096C332.124 158.252 331.057 158.137 330.07 157.763L326.861 156.568C325.389 156.003 323.757 156.025 322.301 156.629C320.845 157.233 319.676 158.373 319.036 159.813L315.119 168.604C314.761 169.399 314.239 170.108 313.588 170.687C312.936 171.265 312.169 171.699 311.338 171.959C310.507 172.22 309.629 172.301 308.764 172.199C307.899 172.096 307.066 171.811 306.319 171.363L295.744 164.31C294.787 163.741 293.694 163.441 292.581 163.441C291.467 163.441 290.374 163.741 289.417 164.31L277.601 171.427C276.855 171.875 276.022 172.16 275.157 172.263C274.293 172.365 273.417 172.284 272.586 172.023C271.755 171.762 270.989 171.329 270.339 170.751C269.688 170.172 269.167 169.463 268.81 168.669L264.893 159.887C264.253 158.446 263.085 157.306 261.629 156.7C260.173 156.095 258.541 156.07 257.068 156.632L253.905 157.836C252.92 158.203 251.858 158.312 250.82 158.153C249.781 157.994 248.801 157.571 247.971 156.926C247.142 156.281 246.491 155.435 246.081 154.468C245.671 153.5 245.516 152.444 245.629 151.4L245.767 150.223C245.951 148.646 245.52 147.059 244.565 145.792C243.609 144.525 242.202 143.675 240.636 143.418C239.93 143.325 239.255 143.072 238.662 142.678C238.069 142.285 237.574 141.761 237.215 141.147L281.004 35.2522Z" fill="black"/>
<path d="M346.623 127.353L297.032 11.8677H288.14L237.307 127.353C235.468 131.031 236.526 135.491 240.608 136.162C242.175 136.419 243.582 137.269 244.537 138.536C245.493 139.804 245.924 141.391 245.739 142.967L245.602 144.144C245.488 145.188 245.644 146.245 246.054 147.212C246.464 148.179 247.115 149.026 247.944 149.671C248.773 150.316 249.754 150.738 250.792 150.897C251.831 151.056 252.893 150.948 253.877 150.581L257.041 149.376C258.514 148.814 260.146 148.839 261.602 149.444C263.058 150.05 264.226 151.191 264.866 152.631L268.783 161.413C269.14 162.207 269.661 162.917 270.311 163.495C270.962 164.073 271.728 164.507 272.559 164.767C273.389 165.028 274.266 165.11 275.13 165.007C275.995 164.904 276.828 164.62 277.574 164.172L289.381 157.119C290.338 156.55 291.431 156.249 292.544 156.249C293.658 156.249 294.75 156.55 295.707 157.119L306.282 164.172C307.029 164.62 307.863 164.905 308.728 165.007C309.593 165.11 310.47 165.029 311.302 164.768C312.133 164.507 312.9 164.074 313.551 163.495C314.203 162.917 314.725 162.207 315.082 161.413L318.999 152.631C319.638 151.189 320.806 150.047 322.262 149.441C323.718 148.835 325.352 148.812 326.825 149.376L329.979 150.581C330.966 150.955 332.032 151.07 333.076 150.914C334.12 150.759 335.107 150.338 335.942 149.692C336.777 149.046 337.432 148.197 337.845 147.226C338.258 146.254 338.415 145.193 338.301 144.144L338.163 142.967C337.978 141.392 338.408 139.806 339.361 138.539C340.315 137.272 341.72 136.421 343.285 136.162C347.413 135.491 348.462 131.068 346.623 127.353Z" fill="#555555"/>
<path opacity="0.3" d="M346.623 127.353L297.032 11.8677H288.14L237.307 127.353C235.468 131.031 236.526 135.491 240.608 136.162C242.175 136.419 243.582 137.269 244.537 138.536C245.493 139.804 245.924 141.391 245.739 142.967L245.602 144.144C245.488 145.188 245.644 146.245 246.054 147.212C246.464 148.179 247.115 149.026 247.944 149.671C248.773 150.316 249.754 150.738 250.792 150.897C251.831 151.056 252.893 150.948 253.877 150.581L257.041 149.376C258.514 148.814 260.146 148.839 261.602 149.444C263.058 150.05 264.226 151.191 264.866 152.631L268.783 161.413C269.14 162.207 269.661 162.917 270.311 163.495C270.962 164.073 271.728 164.507 272.559 164.767C273.389 165.028 274.266 165.11 275.13 165.007C275.995 164.904 276.828 164.62 277.574 164.172L289.381 157.119C290.338 156.55 291.431 156.249 292.544 156.249C293.658 156.249 294.75 156.55 295.707 157.119L306.282 164.172C307.029 164.62 307.863 164.905 308.728 165.007C309.593 165.11 310.47 165.029 311.302 164.768C312.133 164.507 312.9 164.074 313.551 163.495C314.203 162.917 314.725 162.207 315.082 161.413L318.999 152.631C319.638 151.189 320.806 150.047 322.262 149.441C323.718 148.835 325.352 148.812 326.825 149.376L329.979 150.581C330.966 150.955 332.032 151.07 333.076 150.914C334.12 150.759 335.107 150.338 335.942 149.692C336.777 149.046 337.432 148.197 337.845 147.226C338.258 146.254 338.415 145.193 338.301 144.144L338.163 142.967C337.978 141.392 338.408 139.806 339.361 138.539C340.315 137.272 341.72 136.421 343.285 136.162C347.413 135.491 348.462 131.068 346.623 127.353Z" fill="black"/>
<path opacity="0.1" d="M288.139 11.8677H297.031L333.169 96.0243C332.886 96.2702 332.578 96.4859 332.25 96.668L331.974 96.8243C331.041 97.3431 330.279 98.1213 329.779 99.0647C329.28 100.008 329.065 101.076 329.16 102.139C329.233 103.027 329.092 103.918 328.75 104.74C328.407 105.562 327.873 106.29 327.191 106.862C326.509 107.435 325.7 107.836 324.832 108.032C323.963 108.228 323.061 108.212 322.199 107.988L320.047 107.417C318.839 107.094 317.557 107.191 316.41 107.692C315.264 108.193 314.322 109.069 313.739 110.176L310.778 115.693C310.087 116.972 308.918 117.926 307.527 118.348C306.136 118.77 304.634 118.625 303.349 117.946L295.183 113.68C294.388 113.267 293.504 113.051 292.608 113.051C291.712 113.051 290.829 113.267 290.034 113.68L281.85 117.946C280.552 118.624 279.039 118.763 277.64 118.332C276.24 117.902 275.067 116.937 274.374 115.647L271.422 110.13C270.839 109.021 269.895 108.144 268.747 107.643C267.599 107.141 266.314 107.046 265.105 107.371L262.953 107.942C262.091 108.178 261.185 108.202 260.312 108.01C259.439 107.819 258.625 107.418 257.941 106.843C257.258 106.268 256.724 105.535 256.386 104.707C256.048 103.88 255.916 102.983 256.001 102.093C256.096 101.029 255.879 99.9605 255.378 99.017C254.877 98.0735 254.113 97.2958 253.178 96.7783L252.902 96.622C252.321 96.2873 251.804 95.8513 251.376 95.3346L288.139 11.8677Z" fill="black"/>
<path d="M334.273 81.9279L296.994 3.56441L296.7 3.09544C296.286 2.36904 295.688 1.7651 294.965 1.345C294.242 0.924905 293.421 0.703613 292.585 0.703613C291.749 0.703613 290.928 0.924905 290.205 1.345C289.483 1.7651 288.884 2.36904 288.47 3.09544L288.167 3.5828L250.935 81.9371C250.536 82.5726 250.271 83.2828 250.156 84.0242C250.041 84.7656 250.079 85.5227 250.266 86.2491C250.454 86.9755 250.788 87.656 251.247 88.249C251.707 88.842 252.282 89.3351 252.939 89.698L253.215 89.8543C254.15 90.3718 254.914 91.1495 255.415 92.093C255.916 93.0365 256.132 94.1052 256.038 95.1693C255.952 96.0589 256.084 96.956 256.422 97.7833C256.76 98.6107 257.294 99.3436 257.978 99.9189C258.662 100.494 259.475 100.895 260.348 101.086C261.221 101.278 262.128 101.254 262.99 101.018L265.141 100.447C266.351 100.132 267.632 100.232 268.778 100.733C269.924 101.233 270.868 102.104 271.459 103.206L274.41 108.723C275.103 110.013 276.277 110.978 277.676 111.408C279.076 111.839 280.588 111.7 281.886 111.022L290.043 106.756C290.838 106.343 291.721 106.127 292.617 106.127C293.514 106.127 294.397 106.343 295.192 106.756L303.358 111.022C303.999 111.362 304.701 111.573 305.423 111.642C306.145 111.71 306.874 111.636 307.568 111.422C308.262 111.208 308.906 110.86 309.465 110.397C310.024 109.934 310.486 109.365 310.824 108.723L313.785 103.206C314.368 102.099 315.31 101.223 316.456 100.722C317.602 100.221 318.885 100.124 320.093 100.447L322.245 101.018C323.107 101.245 324.01 101.261 324.88 101.066C325.749 100.872 326.559 100.471 327.241 99.8974C327.923 99.3243 328.458 98.5956 328.8 97.7728C329.142 96.95 329.281 96.0571 329.206 95.1693C329.111 94.1061 329.326 93.0381 329.825 92.0947C330.325 91.1514 331.087 90.3731 332.02 89.8543L332.296 89.698C332.946 89.328 333.516 88.8305 333.97 88.2352C334.424 87.6399 334.753 86.9591 334.937 86.2336C335.122 85.5081 335.158 84.7528 335.044 84.013C334.93 83.2731 334.668 82.5639 334.273 81.9279Z" fill="#555555"/>
<path opacity="0.2" d="M334.273 81.9279L296.994 3.56441L296.7 3.09544C296.286 2.36904 295.688 1.7651 294.965 1.345C294.242 0.924905 293.421 0.703613 292.585 0.703613C291.749 0.703613 290.928 0.924905 290.205 1.345C289.483 1.7651 288.884 2.36904 288.47 3.09544L288.167 3.5828L250.935 81.9371C250.536 82.5726 250.271 83.2828 250.156 84.0242C250.041 84.7656 250.079 85.5227 250.266 86.2491C250.454 86.9755 250.788 87.656 251.247 88.249C251.707 88.842 252.282 89.3351 252.939 89.698L253.215 89.8543C254.15 90.3718 254.914 91.1495 255.415 92.093C255.916 93.0365 256.132 94.1052 256.038 95.1693C255.952 96.0589 256.084 96.956 256.422 97.7833C256.76 98.6107 257.294 99.3436 257.978 99.9189C258.662 100.494 259.475 100.895 260.348 101.086C261.221 101.278 262.128 101.254 262.99 101.018L265.141 100.447C266.351 100.132 267.632 100.232 268.778 100.733C269.924 101.233 270.868 102.104 271.459 103.206L274.41 108.723C275.103 110.013 276.277 110.978 277.676 111.408C279.076 111.839 280.588 111.7 281.886 111.022L290.043 106.756C290.838 106.343 291.721 106.127 292.617 106.127C293.514 106.127 294.397 106.343 295.192 106.756L303.358 111.022C303.999 111.362 304.701 111.573 305.423 111.642C306.145 111.71 306.874 111.636 307.568 111.422C308.262 111.208 308.906 110.86 309.465 110.397C310.024 109.934 310.486 109.365 310.824 108.723L313.785 103.206C314.368 102.099 315.31 101.223 316.456 100.722C317.602 100.221 318.885 100.124 320.093 100.447L322.245 101.018C323.107 101.245 324.01 101.261 324.88 101.066C325.749 100.872 326.559 100.471 327.241 99.8974C327.923 99.3243 328.458 98.5956 328.8 97.7728C329.142 96.95 329.281 96.0571 329.206 95.1693C329.111 94.1061 329.326 93.0381 329.825 92.0947C330.325 91.1514 331.087 90.3731 332.02 89.8543L332.296 89.698C332.946 89.328 333.516 88.8305 333.97 88.2352C334.424 87.6399 334.753 86.9591 334.937 86.2336C335.122 85.5081 335.158 84.7528 335.044 84.013C334.93 83.2731 334.668 82.5639 334.273 81.9279Z" fill="black"/>
<path d="M287.616 237.358C287.616 235.68 286.95 234.071 285.763 232.885C284.577 231.698 282.968 231.032 281.29 231.032C279.612 231.032 278.003 231.698 276.816 232.885C275.63 234.071 274.963 235.68 274.963 237.358C274.951 237.474 274.951 237.591 274.963 237.708C275.05 238.229 275.263 238.721 275.583 239.141C275.904 239.561 276.322 239.896 276.802 240.117C278.189 240.82 279.721 241.186 281.276 241.186C282.83 241.186 284.363 240.82 285.75 240.117C286.229 239.895 286.647 239.56 286.968 239.14C287.288 238.72 287.501 238.229 287.589 237.708V237.358H287.616Z" fill="#37474F"/>
<path d="M285.759 240.117C286.238 239.895 286.657 239.56 286.977 239.14C287.298 238.72 287.511 238.229 287.598 237.708V237.358C287.566 236.254 287.246 235.177 286.668 234.235C286.09 233.292 285.276 232.518 284.306 231.988C284.306 232.043 287.451 235.961 285.152 238.563C283.561 240.402 278.099 240.696 275.699 239.28C276.023 239.61 276.391 239.891 276.793 240.117C278.182 240.823 279.718 241.191 281.276 241.191C282.834 241.191 284.37 240.823 285.759 240.117Z" fill="#263238"/>
<path d="M277.38 240.54C277.328 239.391 276.835 238.306 276.004 237.512C275.172 236.717 274.066 236.273 272.916 236.273C271.766 236.273 270.66 236.717 269.829 237.512C268.997 238.306 268.504 239.391 268.452 240.54C268.447 240.583 268.447 240.626 268.452 240.668C268.447 240.708 268.447 240.748 268.452 240.788C268.511 241.158 268.661 241.507 268.889 241.804C269.117 242.101 269.416 242.336 269.757 242.489C270.736 242.988 271.818 243.248 272.916 243.248C274.014 243.248 275.097 242.988 276.075 242.489C276.416 242.335 276.713 242.099 276.941 241.802C277.169 241.506 277.32 241.157 277.38 240.788C277.385 240.748 277.385 240.708 277.38 240.668C277.385 240.626 277.385 240.583 277.38 240.54Z" fill="#455A64"/>
<path d="M276.076 242.489C276.416 242.335 276.714 242.099 276.942 241.802C277.17 241.505 277.321 241.157 277.381 240.788C277.386 240.748 277.386 240.708 277.381 240.668C277.386 240.625 277.386 240.582 277.381 240.54C277.371 240.032 277.268 239.53 277.078 239.059C277.188 240.972 276.287 242.14 273.464 242.498C270.641 242.857 268.793 241.661 268.554 241.22C268.793 241.772 269.22 242.222 269.758 242.489C270.736 242.988 271.819 243.248 272.917 243.248C274.015 243.248 275.097 242.988 276.076 242.489Z" fill="#37474F"/>
<path d="M310.154 236.071C310.154 234.895 309.687 233.768 308.856 232.937C308.025 232.106 306.897 231.639 305.722 231.639C304.546 231.639 303.419 232.106 302.588 232.937C301.757 233.768 301.29 234.895 301.29 236.071C301.285 236.111 301.285 236.151 301.29 236.19C301.285 236.233 301.285 236.276 301.29 236.319C301.348 236.684 301.496 237.029 301.721 237.323C301.946 237.616 302.24 237.85 302.577 238.002C303.55 238.496 304.626 238.754 305.717 238.754C306.808 238.754 307.884 238.496 308.857 238.002C309.194 237.848 309.489 237.615 309.715 237.321C309.94 237.028 310.091 236.684 310.154 236.319V236.071Z" fill="#455A64"/>
<path d="M308.867 238.002C309.204 237.848 309.498 237.615 309.724 237.321C309.95 237.028 310.101 236.684 310.164 236.319V236.071C310.148 235.567 310.045 235.069 309.86 234.6C309.971 236.503 309.069 237.653 306.274 238.011C303.479 238.37 301.676 237.184 301.4 236.751C301.642 237.291 302.06 237.733 302.587 238.002C303.56 238.496 304.635 238.754 305.727 238.754C306.818 238.754 307.894 238.496 308.867 238.002Z" fill="#37474F"/>
<path d="M198.934 133.79C196.881 135.172 194.642 136.255 192.285 137.008C193.12 136.103 193.823 135.085 194.373 133.983C194.693 133.415 194.787 132.746 194.635 132.112C194.483 131.477 194.097 130.924 193.554 130.562C193.058 130.305 192.515 131.592 190.713 132.981C188.414 134.746 186.575 135.059 184.644 137.523C183.917 138.443 180.644 140.015 175.678 140.015C170.713 140.015 166.676 139.859 166.676 139.859C166.676 139.859 171.605 131.307 174.032 125.551C176.46 119.794 180.91 107.086 180.69 102.875C180.276 94.6724 170.041 94.0011 165.113 94.8011C165.113 94.8011 154.372 136.751 151.32 145.919C148.267 155.086 158.464 152.705 165.94 152.355C170.473 152.158 174.987 151.645 179.448 150.82C183.477 150.413 187.472 149.722 191.402 148.751C202.134 146.314 205.425 142.875 205.885 138.176C206.694 130.7 203.881 130.562 198.934 133.79Z" fill="#FFBDA7"/>
<path d="M102.133 266.361C101.563 266.067 99.9725 267.869 99.715 268.559C99.5153 269.936 99.6285 271.341 100.046 272.669C100.585 274.722 100.79 276.849 100.653 278.968C100.373 281.91 100.641 284.878 101.444 287.722C102.483 291.308 106.124 297.837 114.584 297.837C119.715 297.837 120.616 295.759 120.616 294.572L102.133 266.361Z" fill="#455A64"/>
<path d="M117.775 267.832C116.69 270.213 114.713 277.11 117.665 282.977C119.642 286.931 120.57 290.756 119.504 294.011C118.391 297.404 106.134 292.108 104.625 289.478C103.108 286.804 102.319 283.779 102.336 280.705C102.235 277.947 102.75 276.209 102.446 274.177C102.124 271.97 101.003 269.22 101.628 267.289C101.968 266.232 103.706 264.65 105.306 263.4C106.906 262.149 108.212 261.193 108.984 261.652L108.46 262.406C108.92 263.344 109.598 264.157 110.437 264.779C110.823 265.092 110.575 266.894 111.081 267.087C111.586 267.28 111.688 265.818 112.69 265.634C113.658 265.486 114.649 265.613 115.548 266.002C116.448 266.39 117.219 267.025 117.775 267.832Z" fill="#555555"/>
<path opacity="0.3" d="M117.775 267.832C116.69 270.213 114.713 277.11 117.665 282.977C119.642 286.931 120.57 290.756 119.504 294.011C118.391 297.404 106.134 292.108 104.625 289.478C103.108 286.804 102.319 283.779 102.336 280.705C102.235 277.947 102.75 276.209 102.446 274.177C102.124 271.97 101.003 269.22 101.628 267.289C101.968 266.232 103.706 264.65 105.306 263.4C106.906 262.149 108.212 261.193 108.984 261.652L108.46 262.406C108.92 263.344 109.598 264.157 110.437 264.779C110.823 265.092 110.575 266.894 111.081 267.087C111.586 267.28 111.688 265.818 112.69 265.634C113.658 265.486 114.649 265.613 115.548 266.002C116.448 266.39 117.219 267.025 117.775 267.832Z" fill="black"/>
<path d="M109.324 272.779C109.18 272.763 109.034 272.781 108.898 272.833C108.762 272.884 108.64 272.967 108.542 273.075C108.445 273.182 108.374 273.312 108.336 273.452C108.298 273.592 108.293 273.739 108.323 273.882C108.353 274.024 108.416 274.157 108.507 274.27C108.599 274.383 108.715 274.473 108.848 274.532C108.981 274.592 109.126 274.619 109.271 274.611C109.416 274.604 109.557 274.562 109.683 274.489C111.835 274.115 114.039 274.159 116.175 274.618C116.371 274.055 116.434 273.453 116.359 272.862C114.041 272.382 111.653 272.354 109.324 272.779Z" fill="white"/>
<path d="M116.139 276.715C113.742 276.31 111.288 276.385 108.92 276.935C108.757 277.04 108.631 277.194 108.56 277.374C108.49 277.555 108.478 277.754 108.527 277.941C108.576 278.129 108.683 278.297 108.833 278.42C108.983 278.543 109.168 278.616 109.362 278.627C111.642 278.119 114.002 278.088 116.295 278.535C116.483 277.931 116.427 277.278 116.139 276.715Z" fill="white"/>
<path d="M116.893 281.073C114.242 280.479 111.491 280.495 108.847 281.119C108.684 281.224 108.558 281.378 108.487 281.558C108.416 281.739 108.405 281.938 108.454 282.125C108.503 282.313 108.61 282.48 108.76 282.604C108.91 282.727 109.095 282.799 109.288 282.811C112.096 282.156 115.029 282.287 117.767 283.188C118.024 283.115 117.601 281.717 116.893 281.073Z" fill="white"/>
<path d="M104.625 289.469C104.625 289.469 107.779 284.742 113.425 284.678C119.071 284.614 120.138 286.977 120.625 287.823C121.112 288.669 123.108 293.487 119.227 295.703C119.227 295.703 109.894 298.177 104.625 289.469Z" fill="#FAFAFA"/>
<path d="M167.532 221.735C167.311 219.832 167.044 217.606 166.759 215.179C168.845 211.07 170.708 206.853 172.341 202.544C177.122 189.983 178.897 158.82 178.677 152.254L133.794 153.321C133.794 160.015 133.352 166.112 134.106 174.792C135.026 184.852 139.265 200.089 142.824 211.427C139.375 215.409 134.548 221.137 132.387 224.687C128.709 230.563 112.01 257.294 112.01 257.294L108.175 262.811C107.559 263.933 107.32 266.489 109.895 268.393C112.469 270.296 115.844 269.965 116.626 269.018C116.626 269.018 136.984 248.788 149.049 236.834C149.665 240.264 150.474 244.19 151.44 247.933C154.134 258.434 159.716 273.735 162.474 281.248C163.616 284.307 164.457 287.47 164.985 290.692L166.447 294.912L176.562 292.613L174.722 283.841C174.722 283.841 169.031 234.406 167.532 221.735Z" fill="#FFBDA7"/>
<path d="M142.327 211.399L147.366 226.544C147.366 226.544 147.78 232.76 148.589 236.972L146.456 239.133C146.456 239.133 145.187 231.97 145.895 226.912L142.327 211.399Z" fill="#FFBDA7"/>
<path d="M133.232 158.093C133.232 158.663 131.55 172.438 133.232 181.312C134.915 190.185 143.136 222.25 143.136 222.25C143.136 222.25 146.014 225.468 156.488 223.169C166.961 220.87 167.522 218.801 167.522 218.801V215.583C171.748 207.247 174.755 198.347 176.451 189.155C177.927 179.955 178.873 170.676 179.283 161.367L133.232 158.093Z" fill="#555555"/>
<path opacity="0.6" d="M133.232 158.093C133.232 158.663 131.55 172.438 133.232 181.312C134.915 190.185 143.136 222.25 143.136 222.25C143.136 222.25 146.014 225.468 156.488 223.169C166.961 220.87 167.522 218.801 167.522 218.801V215.583C171.748 207.247 174.755 198.347 176.451 189.155C177.927 179.955 178.873 170.676 179.283 161.367L133.232 158.093Z" fill="black"/>
<path opacity="0.4" d="M165.932 213.34C165.932 213.34 162.834 181.257 161.85 177.183C161.85 177.183 169.206 174.37 171.505 171.786C171.505 171.786 169.877 175.399 164.599 178.599L165.932 213.34Z" fill="black"/>
<path d="M132.184 167.17C138.308 171.629 166.942 175.924 179.807 166.535C179.963 166.425 179.807 164.981 179.807 164.797L179.724 156.935C179.669 152.889 179.607 148.843 179.54 144.797C179.46 140.101 179.362 135.405 179.246 130.71C179.135 126.13 178.994 121.554 178.823 116.981C178.749 114.976 178.66 112.972 178.556 110.967C178.406 107.886 177.699 104.858 176.469 102.029C175.397 99.3403 173.365 97.1449 170.768 95.8681C168.971 95.2006 167.075 94.8401 165.158 94.8015C163.827 94.7894 162.497 94.8693 161.177 95.0406C159.687 95.1601 158.207 95.298 156.717 95.4452C153.701 95.7578 150.685 96.1164 147.678 96.5026L146.593 96.6406L145.673 96.7601C141.866 97.2567 139.053 97.6796 138.62 97.7348H138.556C137.315 98.0567 136.156 98.3509 135.227 98.6544C132.68 99.4084 134.574 98.7647 134.013 101.22C132.377 108.438 134.289 134.691 134.289 134.691L132.184 167.17Z" fill="#555555"/>
<path d="M164.405 297.8C163.817 298.048 164.175 300.439 164.534 301.083C165.317 302.234 166.389 303.16 167.642 303.768C169.424 304.679 170.967 305.996 172.148 307.611C174.182 310.074 176.726 312.067 179.605 313.45C181.488 314.199 183.506 314.545 185.53 314.465C187.554 314.386 189.539 313.884 191.357 312.991C195.256 311.152 195.56 310.03 195.33 308.485L164.405 297.8Z" fill="#455A64"/>
<path d="M175.935 286.701C177.066 289.083 180.018 295.418 184.781 298.113C188.561 300.255 193.591 302.591 195.402 305.524C197.214 308.457 190.455 311.308 187.411 311.455C185.039 311.565 181.894 311.823 179.43 310.536C178.205 309.909 177.047 309.16 175.972 308.301C173.82 306.609 172.193 304.402 170.62 303.05C169.048 301.699 165.857 300.513 164.781 298.775C164.184 297.855 164.092 295.464 164.165 293.432C164.22 291.593 163.935 289.864 164.791 289.57L165.03 290.618C166.212 290.651 167.394 290.571 168.561 290.379C169.048 290.287 170.271 291.648 170.749 291.381C171.227 291.115 170.17 290.094 170.676 289.202C172.331 286.278 175.935 286.701 175.935 286.701Z" fill="#555555"/>
<path opacity="0.3" d="M175.935 286.701C177.066 289.083 180.018 295.418 184.781 298.113C188.561 300.255 193.591 302.591 195.402 305.524C197.214 308.457 190.455 311.308 187.411 311.455C185.039 311.565 181.894 311.823 179.43 310.536C178.205 309.909 177.047 309.16 175.972 308.301C173.82 306.609 172.193 304.402 170.62 303.05C169.048 301.699 165.857 300.513 164.781 298.775C164.184 297.855 164.092 295.464 164.165 293.432C164.22 291.593 163.935 289.864 164.791 289.57L165.03 290.618C166.212 290.651 167.394 290.571 168.561 290.379C169.048 290.287 170.271 291.648 170.749 291.381C171.227 291.115 170.17 290.094 170.676 289.202C172.331 286.278 175.935 286.701 175.935 286.701Z" fill="black"/>
<path d="M184.184 297.735C181.862 298.433 179.825 299.858 178.373 301.8C178.253 301.994 178.211 302.227 178.253 302.451C178.296 302.675 178.42 302.876 178.602 303.014C178.797 303.133 179.029 303.175 179.254 303.133C179.478 303.09 179.679 302.966 179.816 302.784C180.613 301.739 181.616 300.87 182.763 300.229C183.91 299.589 185.176 299.191 186.483 299.059C186.211 298.693 185.867 298.386 185.472 298.158C185.076 297.93 184.638 297.786 184.184 297.735Z" fill="white"/>
<path d="M180.838 294.738C178.631 295.355 176.669 296.64 175.22 298.416C175.091 298.604 175.036 298.833 175.067 299.059C175.097 299.285 175.211 299.492 175.385 299.639C175.536 299.754 175.72 299.815 175.909 299.814C176.044 299.811 176.176 299.78 176.297 299.721C176.417 299.662 176.524 299.578 176.608 299.473C178.052 297.782 180.032 296.637 182.217 296.227C182.145 295.877 181.978 295.553 181.735 295.291C181.492 295.029 181.182 294.837 180.838 294.738Z" fill="white"/>
<path d="M179.366 292.825C179.419 292.487 179.344 292.141 179.158 291.854C178.971 291.568 178.685 291.36 178.354 291.271C176.059 291.782 173.986 293.009 172.433 294.774C172.328 294.903 172.262 295.058 172.243 295.222C172.223 295.387 172.25 295.553 172.322 295.703C172.393 295.852 172.505 295.978 172.645 296.066C172.785 296.154 172.948 296.2 173.113 296.2C173.243 296.197 173.37 296.167 173.488 296.112C173.605 296.056 173.709 295.977 173.794 295.878C175.256 294.264 177.219 293.189 179.366 292.825Z" fill="white"/>
<path d="M179.431 310.535C179.431 310.535 179.881 304.475 184.81 301.643C189.739 298.811 191.817 300.862 192.663 301.367C193.509 301.873 197.647 304.632 195.33 308.485C195.33 308.485 188.985 315.087 179.431 310.535Z" fill="#FAFAFA"/>
<path d="M142.989 74.1484C142.989 74.1484 145.04 83.7577 145.858 85.3393C146.406 86.3097 147.304 87.0336 148.369 87.3623L148.231 80.6036L142.989 74.1484Z" fill="#263238"/>
<path d="M145.555 60.383C144.84 60.3002 144.115 60.3814 143.437 60.6204C142.758 60.8594 142.142 61.2499 141.637 61.7624C139.954 63.4819 140.892 68.8704 142.989 74.1486L146.842 74.59L145.555 60.383Z" fill="#263238"/>
<path d="M148 74.5901C147.228 75.059 146.161 73.5694 145.168 72.5763C144.175 71.5832 141.113 70.2131 139.559 73.4958C138.005 76.7786 140.929 81.2292 143.375 81.9924C147.596 83.3165 148.23 80.6131 148.23 80.6131L148.506 96.1258C152.929 104.126 167.881 100.034 162.299 94.7281V90.8016C164.181 91.1019 166.089 91.1975 167.991 91.0867C171.09 90.6085 173.04 88.1625 173.987 84.8062C175.495 79.4085 176.102 75.2522 175.164 64.4475C174.115 52.7693 159.817 52.659 152.543 57.2567C145.269 61.8544 148 74.5901 148 74.5901Z" fill="#FFBDA7"/>
<path d="M144.111 69.5876C144.332 70.5072 144.534 71.9784 145.269 72.6773C146.189 73.5968 147.669 76.0888 148.028 76.0796C150.079 76.0796 150.419 67.4727 150.787 65.9646C150.939 65.5379 151.207 65.1622 151.561 64.8795C151.916 64.5969 152.341 64.4186 152.791 64.3646C153.694 64.2761 154.606 64.3445 155.486 64.5669C159.18 65.1431 162.924 65.3341 166.658 65.137C169.325 65.0635 172.047 63.6106 174.437 62.4428C177.959 60.714 179.872 56.4198 177.711 52.8244C177.083 51.8323 176.155 51.0665 175.062 50.6381C173.969 50.2098 172.767 50.1414 171.633 50.4427C171.328 49.3779 170.716 48.4266 169.874 47.708C169.031 46.9893 167.995 46.5353 166.895 46.4028C165.796 46.2702 164.682 46.4651 163.692 46.9629C162.703 47.4607 161.883 48.2394 161.334 49.2014C160.422 48.4688 159.332 47.9917 158.175 47.8189C157.018 47.646 155.836 47.7835 154.75 48.2174C153.679 48.6887 152.783 49.4847 152.189 50.4929C151.595 51.5011 151.333 52.6705 151.44 53.8359C150.498 53.3276 149.43 53.1039 148.363 53.1921C147.297 53.2803 146.28 53.6764 145.435 54.3324C144.607 55.0097 143.946 55.8691 143.504 56.8436C143.062 57.8181 142.851 58.8815 142.888 59.9508C142.941 63.1982 143.351 66.4299 144.111 69.5876Z" fill="#263238"/>
<path d="M140.772 65.1736C140.772 65.1736 144.956 61.4954 155.246 59.9414C165.535 58.3874 173.903 59.9414 175.577 61.7805C176.551 63.7575 176.11 66.0656 175.402 68.1162C175.402 68.1162 175.338 66.0748 164.68 66.0748C154.023 66.0748 144.331 69.7529 142.023 71.5001C142.023 71.4541 139.742 68.0702 140.772 65.1736Z" fill="#555555"/>
<path d="M176.11 63.7944C176.092 63.5286 176.055 63.2643 176 63.0036C166.446 59.0036 151.172 60.4381 140.533 66.2496C140.515 66.5129 140.515 66.7771 140.533 67.0404C151.126 61.0726 166.657 59.6197 176.11 63.7944Z" fill="white"/>
<path d="M141.039 69.4772C141.131 69.7071 141.214 69.9186 141.306 70.1209C151.568 64.3921 166.372 62.8565 175.853 66.5347C175.908 66.3048 175.954 66.0841 175.991 65.8542C166.336 62.176 151.43 63.6933 141.039 69.4772Z" fill="white"/>
<path d="M162.263 90.7923C162.263 90.7923 155.302 89.4406 152.92 88.1072C151.495 87.3687 150.328 86.2142 149.573 84.7969C149.937 86.2104 150.581 87.5364 151.467 88.6957C153.242 90.967 162.263 92.6314 162.263 92.6314V90.7923Z" fill="#FFBDA7"/>
<path d="M160.313 73.5506C160.302 73.8226 160.212 74.0855 160.053 74.3064C159.894 74.5274 159.673 74.6967 159.419 74.7934C159.164 74.8901 158.887 74.9099 158.621 74.8502C158.356 74.7906 158.114 74.6542 157.925 74.458C157.736 74.2618 157.609 74.0144 157.56 73.7467C157.511 73.4789 157.541 73.2026 157.648 72.9521C157.754 72.7016 157.932 72.4879 158.159 72.3376C158.386 72.1874 158.652 72.1071 158.925 72.1069C159.111 72.1105 159.294 72.1507 159.464 72.2252C159.635 72.2997 159.789 72.4071 159.918 72.5411C160.047 72.6752 160.148 72.8333 160.216 73.0066C160.284 73.1798 160.317 73.3646 160.313 73.5506Z" fill="#263238"/>
<path d="M158.924 68.9534L155.954 70.5993C155.744 70.1912 155.7 69.7178 155.83 69.2777C155.96 68.8375 156.255 68.4645 156.653 68.2361C156.848 68.1288 157.063 68.0621 157.285 68.0402C157.506 68.0183 157.73 68.0416 157.942 68.1086C158.155 68.1757 158.351 68.2851 158.52 68.4303C158.689 68.5755 158.826 68.7534 158.924 68.9534Z" fill="#263238"/>
<path d="M162.4 83.1416L165.563 84.3278C165.494 84.5402 165.383 84.7366 165.236 84.9054C165.09 85.0742 164.911 85.2119 164.71 85.3105C164.51 85.409 164.292 85.4664 164.069 85.4793C163.845 85.4921 163.622 85.4602 163.412 85.3853C162.986 85.2146 162.642 84.8856 162.454 84.4673C162.265 84.0489 162.246 83.5738 162.4 83.1416Z" fill="#FFA98C"/>
<path d="M172.552 69.7622L169.435 68.3645C169.514 68.1554 169.635 67.9646 169.791 67.8039C169.947 67.6432 170.134 67.5159 170.34 67.4298C170.547 67.3438 170.769 67.3007 170.992 67.3033C171.216 67.3059 171.437 67.3541 171.641 67.445C172.056 67.6468 172.38 67.997 172.548 68.4261C172.717 68.8553 172.718 69.3322 172.552 69.7622Z" fill="#263238"/>
<path d="M171.697 73.5506C171.686 73.8226 171.595 74.0855 171.436 74.3064C171.277 74.5274 171.057 74.6967 170.803 74.7934C170.548 74.8901 170.271 74.9099 170.005 74.8502C169.74 74.7906 169.497 74.6542 169.309 74.458C169.12 74.2618 168.993 74.0144 168.944 73.7467C168.895 73.4789 168.925 73.2026 169.032 72.9521C169.138 72.7016 169.316 72.4879 169.543 72.3376C169.77 72.1874 170.036 72.1071 170.308 72.1069C170.494 72.1105 170.678 72.1507 170.848 72.2252C171.019 72.2997 171.173 72.4071 171.302 72.5411C171.431 72.6752 171.532 72.8333 171.6 73.0066C171.667 73.1798 171.7 73.3646 171.697 73.5506Z" fill="#263238"/>
<path d="M164.294 72.5854L164.754 80.9349L169.112 79.4544L164.294 72.5854Z" fill="#FFBDA7"/>
<path d="M149.996 171.731C150.413 170.376 150.696 168.984 150.842 167.574L150.897 167.096C151.023 165.77 151.472 164.495 152.207 163.384C152.941 162.272 153.938 161.359 155.109 160.724L155.357 160.595C156.764 159.88 157.947 158.792 158.778 157.45C159.203 156.696 159.437 155.85 159.461 154.984C159.485 154.119 159.298 153.261 158.916 152.484C158.714 152.091 158.483 151.713 158.226 151.353C157.986 151.023 157.851 150.628 157.838 150.22C157.825 149.812 157.934 149.409 158.152 149.064L159.421 147.114L153.159 143.068L151.89 145.018C151.674 145.367 151.357 145.641 150.981 145.806C150.605 145.97 150.187 146.016 149.785 145.937C149.351 145.848 148.911 145.79 148.47 145.763C147.604 145.733 146.744 145.914 145.964 146.29C145.184 146.667 144.507 147.227 143.991 147.924C143.113 149.235 142.608 150.761 142.529 152.337C142.529 152.429 142.529 152.512 142.529 152.604C142.429 153.928 142.004 155.208 141.294 156.33C140.584 157.452 139.609 158.383 138.456 159.041L138.042 159.289C136.815 159.998 135.662 160.83 134.603 161.772C133.663 162.737 132.833 163.804 132.129 164.953L126.244 174.057C125.481 175.243 125.499 176.926 126.474 178.829C127.375 180.492 128.63 181.937 130.152 183.059C130.863 183.61 131.62 184.099 132.414 184.521C134.059 185.436 135.881 185.985 137.757 186.131C139.89 186.241 141.435 185.56 142.198 184.383L146.456 177.79C146.989 176.972 147.568 176.135 148.129 175.28C148.876 174.167 149.502 172.977 149.996 171.731Z" fill="#555555"/>
<path opacity="0.75" d="M149.996 171.731C150.413 170.376 150.696 168.984 150.842 167.574L150.897 167.096C151.023 165.77 151.472 164.495 152.207 163.384C152.941 162.272 153.938 161.359 155.109 160.724L155.357 160.595C156.764 159.88 157.947 158.792 158.778 157.45C159.203 156.696 159.437 155.85 159.461 154.984C159.485 154.119 159.298 153.261 158.916 152.484C158.714 152.091 158.483 151.713 158.226 151.353C157.986 151.023 157.851 150.628 157.838 150.22C157.825 149.812 157.934 149.409 158.152 149.064L159.421 147.114L153.159 143.068L151.89 145.018C151.674 145.367 151.357 145.641 150.981 145.806C150.605 145.97 150.187 146.016 149.785 145.937C149.351 145.848 148.911 145.79 148.47 145.763C147.604 145.733 146.744 145.914 145.964 146.29C145.184 146.667 144.507 147.227 143.991 147.924C143.113 149.235 142.608 150.761 142.529 152.337C142.529 152.429 142.529 152.512 142.529 152.604C142.429 153.928 142.004 155.208 141.294 156.33C140.584 157.452 139.609 158.383 138.456 159.041L138.042 159.289C136.815 159.998 135.662 160.83 134.603 161.772C133.663 162.737 132.833 163.804 132.129 164.953L126.244 174.057C125.481 175.243 125.499 176.926 126.474 178.829C127.375 180.492 128.63 181.937 130.152 183.059C130.863 183.61 131.62 184.099 132.414 184.521C134.059 185.436 135.881 185.985 137.757 186.131C139.89 186.241 141.435 185.56 142.198 184.383L146.456 177.79C146.989 176.972 147.568 176.135 148.129 175.28C148.876 174.167 149.502 172.977 149.996 171.731Z" fill="white"/>
<path opacity="0.05" d="M155.109 160.723L155.357 160.595C156.555 159.984 157.594 159.102 158.392 158.02C157.953 158.385 157.472 158.694 156.957 158.94C155.46 159.582 153.865 159.968 152.24 160.08C150.603 160.264 148.773 160.503 147.753 161.799C146.732 163.096 146.934 164.871 147.486 166.397C148.185 167.834 148.799 169.311 149.325 170.82C149.472 171.5 149.546 172.193 149.546 172.889C149.72 172.521 149.886 172.153 150.024 171.776C150.44 170.422 150.724 169.03 150.87 167.62L150.925 167.142C151.04 165.81 151.482 164.528 152.212 163.408C152.942 162.289 153.937 161.366 155.109 160.723Z" fill="black"/>
<path opacity="0.1" d="M131.301 166.848C131.301 166.848 131.135 166.848 130.86 166.848L129.021 169.671C129.995 172.815 133.48 176.852 137.554 177.947C141.37 178.949 145.508 178.14 147.669 175.942L148.781 174.103L136.542 169.294L131.301 166.848Z" fill="black"/>
<path d="M150.704 144.613L150.023 145.661C149.813 146.057 149.713 146.503 149.734 146.951C149.755 147.399 149.896 147.834 150.143 148.208C150.77 149.283 151.641 150.195 152.685 150.871C153.73 151.547 154.919 151.967 156.157 152.098C156.654 152.135 157.153 152.063 157.619 151.887C157.995 151.754 158.318 151.502 158.538 151.169L159.228 150.093C159.294 150 159.347 149.898 159.384 149.79C159.498 149.419 159.532 149.028 159.485 148.643C159.437 148.258 159.309 147.888 159.108 147.555V147.482C158.475 146.427 157.605 145.534 156.568 144.872C155.531 144.21 154.355 143.797 153.131 143.666C152.746 143.62 152.355 143.656 151.984 143.772C151.613 143.887 151.271 144.08 150.98 144.337C150.877 144.418 150.784 144.51 150.704 144.613Z" fill="#555555"/>
<path opacity="0.1" d="M156.837 150.995C159.118 151.105 160.12 149.551 159.081 147.519C158.455 146.444 157.584 145.532 156.539 144.857C155.494 144.183 154.304 143.765 153.067 143.638C150.787 143.519 149.784 145.073 150.823 147.105C151.45 148.18 152.321 149.092 153.366 149.768C154.411 150.444 155.6 150.864 156.837 150.995Z" fill="black"/>
<path d="M151.485 143.344L151.081 143.978C151.014 144.08 150.959 144.188 150.915 144.3C150.803 144.672 150.77 145.063 150.819 145.448C150.868 145.833 150.998 146.203 151.2 146.535C151.732 147.503 152.485 148.331 153.398 148.953C154.51 149.785 155.831 150.291 157.214 150.415C157.708 150.452 158.204 150.38 158.667 150.204C158.928 150.108 159.164 149.953 159.356 149.753C159.439 149.675 159.511 149.585 159.568 149.486L159.991 148.834C160.164 148.377 160.23 147.886 160.184 147.4C160.138 146.914 159.98 146.445 159.724 146.029C159.08 145.024 158.219 144.177 157.203 143.55C156.188 142.922 155.044 142.532 153.858 142.406C153.414 142.337 152.961 142.388 152.544 142.552C152.127 142.717 151.761 142.991 151.485 143.344Z" fill="#555555"/>
<path opacity="0.5" d="M151.503 143.326C150.583 144.677 151.825 147.004 154.169 148.512C156.514 150.02 159.126 150.167 159.999 148.824C160.873 147.482 159.678 145.146 157.333 143.629C154.988 142.112 152.376 141.974 151.503 143.326Z" fill="white"/>
<path d="M155.909 142.599L154.484 144.806C154.462 144.841 154.444 144.878 154.429 144.917C154.387 145.044 154.373 145.18 154.389 145.313C154.405 145.447 154.45 145.575 154.521 145.689C154.74 146.06 155.043 146.375 155.405 146.608C155.768 146.842 156.18 146.987 156.608 147.032C156.78 147.048 156.954 147.023 157.114 146.958C157.203 146.923 157.285 146.869 157.353 146.802C157.383 146.775 157.407 146.744 157.427 146.71L158.852 144.503C158.941 144.366 158.988 144.206 158.988 144.043C158.988 143.88 158.941 143.72 158.852 143.583L158.797 143.491C158.573 143.144 158.275 142.851 157.923 142.635C157.571 142.419 157.175 142.284 156.765 142.241C156.603 142.213 156.436 142.232 156.285 142.296C156.133 142.359 156.003 142.465 155.909 142.599Z" fill="#555555"/>
<path opacity="0.5" d="M155.907 142.599C155.604 143.059 156.018 143.868 156.827 144.392C157.636 144.917 158.546 144.972 158.85 144.503C159.153 144.034 158.739 143.225 157.93 142.664C157.121 142.103 156.22 142.13 155.907 142.599Z" fill="white"/>
<path opacity="0.5" d="M156.866 143.206C156.755 143.372 156.866 143.657 157.188 143.85C157.509 144.043 157.804 144.052 157.905 143.85C158.006 143.648 157.905 143.4 157.583 143.206C157.261 143.013 156.967 143.041 156.866 143.206Z" fill="#555555"/>
<path opacity="0.3" d="M156.866 143.206C156.755 143.372 156.866 143.657 157.188 143.85C157.509 144.043 157.804 144.052 157.905 143.85C158.006 143.648 157.905 143.4 157.583 143.206C157.261 143.013 156.967 143.041 156.866 143.206Z" fill="black"/>
<path d="M145.977 165.459C143.715 165.119 139.687 163.427 138.501 162.066C138.172 161.755 137.911 161.38 137.732 160.964C137.553 160.548 137.461 160.1 137.462 159.648C138.456 159.086 139.382 158.41 140.22 157.634C139.153 157.004 138.055 156.43 136.928 155.914C135.577 155.409 133.25 153.34 131.586 151.675C127.583 146.892 124.06 141.727 121.066 136.254L133.498 121.358C135.22 121.162 136.862 120.525 138.265 119.509C139.669 118.492 140.785 117.131 141.508 115.556C143.347 111.997 145.719 103.684 140.855 97.4038C137.894 97.3418 134.956 97.9419 132.257 99.1601C129.048 100.503 123.77 106.792 119.604 112.889C115.981 118.195 105.701 132.254 105.333 137.505C105.177 139.666 107.76 143.022 114.243 149.818C117.121 152.935 120.432 156.328 123.963 159.988C126.317 162.388 130.317 169.652 132.597 172.172C135.797 175.712 138.004 176.641 140.873 176.696C143.742 176.751 148.993 175.776 150.519 171.482C152.046 167.188 149.912 166.066 145.977 165.459Z" fill="#FFBDA7"/>
<path d="M126.842 163.786C126.515 163.274 126.323 162.687 126.286 162.08C126.249 161.473 126.368 160.867 126.631 160.319C127.871 157.929 129.737 155.921 132.028 154.508C133.73 153.588 134.548 154.36 134.548 154.36C133.88 153.002 132.865 151.844 131.605 151.004C131.297 150.809 130.925 150.74 130.566 150.811C129.596 151.006 128.689 151.439 127.927 152.071C126.235 153.423 124.12 155.694 123.458 157.662C123.152 158.55 123.105 159.506 123.32 160.42C124.36 161.675 125.542 162.805 126.842 163.786Z" fill="#37474F"/>
<path d="M124.837 156.76L126.676 158.599C126.807 158.735 126.964 158.843 127.138 158.917C127.312 158.99 127.499 159.028 127.687 159.028C127.876 159.028 128.063 158.99 128.237 158.917C128.41 158.843 128.568 158.735 128.699 158.599L130.998 156.162C131.263 155.878 131.411 155.503 131.411 155.114C131.411 154.725 131.263 154.35 130.998 154.066L129.278 152.282C129.148 152.145 128.992 152.037 128.819 151.962C128.646 151.888 128.46 151.85 128.271 151.85C128.083 151.85 127.896 151.888 127.723 151.962C127.55 152.037 127.394 152.145 127.264 152.282L124.818 154.765C124.566 155.037 124.427 155.395 124.431 155.766C124.434 156.137 124.579 156.493 124.837 156.76Z" fill="#263238"/>
<path d="M124.332 156.788L126.171 158.627C126.302 158.763 126.459 158.87 126.633 158.944C126.807 159.018 126.994 159.056 127.182 159.056C127.371 159.056 127.558 159.018 127.732 158.944C127.906 158.87 128.063 158.763 128.194 158.627L130.493 156.19C130.759 155.906 130.906 155.531 130.906 155.142C130.906 154.753 130.759 154.378 130.493 154.093L128.773 152.3C128.643 152.165 128.487 152.057 128.314 151.984C128.14 151.91 127.954 151.872 127.766 151.872C127.578 151.872 127.392 151.91 127.219 151.984C127.046 152.057 126.89 152.165 126.76 152.3L124.314 154.728C124.179 154.864 124.073 155.026 124.001 155.203C123.929 155.38 123.893 155.57 123.895 155.762C123.896 155.953 123.936 156.142 124.011 156.318C124.086 156.494 124.195 156.654 124.332 156.788Z" fill="#455A64"/>
<path d="M130.363 155.05C130.374 155.184 130.356 155.318 130.312 155.445C130.268 155.572 130.198 155.688 130.106 155.786L127.807 158.222C127.644 158.389 127.424 158.488 127.191 158.498C126.957 158.495 126.734 158.403 126.566 158.241L124.727 156.402C124.571 156.247 124.477 156.041 124.46 155.822C124.452 155.694 124.47 155.566 124.515 155.446C124.559 155.325 124.628 155.216 124.717 155.124L127.154 152.65C127.233 152.566 127.329 152.499 127.435 152.453C127.541 152.407 127.655 152.383 127.77 152.383C128.006 152.392 128.23 152.49 128.396 152.659L130.106 154.443C130.264 154.608 130.358 154.823 130.373 155.05H130.363Z" fill="#555555"/>
<g opacity="0.3">
<path d="M119.864 160.724H119.735L114.631 159.804C114.54 159.79 114.451 159.758 114.372 159.71C114.292 159.662 114.223 159.599 114.168 159.525C114.113 159.45 114.073 159.365 114.051 159.275C114.029 159.185 114.024 159.091 114.038 159C114.052 158.908 114.084 158.82 114.132 158.74C114.18 158.661 114.243 158.591 114.318 158.536C114.392 158.481 114.477 158.441 114.567 158.419C114.657 158.397 114.751 158.393 114.843 158.406L119.955 159.326C120.128 159.354 120.284 159.447 120.39 159.585C120.497 159.723 120.548 159.897 120.531 160.071C120.515 160.245 120.433 160.407 120.302 160.523C120.172 160.639 120.002 160.701 119.827 160.696L119.864 160.724Z" fill="black"/>
<path d="M115.1 165.046C114.959 165.046 114.82 165.001 114.705 164.919C114.59 164.836 114.503 164.72 114.457 164.586C114.42 164.498 114.403 164.404 114.404 164.309C114.406 164.214 114.428 164.12 114.467 164.034C114.507 163.947 114.564 163.87 114.635 163.807C114.706 163.744 114.789 163.696 114.88 163.666L119.781 161.947C119.868 161.909 119.961 161.889 120.056 161.889C120.151 161.888 120.245 161.908 120.332 161.945C120.419 161.983 120.497 162.038 120.562 162.107C120.627 162.177 120.676 162.258 120.708 162.348C120.74 162.437 120.753 162.532 120.746 162.627C120.739 162.721 120.713 162.813 120.67 162.897C120.626 162.981 120.565 163.056 120.491 163.115C120.417 163.175 120.332 163.218 120.241 163.243L115.33 164.972C115.259 165.011 115.181 165.036 115.1 165.046Z" fill="black"/>
<path d="M118.051 169.441C117.919 169.441 117.789 169.404 117.678 169.333C117.566 169.261 117.478 169.16 117.422 169.039C117.367 168.919 117.348 168.786 117.366 168.655C117.385 168.524 117.441 168.401 117.527 168.301L120.911 164.356C120.97 164.287 121.042 164.23 121.123 164.189C121.204 164.148 121.292 164.124 121.383 164.117C121.473 164.11 121.565 164.121 121.651 164.149C121.737 164.178 121.817 164.223 121.886 164.282C122.023 164.403 122.107 164.573 122.121 164.755C122.135 164.937 122.077 165.117 121.959 165.257L118.566 169.202C118.503 169.277 118.424 169.337 118.335 169.379C118.246 169.42 118.149 169.441 118.051 169.441Z" fill="black"/>
<path d="M122.797 171.786H122.669C122.49 171.75 122.332 171.645 122.23 171.493C122.128 171.342 122.091 171.156 122.126 170.977L123.046 165.873C123.055 165.778 123.084 165.686 123.13 165.603C123.177 165.519 123.241 165.447 123.317 165.389C123.393 165.332 123.48 165.291 123.573 165.269C123.666 165.247 123.763 165.244 123.857 165.261C123.951 165.279 124.04 165.315 124.119 165.369C124.198 165.422 124.265 165.492 124.316 165.573C124.367 165.653 124.4 165.744 124.414 165.838C124.428 165.933 124.423 166.029 124.397 166.121L123.478 171.234C123.446 171.391 123.361 171.531 123.237 171.632C123.112 171.732 122.957 171.787 122.797 171.786Z" fill="black"/>
</g>
</svg>
