<svg width="428" height="373" viewBox="0 0 428 373" fill="none" xmlns="http://www.w3.org/2000/svg">
<path d="M0 372.017H427.088" stroke="#263238" stroke-linejoin="round"/>
<path d="M178.151 250.859C178.151 250.859 178.452 288.139 178.452 297.987C178.452 307.834 178.151 350.617 178.151 350.617" stroke="#263238" stroke-width="3" stroke-linecap="round" stroke-linejoin="round"/>
<path d="M200.522 260.407L191.275 252.652L217.223 255.638L194.26 248.174L217.824 243.997H191.275L211.854 228.488L188.59 240.12L202.015 217.157L184.121 237.735L190.383 207.609L178.751 235.651L177.559 204.333L175.174 236.242L162.483 208.051L171.297 238.927L152.308 218.225L168.913 243.705L145.411 226.942L167.42 248.174L142.505 234.564L165.327 249.967L144.686 247.274L164.735 252.953L148.678 255.629L165.327 255.037L155.488 261.599L178.751 255.337L200.522 260.407Z" fill="#555555"/>
<path d="M169.196 288.439C169.196 288.439 168.313 296.194 168.904 299.179C169.531 302.623 169.827 306.119 169.787 309.619C169.787 313.496 170.088 313.796 170.088 316.481C170.088 319.166 169.787 341.97 169.787 344.054V351.208" stroke="#263238" stroke-width="3" stroke-linecap="round" stroke-linejoin="round"/>
<path d="M170.078 313.496C170.078 313.496 171.27 306.933 172.463 303.948C173.655 300.963 174.547 301.864 174.847 298.287C175.148 294.71 175.148 293.217 175.731 292.016C176.207 290.955 176.606 289.859 176.923 288.74L177.523 286.355" stroke="#263238" stroke-width="3" stroke-linecap="round" stroke-linejoin="round"/>
<path d="M191.275 296.194L182.028 288.439L207.976 291.425L185.013 283.97L208.577 279.793H182.028L202.615 264.284L179.352 275.916L192.768 252.952L174.874 273.531L181.136 243.405L169.504 271.438L168.312 240.12L165.927 272.038L156.68 243.105L162.05 274.723L145.649 251.16L159.666 279.493L138.142 265.432L158.173 283.97L135.969 274.882L156.08 285.754L135.245 283.953L155.488 288.74L141.419 291.946L156.08 290.824L146.241 297.386L169.504 291.124L191.275 296.194Z" fill="#555555"/>
<path d="M161.035 342.765L154.649 353.363C154.166 354.174 153.85 355.072 153.719 356.007C153.589 356.941 153.647 357.892 153.89 358.804L156.725 369.402C156.928 370.15 157.373 370.811 157.989 371.282C158.605 371.753 159.359 372.008 160.134 372.008H189.209C189.983 372.006 190.735 371.75 191.349 371.279C191.963 370.808 192.406 370.149 192.609 369.402L195.453 358.804C195.695 357.892 195.751 356.94 195.619 356.006C195.487 355.071 195.17 354.173 194.685 353.363L188.308 342.765C188.093 342.407 187.789 342.11 187.425 341.904C187.061 341.698 186.65 341.59 186.233 341.59H163.102C162.685 341.59 162.275 341.698 161.913 341.904C161.55 342.11 161.248 342.407 161.035 342.765Z" fill="white" stroke="#263238" stroke-linejoin="round"/>
<path d="M18.5477 82.3188H135.801C136.059 82.3188 136.306 82.4212 136.488 82.6034C136.67 82.7856 136.773 83.0327 136.773 83.2904V370.4C136.773 370.829 136.602 371.24 136.299 371.543C135.996 371.846 135.585 372.017 135.156 372.017H19.1924C18.7638 372.017 18.3527 371.846 18.0496 371.543C17.7465 371.24 17.5762 370.829 17.5762 370.4V83.2904C17.5762 83.0327 17.6785 82.7856 17.8607 82.6034C18.0429 82.4212 18.29 82.3188 18.5477 82.3188Z" stroke="#263238" stroke-linejoin="round"/>
<path d="M77.1748 228.33V371.717" stroke="#263238" stroke-linejoin="round"/>
<path d="M77.1748 82.0186V223.215" stroke="#263238" stroke-linejoin="round"/>
<path d="M25.4726 228.241H131.218C131.855 228.241 132.466 227.988 132.917 227.537C133.367 227.087 133.62 226.476 133.62 225.839C133.62 225.523 133.558 225.211 133.437 224.919C133.317 224.628 133.14 224.363 132.917 224.14C132.694 223.917 132.429 223.74 132.137 223.619C131.846 223.499 131.533 223.437 131.218 223.437H25.4726C25.1571 223.437 24.8448 223.499 24.5533 223.619C24.2618 223.74 23.997 223.917 23.7739 224.14C23.5509 224.363 23.3739 224.628 23.2532 224.919C23.1325 225.211 23.0703 225.523 23.0703 225.839C23.0703 226.476 23.3234 227.087 23.7739 227.537C24.2244 227.988 24.8355 228.241 25.4726 228.241Z" stroke="#263238" stroke-linejoin="round"/>
<path d="M124.284 110.167H90.3252V176.071H124.284V110.167Z" stroke="#263238" stroke-linejoin="round"/>
<path d="M121.625 115.333H92.9922V151.35H121.625V115.333Z" stroke="#263238" stroke-linejoin="round"/>
<path d="M97.2854 155.333H93.2139V159.537H97.2854V155.333Z" stroke="#263238" stroke-linejoin="round"/>
<path d="M103.405 155.333H99.333V159.537H103.405V155.333Z" stroke="#263238" stroke-linejoin="round"/>
<path d="M109.518 155.333H105.446V159.537H109.518V155.333Z" stroke="#263238" stroke-linejoin="round"/>
<path d="M115.629 155.333H111.558V159.537H115.629V155.333Z" stroke="#263238" stroke-linejoin="round"/>
<path d="M121.74 155.333H117.669V159.537H121.74V155.333Z" stroke="#263238" stroke-linejoin="round"/>
<path d="M97.2854 162.089H93.2139V166.293H97.2854V162.089Z" stroke="#263238" stroke-linejoin="round"/>
<path d="M103.405 162.089H99.333V166.293H103.405V162.089Z" stroke="#263238" stroke-linejoin="round"/>
<path d="M109.518 162.089H105.446V166.293H109.518V162.089Z" stroke="#263238" stroke-linejoin="round"/>
<path d="M115.629 162.089H111.558V166.293H115.629V162.089Z" stroke="#263238" stroke-linejoin="round"/>
<path d="M121.74 162.089H117.669V166.293H121.74V162.089Z" stroke="#263238" stroke-linejoin="round"/>
<path d="M60.739 159.705H30.4541V203.335H60.739V159.705Z" stroke="#263238" stroke-linejoin="round"/>
<path d="M55.2442 159.705H35.9463V203.335H55.2442V159.705Z" stroke="#263238" stroke-linejoin="round"/>
<path d="M55.2442 159.705H35.9463V173.209H55.2442V159.705Z" stroke="#263238" stroke-linejoin="round"/>
<path d="M326.758 55.4788H161.467C158.7 47.2513 157.266 38.6345 157.219 29.9543L157.14 15.4257C157.142 14.3372 157.575 13.294 158.345 12.5243C159.115 11.7546 160.158 11.3212 161.247 11.3188H326.97C327.511 11.3188 328.048 11.4259 328.548 11.634C329.048 11.842 329.502 12.1469 329.883 12.5311C330.265 12.9152 330.567 13.3711 330.772 13.8724C330.977 14.3738 331.08 14.9107 331.077 15.4522L330.98 30.1928C330.924 38.4924 329.596 46.7343 327.04 54.6309L326.758 55.4788Z" stroke="#263238" stroke-linejoin="round"/>
<path d="M316.08 48.7661H172.146V55.5137H316.08V48.7661Z" stroke="#263238" stroke-linejoin="round"/>
<path d="M286.369 69.6892C287.868 69.6906 289.35 69.3768 290.719 68.7682C292.089 68.1595 293.315 67.2697 294.318 66.1564L291.942 63.5068C291.231 64.3627 290.331 65.0425 289.314 65.493C288.296 65.9436 287.188 66.1526 286.076 66.1039C284.964 66.0551 283.879 65.7499 282.905 65.212C281.931 64.6742 281.094 63.9183 280.46 63.0034L277.961 65.5559C278.959 66.8353 280.234 67.8719 281.69 68.5878C283.147 69.3037 284.746 69.6802 286.369 69.6892Z" fill="#555555"/>
<path d="M286.37 64.099C287.176 64.0969 287.971 63.9057 288.691 63.5406C289.41 63.1756 290.034 62.6468 290.512 61.9969L287.968 59.1884C287.908 59.5958 287.695 59.9651 287.373 60.2216C287.05 60.478 286.643 60.6026 286.232 60.5701C285.822 60.5376 285.439 60.3504 285.161 60.0463C284.883 59.7423 284.731 59.3441 284.736 58.9323C284.722 58.8237 284.722 58.714 284.736 58.6055L281.874 61.5289C282.331 62.3149 282.987 62.9665 283.777 63.4178C284.566 63.869 285.46 64.104 286.37 64.099Z" fill="#555555"/>
<path d="M286.158 57.1831L285.999 57.3509C286.089 57.3276 286.18 57.3128 286.273 57.3068L286.158 57.1831Z" fill="#555555"/>
<path d="M299.59 72.0302C297.801 73.8481 295.656 75.2774 293.289 76.2288C290.923 77.1801 288.385 77.6331 285.835 77.5593C283.286 77.4855 280.779 76.8866 278.471 75.8C276.163 74.7134 274.104 73.1625 272.423 71.2441L269.941 73.7878C271.944 76.017 274.379 77.8154 277.098 79.0735C279.817 80.3315 282.764 81.0229 285.76 81.1056C288.755 81.1882 291.736 80.6603 294.52 79.5541C297.305 78.4479 299.835 76.7864 301.957 74.671L299.59 72.0302Z" fill="#555555"/>
<path d="M286.369 75.6864C288.598 75.6873 290.805 75.2416 292.859 74.3754C294.913 73.5092 296.772 72.2402 298.328 70.6434L295.952 67.9938C294.671 69.3534 293.115 70.4253 291.389 71.1385C289.662 71.8516 287.803 72.1897 285.936 72.1305C284.069 72.0712 282.236 71.6158 280.558 70.7946C278.88 69.9733 277.396 68.8049 276.203 67.3667L273.73 69.8926C275.298 71.7086 277.238 73.1659 279.419 74.1656C281.6 75.1653 283.97 75.684 286.369 75.6864Z" fill="#555555"/>
<path d="M378.681 310.855H290.025V321.86H378.681V310.855Z" stroke="#263238" stroke-linejoin="round"/>
<path d="M417.241 321.842H251.456V372.017H417.241V321.842Z" stroke="#263238" stroke-linejoin="round"/>
<path d="M412.825 325.048H255.872V368.811H412.825V325.048Z" stroke="#263238" stroke-linejoin="round"/>
<path d="M308.281 324.845V368.784" stroke="#263238" stroke-linejoin="round"/>
<path d="M359.7 324.845V368.784" stroke="#263238" stroke-linejoin="round"/>
<path d="M285.733 290.515H263.344V321.86H285.733V290.515Z" stroke="#263238" stroke-linejoin="round"/>
<path d="M404.947 290.515H382.558V321.86H404.947V290.515Z" stroke="#263238" stroke-linejoin="round"/>
<path d="M336.032 296.724C334.533 296.724 333.052 297.039 331.683 297.647C330.314 298.256 329.087 299.145 328.083 300.257L330.459 302.907C331.17 302.049 332.07 301.369 333.088 300.918C334.106 300.467 335.215 300.258 336.327 300.308C337.439 300.358 338.525 300.664 339.499 301.204C340.473 301.744 341.309 302.502 341.94 303.419L344.44 300.857C343.441 299.579 342.166 298.542 340.71 297.826C339.254 297.111 337.654 296.734 336.032 296.724Z" fill="#555555"/>
<path d="M336.031 302.323C335.224 302.324 334.428 302.514 333.707 302.878C332.986 303.241 332.361 303.768 331.88 304.416L334.423 307.225C334.484 306.818 334.697 306.448 335.019 306.192C335.341 305.935 335.749 305.811 336.159 305.843C336.57 305.876 336.953 306.063 337.231 306.367C337.508 306.671 337.66 307.069 337.656 307.481C337.669 307.59 337.669 307.699 337.656 307.808L340.518 304.885C340.06 304.101 339.405 303.453 338.617 303.003C337.83 302.553 336.938 302.319 336.031 302.323Z" fill="#555555"/>
<path d="M336.234 309.23L336.393 309.071C336.302 309.08 336.21 309.08 336.119 309.071L336.234 309.23Z" fill="#555555"/>
<path d="M322.81 294.384C324.6 292.567 326.744 291.139 329.11 290.189C331.476 289.238 334.012 288.786 336.561 288.859C339.109 288.933 341.615 289.532 343.922 290.617C346.229 291.703 348.288 293.253 349.969 295.17L352.451 292.626C350.445 290.402 348.009 288.609 345.29 287.355C342.571 286.1 339.625 285.411 336.632 285.328C333.638 285.246 330.659 285.772 327.875 286.874C325.091 287.977 322.56 289.633 320.435 291.743L322.81 294.384Z" fill="#555555"/>
<path d="M336.03 290.728C333.799 290.728 331.591 291.175 329.535 292.043C327.48 292.911 325.619 294.181 324.062 295.779L326.438 298.429C327.719 297.069 329.275 295.996 331.002 295.283C332.729 294.57 334.588 294.232 336.456 294.292C338.324 294.352 340.157 294.809 341.835 295.632C343.512 296.455 344.996 297.625 346.187 299.065L348.66 296.539C347.095 294.721 345.157 293.261 342.977 292.258C340.798 291.256 338.429 290.733 336.03 290.728Z" fill="#555555"/>
<path d="M412.463 30.6518C412.463 31.665 412.162 32.6554 411.6 33.4978C411.037 34.3402 410.237 34.9968 409.301 35.3845C408.365 35.7722 407.335 35.8736 406.341 35.676C405.347 35.4783 404.435 34.9904 403.718 34.274C403.002 33.5576 402.514 32.6449 402.316 31.6512C402.119 30.6575 402.22 29.6276 402.608 28.6915C402.995 27.7555 403.652 26.9555 404.494 26.3926C405.337 25.8297 406.327 25.5293 407.34 25.5293C408.699 25.5293 410.002 26.069 410.963 27.0297C411.923 27.9903 412.463 29.2933 412.463 30.6518Z" stroke="#263238" stroke-linejoin="round"/>
<path d="M420.022 68.5676H394.586V48.4925C394.586 46.8223 394.915 45.1685 395.554 43.6255C396.193 42.0825 397.13 40.6804 398.311 39.4994C399.492 38.3185 400.894 37.3817 402.437 36.7425C403.98 36.1034 405.634 35.7744 407.304 35.7744C408.974 35.7744 410.628 36.1034 412.171 36.7425C413.714 37.3817 415.116 38.3185 416.297 39.4994C417.478 40.6804 418.415 42.0825 419.054 43.6255C419.693 45.1685 420.022 46.8223 420.022 48.4925V68.5676Z" stroke="#263238" stroke-linejoin="round"/>
<path d="M407.34 25.5293V0.720215" stroke="#263238" stroke-width="2" stroke-linejoin="round"/>
<path d="M70.7353 30.6518C70.7353 31.665 70.4349 32.6554 69.872 33.4978C69.3092 34.3402 68.5091 34.9968 67.5731 35.3845C66.6371 35.7722 65.6071 35.8736 64.6134 35.676C63.6197 35.4783 62.707 34.9904 61.9906 34.274C61.2742 33.5576 60.7863 32.6449 60.5887 31.6512C60.391 30.6575 60.4925 29.6276 60.8802 28.6915C61.2679 27.7555 61.9245 26.9555 62.7669 26.3926C63.6093 25.8297 64.5996 25.5293 65.6128 25.5293C66.9714 25.5293 68.2743 26.069 69.235 27.0297C70.1956 27.9903 70.7353 29.2933 70.7353 30.6518Z" stroke="#263238" stroke-linejoin="round"/>
<path d="M78.3306 68.5676H52.8945V48.4925C52.8945 46.8223 53.2235 45.1685 53.8626 43.6255C54.5018 42.0825 55.4386 40.6804 56.6196 39.4994C57.8005 38.3185 59.2026 37.3817 60.7456 36.7425C62.2886 36.1034 63.9424 35.7744 65.6126 35.7744C67.2827 35.7744 68.9366 36.1034 70.4796 36.7425C72.0226 37.3817 73.4246 38.3185 74.6056 39.4994C75.7866 40.6804 76.7234 42.0825 77.3625 43.6255C78.0017 45.1685 78.3306 46.8223 78.3306 48.4925V68.5676Z" stroke="#263238" stroke-linejoin="round"/>
<path d="M65.6123 25.5293V0.720215" stroke="#263238" stroke-width="2" stroke-linejoin="round"/>
<path d="M95.7376 64.6021C95.7373 63.1038 95.4227 61.6222 94.8142 60.253C94.2057 58.8839 93.3167 57.6575 92.2048 56.6533L89.5552 59.0291C90.4127 59.7394 91.0939 60.6386 91.5455 61.6564C91.9971 62.6741 92.2068 63.7827 92.158 64.8951C92.1092 66.0074 91.8034 67.0934 91.2644 68.0677C90.7255 69.042 89.9681 69.8782 89.0518 70.5107L91.6042 73.0013C92.8829 72.0045 93.9192 70.7309 94.6351 69.2762C95.3509 67.8215 95.7279 66.2234 95.7376 64.6021Z" fill="#555555"/>
<path d="M90.139 64.6022C90.137 63.7942 89.9458 62.998 89.5808 62.2772C89.2158 61.5563 88.6871 60.931 88.037 60.4512L85.2284 62.9948C85.627 63.0669 85.9846 63.2845 86.2318 63.6054C86.4789 63.9263 86.5982 64.3275 86.5663 64.7313C86.5343 65.1351 86.3536 65.5126 86.0591 65.7907C85.7646 66.0687 85.3772 66.2275 84.9723 66.2361C84.8635 66.2448 84.7543 66.2448 84.6455 66.2361L87.5777 69.0889C88.3614 68.6322 89.0109 67.977 89.4606 67.1893C89.9103 66.4016 90.1443 65.5092 90.139 64.6022Z" fill="#555555"/>
<path d="M83.2227 64.8048L83.3905 64.9637C83.377 64.873 83.377 64.7807 83.3905 64.6899L83.2227 64.8048Z" fill="#555555"/>
<path d="M98.0791 51.3807C99.895 53.1705 101.322 55.3154 102.272 57.6816C103.222 60.0478 103.674 62.5844 103.599 65.1331C103.524 67.6817 102.925 70.1875 101.839 72.4941C100.752 74.8007 99.2017 76.8585 97.2842 78.539L99.8278 81.0296C102.052 79.0233 103.845 76.5864 105.1 73.8665C106.354 71.1467 107.044 68.2005 107.126 65.2064C107.209 62.2123 106.683 59.2326 105.58 56.4477C104.477 53.6629 102.821 51.1308 100.711 49.0049L98.0791 51.3807Z" fill="#555555"/>
<path d="M101.736 64.6016C101.735 62.3706 101.288 60.1623 100.42 58.107C99.5527 56.0516 98.2823 54.1908 96.6839 52.6343L94.0343 55.0101C95.3949 56.2919 96.4674 57.8483 97.1807 59.5761C97.894 61.304 98.2318 63.1637 98.1717 65.0321C98.1116 66.9004 97.6549 68.7346 96.832 70.4129C96.009 72.0913 94.8386 73.5756 93.3984 74.7672L95.9244 77.2313C97.7433 75.6671 99.2039 73.7293 100.207 71.5499C101.21 69.3705 101.731 67.0007 101.736 64.6016Z" fill="#555555"/>
<path d="M410.617 117.788H262.911V216.829H410.617V117.788Z" stroke="#263238" stroke-linejoin="round"/>
<path d="M406.608 121.965H266.921V212.643H406.608V121.965Z" stroke="#263238" stroke-linejoin="round"/>
<path d="M336.032 104.187C334.533 104.187 333.052 104.501 331.683 105.11C330.314 105.718 329.087 106.607 328.083 107.719L330.459 110.369C331.17 109.512 332.07 108.831 333.088 108.38C334.106 107.93 335.215 107.721 336.327 107.77C337.439 107.82 338.525 108.127 339.499 108.666C340.473 109.206 341.309 109.964 341.94 110.881L344.44 108.32C343.441 107.041 342.166 106.005 340.71 105.289C339.254 104.573 337.654 104.196 336.032 104.187Z" fill="#555555"/>
<path d="M336.031 109.786C335.224 109.787 334.428 109.977 333.707 110.34C332.986 110.703 332.361 111.23 331.88 111.879L334.423 114.687C334.484 114.28 334.697 113.911 335.019 113.654C335.341 113.398 335.749 113.273 336.159 113.306C336.57 113.338 336.953 113.525 337.231 113.83C337.508 114.134 337.66 114.532 337.656 114.944C337.669 115.052 337.669 115.162 337.656 115.27L340.518 112.347C340.06 111.564 339.405 110.915 338.617 110.465C337.83 110.016 336.938 109.781 336.031 109.786Z" fill="#555555"/>
<path d="M336.234 116.693L336.393 116.534H336.119L336.234 116.693Z" fill="#555555"/>
<path d="M322.808 101.846C324.598 100.03 326.742 98.6015 329.108 97.651C331.474 96.7005 334.01 96.248 336.559 96.3217C339.107 96.3955 341.614 96.994 343.92 98.0797C346.227 99.1655 348.286 100.715 349.967 102.632L352.449 100.089C350.443 97.8649 348.007 96.0715 345.288 94.817C342.569 93.5626 339.623 92.8732 336.63 92.7906C333.636 92.7081 330.657 93.234 327.873 94.3366C325.089 95.4393 322.558 97.0956 320.433 99.2053L322.808 101.846Z" fill="#555555"/>
<path d="M336.031 98.1899C333.8 98.1905 331.592 98.6378 329.536 99.5054C327.481 100.373 325.62 101.644 324.063 103.242L326.439 105.891C327.72 104.531 329.276 103.459 331.003 102.745C332.73 102.032 334.589 101.694 336.457 101.755C338.325 101.815 340.158 102.271 341.836 103.094C343.513 103.917 344.997 105.087 346.188 106.527L348.661 104.001C347.096 102.183 345.158 100.723 342.978 99.7206C340.799 98.7179 338.43 98.1958 336.031 98.1899Z" fill="#555555"/>
<path d="M200.68 96.9712L200.442 159.722L163.232 111.297" stroke="#263238" stroke-miterlimit="10" stroke-dasharray="2 2"/>
<path d="M145.709 174.569L198.701 160.288L145.427 140.089" stroke="#263238" stroke-miterlimit="10" stroke-dasharray="2 2"/>
<path d="M198.692 160.288L167.683 200.65" stroke="#263238" stroke-miterlimit="10" stroke-dasharray="2 2"/>
<path d="M201.872 99.2852H200.989" stroke="#263238" stroke-miterlimit="10"/>
<path d="M199.223 99.3027C197.977 99.3027 196.714 99.4087 195.451 99.5235C183.678 100.612 172.529 105.313 163.532 112.983C154.534 120.654 148.128 130.918 145.19 142.37C142.252 153.823 142.926 165.904 147.121 176.958C151.315 188.012 158.824 197.5 168.62 204.121" stroke="#263238" stroke-miterlimit="10" stroke-dasharray="2.01 2.01"/>
<path d="M169.362 204.606L170.104 205.092" stroke="#263238" stroke-miterlimit="10"/>
<path d="M158.402 141.052C158.404 138.585 157.674 136.173 156.305 134.121C154.936 132.069 152.989 130.469 150.71 129.524C148.432 128.579 145.924 128.331 143.504 128.811C141.085 129.291 138.862 130.478 137.117 132.222C135.372 133.965 134.183 136.188 133.701 138.607C133.219 141.026 133.466 143.534 134.409 145.813C135.353 148.093 136.951 150.041 139.002 151.411C141.053 152.782 143.465 153.514 145.932 153.514C147.569 153.516 149.191 153.195 150.705 152.57C152.218 151.945 153.594 151.027 154.752 149.869C155.91 148.712 156.829 147.337 157.455 145.824C158.082 144.311 158.404 142.689 158.402 141.052Z" fill="#555555"/>
<path d="M146.071 148.957C145.318 148.951 144.582 148.725 143.955 148.308C143.328 147.891 142.835 147.3 142.539 146.607C142.539 146.537 142.477 146.439 142.441 146.342L142.38 146.157C141.956 144.85 141.417 143.507 141.329 143.322C140.89 142.591 140.627 141.769 140.561 140.92C140.494 140.07 140.627 139.217 140.947 138.427C141.267 137.638 141.767 136.934 142.406 136.37C143.045 135.807 143.807 135.4 144.631 135.182C145.454 134.964 146.317 134.94 147.152 135.113C147.986 135.286 148.769 135.65 149.438 136.178C150.107 136.705 150.644 137.381 151.007 138.152C151.37 138.923 151.549 139.767 151.529 140.619C151.514 141.446 151.327 142.261 150.982 143.013C150.841 143.348 150.682 143.666 150.523 143.993C150.309 144.382 150.126 144.786 149.975 145.203C149.916 145.38 149.863 145.556 149.816 145.733C149.705 146.165 149.545 146.582 149.339 146.978C149.024 147.572 148.553 148.07 147.978 148.418C147.403 148.766 146.744 148.952 146.071 148.957ZM146.071 136.318C144.939 136.332 143.858 136.791 143.061 137.596C142.264 138.401 141.817 139.487 141.814 140.619C141.818 141.375 142.016 142.117 142.388 142.774V142.836C142.388 142.898 143.015 144.32 143.501 145.812C143.501 145.874 143.501 145.918 143.545 145.963C143.563 146.014 143.583 146.064 143.607 146.113C143.811 146.603 144.155 147.023 144.597 147.318C145.039 147.614 145.558 147.772 146.089 147.773C146.558 147.776 147.018 147.648 147.419 147.405C147.819 147.162 148.145 146.812 148.359 146.395C148.519 146.081 148.64 145.749 148.721 145.406C148.774 145.212 148.836 145.018 148.906 144.814C149.075 144.346 149.279 143.892 149.516 143.454C149.657 143.163 149.807 142.863 149.94 142.571C150.217 141.963 150.371 141.305 150.39 140.637C150.392 140.07 150.283 139.508 150.067 138.983C149.851 138.459 149.534 137.982 149.134 137.581C148.733 137.179 148.257 136.861 147.733 136.645C147.209 136.428 146.647 136.317 146.08 136.318H146.071Z" fill="#263238"/>
<path d="M146.091 134.807C145.933 134.807 145.782 134.745 145.669 134.635C145.557 134.524 145.493 134.373 145.49 134.216V131.434C145.49 131.277 145.553 131.126 145.664 131.015C145.775 130.904 145.925 130.842 146.082 130.842C146.239 130.842 146.389 130.904 146.5 131.015C146.611 131.126 146.674 131.277 146.674 131.434V134.18C146.679 134.26 146.667 134.34 146.64 134.416C146.613 134.491 146.571 134.56 146.516 134.619C146.462 134.677 146.396 134.724 146.323 134.757C146.25 134.789 146.171 134.806 146.091 134.807Z" fill="#263238"/>
<path d="M139.474 141.193H137.328C137.182 141.175 137.048 141.105 136.951 140.995C136.853 140.885 136.8 140.743 136.8 140.597C136.8 140.45 136.853 140.308 136.951 140.199C137.048 140.089 137.182 140.018 137.328 140.001H139.483C139.567 139.99 139.653 139.998 139.734 140.023C139.815 140.048 139.89 140.091 139.954 140.147C140.017 140.203 140.068 140.273 140.103 140.35C140.138 140.428 140.156 140.512 140.156 140.597C140.156 140.682 140.138 140.766 140.103 140.843C140.068 140.921 140.017 140.99 139.954 141.046C139.89 141.103 139.815 141.145 139.734 141.17C139.653 141.195 139.567 141.203 139.483 141.193H139.474Z" fill="#263238"/>
<path d="M154.691 141.202H152.536C152.379 141.202 152.229 141.14 152.118 141.029C152.007 140.918 151.944 140.767 151.944 140.61C151.944 140.453 152.007 140.303 152.118 140.192C152.229 140.081 152.379 140.019 152.536 140.019H154.691C154.848 140.019 154.999 140.081 155.11 140.192C155.22 140.303 155.283 140.453 155.283 140.61C155.281 140.767 155.217 140.916 155.107 141.026C154.996 141.137 154.847 141.2 154.691 141.202Z" fill="#263238"/>
<path d="M141.038 136.291C140.961 136.292 140.885 136.278 140.814 136.249C140.743 136.22 140.678 136.177 140.623 136.123L138.91 134.41C138.848 134.354 138.798 134.286 138.764 134.21C138.73 134.134 138.712 134.052 138.712 133.968C138.712 133.885 138.73 133.803 138.764 133.726C138.798 133.65 138.848 133.582 138.91 133.527C139.022 133.417 139.173 133.356 139.329 133.356C139.486 133.356 139.637 133.417 139.749 133.527L141.453 135.24C141.535 135.323 141.591 135.429 141.613 135.544C141.635 135.659 141.622 135.777 141.577 135.885C141.532 135.993 141.456 136.084 141.358 136.149C141.261 136.213 141.146 136.247 141.029 136.247L141.038 136.291Z" fill="#263238"/>
<path d="M151.283 136.3C151.124 136.299 150.972 136.236 150.859 136.124C150.75 136.011 150.688 135.861 150.688 135.704C150.688 135.547 150.75 135.397 150.859 135.285L152.573 133.58C152.684 133.469 152.835 133.406 152.992 133.406C153.15 133.406 153.3 133.469 153.412 133.58C153.523 133.691 153.586 133.842 153.586 134C153.586 134.157 153.523 134.308 153.412 134.419L151.698 136.124C151.589 136.235 151.439 136.299 151.283 136.3Z" fill="#263238"/>
<path d="M177.708 113.567C177.729 111.1 177.017 108.682 175.664 106.62C174.311 104.557 172.376 102.942 170.105 101.98C167.834 101.017 165.328 100.749 162.905 101.21C160.482 101.672 158.25 102.841 156.491 104.571C154.733 106.301 153.527 108.514 153.026 110.929C152.525 113.345 152.752 115.855 153.678 118.141C154.604 120.428 156.187 122.388 158.227 123.775C160.267 125.162 162.673 125.912 165.14 125.931C168.446 125.957 171.627 124.669 173.983 122.351C176.34 120.032 177.68 116.873 177.708 113.567Z" fill="#555555"/>
<path d="M165.219 120.5C163.622 120.447 162.09 119.855 160.872 118.819C159.655 117.784 158.825 116.366 158.518 114.798C158.21 113.229 158.444 111.603 159.179 110.185C159.915 108.766 161.11 107.639 162.57 106.987C162.692 106.923 162.827 106.885 162.966 106.875C163.104 106.866 163.243 106.886 163.373 106.933C163.503 106.98 163.622 107.054 163.723 107.15C163.823 107.246 163.902 107.362 163.955 107.49C164.008 107.618 164.033 107.756 164.03 107.894C164.027 108.033 163.995 108.169 163.936 108.295C163.877 108.42 163.793 108.532 163.688 108.623C163.584 108.714 163.461 108.783 163.329 108.824C162.264 109.26 161.38 110.046 160.824 111.053C160.268 112.06 160.073 113.227 160.271 114.361C160.469 115.494 161.049 116.525 161.914 117.284C162.779 118.042 163.878 118.482 165.027 118.53C166.176 118.578 167.308 118.232 168.233 117.549C169.159 116.866 169.823 115.887 170.116 114.774C170.408 113.662 170.312 112.482 169.842 111.432C169.372 110.382 168.558 109.524 167.533 109.001C167.337 108.864 167.196 108.66 167.137 108.428C167.078 108.196 167.104 107.95 167.212 107.736C167.319 107.522 167.499 107.353 167.721 107.261C167.942 107.169 168.189 107.159 168.416 107.234C169.775 107.985 170.849 109.162 171.472 110.585C172.094 112.007 172.231 113.594 171.861 115.102C171.491 116.61 170.635 117.954 169.425 118.926C168.215 119.899 166.718 120.446 165.166 120.482L165.219 120.5Z" fill="#263238"/>
<path d="M165.281 112.286C165.018 112.281 164.767 112.173 164.584 111.984C164.4 111.796 164.298 111.542 164.301 111.279V105.256C164.301 104.991 164.406 104.737 164.593 104.55C164.78 104.363 165.034 104.258 165.299 104.258C165.564 104.258 165.817 104.363 166.005 104.55C166.192 104.737 166.297 104.991 166.297 105.256L166.244 111.288C166.244 111.547 166.144 111.795 165.964 111.982C165.785 112.168 165.54 112.277 165.281 112.286Z" fill="#263238"/>
<path d="M173.275 213.332C179.434 210.251 181.929 202.759 178.847 196.6C175.766 190.44 168.274 187.945 162.115 191.027C155.955 194.109 153.46 201.6 156.542 207.76C159.624 213.919 167.115 216.414 173.275 213.332Z" fill="#555555"/>
<path d="M171.792 198.786H167.649V196.402C167.649 195.519 167.3 194.673 166.678 194.047C166.056 193.422 165.211 193.068 164.329 193.063H164.143C163.706 193.061 163.273 193.145 162.869 193.31C162.465 193.475 162.097 193.719 161.787 194.026C161.477 194.334 161.23 194.7 161.062 195.103C160.893 195.506 160.806 195.938 160.805 196.375V199.396C160.805 199.553 160.867 199.703 160.978 199.814C161.089 199.925 161.239 199.987 161.396 199.987C161.553 199.987 161.704 199.925 161.815 199.814C161.926 199.703 161.988 199.553 161.988 199.396V196.375C161.993 195.809 162.221 195.268 162.623 194.869C163.025 194.47 163.568 194.246 164.134 194.247H164.329C164.895 194.251 165.436 194.479 165.835 194.881C166.233 195.283 166.457 195.827 166.457 196.393V198.777H164.594C164.235 198.777 163.892 198.92 163.638 199.173C163.385 199.427 163.242 199.77 163.242 200.129V207.318C163.241 207.495 163.275 207.671 163.342 207.836C163.409 208 163.507 208.15 163.632 208.276C163.757 208.402 163.905 208.503 164.068 208.572C164.232 208.641 164.407 208.677 164.585 208.678H171.783C172.141 208.678 172.485 208.536 172.738 208.282C172.992 208.029 173.134 207.685 173.134 207.327V200.137C173.132 199.781 172.99 199.44 172.739 199.188C172.488 198.935 172.148 198.791 171.792 198.786ZM171.924 207.336C171.924 207.357 171.92 207.379 171.911 207.398C171.903 207.418 171.89 207.436 171.875 207.451C171.859 207.466 171.84 207.478 171.82 207.485C171.8 207.492 171.778 207.496 171.756 207.494H164.567C164.524 207.495 164.483 207.478 164.451 207.449C164.42 207.419 164.402 207.378 164.399 207.336V200.137C164.402 200.095 164.42 200.054 164.451 200.024C164.483 199.995 164.524 199.978 164.567 199.978H171.765C171.807 199.978 171.848 199.995 171.878 200.025C171.907 200.055 171.924 200.095 171.924 200.137V207.336Z" fill="#263238"/>
<path d="M168.179 202.001C167.95 202.005 167.728 202.086 167.552 202.232C167.375 202.378 167.254 202.58 167.207 202.805C167.161 203.029 167.193 203.263 167.297 203.467C167.401 203.671 167.572 203.833 167.781 203.927V205.623H168.558V203.962C168.772 203.872 168.948 203.71 169.057 203.505C169.165 203.3 169.199 203.064 169.153 202.836C169.108 202.609 168.985 202.404 168.806 202.257C168.626 202.11 168.402 202.029 168.17 202.028L168.179 202.001Z" fill="#263238"/>
<path d="M149.51 186.457C156.068 184.354 159.68 177.332 157.577 170.774C155.474 164.216 148.452 160.604 141.894 162.707C135.335 164.81 131.724 171.832 133.827 178.39C135.93 184.949 142.951 188.56 149.51 186.457Z" fill="#555555"/>
<path d="M147.159 174.772L147.256 168.316C147.265 167.669 147.018 167.046 146.567 166.582C146.116 166.118 145.5 165.852 144.854 165.843C144.207 165.834 143.583 166.081 143.12 166.532C142.656 166.983 142.39 167.599 142.381 168.245V168.749H140.915C140.733 168.749 140.558 168.82 140.427 168.947C140.297 169.074 140.221 169.247 140.217 169.429C140.216 169.518 140.232 169.607 140.265 169.69C140.298 169.773 140.347 169.848 140.41 169.912C140.472 169.976 140.546 170.027 140.629 170.063C140.711 170.098 140.799 170.117 140.888 170.118H142.363V171.125H140.897C140.807 171.122 140.717 171.138 140.633 171.17C140.549 171.203 140.473 171.252 140.408 171.314C140.343 171.377 140.291 171.451 140.255 171.534C140.219 171.617 140.2 171.706 140.199 171.796C140.199 171.976 140.269 172.15 140.394 172.28C140.519 172.41 140.69 172.487 140.87 172.494H142.345V173.509H140.879C140.711 173.528 140.556 173.609 140.443 173.735C140.331 173.861 140.268 174.024 140.268 174.194C140.268 174.363 140.331 174.526 140.443 174.652C140.556 174.779 140.711 174.859 140.879 174.878H142.231C141.497 175.422 140.955 176.186 140.683 177.058C140.411 177.931 140.424 178.867 140.719 179.732C141.014 180.596 141.576 181.345 142.325 181.869C143.073 182.394 143.968 182.667 144.882 182.649C145.796 182.631 146.68 182.324 147.407 181.771C148.134 181.218 148.667 180.448 148.928 179.572C149.19 178.696 149.166 177.761 148.86 176.899C148.555 176.038 147.984 175.296 147.229 174.781L147.159 174.772ZM144.686 181.246C143.907 181.227 143.168 180.901 142.63 180.338C142.092 179.775 141.799 179.022 141.815 178.243C141.82 177.728 141.962 177.224 142.228 176.783C142.494 176.342 142.873 175.98 143.326 175.735L143.661 175.541L143.767 168.245C143.774 167.96 143.893 167.689 144.098 167.491C144.303 167.293 144.577 167.183 144.863 167.185C145.003 167.188 145.141 167.218 145.27 167.274C145.399 167.329 145.515 167.41 145.613 167.511C145.711 167.612 145.787 167.731 145.839 167.861C145.891 167.992 145.916 168.131 145.914 168.272L145.808 175.523L146.17 175.726C146.744 176.041 147.196 176.539 147.454 177.141C147.712 177.743 147.761 178.414 147.593 179.047C147.426 179.68 147.051 180.239 146.529 180.634C146.007 181.03 145.367 181.239 144.712 181.228L144.686 181.246Z" fill="#263238"/>
<path d="M151.096 167.521C150.557 167.514 150.027 167.667 149.575 167.961C149.123 168.254 148.767 168.675 148.554 169.171C148.341 169.666 148.279 170.214 148.377 170.744C148.475 171.275 148.728 171.764 149.104 172.151C149.479 172.538 149.961 172.805 150.489 172.918C151.016 173.031 151.565 172.985 152.067 172.787C152.568 172.588 152.999 172.245 153.306 171.802C153.613 171.358 153.781 170.833 153.79 170.294C153.796 169.935 153.731 169.578 153.598 169.244C153.466 168.91 153.269 168.606 153.019 168.348C152.768 168.09 152.47 167.885 152.14 167.743C151.81 167.601 151.455 167.525 151.096 167.521ZM151.034 171.619C150.762 171.617 150.497 171.534 150.272 171.38C150.047 171.227 149.873 171.01 149.772 170.757C149.671 170.504 149.648 170.227 149.706 169.961C149.763 169.695 149.899 169.452 150.095 169.263C150.291 169.074 150.539 168.948 150.807 168.901C151.075 168.854 151.352 168.888 151.6 168.999C151.849 169.11 152.059 169.292 152.204 169.523C152.348 169.753 152.421 170.022 152.412 170.294C152.398 170.65 152.247 170.987 151.99 171.234C151.733 171.481 151.391 171.619 151.034 171.619Z" fill="#263238"/>
<path d="M212.668 105.493C214.528 98.8611 210.66 91.9772 204.029 90.117C197.398 88.2567 190.514 92.1245 188.653 98.7559C186.793 105.387 190.661 112.271 197.292 114.131C203.924 115.992 210.808 112.124 212.668 105.493Z" fill="#555555"/>
<path d="M206.58 103.869V96.0439V95.4874C206.58 95.1353 206.44 94.7974 206.192 94.5475C205.944 94.2977 205.607 94.1561 205.255 94.1538H197.368C197.017 94.1538 196.681 94.2919 196.431 94.5382C196.181 94.7845 196.039 95.1191 196.034 95.4698V97.3863V102.474C195.511 102.18 194.921 102.025 194.321 102.023C193.773 102.093 193.258 102.319 192.836 102.674C192.413 103.029 192.102 103.498 191.94 104.025C191.777 104.552 191.77 105.115 191.919 105.646C192.068 106.177 192.367 106.654 192.78 107.02C193.193 107.385 193.703 107.624 194.248 107.708C194.794 107.791 195.351 107.716 195.855 107.491C196.359 107.265 196.787 106.9 197.088 106.438C197.389 105.976 197.551 105.436 197.553 104.885C197.549 104.532 197.474 104.184 197.332 103.86V98.72L205.219 98.7641V102.527C204.694 102.238 204.105 102.084 203.506 102.076C202.959 102.144 202.442 102.368 202.019 102.722C201.595 103.076 201.283 103.544 201.119 104.071C200.955 104.598 200.946 105.16 201.093 105.692C201.241 106.224 201.539 106.702 201.951 107.068C202.363 107.435 202.872 107.676 203.417 107.761C203.962 107.846 204.52 107.772 205.024 107.548C205.528 107.324 205.957 106.96 206.26 106.498C206.562 106.037 206.725 105.498 206.73 104.946C206.759 104.581 206.708 104.213 206.58 103.869ZM194.303 106.368C194.01 106.302 193.743 106.153 193.531 105.941C193.319 105.728 193.171 105.46 193.105 105.167C193.04 104.874 193.058 104.569 193.159 104.286C193.259 104.003 193.438 103.754 193.674 103.569C193.91 103.383 194.193 103.268 194.492 103.237C194.791 103.206 195.092 103.26 195.361 103.393C195.63 103.526 195.856 103.733 196.013 103.989C196.169 104.245 196.25 104.54 196.246 104.841C196.186 105.299 195.95 105.715 195.586 106.001C195.223 106.287 194.762 106.419 194.303 106.368ZM205.299 97.3952L197.35 97.3333V95.3903L205.299 95.461V97.3952ZM203.533 106.421C203.241 106.353 202.975 106.204 202.764 105.991C202.554 105.778 202.408 105.51 202.343 105.218C202.278 104.926 202.297 104.621 202.397 104.339C202.498 104.057 202.676 103.81 202.911 103.624C203.146 103.439 203.429 103.324 203.727 103.293C204.025 103.261 204.325 103.314 204.594 103.446C204.863 103.577 205.089 103.782 205.246 104.037C205.404 104.291 205.486 104.585 205.484 104.885C205.427 105.345 205.191 105.763 204.827 106.051C204.464 106.338 204.002 106.471 203.541 106.421H203.533Z" fill="#263238"/>
<path d="M267.379 149.362C267.379 149.362 271.618 151.244 273.27 155.244C274.921 159.245 289.044 195.509 289.512 198.336C289.98 201.162 274.444 226.598 274.444 226.598L269.966 222.359L274.912 201.639L268.553 186.333L265.021 181.387" fill="#555555"/>
<path d="M267.379 149.362C267.379 149.362 271.618 151.244 273.27 155.244C274.921 159.245 289.044 195.509 289.512 198.336C289.98 201.162 274.444 226.598 274.444 226.598L269.966 222.359L274.912 201.639L268.553 186.333L265.021 181.387" stroke="#263238" stroke-linejoin="round"/>
<path d="M285.777 207.009C279.851 204.2 275.302 205.666 273.81 206.32L269.977 222.35L274.454 226.589C274.454 226.589 281.299 215.337 285.777 207.009Z" fill="#FFBDA7" stroke="#FFBDA7" stroke-linejoin="round"/>
<path d="M268.112 222.279C268.112 222.279 274.294 234.565 273.526 239.263C272.757 243.962 270.647 343.013 270.647 343.013L257.063 343.534L244.266 245.799L240.6 246.32L234.594 344.576L219.439 342.226L214.731 246.064L213.945 224.629L268.112 222.279Z" fill="#263238" stroke="#263238" stroke-linejoin="round"/>
<path d="M218.389 299.63C219.045 299.524 219.668 299.267 220.208 298.879C220.888 298.296 220.791 298.296 222.337 299.842C223.882 301.387 223.494 302.059 224.748 301.096C226.002 300.133 225.71 299.745 226.965 301.193C228.219 302.642 227.936 303.127 229.667 302.836C231.398 302.544 231.698 302.059 231.698 303.507C231.698 304.956 231.407 305.344 232.175 305.636C233.079 305.924 233.883 306.46 234.498 307.181C235.072 307.95 235.381 307.561 235.655 308.435C235.832 308.953 236.136 309.417 236.538 309.787L218.389 299.63Z" fill="#5E5E5E" stroke="#263238" stroke-linejoin="round"/>
<path d="M218.468 299.939C219.18 300.987 219.673 302.167 219.916 303.41C220.208 305.247 219.634 306.696 220.596 307.561C221.559 308.427 222.142 308.047 222.363 308.816C222.583 309.584 222.071 310.361 222.557 310.653C223.043 310.944 224.968 309.69 224.968 310.264C224.968 310.838 224.774 311.147 225.542 310.847C226.311 310.547 226.319 309.593 226.796 310.555C227.273 311.518 227.68 312.772 227.962 312.587C228.839 311.946 229.868 311.545 230.947 311.421C231.584 311.382 232.218 311.517 232.784 311.81C233.076 311.907 233.553 312.393 233.844 311.907C234.136 311.421 236.715 310.087 236.715 310.087L218.468 299.939Z" fill="#5E5E5E" stroke="#263238" stroke-linejoin="round"/>
<path d="M218.389 299.63L236.689 310.087C236.689 310.087 223.361 310.864 218.389 299.63Z" fill="#FFBDA7" stroke="#FFBDA7" stroke-linejoin="round"/>
<path d="M252.69 284.51C252.889 283.876 252.935 283.204 252.823 282.549C252.602 281.666 252.558 281.772 254.633 281.074C256.709 280.376 257.133 281.03 256.824 279.475C256.515 277.921 256.047 278.009 257.901 277.532C259.756 277.055 260.056 277.532 260.551 275.837C261.045 274.141 260.754 273.682 262.052 274.326C263.351 274.971 263.571 275.395 264.172 274.839C264.833 274.162 265.667 273.679 266.583 273.443C267.537 273.275 267.316 272.843 268.226 272.966C268.765 273.041 269.314 272.98 269.824 272.79L252.69 284.51Z" fill="#5E5E5E" stroke="#263238" stroke-linejoin="round"/>
<path d="M253.001 284.58C254.256 284.411 255.533 284.495 256.755 284.827C258.521 285.384 259.572 286.55 260.773 286.064C261.974 285.578 261.895 284.898 262.672 285.066C263.449 285.234 263.926 286.02 264.438 285.711C264.951 285.402 264.642 283.123 265.163 283.379C265.684 283.635 265.86 283.935 265.94 283.114C266.019 282.293 265.163 281.869 266.24 281.869C267.318 281.869 268.616 282.072 268.572 281.727C268.395 280.654 268.495 279.554 268.863 278.53C269.107 277.942 269.511 277.434 270.029 277.064C270.241 276.843 270.912 276.631 270.585 276.181C270.259 275.731 270.223 272.807 270.223 272.807L253.001 284.58Z" fill="#5E5E5E" stroke="#263238" stroke-linejoin="round"/>
<path d="M252.69 284.509L270.187 272.745C270.187 272.745 264.967 285.11 252.69 284.509Z" fill="#FFBDA7" stroke="#FFBDA7" stroke-linejoin="round"/>
<path d="M219.96 340.655C219.96 340.655 216.039 341.962 216.039 343.534C216.039 345.106 217.867 358.168 217.867 358.168C217.867 358.168 208.982 363.132 208.205 364.439C207.428 365.746 207.94 372.017 207.94 372.017H234.595C234.595 372.017 235.381 365.481 235.381 363.132C235.263 360.854 235 358.585 234.595 356.34L236.158 343.013C236.158 343.013 228.58 337.263 219.96 340.655Z" fill="white" stroke="#263238" stroke-linejoin="round"/>
<path d="M207.94 372.017H234.595C234.595 372.017 234.763 370.612 234.94 368.881H207.781C207.817 370.542 207.94 372.017 207.94 372.017Z" fill="white" stroke="#263238" stroke-linejoin="round"/>
<path d="M230.938 339.612C228.871 337.692 226.181 336.579 223.361 336.477C218.945 336.477 217.09 339.127 217.09 339.127L219.739 352.189H226.805L230.938 339.612Z" fill="white" stroke="#263238" stroke-linejoin="round"/>
<path d="M227.794 353.364H218.786C218.591 353.364 218.403 353.287 218.264 353.15C218.125 353.013 218.046 352.826 218.044 352.631C218.046 352.435 218.125 352.248 218.264 352.109C218.402 351.97 218.59 351.891 218.786 351.889H227.794C227.99 351.891 228.176 351.971 228.313 352.11C228.451 352.248 228.528 352.436 228.528 352.631C228.528 352.825 228.45 353.012 228.313 353.149C228.175 353.287 227.989 353.364 227.794 353.364Z" fill="white" stroke="#263238" stroke-linejoin="round"/>
<path d="M227.794 355.165H218.786C218.591 355.165 218.403 355.088 218.264 354.951C218.125 354.814 218.046 354.628 218.044 354.432C218.046 354.236 218.125 354.049 218.264 353.91C218.402 353.772 218.59 353.693 218.786 353.69H227.794C227.99 353.693 228.176 353.772 228.313 353.911C228.451 354.05 228.528 354.237 228.528 354.432C228.528 354.627 228.45 354.813 228.313 354.951C228.175 355.088 227.989 355.165 227.794 355.165Z" fill="white" stroke="#263238" stroke-linejoin="round"/>
<path d="M227.794 356.967H218.786C218.591 356.967 218.403 356.89 218.264 356.753C218.125 356.616 218.046 356.429 218.044 356.234C218.046 356.038 218.125 355.851 218.264 355.712C218.402 355.573 218.59 355.494 218.786 355.492H227.794C227.99 355.495 228.176 355.574 228.313 355.713C228.451 355.851 228.528 356.039 228.528 356.234C228.528 356.428 228.45 356.615 228.313 356.752C228.175 356.89 227.989 356.967 227.794 356.967Z" fill="white" stroke="#263238" stroke-linejoin="round"/>
<path d="M227.794 358.769H218.786C218.591 358.769 218.403 358.692 218.264 358.555C218.125 358.417 218.046 358.231 218.044 358.036C218.046 357.84 218.125 357.652 218.264 357.514C218.402 357.375 218.59 357.296 218.786 357.294H227.794C227.99 357.296 228.176 357.375 228.313 357.514C228.451 357.653 228.528 357.841 228.528 358.036C228.528 358.23 228.45 358.417 228.313 358.554C228.175 358.692 227.989 358.769 227.794 358.769Z" fill="white" stroke="#263238" stroke-linejoin="round"/>
<path d="M271.273 340.655C271.273 340.655 275.186 341.962 275.186 343.534C275.186 345.106 273.357 358.168 273.357 358.168C273.357 358.168 282.242 363.132 283.029 364.439C283.815 365.746 283.293 372.017 283.293 372.017H256.63C256.63 372.017 255.844 365.481 255.844 363.132C255.962 360.854 256.224 358.585 256.63 356.34L255.058 343.013C255.058 343.013 262.644 337.263 271.273 340.655Z" fill="white" stroke="#263238" stroke-linejoin="round"/>
<path d="M283.295 372.017H256.632C256.632 372.017 256.464 370.612 256.278 368.881H283.445C283.41 370.542 283.295 372.017 283.295 372.017Z" fill="white" stroke="#263238" stroke-linejoin="round"/>
<path d="M260.296 339.612C262.364 337.692 265.053 336.579 267.874 336.477C272.29 336.477 274.144 339.127 274.144 339.127L271.495 352.189H264.429L260.296 339.612Z" fill="white" stroke="#263238" stroke-linejoin="round"/>
<path d="M272.342 353.364H263.334C263.138 353.364 262.951 353.287 262.812 353.15C262.673 353.013 262.594 352.826 262.592 352.631C262.594 352.435 262.673 352.248 262.812 352.109C262.95 351.97 263.138 351.891 263.334 351.889H272.342C272.538 351.891 272.724 351.971 272.861 352.11C272.998 352.248 273.075 352.436 273.075 352.631C273.075 352.825 272.998 353.012 272.861 353.149C272.723 353.287 272.537 353.364 272.342 353.364Z" fill="white" stroke="#263238" stroke-linejoin="round"/>
<path d="M272.342 355.165H263.334C263.138 355.165 262.951 355.088 262.812 354.951C262.673 354.814 262.594 354.628 262.592 354.432C262.594 354.236 262.673 354.049 262.812 353.91C262.95 353.772 263.138 353.693 263.334 353.69H272.342C272.538 353.693 272.724 353.772 272.861 353.911C272.998 354.05 273.075 354.237 273.075 354.432C273.075 354.627 272.998 354.813 272.861 354.951C272.723 355.088 272.537 355.165 272.342 355.165Z" fill="white" stroke="#263238" stroke-linejoin="round"/>
<path d="M272.342 356.967H263.334C263.138 356.967 262.951 356.89 262.812 356.753C262.673 356.616 262.594 356.429 262.592 356.234C262.594 356.038 262.673 355.851 262.812 355.712C262.95 355.573 263.138 355.494 263.334 355.492H272.342C272.538 355.495 272.724 355.574 272.861 355.713C272.998 355.851 273.075 356.039 273.075 356.234C273.075 356.428 272.998 356.615 272.861 356.752C272.723 356.89 272.537 356.967 272.342 356.967Z" fill="white" stroke="#263238" stroke-linejoin="round"/>
<path d="M272.342 358.769H263.334C263.138 358.769 262.951 358.692 262.812 358.555C262.673 358.417 262.594 358.231 262.592 358.036C262.594 357.84 262.673 357.652 262.812 357.514C262.95 357.375 263.138 357.296 263.334 357.294H272.342C272.538 357.296 272.724 357.375 272.861 357.514C272.998 357.653 273.075 357.841 273.075 358.036C273.075 358.23 272.998 358.417 272.861 358.554C272.723 358.692 272.537 358.769 272.342 358.769Z" fill="white" stroke="#263238" stroke-linejoin="round"/>
<path d="M233.588 124.836C233.588 124.836 232.908 136.821 232.705 138.649C232.502 140.478 225.843 143.949 220.128 146.651C214.414 149.354 209.609 150.537 209.839 153.054C210.069 155.571 213.495 249.323 213.495 249.323C213.495 249.323 221.268 249.093 232.705 244.757C244.142 240.42 250.987 234.927 256.701 230.122C260.156 227.231 264.008 224.852 268.139 223.057C268.139 223.057 269.022 178.702 269.022 170.948C269.022 163.193 270.621 155.174 270.17 151.977C269.72 148.78 255.995 144.911 252.568 143.286L249.132 141.688C249.132 141.688 249.132 137.272 250.51 134.498L251.879 131.76L234.277 123.988L233.588 124.836Z" fill="#555555" stroke="#263238" stroke-linejoin="round"/>
<path d="M256.675 230.096C260.13 227.205 263.981 224.825 268.113 223.03C268.113 223.03 268.113 222.774 268.113 222.297C264.633 222.465 261.294 224.249 246.651 229.195C235.711 232.754 224.431 235.163 212.992 236.384C213.275 244.227 213.46 249.314 213.46 249.314C213.46 249.314 221.232 249.084 232.67 244.748C244.107 240.411 250.961 234.9 256.675 230.096Z" fill="white" stroke="#263238" stroke-linejoin="round"/>
<path d="M212.753 229.883C212.753 229.883 253.486 224.231 268.085 219.523" stroke="#263238" stroke-linejoin="round"/>
<path d="M252.569 143.224L249.133 141.626C249.133 141.626 249.133 137.21 250.511 134.436L251.88 131.698L234.278 123.926L233.589 124.809C233.589 124.809 232.909 136.794 232.706 138.623C232.556 139.815 229.677 141.696 226.108 143.613C228.316 146.059 234.137 151.827 240.928 153.257C246.404 154.405 251.156 148.479 253.973 143.772C253.39 143.586 252.922 143.392 252.569 143.224Z" fill="#FFBDA7" stroke="#FFBDA7" stroke-linejoin="round"/>
<path d="M243.453 163.856L243.648 161.992C243.886 159.62 243.886 157.229 243.648 154.856L243.453 153.001C243.453 153.001 239.134 152.781 237.81 154.768C236.485 156.755 237.138 160.491 237.474 161.639C238.03 163.52 243.453 163.856 243.453 163.856Z" fill="#263238" stroke="#263238" stroke-linejoin="round"/>
<path d="M243.453 177.033L243.648 175.178C243.886 172.806 243.886 170.415 243.648 168.042L243.453 166.179C243.453 166.179 239.134 165.958 237.81 167.945C236.485 169.932 237.138 173.659 237.474 174.816C238.03 176.706 243.453 177.033 243.453 177.033Z" fill="#263238" stroke="#263238" stroke-linejoin="round"/>
<path d="M243.453 163.856V166.179" stroke="#263238" stroke-linejoin="round"/>
<path d="M242.129 163.856V165.958" stroke="#263238" stroke-linejoin="round"/>
<path d="M250.51 134.436L251.879 131.698L234.277 123.926L233.588 124.809L235.089 127.459C235.089 127.459 239.7 136 249.512 138.481C249.639 137.09 249.975 135.727 250.51 134.436Z" fill="#263238" stroke="#263238" stroke-linejoin="round"/>
<path d="M253.477 105.406C253.477 105.406 256.224 111.809 256.224 112.719C256.171 113.381 255.932 114.015 255.535 114.547C255.535 114.547 259.651 118.433 259.421 119.352C259.192 120.27 257.134 121.409 257.134 121.409C257.134 121.409 258.732 129.871 258.732 131.01C258.732 132.149 255.535 134.896 249.132 134.207C245.215 133.742 241.541 132.065 238.622 129.411C238.622 129.411 232.678 123.008 232.44 119.122C232.201 115.236 236.794 104.055 242.499 102.43C248.205 100.804 253.477 105.406 253.477 105.406Z" fill="#FFBDA7" stroke="#FFBDA7" stroke-linejoin="round"/>
<path d="M252.568 115.351C252.568 116.172 252.206 116.835 251.765 116.835C251.323 116.835 250.961 116.172 250.961 115.351C250.961 114.53 251.323 113.867 251.765 113.867C252.206 113.867 252.568 114.53 252.568 115.351Z" fill="#263238"/>
<path d="M249.132 113.408C249.132 113.408 251.419 110.431 254.166 112.039" stroke="#263238" stroke-linejoin="round"/>
<path d="M248.683 122.319C248.683 122.319 250.052 124.606 254.865 123.697" stroke="#263238" stroke-linejoin="round"/>
<path d="M232.218 104.717C232.218 104.717 224.905 107.464 224.217 111.783C223.528 116.101 229.701 122.072 230.62 122.981C231.538 123.891 236.802 123.865 238.162 122.098C239.522 120.332 237.473 117.294 238.842 116.154C240.211 115.015 242.048 115.465 242.508 112.039C242.967 108.612 241.359 107.234 243.647 106.095C245.934 104.955 248.902 107.464 253.477 105.406C258.052 103.348 256.674 95.3462 251.649 92.3787C246.623 89.4111 238.622 93.518 238.401 95.1166C238.18 96.7152 239.77 98.773 238.401 99.0026C237.032 99.2323 234.055 98.3226 233.596 100.601C233.3 102.023 232.838 103.404 232.218 104.717Z" fill="#263238" stroke="#263238" stroke-linejoin="round"/>
<path d="M238.393 123.697C238.393 123.697 235.876 118.663 232.449 119.122C229.022 119.581 229.932 127.124 232.449 128.722C234.966 130.321 238.393 127.124 238.393 127.124" fill="#FFBDA7"/>
<path d="M238.393 123.697C238.393 123.697 235.876 118.663 232.449 119.122C229.022 119.581 229.932 127.124 232.449 128.722C234.966 130.321 238.393 127.124 238.393 127.124" stroke="#263238" stroke-linejoin="round"/>
<path d="M212.664 150.086C212.664 150.086 206.031 152.824 204.892 156.481C203.753 160.137 189.569 193.522 188.2 196.225C186.831 198.927 188.429 203.767 190.946 204.686C193.464 205.604 194.832 204.686 197.341 202.858C199.849 201.029 212.664 179.541 212.664 179.541" fill="#555555"/>
<path d="M212.664 150.086C212.664 150.086 206.031 152.824 204.892 156.481C203.753 160.137 189.569 193.522 188.2 196.225C186.831 198.927 188.429 203.767 190.946 204.686C193.463 205.604 194.832 204.686 197.341 202.858C199.849 201.029 212.664 179.541 212.664 179.541" stroke="#263238" stroke-linejoin="round"/>
<path d="M196.175 150.654L204.229 150.514C204.666 150.506 205.09 150.673 205.405 150.977C205.72 151.281 205.901 151.698 205.909 152.136L206.292 174.107C206.3 174.545 206.133 174.968 205.829 175.283C205.525 175.598 205.108 175.779 204.67 175.787L196.616 175.927C196.176 175.935 195.75 175.768 195.434 175.462C195.117 175.156 194.935 174.737 194.927 174.296L194.544 152.334C194.536 151.894 194.703 151.469 195.009 151.152C195.315 150.835 195.735 150.653 196.175 150.645L196.175 150.654Z" fill="#263238" stroke="#263238" stroke-linejoin="round"/>
<path d="M192.678 181.008C192.678 181.008 192.617 167.804 192.519 165.94C192.422 164.077 194.674 162.16 196.052 161.233C197.43 160.306 203.286 157.603 204.001 157.921C204.716 158.239 204.478 159.387 203.524 160.067C202.57 160.747 198.366 163.088 197.571 163.732C196.776 164.377 196.838 166.885 196.838 166.885C196.838 166.885 201.678 164.563 203.118 163.935C204.557 163.308 206.138 162.637 206.721 163.141C206.889 163.317 207.006 163.537 207.057 163.775C207.109 164.014 207.093 164.262 207.013 164.492C207.379 164.948 207.562 165.524 207.525 166.108C207.392 166.929 203.992 170.188 202.95 171.045C202.173 171.695 201.43 172.385 200.724 173.112C200.724 173.112 207.145 171.54 207.596 171.443C208.046 171.345 208.576 172.326 207.331 173.077C205.392 173.951 203.401 174.703 201.369 175.329C201.091 176.892 200.634 178.418 200.009 179.877C199.506 181.368 198.509 182.642 197.183 183.489C197.183 183.489 199.894 197.992 197.925 201.886C195.955 205.781 189.79 208.555 187.326 203.75C184.862 198.945 186.399 193.09 188.845 189.884C191.292 186.678 192.678 181.008 192.678 181.008Z" fill="#FFBDA7" stroke="#FFBDA7" stroke-linejoin="round"/>
<path d="M198.472 193.549C193.058 195.871 189.481 193.628 187.644 191.782C185.957 195.103 185.241 199.784 187.29 203.767C189.763 208.572 195.919 205.799 197.889 201.904C198.701 200.323 198.728 196.958 198.472 193.549Z" fill="#555555" stroke="#263238" stroke-linejoin="round"/>
<path d="M206.986 164.492L198.146 170.056" stroke="#263238" stroke-linejoin="round"/>
<path d="M206.986 164.492L198.146 170.056" stroke="#263238" stroke-linejoin="round"/>
<path d="M272.034 218.773L264.668 220.336C263.882 220.495 258.557 225.503 257.93 226.448C257.303 227.393 259.025 228.011 259.811 228.011C260.597 228.011 264.819 224.885 264.819 224.885L263.697 227.702L272.158 235.068C272.158 235.068 274.428 230.996 275.523 228.329C276.292 226.148 276.816 223.888 277.086 221.59" fill="#FFBDA7"/>
<path d="M272.034 218.773L264.668 220.336C263.882 220.495 258.557 225.503 257.93 226.448C257.303 227.393 259.025 228.011 259.811 228.011C260.597 228.011 264.819 224.885 264.819 224.885L263.697 227.702L272.158 235.068C272.158 235.068 274.428 230.996 275.523 228.329C276.292 226.148 276.816 223.888 277.086 221.59" stroke="#FFBDA7" stroke-linejoin="round"/>
</svg>
