<svg width="681" height="438" viewBox="0 0 681 438" fill="none" xmlns="http://www.w3.org/2000/svg">
<path d="M201.009 226.449H21.9912L35.227 98.9243H215.761L201.009 226.449Z" fill="#F5F5F5"/>
<path d="M41.6742 205.049C41.5095 205.049 43.3658 185.849 45.8042 162.211C48.2427 138.574 50.3516 119.374 50.5054 119.374C50.6592 119.374 48.8139 138.563 46.3754 162.211C43.9369 185.86 41.828 205.06 41.6742 205.049Z" fill="#E0E0E0"/>
<path d="M74.2638 123.713C71.2778 123.996 68.2769 124.091 65.2789 123.998C62.2809 124.091 59.28 123.996 56.2939 123.713C59.2796 123.423 62.2809 123.328 65.2789 123.427C68.2769 123.328 71.2782 123.423 74.2638 123.713Z" fill="#E0E0E0"/>
<path d="M150.725 123.71C150.725 123.864 134.699 123.995 114.939 123.995C95.1783 123.995 79.1416 123.864 79.1416 123.71C79.1416 123.556 95.1673 123.424 114.939 123.424C134.71 123.424 150.725 123.545 150.725 123.71Z" fill="#E0E0E0"/>
<path d="M72.1447 169.021C69.159 169.311 66.1578 169.406 63.1598 169.307C60.1617 169.406 57.1605 169.311 54.1748 169.021C57.1609 168.739 60.1617 168.643 63.1598 168.736C66.1578 168.643 69.1586 168.739 72.1447 169.021Z" fill="#E0E0E0"/>
<path d="M148.603 169.018C148.603 169.183 132.578 169.304 112.817 169.304C93.0572 169.304 77.0205 169.183 77.0205 169.018C77.0205 168.854 93.0462 168.733 112.817 168.733C132.589 168.733 148.603 168.865 148.603 169.018Z" fill="#E0E0E0"/>
<path d="M124.22 189.968C124.22 190.132 108.194 190.253 88.4337 190.253C68.6734 190.253 52.6367 190.132 52.6367 189.968C52.6367 189.803 68.6624 189.682 88.4337 189.682C108.205 189.682 124.22 189.759 124.22 189.968Z" fill="#E0E0E0"/>
<path d="M82.1837 136.51C82.1837 136.664 76.5269 136.796 69.5411 136.796C62.5552 136.796 56.8984 136.664 56.8984 136.51C56.8984 136.356 62.5662 136.213 69.5411 136.213C76.5159 136.213 82.1837 136.345 82.1837 136.51Z" fill="#E0E0E0"/>
<path d="M81.547 155.257C81.547 155.422 75.8792 155.542 68.9043 155.542C61.9295 155.542 56.2617 155.422 56.2617 155.257C56.2617 155.092 61.9185 154.971 68.9043 154.971C75.8902 154.971 81.547 155.103 81.547 155.257Z" fill="#E0E0E0"/>
<path d="M102.921 182.069C102.921 182.223 97.2532 182.355 90.2784 182.355C83.3035 182.355 77.6357 182.223 77.6357 182.069C77.6357 181.915 83.2925 181.784 90.2784 181.784C97.2642 181.784 102.921 181.905 102.921 182.069Z" fill="#E0E0E0"/>
<path d="M174.143 136.51C174.143 136.664 159.688 136.796 141.85 136.796C124.012 136.796 109.546 136.664 109.546 136.51C109.546 136.356 124.012 136.213 141.85 136.213C159.688 136.213 174.143 136.345 174.143 136.51Z" fill="#E0E0E0"/>
<path d="M154.229 156.347C154.229 156.511 139.774 156.632 121.936 156.632C104.098 156.632 89.6426 156.511 89.6426 156.347C89.6426 156.182 104.098 156.061 121.936 156.061C139.774 156.061 154.229 156.193 154.229 156.347Z" fill="#E0E0E0"/>
<path d="M176.459 182.069C176.459 182.223 161.993 182.355 144.166 182.355C126.339 182.355 111.862 182.223 111.862 182.069C111.862 181.915 126.328 181.784 144.166 181.784C162.004 181.784 176.459 181.905 176.459 182.069Z" fill="#E0E0E0"/>
<path d="M117.487 205.05C117.487 205.204 103.021 205.335 85.1827 205.335C67.3446 205.335 52.8896 205.204 52.8896 205.05C52.8896 204.896 67.3446 204.764 85.1827 204.764C103.021 204.764 117.487 204.885 117.487 205.05Z" fill="#E0E0E0"/>
<path d="M188.915 205.05C188.915 205.204 174.449 205.335 156.622 205.335C138.795 205.335 124.318 205.204 124.318 205.05C124.318 204.896 138.773 204.764 156.622 204.764C174.471 204.764 188.915 204.885 188.915 205.05Z" fill="#E0E0E0"/>
<path d="M117.475 212.519C117.475 212.683 103.02 212.804 85.182 212.804C67.3439 212.804 52.8779 212.683 52.8779 212.519C52.8779 212.354 67.3439 212.233 85.182 212.233C103.02 212.233 117.475 212.365 117.475 212.519Z" fill="#E0E0E0"/>
<path d="M120.618 141.89C120.618 142.043 106.163 142.175 88.3245 142.175C70.4865 142.175 56.0205 142.043 56.0205 141.89C56.0205 141.736 70.4865 141.604 88.3245 141.604C106.163 141.604 120.618 141.725 120.618 141.89Z" fill="#E0E0E0"/>
<path d="M103.394 136.576C100.632 136.859 97.8537 136.954 95.0788 136.862C92.3003 136.954 89.5186 136.859 86.7529 136.576C89.5182 136.287 92.3003 136.191 95.0788 136.29C97.8537 136.191 100.632 136.287 103.394 136.576Z" fill="#E0E0E0"/>
<path d="M70.0353 175.186C67.2697 175.468 64.488 175.564 61.7094 175.471C58.9345 175.564 56.1565 175.468 53.3945 175.186C56.1565 174.903 58.9345 174.807 61.7094 174.9C64.488 174.807 67.2697 174.903 70.0353 175.186Z" fill="#E0E0E0"/>
<path d="M69.6398 182.068C66.8778 182.351 64.0998 182.446 61.3249 182.354C58.5464 182.446 55.7647 182.351 52.999 182.068C55.7643 181.779 58.5464 181.683 61.3249 181.783C64.0998 181.684 66.8783 181.779 69.6398 182.068Z" fill="#E0E0E0"/>
<path d="M213.783 112.409C213.783 112.574 173.526 112.695 123.878 112.695C74.2306 112.695 33.9521 112.574 33.9521 112.409C33.9521 112.244 74.2086 112.124 123.878 112.124C173.548 112.124 213.783 112.255 213.783 112.409Z" fill="#E0E0E0"/>
<path d="M46.0899 108.467C47.2667 108.467 48.2208 107.513 48.2208 106.336C48.2208 105.16 47.2667 104.206 46.0899 104.206C44.913 104.206 43.959 105.16 43.959 106.336C43.959 107.513 44.913 108.467 46.0899 108.467Z" fill="white"/>
<path d="M55.2403 108.467C56.4171 108.467 57.3712 107.513 57.3712 106.336C57.3712 105.16 56.4171 104.206 55.2403 104.206C54.0634 104.206 53.1094 105.16 53.1094 106.336C53.1094 107.513 54.0634 108.467 55.2403 108.467Z" fill="white"/>
<path d="M64.3897 108.467C65.5666 108.467 66.5206 107.513 66.5206 106.336C66.5206 105.16 65.5666 104.206 64.3897 104.206C63.2128 104.206 62.2588 105.16 62.2588 106.336C62.2588 107.513 63.2128 108.467 64.3897 108.467Z" fill="white"/>
<path d="M665.843 162.684H486.825L500.061 35.1704H680.595L665.843 162.684Z" fill="#F5F5F5"/>
<path d="M506.508 141.288C506.354 141.288 508.199 122.088 510.638 98.4502C513.076 74.8126 515.185 55.6125 515.339 55.6784C515.493 55.7443 513.648 74.8675 511.209 98.5161C508.771 122.165 506.662 141.299 506.508 141.288Z" fill="#E0E0E0"/>
<path d="M539.098 59.9482C533.114 60.329 527.112 60.329 521.128 59.9482C527.112 59.5674 533.114 59.5674 539.098 59.9482Z" fill="#E0E0E0"/>
<path d="M615.568 59.9482C615.568 60.102 599.542 60.2338 579.771 60.2338C559.999 60.2338 543.974 60.102 543.974 59.9482C543.974 59.7944 559.999 59.6626 579.771 59.6626C599.542 59.6626 615.568 59.7944 615.568 59.9482Z" fill="#E0E0E0"/>
<path d="M536.988 105.268C531 105.649 524.994 105.649 519.007 105.268C524.994 104.888 531 104.888 536.988 105.268Z" fill="#E0E0E0"/>
<path d="M613.503 105.268C613.503 105.422 597.477 105.554 577.706 105.554C557.935 105.554 541.909 105.422 541.909 105.268C541.909 105.115 557.935 104.983 577.706 104.983C597.477 104.983 613.503 105.104 613.503 105.268Z" fill="#E0E0E0"/>
<path d="M589.064 126.163C589.064 126.317 573.038 126.449 553.267 126.449C533.495 126.449 517.47 126.317 517.47 126.163C517.47 126.009 533.495 125.877 553.267 125.877C573.038 125.877 589.064 125.998 589.064 126.163Z" fill="#E0E0E0"/>
<path d="M547.028 72.7436C547.028 72.8974 541.361 73.0292 534.386 73.0292C527.411 73.0292 521.743 72.8974 521.743 72.7436C521.743 72.5898 527.4 72.436 534.419 72.436C541.438 72.436 547.028 72.5788 547.028 72.7436Z" fill="#E0E0E0"/>
<path d="M546.38 91.4951C546.38 91.6598 540.723 91.7806 533.737 91.7806C526.752 91.7806 521.095 91.6598 521.095 91.4951C521.095 91.3303 526.752 91.2095 533.737 91.2095C540.723 91.2095 546.38 91.3413 546.38 91.4951Z" fill="#E0E0E0"/>
<path d="M567.755 118.308C567.755 118.461 562.098 118.593 555.112 118.593C548.127 118.593 542.47 118.461 542.47 118.308C542.47 118.154 548.127 118.022 555.112 118.022C562.098 118.022 567.755 118.154 567.755 118.308Z" fill="#E0E0E0"/>
<path d="M639.008 72.7451C639.008 72.8988 624.542 73.0306 606.704 73.0306C588.866 73.0306 574.411 72.8988 574.411 72.7451C574.411 72.5913 588.866 72.4595 606.704 72.4595C624.542 72.4595 639.008 72.5803 639.008 72.7451Z" fill="#E0E0E0"/>
<path d="M619.073 92.5849C619.073 92.7497 604.607 92.8705 586.769 92.8705C568.931 92.8705 554.476 92.7497 554.476 92.5849C554.476 92.4201 568.931 92.2993 586.769 92.2993C604.607 92.2993 619.073 92.4311 619.073 92.5849Z" fill="#E0E0E0"/>
<path d="M641.293 118.308C641.293 118.461 626.838 118.593 609 118.593C591.162 118.593 576.707 118.461 576.707 118.308C576.707 118.154 591.162 118.022 609 118.022C626.838 118.022 641.293 118.154 641.293 118.308Z" fill="#E0E0E0"/>
<path d="M582.319 141.288C582.319 141.442 567.853 141.574 550.026 141.574C532.199 141.574 517.722 141.442 517.722 141.288C517.722 141.134 532.177 141.002 550.026 141.002C567.875 141.002 582.319 141.123 582.319 141.288Z" fill="#E0E0E0"/>
<path d="M653.749 141.288C653.749 141.442 639.294 141.574 621.456 141.574C603.618 141.574 589.152 141.442 589.152 141.288C589.152 141.134 603.618 141.002 621.456 141.002C639.294 141.002 653.749 141.123 653.749 141.288Z" fill="#E0E0E0"/>
<path d="M582.308 148.757C582.308 148.922 567.853 149.042 550.015 149.042C532.177 149.042 517.722 148.922 517.722 148.757C517.722 148.592 532.177 148.471 550.015 148.471C567.853 148.471 582.308 148.603 582.308 148.757Z" fill="#E0E0E0"/>
<path d="M585.461 78.1279C585.461 78.2816 570.995 78.4135 553.157 78.4135C535.319 78.4135 520.864 78.2816 520.864 78.1279C520.864 77.9741 535.319 77.8423 553.157 77.8423C570.995 77.8423 585.461 77.9302 585.461 78.1279Z" fill="#E0E0E0"/>
<path d="M568.227 72.8115C562.69 73.1923 557.133 73.1923 551.597 72.8115C557.133 72.4307 562.69 72.4307 568.227 72.8115Z" fill="#E0E0E0"/>
<path d="M534.869 111.421C529.329 111.802 523.769 111.802 518.229 111.421C523.769 111.04 529.329 111.04 534.869 111.421Z" fill="#E0E0E0"/>
<path d="M534.474 118.308C528.937 118.688 523.38 118.688 517.844 118.308C523.38 117.927 528.937 117.927 534.474 118.308Z" fill="#E0E0E0"/>
<path d="M678.627 48.6474C678.627 48.8122 638.36 48.933 588.712 48.933C539.064 48.933 498.797 48.8122 498.797 48.6474C498.797 48.4826 539.042 48.3618 588.712 48.3618C638.382 48.3618 678.627 48.4936 678.627 48.6474Z" fill="#E0E0E0"/>
<path d="M510.924 44.7056C512.101 44.7056 513.055 43.7516 513.055 42.5747C513.055 41.3979 512.101 40.4438 510.924 40.4438C509.747 40.4438 508.793 41.3979 508.793 42.5747C508.793 43.7516 509.747 44.7056 510.924 44.7056Z" fill="white"/>
<path d="M520.073 44.7056C521.25 44.7056 522.204 43.7516 522.204 42.5747C522.204 41.3979 521.25 40.4438 520.073 40.4438C518.896 40.4438 517.942 41.3979 517.942 42.5747C517.942 43.7516 518.896 44.7056 520.073 44.7056Z" fill="white"/>
<path d="M529.224 44.7056C530.401 44.7056 531.355 43.7516 531.355 42.5747C531.355 41.3979 530.401 40.4438 529.224 40.4438C528.047 40.4438 527.093 41.3979 527.093 42.5747C527.093 43.7516 528.047 44.7056 529.224 44.7056Z" fill="white"/>
<path d="M290.375 79.4241H178.876L187.114 -0.00146484H299.558L290.375 79.4241Z" fill="#EBEBEB"/>
<path d="M191.134 66.0885C190.981 66.0885 192.079 54.1269 193.595 39.4083C195.111 24.6897 196.473 12.761 196.637 12.772C196.802 12.783 195.693 24.7446 194.166 39.4632C192.639 54.1818 191.288 66.1104 191.134 66.0885Z" fill="#E0E0E0"/>
<path d="M211.489 15.4326C207.767 15.8134 204.017 15.8134 200.296 15.4326C204.017 15.0518 207.767 15.0518 211.489 15.4326Z" fill="#E0E0E0"/>
<path d="M259.059 15.4326C259.059 15.5973 249.075 15.7181 236.761 15.7181C224.448 15.7181 214.464 15.5973 214.464 15.4326C214.464 15.2678 224.448 15.147 236.761 15.147C249.075 15.147 259.059 15.3227 259.059 15.4326Z" fill="#E0E0E0"/>
<path d="M210.115 43.6591C206.393 44.0399 202.643 44.0399 198.922 43.6591C202.643 43.2783 206.393 43.2783 210.115 43.6591Z" fill="#E0E0E0"/>
<path d="M257.742 43.6591C257.742 43.8129 247.757 43.9447 235.444 43.9447C223.131 43.9447 213.146 43.8129 213.146 43.6591C213.146 43.5053 223.131 43.3735 235.444 43.3735C247.757 43.3735 257.742 43.5053 257.742 43.6591Z" fill="#E0E0E0"/>
<path d="M242.55 56.663C242.55 56.8278 232.566 56.9486 220.252 56.9486C207.939 56.9486 197.966 56.8278 197.966 56.663C197.966 56.4983 207.939 56.3774 220.252 56.3774C232.566 56.3774 242.55 56.5093 242.55 56.663Z" fill="#E0E0E0"/>
<path d="M216.365 23.4041C213.75 23.6868 211.118 23.7822 208.49 23.6897C205.865 23.7824 203.236 23.687 200.625 23.4041C203.236 23.1147 205.865 23.0192 208.49 23.1186C211.118 23.0195 213.751 23.115 216.365 23.4041Z" fill="#E0E0E0"/>
<path d="M215.969 35.0917C213.354 35.3809 210.722 35.4763 208.093 35.3773C205.465 35.4763 202.832 35.3809 200.218 35.0917C202.833 34.8091 205.465 34.7136 208.093 34.8061C210.722 34.7136 213.354 34.8091 215.969 35.0917Z" fill="#E0E0E0"/>
<path d="M229.281 51.7753C226.667 52.0645 224.034 52.1599 221.406 52.0609C218.777 52.1599 216.145 52.0645 213.53 51.7753C216.145 51.4927 218.777 51.3972 221.406 51.4897C224.034 51.3972 226.666 51.4927 229.281 51.7753Z" fill="#E0E0E0"/>
<path d="M273.657 23.4013C273.657 23.5551 264.65 23.6869 253.545 23.6869C242.44 23.6869 233.455 23.5551 233.455 23.4013C233.455 23.2475 242.462 23.1157 253.578 23.1157C264.694 23.1157 273.657 23.2365 273.657 23.4013Z" fill="#E0E0E0"/>
<path d="M261.234 35.7646C261.234 35.9184 252.227 36.0502 241.123 36.0502C230.018 36.0502 221.011 35.9184 221.011 35.7646C221.011 35.6108 230.018 35.479 241.123 35.479C252.227 35.479 261.234 35.6108 261.234 35.7646Z" fill="#E0E0E0"/>
<path d="M275.085 51.7763C275.085 51.9411 266.078 52.0619 254.973 52.0619C243.868 52.0619 234.851 51.9411 234.851 51.7763C234.851 51.6115 243.858 51.4907 254.973 51.4907C266.089 51.4907 275.085 51.6225 275.085 51.7763Z" fill="#E0E0E0"/>
<path d="M238.355 66.0888C238.355 66.2536 229.348 66.3744 218.232 66.3744C207.116 66.3744 198.12 66.2536 198.12 66.0888C198.12 65.924 207.127 65.8032 218.232 65.8032C229.337 65.8032 238.355 65.935 238.355 66.0888Z" fill="#E0E0E0"/>
<path d="M282.884 66.0888C282.884 66.2536 273.877 66.3744 262.772 66.3744C251.667 66.3744 242.649 66.2536 242.649 66.0888C242.649 65.924 251.656 65.8032 262.772 65.8032C273.888 65.8032 282.884 65.935 282.884 66.0888Z" fill="#E0E0E0"/>
<path d="M238.344 70.7451C238.344 70.9098 229.337 71.0306 218.232 71.0306C207.127 71.0306 198.12 70.9098 198.12 70.7451C198.12 70.5803 207.116 70.4595 218.232 70.4595C229.348 70.4595 238.344 70.5913 238.344 70.7451Z" fill="#E0E0E0"/>
<path d="M240.299 26.7568C240.299 26.9215 231.292 27.0424 220.187 27.0424C209.082 27.0424 200.075 26.9215 200.075 26.7568C200.075 26.592 209.082 26.4712 220.187 26.4712C231.292 26.4712 240.299 26.603 240.299 26.7568Z" fill="#E0E0E0"/>
<path d="M229.579 23.4519C226.133 23.8324 222.656 23.8324 219.21 23.4519C222.656 23.0714 226.133 23.0714 229.579 23.4519Z" fill="#E0E0E0"/>
<path d="M208.797 47.4951C205.355 47.8759 201.882 47.8759 198.439 47.4951C201.882 47.1143 205.355 47.1143 208.797 47.4951Z" fill="#E0E0E0"/>
<path d="M208.555 51.7761C205.11 52.1567 201.632 52.1567 198.187 51.7761C201.632 51.3956 205.11 51.3956 208.555 51.7761Z" fill="#E0E0E0"/>
<path d="M298.327 8.4013C298.327 8.55508 273.262 8.68689 242.309 8.68689C211.356 8.68689 186.29 8.55508 186.29 8.4013C186.29 8.24753 211.356 8.11572 242.309 8.11572C273.262 8.11572 298.327 8.23654 298.327 8.4013Z" fill="#E0E0E0"/>
<path d="M195.209 4.61021C195.2 4.87241 195.114 5.12616 194.962 5.33949C194.809 5.55281 194.596 5.71618 194.351 5.80899C194.106 5.90181 193.838 5.91993 193.583 5.86107C193.327 5.8022 193.094 5.669 192.914 5.47823C192.734 5.28745 192.615 5.04765 192.571 4.78903C192.527 4.5304 192.56 4.26452 192.667 4.02489C192.774 3.78526 192.949 3.58259 193.171 3.44242C193.392 3.30225 193.651 3.23085 193.913 3.23721C194.089 3.24146 194.261 3.28045 194.422 3.35191C194.582 3.42337 194.727 3.52588 194.847 3.65354C194.968 3.7812 195.062 3.93147 195.124 4.09567C195.186 4.25987 195.215 4.43475 195.209 4.61021Z" fill="white"/>
<path d="M200.91 4.60982C200.902 4.87064 200.817 5.12315 200.665 5.33586C200.514 5.54857 200.304 5.71206 200.06 5.80595C199.817 5.89984 199.551 5.91997 199.296 5.86383C199.041 5.8077 198.809 5.67778 198.627 5.49027C198.446 5.30277 198.323 5.06598 198.275 4.80944C198.228 4.55289 198.256 4.28794 198.358 4.04764C198.46 3.80733 198.63 3.6023 198.848 3.45811C199.065 3.31392 199.32 3.23696 199.581 3.23682C199.76 3.23672 199.936 3.2725 200.1 3.34202C200.264 3.41154 200.413 3.51339 200.537 3.64149C200.661 3.7696 200.758 3.92135 200.822 4.0877C200.886 4.25406 200.916 4.43162 200.91 4.60982Z" fill="white"/>
<path d="M206.611 4.60982C206.602 4.87064 206.517 5.12315 206.365 5.33586C206.214 5.54857 206.004 5.71206 205.76 5.80595C205.517 5.89984 205.251 5.91997 204.996 5.86383C204.741 5.8077 204.509 5.67778 204.327 5.49027C204.146 5.30277 204.023 5.06598 203.976 4.80944C203.928 4.55289 203.957 4.28794 204.058 4.04764C204.16 3.80733 204.33 3.6023 204.548 3.45811C204.765 3.31392 205.02 3.23696 205.281 3.23682C205.46 3.23672 205.636 3.2725 205.8 3.34202C205.965 3.41154 206.113 3.51339 206.237 3.64149C206.361 3.7696 206.458 3.92135 206.522 4.0877C206.586 4.25406 206.616 4.43162 206.611 4.60982Z" fill="white"/>
<path d="M593.402 218.03H537.252V399.772H593.402V218.03Z" fill="#EBEBEB"/>
<path d="M641.074 218.065H593.403V399.741H641.074V218.065Z" fill="#E0E0E0"/>
<path d="M586.681 225.389H541.636V264.536H586.681V225.389Z" fill="#E0E0E0"/>
<path d="M586.681 268.975H541.636V308.122H586.681V268.975Z" fill="#E0E0E0"/>
<path d="M586.681 312.561H541.636V351.708H586.681V312.561Z" fill="#E0E0E0"/>
<path d="M586.681 356.155H541.636V395.302H586.681V356.155Z" fill="#E0E0E0"/>
<path d="M564.163 232.621C564.165 232.932 564.075 233.237 563.904 233.496C563.732 233.756 563.488 233.959 563.201 234.08C562.914 234.2 562.598 234.233 562.293 234.174C561.987 234.114 561.706 233.966 561.485 233.746C561.265 233.527 561.114 233.247 561.052 232.942C560.991 232.637 561.021 232.321 561.14 232.033C561.259 231.746 561.46 231.5 561.718 231.327C561.977 231.153 562.281 231.061 562.592 231.061C563.007 231.061 563.405 231.225 563.699 231.517C563.993 231.809 564.16 232.206 564.163 232.621Z" fill="#FAFAFA"/>
<path d="M564.163 276.742C564.165 277.053 564.075 277.358 563.904 277.618C563.732 277.877 563.488 278.08 563.201 278.201C562.914 278.321 562.598 278.354 562.293 278.295C561.987 278.235 561.706 278.087 561.485 277.867C561.265 277.648 561.114 277.368 561.052 277.063C560.991 276.758 561.021 276.442 561.14 276.154C561.259 275.867 561.46 275.621 561.718 275.448C561.977 275.275 562.281 275.182 562.592 275.182C563.007 275.182 563.405 275.346 563.699 275.638C563.993 275.931 564.16 276.327 564.163 276.742Z" fill="#FAFAFA"/>
<path d="M564.163 320.811C564.163 321.122 564.071 321.426 563.898 321.684C563.726 321.942 563.48 322.144 563.193 322.263C562.906 322.381 562.59 322.413 562.286 322.352C561.981 322.291 561.701 322.142 561.482 321.922C561.262 321.702 561.112 321.423 561.052 321.118C560.991 320.813 561.022 320.497 561.141 320.21C561.26 319.923 561.461 319.678 561.72 319.505C561.978 319.333 562.282 319.241 562.592 319.241C563.009 319.241 563.408 319.406 563.703 319.701C563.997 319.995 564.163 320.395 564.163 320.811Z" fill="#FAFAFA"/>
<path d="M564.163 364.898C564.165 365.209 564.075 365.514 563.904 365.774C563.732 366.033 563.488 366.237 563.201 366.357C562.914 366.478 562.598 366.51 562.293 366.451C561.987 366.392 561.706 366.243 561.485 366.024C561.265 365.804 561.114 365.525 561.052 365.22C560.991 364.915 561.021 364.598 561.14 364.311C561.259 364.023 561.46 363.777 561.718 363.604C561.977 363.431 562.281 363.338 562.592 363.338C563.007 363.338 563.405 363.502 563.699 363.795C563.993 364.087 564.16 364.483 564.163 364.898Z" fill="#FAFAFA"/>
<path d="M543.743 399.772H537.252V436.228H543.743V399.772Z" fill="#E0E0E0"/>
<path d="M593.172 399.772H586.681V436.228H593.172V399.772Z" fill="#E0E0E0"/>
<path d="M640.371 399.772H633.879V436.228H640.371V399.772Z" fill="#E0E0E0"/>
<path d="M65.5546 425.936C63.8961 424.519 60.1835 420.015 63.0393 414.776C64.1377 412.865 66.3345 411.909 68.3446 411.063C70.4166 410.364 72.3717 409.357 74.1442 408.076C77.2966 405.406 78.1643 400.969 80.2513 397.41C82.6568 393.335 87.1383 390.27 91.8724 390.49C97.2875 390.732 101.758 395.136 103.856 400.156C105.954 405.176 105.976 410.756 106.053 416.182C106.053 419.18 105.943 422.563 103.724 424.596C101.692 426.463 98.6166 426.485 95.8486 426.397L66.1917 425.496" fill="#F5F5F5"/>
<path d="M122.199 344.842H44.3115L58.3491 428.112C58.6338 429.845 59.4042 431.461 60.5707 432.774C61.7373 434.086 63.2522 435.041 64.9395 435.526L65.2141 435.603C65.4417 435.674 65.6727 435.732 65.9061 435.779C66.4618 435.907 67.028 435.984 67.5977 436.01V436.087L67.9821 436.032H102.692C103.334 436.028 103.974 435.962 104.603 435.834C106.626 435.528 108.493 434.566 109.916 433.095C111.339 431.624 112.239 429.727 112.478 427.695L119.223 370.314L119.53 368.03L122.199 345.304V344.842ZM107.503 397.961H99.5173L100.319 373.796H109.579L107.503 397.961ZM110.358 373.796H118.047L115.191 397.961H108.239L110.358 373.796ZM87.5227 424.751L87.0394 403.761H98.5507L97.8477 424.751H87.5227ZM75.0778 403.761H86.2705L86.7648 424.751H76.7144L75.0778 403.761ZM75.9455 424.751H66.5652C65.6755 419.083 64.5112 411.713 63.27 403.761H74.3199L75.9455 424.751ZM74.6274 397.961L72.7382 373.796H85.5675L86.1277 397.961H74.6274ZM86.9076 397.961L86.3474 373.796H99.5283L98.7154 397.961H86.9076ZM86.2046 367.997L85.6884 345.611H100.484L99.7369 367.997H86.2046ZM85.4357 367.997H72.2549L70.5084 345.611H84.8865L85.4357 367.997ZM71.508 367.997H57.6022C57.1079 364.91 56.6356 361.977 56.2182 359.352C54.7683 350.301 54.2191 346.896 53.9226 345.611H69.7945L71.508 367.997ZM71.9693 373.796L73.8476 397.961H62.3473C61.9629 395.512 61.5674 393.029 61.172 390.547C60.2713 384.846 59.3706 379.134 58.5249 373.796H71.9693ZM61.5674 397.961H54.0434L49.9793 373.796H57.712L61.5674 397.961ZM62.4791 403.761C63.5775 411.021 64.7528 418.183 65.7743 424.751H58.5468L55.01 403.761H62.4791ZM98.6166 424.751L99.3196 403.761H107.008L105.207 424.751H98.6166ZM100.55 368.03L101.297 345.644H112.028L110.117 368.03H100.55ZM53.2196 345.644C53.5271 347.27 54.9441 356.079 56.8553 368.03H49.0347L45.2562 345.644H53.2196ZM112.039 424.729H106.042L107.843 403.739H114.532L112.039 424.729ZM118.728 367.975H110.886L112.808 345.589H121.365L118.728 367.975Z" fill="#E0E0E0"/>
<path d="M635.472 436.222C635.472 436.386 493.316 436.507 318.033 436.507C142.75 436.507 0.594727 436.386 0.594727 436.222C0.594727 436.057 142.717 435.936 318.088 435.936C493.459 435.936 635.472 436.068 635.472 436.222Z" fill="#263238"/>
<path d="M355.577 198.624H233.764L242.771 111.85H365.616L355.577 198.624Z" fill="#263238"/>
<path d="M349.382 198.624H227.558L236.565 111.85H359.41L349.382 198.624Z" fill="#455A64"/>
<path d="M344.856 194.699H231.819L240.178 114.186H354.17L344.856 194.699Z" fill="#F5F5F5"/>
<path d="M244.078 181.27C243.913 181.27 245.033 169.132 246.582 154.216C248.131 139.3 249.493 127.195 249.646 127.217C249.8 127.239 248.691 139.3 247.142 154.271C245.593 169.242 244.231 181.281 244.078 181.27Z" fill="#263238"/>
<path d="M264.65 129.913C260.878 130.294 257.076 130.294 253.304 129.913C257.076 129.532 260.878 129.532 264.65 129.913Z" fill="#263238"/>
<path d="M312.937 129.913C312.937 130.067 302.82 130.199 290.331 130.199C277.843 130.199 267.737 130.067 267.737 129.913C267.737 129.759 277.854 129.627 290.331 129.627C302.809 129.627 312.937 129.759 312.937 129.913Z" fill="#555555"/>
<path d="M263.321 158.526C259.545 158.907 255.74 158.907 251.964 158.526C255.74 158.146 259.545 158.146 263.321 158.526Z" fill="#263238"/>
<path d="M311.596 158.526C311.596 158.691 301.479 158.812 289.002 158.812C276.524 158.812 266.396 158.691 266.396 158.526C266.396 158.362 276.513 158.241 289.002 158.241C301.49 158.241 311.596 158.373 311.596 158.526Z" fill="#555555"/>
<path d="M296.196 171.718C296.196 171.872 286.08 172.003 273.602 172.003C261.124 172.003 250.997 171.872 250.997 171.718C250.997 171.564 261.113 171.432 273.602 171.432C286.091 171.432 296.196 171.564 296.196 171.718Z" fill="#555555"/>
<path d="M269.703 137.982C267.052 138.278 264.383 138.378 261.718 138.279C259.052 138.378 256.383 138.278 253.732 137.982C256.384 137.7 259.053 137.604 261.718 137.697C264.383 137.604 267.051 137.7 269.703 137.982Z" fill="#555555"/>
<path d="M269.253 149.837C266.601 150.12 263.933 150.215 261.268 150.123C258.602 150.215 255.934 150.12 253.282 149.837C255.934 149.549 258.602 149.453 261.268 149.552C263.933 149.453 266.602 149.549 269.253 149.837Z" fill="#555555"/>
<path d="M282.752 166.764C280.1 167.046 277.432 167.141 274.767 167.049C272.101 167.142 269.433 167.046 266.781 166.764C269.433 166.474 272.101 166.379 274.767 166.478C277.432 166.379 280.101 166.475 282.752 166.764Z" fill="#555555"/>
<path d="M327.732 137.983C327.732 138.148 318.604 138.28 307.346 138.28C296.087 138.28 286.948 138.148 286.948 137.983C286.948 137.819 296.076 137.698 307.346 137.698C318.615 137.698 327.732 137.83 327.732 137.983Z" fill="#263238"/>
<path d="M315.145 150.518C315.145 150.683 306.017 150.804 294.759 150.804C283.5 150.804 274.361 150.683 274.361 150.518C274.361 150.354 283.489 150.233 294.759 150.233C306.028 150.233 315.145 150.365 315.145 150.518Z" fill="#263238"/>
<path d="M329.182 166.765C329.182 166.918 320.054 167.05 308.795 167.05C297.537 167.05 288.376 166.907 288.376 166.765C288.376 166.622 297.504 166.479 308.773 166.479C320.043 166.479 329.182 166.6 329.182 166.765Z" fill="#263238"/>
<path d="M291.946 181.272C291.946 181.426 282.807 181.558 271.549 181.558C260.29 181.558 251.151 181.426 251.151 181.272C251.151 181.119 260.29 180.987 271.549 180.987C282.807 180.987 291.946 181.108 291.946 181.272Z" fill="#263238"/>
<path d="M337.046 181.272C337.046 181.426 327.919 181.558 316.66 181.558C305.401 181.558 296.263 181.426 296.263 181.272C296.263 181.119 305.39 180.987 316.66 180.987C327.93 180.987 337.046 181.108 337.046 181.272Z" fill="#263238"/>
<path d="M291.935 185.983C291.935 186.148 282.807 186.269 271.549 186.269C260.29 186.269 251.151 186.148 251.151 185.983C251.151 185.819 260.279 185.698 271.549 185.698C282.818 185.698 291.935 185.83 291.935 185.983Z" fill="#263238"/>
<path d="M293.923 141.394C293.923 141.547 284.796 141.679 273.537 141.679C262.278 141.679 253.14 141.547 253.14 141.394C253.14 141.24 262.267 141.108 273.537 141.108C284.807 141.108 293.923 141.24 293.923 141.394Z" fill="#263238"/>
<path d="M283.048 138.041C279.554 138.422 276.03 138.422 272.536 138.041C276.029 137.646 279.555 137.646 283.048 138.041Z" fill="#455A64"/>
<path d="M262.014 162.413C258.525 162.794 255.004 162.794 251.514 162.413C255.004 162.032 258.525 162.032 262.014 162.413Z" fill="#455A64"/>
<path d="M261.728 166.765C258.238 167.145 254.717 167.145 251.228 166.765C254.717 166.384 258.238 166.384 261.728 166.765Z" fill="#455A64"/>
<path d="M352.754 122.783C352.754 122.937 327.337 123.069 295.978 123.069C264.618 123.069 239.201 122.937 239.201 122.783C239.201 122.63 264.618 122.487 295.978 122.487C327.337 122.487 352.754 122.619 352.754 122.783Z" fill="#263238"/>
<path d="M248.208 118.939C248.208 119.207 248.128 119.469 247.979 119.691C247.83 119.914 247.619 120.087 247.371 120.189C247.124 120.291 246.852 120.317 246.589 120.264C246.327 120.211 246.086 120.081 245.898 119.891C245.709 119.701 245.581 119.459 245.53 119.196C245.48 118.933 245.508 118.661 245.612 118.415C245.716 118.168 245.891 117.958 246.114 117.811C246.338 117.664 246.6 117.586 246.868 117.588C247.045 117.588 247.22 117.623 247.383 117.691C247.547 117.759 247.695 117.859 247.819 117.985C247.944 118.11 248.042 118.259 248.109 118.423C248.176 118.587 248.209 118.763 248.208 118.939Z" fill="white"/>
<path d="M253.985 118.939C253.985 119.207 253.906 119.469 253.757 119.691C253.608 119.914 253.396 120.087 253.149 120.189C252.901 120.291 252.629 120.317 252.367 120.264C252.104 120.211 251.864 120.081 251.675 119.891C251.487 119.701 251.359 119.459 251.308 119.196C251.257 118.933 251.285 118.661 251.389 118.415C251.493 118.168 251.668 117.958 251.892 117.811C252.115 117.664 252.378 117.586 252.645 117.588C252.822 117.588 252.997 117.623 253.161 117.691C253.324 117.759 253.472 117.859 253.597 117.985C253.721 118.11 253.82 118.259 253.886 118.423C253.953 118.587 253.987 118.763 253.985 118.939Z" fill="white"/>
<path d="M259.817 118.939C259.817 119.207 259.738 119.469 259.589 119.691C259.44 119.914 259.228 120.087 258.981 120.189C258.733 120.291 258.461 120.317 258.199 120.264C257.936 120.211 257.696 120.081 257.507 119.891C257.319 119.701 257.191 119.459 257.14 119.196C257.089 118.933 257.117 118.661 257.221 118.415C257.325 118.168 257.5 117.958 257.724 117.811C257.947 117.664 258.21 117.586 258.477 117.588C258.654 117.588 258.829 117.623 258.993 117.691C259.156 117.759 259.304 117.859 259.429 117.985C259.553 118.11 259.652 118.259 259.718 118.423C259.785 118.587 259.819 118.763 259.817 118.939Z" fill="white"/>
<path d="M515.603 201.263H387.463L396.931 109.975H526.169L515.603 201.263Z" fill="#263238"/>
<path d="M509.078 201.263H380.938L390.418 109.975H519.645L509.078 201.263Z" fill="#455A64"/>
<path d="M504.333 197.122H385.431L394.218 112.424H514.131L504.333 197.122Z" fill="#EBEBEB"/>
<path d="M398.382 181.723C398.228 181.723 399.414 168.96 401.029 153.263C402.643 137.567 404.093 124.848 404.247 124.87C404.401 124.892 403.215 137.622 401.6 153.329C399.985 169.036 398.535 181.734 398.382 181.723Z" fill="#263238"/>
<path d="M420.03 127.705C416.06 128.086 412.062 128.086 408.091 127.705C412.061 127.31 416.06 127.31 420.03 127.705Z" fill="#263238"/>
<path d="M470.821 127.705C470.821 127.859 460.178 127.991 447.041 127.991C433.904 127.991 423.271 127.859 423.271 127.705C423.271 127.551 433.915 127.409 447.041 127.409C460.167 127.409 470.821 127.541 470.821 127.705Z" fill="#555555"/>
<path d="M418.625 157.8C414.654 158.18 410.656 158.18 406.686 157.8C410.656 157.419 414.654 157.419 418.625 157.8Z" fill="#263238"/>
<path d="M469.415 157.8C469.415 157.954 458.761 158.085 445.635 158.085C432.509 158.085 421.865 157.954 421.865 157.8C421.865 157.646 432.509 157.514 445.635 157.514C458.761 157.514 469.415 157.646 469.415 157.8Z" fill="#555555"/>
<path d="M453.214 171.675C453.214 171.839 442.57 171.96 429.444 171.96C416.319 171.96 405.664 171.839 405.664 171.675C405.664 171.51 416.308 171.389 429.444 171.389C442.581 171.389 453.214 171.521 453.214 171.675Z" fill="#555555"/>
<path d="M425.293 136.151C419.701 136.532 414.09 136.532 408.498 136.151C414.09 135.771 419.701 135.771 425.293 136.151Z" fill="#555555"/>
<path d="M424.864 148.651C419.273 149.047 413.661 149.047 408.069 148.651C413.661 148.271 419.272 148.271 424.864 148.651Z" fill="#555555"/>
<path d="M439.066 166.468C433.474 166.848 427.863 166.848 422.271 166.468C427.863 166.087 433.474 166.087 439.066 166.468Z" fill="#555555"/>
<path d="M486.386 136.151C486.386 136.316 476.786 136.437 464.934 136.437C453.082 136.437 443.482 136.316 443.482 136.151C443.482 135.987 453.082 135.866 464.934 135.866C476.786 135.866 486.386 136.041 486.386 136.151Z" fill="#263238"/>
<path d="M473.149 149.335C473.149 149.5 463.538 149.62 451.697 149.62C439.856 149.62 430.245 149.5 430.245 149.335C430.245 149.17 439.845 149.049 451.697 149.049C463.549 149.049 473.149 149.225 473.149 149.335Z" fill="#263238"/>
<path d="M487.912 166.464C487.912 166.618 478.301 166.749 466.461 166.749C454.62 166.749 445.009 166.618 445.009 166.464C445.009 166.31 454.609 166.178 466.461 166.178C478.312 166.178 487.912 166.299 487.912 166.464Z" fill="#263238"/>
<path d="M448.743 181.722C448.743 181.875 439.143 182.007 427.292 182.007C415.44 182.007 405.84 181.875 405.84 181.722C405.84 181.568 415.451 181.436 427.292 181.436C439.132 181.436 448.743 181.568 448.743 181.722Z" fill="#263238"/>
<path d="M496.183 181.722C496.183 181.875 486.572 182.007 474.731 182.007C462.89 182.007 453.279 181.875 453.279 181.722C453.279 181.568 462.879 181.436 474.731 181.436C486.583 181.436 496.183 181.568 496.183 181.722Z" fill="#263238"/>
<path d="M448.743 186.675C448.743 186.829 439.142 186.96 427.291 186.96C415.439 186.96 405.839 186.829 405.839 186.675C405.839 186.521 415.439 186.389 427.291 186.389C439.142 186.389 448.743 186.532 448.743 186.675Z" fill="#263238"/>
<path d="M450.82 139.776C450.82 139.93 441.22 140.062 429.368 140.062C417.516 140.062 407.916 139.93 407.916 139.776C407.916 139.623 417.516 139.491 429.368 139.491C441.22 139.491 450.82 139.623 450.82 139.776Z" fill="#263238"/>
<path d="M439.373 136.237C435.7 136.618 431.997 136.618 428.323 136.237C431.997 135.856 435.7 135.856 439.373 136.237Z" fill="#455A64"/>
<path d="M417.219 161.886C413.545 162.266 409.842 162.266 406.169 161.886C409.842 161.505 413.545 161.505 417.219 161.886Z" fill="#455A64"/>
<path d="M416.955 166.468C413.282 166.848 409.579 166.848 405.905 166.468C409.579 166.087 413.282 166.087 416.955 166.468Z" fill="#455A64"/>
<path d="M512.703 120.194C512.703 120.359 485.968 120.48 452.983 120.48C419.998 120.48 393.263 120.359 393.263 120.194C393.263 120.03 419.998 119.909 452.983 119.909C485.968 119.909 512.703 120.04 512.703 120.194Z" fill="#263238"/>
<path d="M402.731 116.162C402.731 116.442 402.648 116.716 402.493 116.949C402.337 117.182 402.116 117.363 401.857 117.471C401.598 117.578 401.313 117.606 401.038 117.551C400.763 117.497 400.511 117.362 400.312 117.164C400.114 116.965 399.979 116.713 399.925 116.438C399.87 116.163 399.898 115.878 400.005 115.619C400.113 115.36 400.294 115.139 400.527 114.983C400.76 114.828 401.034 114.745 401.314 114.745C401.501 114.743 401.686 114.779 401.858 114.85C402.031 114.92 402.188 115.025 402.32 115.156C402.451 115.288 402.556 115.445 402.626 115.618C402.697 115.79 402.733 115.975 402.731 116.162Z" fill="white"/>
<path d="M408.805 116.162C408.805 116.442 408.721 116.716 408.566 116.949C408.41 117.182 408.189 117.363 407.93 117.471C407.671 117.578 407.386 117.606 407.111 117.551C406.836 117.497 406.584 117.362 406.386 117.164C406.188 116.965 406.053 116.713 405.998 116.438C405.943 116.163 405.971 115.878 406.079 115.619C406.186 115.36 406.367 115.139 406.6 114.983C406.833 114.828 407.107 114.745 407.388 114.745C407.574 114.743 407.759 114.779 407.932 114.85C408.104 114.92 408.261 115.025 408.393 115.156C408.525 115.288 408.629 115.445 408.7 115.618C408.77 115.79 408.806 115.975 408.805 116.162Z" fill="white"/>
<path d="M414.891 116.162C414.891 116.442 414.807 116.716 414.652 116.949C414.496 117.182 414.275 117.363 414.016 117.471C413.757 117.578 413.472 117.606 413.197 117.551C412.922 117.497 412.67 117.362 412.472 117.164C412.274 116.965 412.139 116.713 412.084 116.438C412.029 116.163 412.057 115.878 412.164 115.619C412.272 115.36 412.453 115.139 412.686 114.983C412.919 114.828 413.193 114.745 413.474 114.745C413.66 114.743 413.845 114.779 414.018 114.85C414.19 114.92 414.347 115.025 414.479 115.156C414.611 115.288 414.715 115.445 414.786 115.618C414.856 115.79 414.892 115.975 414.891 116.162Z" fill="white"/>
<path d="M442.493 93.203H320.12L329.171 6.03369H452.577L442.493 93.203Z" fill="#263238"/>
<path d="M436.266 93.203H313.893L322.943 6.03369H446.349L436.266 93.203Z" fill="#455A64"/>
<path d="M431.718 89.256H318.176L326.568 8.36963H441.076L431.718 89.256Z" fill="#FAFAFA"/>
<path d="M330.654 75.7379C330.5 75.7379 331.631 63.5457 333.18 48.5635C334.729 33.5812 336.102 21.4219 336.266 21.4439C336.431 21.4658 335.289 33.6252 333.74 48.6184C332.191 63.6116 330.818 75.7379 330.654 75.7379Z" fill="#263238"/>
<path d="M351.337 24.1122C347.546 24.493 343.726 24.493 339.936 24.1122C343.726 23.7315 347.546 23.7315 351.337 24.1122Z" fill="#263238"/>
<path d="M399.831 24.1122C399.831 24.266 389.671 24.3978 377.127 24.3978C364.583 24.3978 354.423 24.266 354.423 24.1122C354.423 23.9585 364.583 23.8267 377.127 23.8267C389.671 23.8267 399.831 23.9255 399.831 24.1122Z" fill="#555555"/>
<path d="M349.985 52.8388C346.194 53.2196 342.375 53.2196 338.584 52.8388C342.375 52.458 346.194 52.458 349.985 52.8388Z" fill="#263238"/>
<path d="M398.491 52.8388C398.491 52.9926 388.32 53.1244 375.787 53.1244C363.254 53.1244 353.083 52.9926 353.083 52.8388C353.083 52.685 363.243 52.5532 375.787 52.5532C388.331 52.5532 398.491 52.674 398.491 52.8388Z" fill="#555555"/>
<path d="M383.026 66.0849C383.026 66.2387 372.855 66.3705 360.322 66.3705C347.789 66.3705 337.618 66.2387 337.618 66.0849C337.618 65.9311 347.778 65.7993 360.322 65.7993C372.866 65.7993 383.026 65.9311 383.026 66.0849Z" fill="#555555"/>
<path d="M356.356 32.206C351.017 32.5868 345.658 32.5868 340.319 32.206C345.658 31.8252 351.017 31.8252 356.356 32.206Z" fill="#555555"/>
<path d="M355.95 44.1044C350.611 44.4852 345.252 44.4852 339.913 44.1044C345.252 43.7237 350.611 43.7237 355.95 44.1044Z" fill="#555555"/>
<path d="M369.503 61.1044C364.165 61.4852 358.806 61.4852 353.467 61.1044C358.806 60.7237 364.165 60.7237 369.503 61.1044Z" fill="#555555"/>
<path d="M414.692 32.206C414.692 32.3598 405.52 32.4916 394.207 32.4916C382.893 32.4916 373.722 32.3598 373.722 32.206C373.722 32.0522 382.882 31.9204 394.207 31.9204C405.531 31.9204 414.692 32.0412 414.692 32.206Z" fill="#263238"/>
<path d="M402.05 44.7958C402.05 44.9496 392.878 45.0814 381.564 45.0814C370.251 45.0814 361.079 44.9496 361.079 44.7958C361.079 44.6421 370.251 44.5103 381.564 44.5103C392.878 44.5103 402.05 44.6311 402.05 44.7958Z" fill="#263238"/>
<path d="M416.153 61.1044C416.153 61.2582 406.981 61.39 395.668 61.39C384.354 61.39 375.183 61.2582 375.183 61.1044C375.183 60.9507 384.354 60.8188 395.668 60.8188C406.981 60.8188 416.153 60.9397 416.153 61.1044Z" fill="#263238"/>
<path d="M378.742 75.7372C378.742 75.891 369.571 76.0228 358.257 76.0228C346.943 76.0228 337.805 75.8361 337.805 75.7372C337.805 75.6384 346.976 75.4517 358.29 75.4517C369.603 75.4517 378.742 75.5176 378.742 75.7372Z" fill="#263238"/>
<path d="M424.051 75.7372C424.051 75.891 414.879 76.0228 403.565 76.0228C392.252 76.0228 383.08 75.891 383.08 75.7372C383.08 75.5835 392.252 75.4517 403.565 75.4517C414.879 75.4517 424.051 75.5176 424.051 75.7372Z" fill="#263238"/>
<path d="M378.741 80.4169C378.741 80.5817 369.569 80.7025 358.256 80.7025C346.942 80.7025 337.771 80.5817 337.771 80.4169C337.771 80.2522 346.942 80.1313 358.256 80.1313C369.569 80.1313 378.741 80.2632 378.741 80.4169Z" fill="#263238"/>
<path d="M380.73 35.624C380.73 35.7777 371.559 35.9095 360.245 35.9095C348.931 35.9095 339.76 35.7777 339.76 35.624C339.76 35.4702 348.931 35.3384 360.245 35.3384C371.559 35.3384 380.73 35.4592 380.73 35.624Z" fill="#263238"/>
<path d="M369.812 32.2529C366.303 32.6337 362.764 32.6337 359.256 32.2529C362.764 31.8721 366.303 31.8721 369.812 32.2529Z" fill="#455A64"/>
<path d="M348.645 56.7333C345.137 57.1141 341.598 57.1141 338.09 56.7333C341.598 56.3526 345.137 56.3526 348.645 56.7333Z" fill="#455A64"/>
<path d="M348.403 61.1044C344.895 61.4852 341.356 61.4852 337.848 61.1044C341.356 60.7237 344.895 60.7237 348.403 61.1044Z" fill="#455A64"/>
<path d="M439.824 16.9208C439.824 17.0856 414.297 17.2174 382.806 17.2174C351.314 17.2174 325.722 17.0856 325.722 16.9208C325.722 16.7561 351.249 16.6353 382.762 16.6353C414.275 16.6353 439.824 16.7671 439.824 16.9208Z" fill="#263238"/>
<path d="M333.465 14.4154C334.211 14.4154 334.816 13.8106 334.816 13.0644C334.816 12.3183 334.211 11.7134 333.465 11.7134C332.719 11.7134 332.114 12.3183 332.114 13.0644C332.114 13.8106 332.719 14.4154 333.465 14.4154Z" fill="white"/>
<path d="M339.265 14.4154C340.011 14.4154 340.616 13.8106 340.616 13.0644C340.616 12.3183 340.011 11.7134 339.265 11.7134C338.519 11.7134 337.914 12.3183 337.914 13.0644C337.914 13.8106 338.519 14.4154 339.265 14.4154Z" fill="white"/>
<path d="M345.065 14.4154C345.811 14.4154 346.416 13.8106 346.416 13.0644C346.416 12.3183 345.811 11.7134 345.065 11.7134C344.319 11.7134 343.714 12.3183 343.714 13.0644C343.714 13.8106 344.319 14.4154 345.065 14.4154Z" fill="white"/>
<path d="M235.191 422.487H225.657V435.492H235.191V422.487Z" fill="#263238"/>
<path d="M286.301 270.729H370.889V266.61H286.301V270.729Z" fill="#263238"/>
<path d="M383.993 270.729L399.865 211.272H333.807L319.439 270.729H383.993Z" fill="#263238"/>
<path d="M323.404 266.24H382.41L396.141 214.022H336.827L323.404 266.24Z" fill="#F5F5F5"/>
<path d="M338.299 224.135L334.642 238.92H373.767L377.941 224.135H338.299Z" fill="#E0E0E0"/>
<path d="M369.658 222.186C369.658 222.351 362.804 222.472 354.335 222.472C345.867 222.472 339.013 222.351 339.013 222.186C339.013 222.022 345.867 221.901 354.335 221.901C362.804 221.901 369.658 222.033 369.658 222.186Z" fill="#455A64"/>
<path d="M351.854 226.96C347.744 227.34 343.607 227.34 339.497 226.96C343.607 226.579 347.744 226.579 351.854 226.96Z" fill="#263238"/>
<path d="M361.761 226.733C359.094 227.114 356.387 227.114 353.721 226.733C356.387 226.353 359.094 226.353 361.761 226.733Z" fill="#263238"/>
<path d="M372.954 229.644C372.954 229.808 365.386 229.94 356.05 229.94C346.713 229.94 339.146 229.808 339.146 229.644C339.146 229.479 346.713 229.358 356.05 229.358C365.386 229.358 372.954 229.512 372.954 229.644Z" fill="#455A64"/>
<path d="M349.405 232.091C345.754 232.474 342.072 232.474 338.421 232.091C342.072 231.707 345.754 231.707 349.405 232.091Z" fill="#555555"/>
<path d="M369.922 235.593C369.922 235.747 362.903 235.878 354.248 235.878C345.592 235.878 338.562 235.747 338.562 235.593C338.562 235.439 345.581 235.307 354.248 235.307C362.914 235.307 369.922 235.428 369.922 235.593Z" fill="#455A64"/>
<path d="M346.845 243.165C342.827 243.543 338.781 243.543 334.763 243.165C338.781 242.787 342.827 242.787 346.845 243.165Z" fill="#455A64"/>
<path d="M357.213 243.215C355.85 243.481 354.458 243.566 353.072 243.468C351.687 243.553 350.297 243.442 348.942 243.138C350.306 242.872 351.698 242.788 353.083 242.886C354.469 242.801 355.859 242.912 357.213 243.215Z" fill="#263238"/>
<path d="M363.068 242.933C363.068 243.097 362.278 243.218 361.311 243.218C360.344 243.218 359.564 243.097 359.564 242.933C359.564 242.768 360.355 242.647 361.311 242.647C362.267 242.647 363.068 242.779 363.068 242.933Z" fill="#263238"/>
<path d="M338.804 246.194C338.804 246.359 337.936 246.48 336.87 246.48C335.805 246.48 334.948 246.359 334.948 246.194C334.948 246.03 335.816 245.909 336.87 245.909C337.925 245.909 338.804 246.041 338.804 246.194Z" fill="#555555"/>
<path d="M350.337 246.194C347.281 246.575 344.189 246.575 341.133 246.194C344.189 245.813 347.281 245.813 350.337 246.194Z" fill="#263238"/>
<path d="M377.841 245.843C377.841 246.007 372.349 246.128 365.55 246.128C358.751 246.128 353.248 246.007 353.248 245.843C353.248 245.678 358.74 245.557 365.55 245.557C372.36 245.557 377.841 245.689 377.841 245.843Z" fill="#455A64"/>
<path d="M338.212 249.347C338.212 249.5 337.333 249.632 336.235 249.632C335.137 249.632 334.258 249.5 334.258 249.347C334.258 249.193 335.137 249.061 336.235 249.061C337.333 249.061 338.212 249.182 338.212 249.347Z" fill="#263238"/>
<path d="M344.275 249.281C343.515 249.564 342.697 249.662 341.892 249.566C341.082 249.661 340.262 249.563 339.497 249.281C340.263 249.005 341.082 248.907 341.892 248.995C342.697 248.906 343.513 249.004 344.275 249.281Z" fill="#263238"/>
<path d="M362.343 248.991C357.184 249.372 352.004 249.372 346.845 248.991C352.004 248.61 357.184 248.61 362.343 248.991Z" fill="#455A64"/>
<path d="M352.787 254.474C349.669 254.757 346.536 254.852 343.407 254.76C340.277 254.853 337.145 254.757 334.026 254.474C337.144 254.185 340.277 254.09 343.407 254.189C346.536 254.09 349.669 254.185 352.787 254.474Z" fill="#455A64"/>
<path d="M363.739 254.233C360.918 254.614 358.058 254.614 355.237 254.233C358.058 253.853 360.918 253.853 363.739 254.233Z" fill="#555555"/>
<path d="M380.005 254.233C375.311 254.614 370.595 254.614 365.901 254.233C370.595 253.853 375.311 253.853 380.005 254.233Z" fill="#263238"/>
<path d="M376.25 221.952C376.25 222.117 375.591 222.238 374.789 222.238C373.987 222.238 373.328 222.117 373.328 221.952C373.328 221.787 373.987 221.667 374.789 221.667C375.591 221.667 376.25 221.82 376.25 221.952Z" fill="#263238"/>
<path d="M346.494 219.975C344.372 220.356 342.2 220.356 340.079 219.975C342.2 219.595 344.372 219.595 346.494 219.975Z" fill="#555555"/>
<path d="M395.153 217.779H335.839L336.838 214.022H396.152L395.153 217.779Z" fill="#EBEBEB"/>
<path d="M339.332 216.572C339.69 216.572 339.98 216.282 339.98 215.924C339.98 215.566 339.69 215.276 339.332 215.276C338.974 215.276 338.684 215.566 338.684 215.924C338.684 216.282 338.974 216.572 339.332 216.572Z" fill="#FAFAFA"/>
<path d="M341.561 216.572C341.919 216.572 342.209 216.282 342.209 215.924C342.209 215.566 341.919 215.276 341.561 215.276C341.203 215.276 340.913 215.566 340.913 215.924C340.913 216.282 341.203 216.572 341.561 216.572Z" fill="#FAFAFA"/>
<path d="M343.792 216.572C344.15 216.572 344.44 216.282 344.44 215.924C344.44 215.566 344.15 215.276 343.792 215.276C343.434 215.276 343.144 215.566 343.144 215.924C343.144 216.282 343.434 216.572 343.792 216.572Z" fill="#FAFAFA"/>
<path d="M467.439 276.268H326.8V358.33H467.439V276.268Z" fill="#263238"/>
<path d="M390.87 276.268H326.8V358.33H390.87V276.268Z" fill="#455A64"/>
<path d="M384.344 304.136C384.328 303.997 384.328 303.857 384.344 303.719V302.521C384.344 301.423 384.344 299.918 384.289 297.963C384.289 293.998 384.224 288.33 384.18 281.344L384.388 281.553L332.851 281.63L333.137 281.344V287.265C333.137 289.22 333.137 291.164 333.137 293.064C333.137 296.876 333.137 300.577 333.137 304.114L332.873 303.85L369.791 303.971L380.511 304.048H383.389H384.147H384.41H384.18H383.455H380.632L369.966 304.114L332.873 304.246H332.599V303.971C332.599 300.434 332.599 296.733 332.599 292.921V281.366L332.884 281.081L384.421 281.157H384.63V281.366C384.575 288.407 384.542 294.119 384.509 298.106C384.509 300.039 384.509 301.555 384.509 302.62V303.785C384.355 304.015 384.344 304.202 384.344 304.136Z" fill="#263238"/>
<path d="M360.761 292.743C360.618 292.12 360.27 291.563 359.772 291.161C359.505 290.974 359.196 290.856 358.873 290.815C358.549 290.775 358.221 290.815 357.916 290.931C357.549 291.072 357.234 291.32 357.011 291.644C356.787 291.967 356.666 292.35 356.664 292.743C356.669 293.135 356.791 293.517 357.014 293.84C357.237 294.162 357.551 294.411 357.916 294.555C358.222 294.667 358.551 294.703 358.874 294.661C359.197 294.619 359.505 294.5 359.772 294.314C360.266 293.909 360.613 293.353 360.761 292.732C360.761 292.732 360.86 292.93 360.761 293.292C360.673 293.819 360.395 294.295 359.981 294.632C359.666 294.889 359.291 295.061 358.892 295.132C358.492 295.203 358.08 295.171 357.696 295.039C357.216 294.874 356.798 294.563 356.503 294.149C356.208 293.736 356.049 293.24 356.049 292.732C356.049 292.224 356.208 291.728 356.503 291.315C356.798 290.901 357.216 290.59 357.696 290.425C358.079 290.291 358.49 290.257 358.89 290.326C359.29 290.396 359.665 290.566 359.981 290.821C360.395 291.158 360.673 291.634 360.761 292.161C360.871 292.545 360.794 292.743 360.761 292.743Z" fill="#263238"/>
<path d="M384.345 329.232C384.329 329.09 384.329 328.946 384.345 328.804V327.607C384.345 326.508 384.345 325.003 384.29 323.048C384.29 319.094 384.224 313.426 384.18 306.429L384.389 306.638L332.851 306.726L333.137 306.44V312.361C333.137 314.327 333.137 316.26 333.137 318.171C333.137 321.983 333.137 325.684 333.137 329.221L332.873 328.947L369.791 329.078L380.511 329.155H383.389H384.147H384.41H384.18H383.455H380.632L369.966 329.232L332.873 329.364H332.599V329.089C332.599 325.553 332.599 321.851 332.599 318.04V306.451C332.533 306.451 333.137 305.902 332.884 306.155L384.421 306.243H384.63V306.396C384.575 313.448 384.542 319.16 384.509 323.147C384.509 325.08 384.509 326.585 384.509 327.662V328.815C384.356 329.111 384.345 329.243 384.345 329.232Z" fill="#263238"/>
<path d="M360.761 317.832C360.607 317.223 360.26 316.68 359.772 316.284C359.48 316.075 359.135 315.95 358.777 315.923C358.418 315.896 358.059 315.968 357.738 316.131C357.418 316.295 357.148 316.542 356.959 316.848C356.769 317.154 356.667 317.506 356.664 317.865C356.666 318.258 356.787 318.641 357.011 318.965C357.234 319.288 357.549 319.536 357.916 319.678C358.221 319.794 358.549 319.833 358.873 319.793C359.196 319.753 359.505 319.634 359.772 319.447C360.268 319.044 360.615 318.487 360.761 317.865C360.761 317.865 360.86 318.063 360.761 318.426C360.673 318.952 360.395 319.429 359.981 319.766C359.666 320.022 359.291 320.194 358.892 320.266C358.492 320.337 358.08 320.304 357.696 320.172C357.216 320.007 356.798 319.696 356.503 319.283C356.208 318.869 356.049 318.374 356.049 317.865C356.049 317.357 356.208 316.862 356.503 316.448C356.798 316.034 357.216 315.723 357.696 315.559C358.08 315.426 358.492 315.394 358.892 315.465C359.291 315.536 359.666 315.708 359.981 315.965C360.395 316.302 360.673 316.778 360.761 317.305C360.871 317.635 360.794 317.832 360.761 317.832Z" fill="#263238"/>
<path d="M384.344 354.32C384.328 354.181 384.328 354.041 384.344 353.902V352.705C384.344 351.607 384.344 350.102 384.289 348.147C384.289 344.181 384.224 338.514 384.18 331.528L384.388 331.736L332.851 331.813L333.137 331.528V337.448C333.137 339.403 333.137 341.347 333.137 343.248C333.137 347.059 333.137 350.761 333.137 354.298L332.873 354.034L369.791 354.155L380.511 354.232H383.389H384.147H384.41H384.18H383.455H380.632L369.966 354.298L332.873 354.429H332.599V354.155C332.599 350.618 332.599 346.916 332.599 343.105V331.55L332.884 331.264L384.421 331.341H384.63V331.55C384.575 338.59 384.542 344.302 384.509 348.289C384.509 350.223 384.509 351.738 384.509 352.804V353.968C384.355 354.199 384.344 354.331 384.344 354.32Z" fill="#263238"/>
<path d="M360.761 342.931C360.618 342.308 360.27 341.751 359.772 341.349C359.505 341.163 359.196 341.044 358.873 341.004C358.549 340.963 358.221 341.003 357.916 341.119C357.549 341.26 357.234 341.508 357.011 341.832C356.787 342.155 356.666 342.538 356.664 342.931C356.667 343.291 356.769 343.643 356.959 343.948C357.148 344.254 357.418 344.502 357.738 344.665C358.059 344.828 358.418 344.9 358.777 344.873C359.135 344.846 359.48 344.722 359.772 344.513C360.266 344.108 360.613 343.552 360.761 342.931C360.761 342.931 360.86 343.129 360.761 343.491C360.673 344.018 360.395 344.494 359.981 344.831C359.666 345.088 359.291 345.26 358.892 345.331C358.492 345.402 358.08 345.37 357.696 345.238C357.216 345.073 356.798 344.762 356.503 344.348C356.208 343.935 356.049 343.439 356.049 342.931C356.049 342.423 356.208 341.927 356.503 341.514C356.798 341.1 357.216 340.789 357.696 340.624C358.079 340.49 358.49 340.456 358.89 340.526C359.29 340.595 359.665 340.765 359.981 341.02C360.395 341.357 360.673 341.833 360.761 342.36C360.871 342.733 360.794 342.931 360.761 342.931Z" fill="#263238"/>
<path d="M233.138 425.124L139.147 425.047V276.268H233.138V425.124Z" fill="#263238"/>
<path d="M472.546 270.545H134.611V278.344H472.546V270.545Z" fill="#263238"/>
<path d="M149.626 278.346H139.147V436.187H149.626V278.346Z" fill="#263238"/>
<path d="M467.439 278.346H456.96V436.231H467.439V278.346Z" fill="#263238"/>
<path d="M401.347 278.346H390.868V436.231H401.347V278.346Z" fill="#263238"/>
<path d="M182.128 270.546C182.128 270.7 172.056 270.831 159.633 270.831C147.21 270.831 137.138 270.7 137.138 270.546C137.138 270.392 147.21 270.26 159.633 270.26C172.056 270.26 182.128 270.381 182.128 270.546Z" fill="#455A64"/>
<path d="M280.941 428.498L281.204 417.218L260.06 416.581L259.5 433.057L260.807 433.177C266.629 433.683 290.464 435.308 294.385 434.276C298.779 433.09 280.941 428.498 280.941 428.498Z" fill="#555555"/>
<g opacity="0.4">
<path d="M289.64 431.057C289.64 431.057 295.89 433.056 295.066 434.078C294.243 435.099 270.111 434.341 259.5 433.089V432.617L287.652 433.715C287.652 433.715 288.377 431.068 289.64 431.057Z" fill="white"/>
</g>
<path d="M259.215 432.592H259.577L260.676 432.691L264.509 432.977C267.749 433.196 272.198 433.427 277.185 433.592C282.171 433.757 286.631 433.79 289.882 433.779C286.642 433.779 282.193 433.669 277.196 433.515C272.198 433.361 267.76 433.152 264.52 432.977L260.676 432.779H259.577L259.215 432.592Z" fill="#263238"/>
<path d="M287.674 434.043C287.862 433.411 288.124 432.803 288.454 432.231C288.852 431.708 289.305 431.229 289.805 430.803C289.165 431.065 288.618 431.515 288.238 432.093C287.857 432.671 287.661 433.351 287.674 434.043Z" fill="#263238"/>
<path d="M281.534 430.69C281.589 430.69 281.907 430.372 282.226 429.899C282.544 429.427 282.764 428.999 282.709 428.966C282.654 428.933 282.336 429.273 282.017 429.756C281.699 430.24 281.479 430.646 281.534 430.69Z" fill="#263238"/>
<path d="M279.852 429.738C279.852 429.738 280.237 429.574 280.61 429.255C280.984 428.937 281.247 428.64 281.203 428.585C281.16 428.53 280.819 428.75 280.446 429.068C280.072 429.387 279.809 429.684 279.852 429.738Z" fill="#263238"/>
<path d="M278.832 427.702C279.182 427.837 279.556 427.897 279.93 427.878C280.298 427.934 280.674 427.904 281.029 427.79C280.679 427.657 280.305 427.598 279.93 427.615C279.326 427.593 278.832 427.626 278.832 427.702Z" fill="#263238"/>
<path d="M278.491 426.284C278.851 426.531 279.274 426.668 279.71 426.679C280.139 426.763 280.582 426.717 280.985 426.547C280.573 426.463 280.153 426.422 279.732 426.426C279.325 426.333 278.909 426.285 278.491 426.284Z" fill="#263238"/>
<path d="M282.313 428.869C282.761 428.946 283.217 428.946 283.664 428.869C284.158 428.82 284.647 428.728 285.125 428.595C285.414 428.519 285.694 428.412 285.96 428.276C286.125 428.191 286.251 428.045 286.312 427.87C286.338 427.77 286.334 427.665 286.301 427.567C286.267 427.47 286.206 427.384 286.125 427.321C285.614 427.05 285.026 426.965 284.459 427.079C283.892 427.193 283.383 427.5 283.016 427.947C282.8 428.212 282.639 428.519 282.544 428.847C282.52 428.967 282.52 429.09 282.544 429.21C282.701 428.81 282.924 428.439 283.203 428.112C283.517 427.764 283.926 427.516 284.378 427.398C284.92 427.238 285.502 427.293 286.004 427.551C286.213 427.716 286.114 427.969 285.872 428.112C285.625 428.233 285.368 428.332 285.103 428.408C284.64 428.552 284.166 428.662 283.686 428.738C282.885 428.836 282.313 428.825 282.313 428.869Z" fill="#263238"/>
<path d="M282.654 428.945C282.83 428.668 282.896 428.335 282.841 428.011C282.812 427.652 282.695 427.305 282.501 427.001C282.394 426.797 282.237 426.624 282.045 426.497C281.853 426.37 281.632 426.294 281.402 426.276C281.263 426.3 281.139 426.378 281.056 426.493C280.974 426.608 280.94 426.751 280.963 426.891C280.99 427.11 281.065 427.319 281.182 427.506C281.348 427.812 281.555 428.093 281.798 428.341C282.002 428.591 282.261 428.79 282.555 428.923C282.555 428.923 282.292 428.67 281.929 428.22C281.721 427.965 281.541 427.689 281.391 427.396C281.215 427.1 281.095 426.583 281.446 426.528C281.798 426.474 282.116 426.858 282.314 427.133C282.5 427.402 282.624 427.71 282.676 428.033C282.701 428.337 282.693 428.643 282.654 428.945Z" fill="#263238"/>
<path d="M259.818 426.815C259.818 426.87 260.433 426.816 261.378 426.925C262.622 427.095 263.791 427.616 264.748 428.428C265.705 429.239 266.411 430.307 266.782 431.506C266.925 432.008 267.042 432.518 267.134 433.032C267.162 432.891 267.162 432.745 267.134 432.604C267.096 432.233 267.03 431.866 266.936 431.506C266.596 430.25 265.882 429.127 264.89 428.286C263.897 427.444 262.673 426.924 261.378 426.794C260.991 426.754 260.601 426.754 260.214 426.794C260.082 426.785 259.949 426.792 259.818 426.815Z" fill="#263238"/>
<path d="M262.279 418.084C262.094 419.524 261.988 420.972 261.961 422.423C261.86 423.886 261.841 425.352 261.906 426.817C262.092 425.378 262.198 423.929 262.224 422.478C262.332 421.016 262.35 419.549 262.279 418.084Z" fill="#263238"/>
<path d="M269.892 431.166C270.894 431.436 271.929 431.572 272.967 431.572C274.002 431.652 275.043 431.6 276.065 431.418C276.065 431.342 274.681 431.418 272.978 431.32C271.276 431.221 269.903 431.1 269.892 431.166Z" fill="#263238"/>
<path d="M265.75 431.032C265.75 431.032 265.849 431.328 265.981 431.647C266.112 431.965 266.178 432.262 266.255 432.251C266.332 432.24 266.376 431.921 266.255 431.559C266.134 431.196 265.794 430.988 265.75 431.032Z" fill="#263238"/>
<path d="M264.212 429.042C264.212 429.042 264.289 429.316 264.498 429.547C264.706 429.778 264.926 429.92 264.981 429.865C265.036 429.81 264.904 429.602 264.684 429.371C264.465 429.14 264.3 428.998 264.212 429.042Z" fill="#263238"/>
<path d="M262.016 428.09C262.016 428.167 262.312 428.167 262.62 428.287C262.927 428.408 263.147 428.573 263.202 428.529C263.257 428.485 263.092 428.189 262.708 428.046C262.323 427.903 262.016 428.024 262.016 428.09Z" fill="#263238"/>
<path d="M260.456 427.614C260.456 427.68 260.555 427.79 260.72 427.867C260.884 427.944 261.06 427.944 261.082 427.867C261.104 427.79 260.994 427.68 260.819 427.614C260.643 427.548 260.489 427.548 260.456 427.614Z" fill="#263238"/>
<g opacity="0.3">
<path d="M259.862 426.258L280.995 426.555L281.039 424.006L259.741 424.907L259.862 426.258Z" fill="black"/>
</g>
<path d="M314.289 430.254V418.962L293.134 418.885L293.013 435.361L294.32 435.449C300.152 435.79 323.977 436.789 327.92 435.625C332.248 434.362 314.289 430.254 314.289 430.254Z" fill="#555555"/>
<g opacity="0.4">
<path d="M323.054 432.573C323.054 432.573 329.348 434.418 328.546 435.451C327.744 436.483 303.612 436.384 292.969 435.451V434.978L321.132 435.341C321.132 435.341 321.824 432.628 323.054 432.573Z" fill="white"/>
</g>
<path d="M292.683 434.909H293.045L294.089 434.975L297.933 435.161C301.173 435.293 305.622 435.414 310.62 435.436C315.617 435.458 320.066 435.436 323.317 435.293L327.161 435.15L328.205 435.084H328.567H327.161L323.317 435.139C320.022 435.139 315.573 435.238 310.62 435.216C305.666 435.194 301.184 435.095 297.933 435.019L294.089 434.909H292.683Z" fill="#263238"/>
<path d="M321.176 435.621C321.34 434.982 321.584 434.366 321.901 433.787C322.281 433.247 322.724 432.753 323.219 432.315C322.558 432.555 322.009 433.033 321.681 433.655C321.272 434.224 321.091 434.926 321.176 435.621Z" fill="#263238"/>
<path d="M314.948 432.427C315.003 432.427 315.299 432.098 315.618 431.615C315.936 431.131 316.123 430.714 316.068 430.67C316.013 430.626 315.706 431 315.398 431.483C315.091 431.966 314.882 432.384 314.948 432.427Z" fill="#263238"/>
<path d="M313.233 431.513C313.233 431.513 313.618 431.337 313.98 431.019C314.343 430.7 314.606 430.382 314.562 430.327C314.518 430.272 314.178 430.503 313.815 430.821C313.453 431.14 313.189 431.458 313.233 431.513Z" fill="#263238"/>
<path d="M312.157 429.515C312.509 429.639 312.884 429.687 313.256 429.657C313.625 429.702 314 429.665 314.354 429.548C314.354 429.471 313.871 429.405 313.256 429.405C312.641 429.405 312.157 429.416 312.157 429.515Z" fill="#263238"/>
<path d="M311.795 428.1C312.16 428.341 312.588 428.467 313.025 428.463C313.456 428.549 313.904 428.491 314.299 428.298C313.885 428.234 313.466 428.205 313.047 428.21C312.634 428.136 312.215 428.099 311.795 428.1Z" fill="#263238"/>
<path d="M315.673 430.584C316.119 430.669 316.577 430.669 317.024 430.584C317.517 430.53 318.003 430.423 318.474 430.266C318.765 430.191 319.045 430.08 319.309 429.936C319.471 429.841 319.593 429.688 319.649 429.508C319.669 429.408 319.66 429.304 319.623 429.209C319.586 429.113 319.523 429.03 319.44 428.97C318.923 428.713 318.332 428.643 317.769 428.774C317.206 428.904 316.706 429.226 316.354 429.684C316.149 429.953 315.996 430.259 315.904 430.584C315.875 430.707 315.875 430.835 315.904 430.958C316.05 430.559 316.261 430.188 316.53 429.86C316.838 429.502 317.242 429.239 317.694 429.102C318.227 428.927 318.808 428.97 319.309 429.222C319.528 429.387 319.44 429.64 319.199 429.783C318.958 429.916 318.704 430.023 318.441 430.101C317.981 430.255 317.511 430.376 317.035 430.464C316.189 430.519 315.673 430.519 315.673 430.584Z" fill="#263238"/>
<path d="M316.024 430.658C316.183 430.371 316.237 430.037 316.178 429.713C316.14 429.356 316.016 429.012 315.815 428.714C315.703 428.518 315.544 428.352 315.352 428.231C315.161 428.111 314.942 428.039 314.717 428.022C314.648 428.035 314.582 428.062 314.524 428.1C314.466 428.139 314.416 428.189 314.377 428.247C314.338 428.306 314.311 428.371 314.298 428.44C314.284 428.509 314.285 428.579 314.299 428.648C314.331 428.864 314.41 429.07 314.53 429.252C314.706 429.553 314.92 429.83 315.167 430.076C315.584 430.493 315.925 430.658 315.936 430.625C315.947 430.592 315.672 430.384 315.299 429.955C315.083 429.699 314.892 429.423 314.728 429.131C314.541 428.846 314.42 428.33 314.728 428.275C315.035 428.22 315.409 428.582 315.617 428.846C315.81 429.11 315.942 429.414 316.002 429.735C316.035 430.042 316.042 430.351 316.024 430.658Z" fill="#263238"/>
<path d="M293.134 429.133C293.134 429.133 293.738 429.078 294.694 429.199C295.939 429.343 297.119 429.834 298.099 430.616C299.071 431.407 299.805 432.452 300.219 433.636C300.537 434.537 300.57 435.152 300.614 435.141C300.635 434.999 300.635 434.855 300.614 434.713C300.573 434.341 300.5 433.973 300.394 433.614C300.019 432.369 299.276 431.266 298.263 430.45C297.249 429.635 296.013 429.145 294.715 429.045C294.328 429.009 293.938 429.009 293.551 429.045C293.277 429.078 293.134 429.111 293.134 429.133Z" fill="#263238"/>
<path d="M295.363 420.334C295.209 421.794 295.143 423.261 295.165 424.728C295.09 426.192 295.109 427.66 295.22 429.122C295.366 427.662 295.432 426.195 295.418 424.728C295.492 423.264 295.474 421.796 295.363 420.334Z" fill="#263238"/>
<path d="M303.315 433.219C304.326 433.458 305.364 433.565 306.402 433.538C307.441 433.59 308.482 433.509 309.499 433.296C309.499 433.23 308.104 433.296 306.402 433.296C304.699 433.296 303.326 433.142 303.315 433.219Z" fill="#263238"/>
<path d="M299.163 433.184C299.163 433.239 299.284 433.481 299.416 433.799C299.548 434.118 299.635 434.404 299.712 434.393C299.789 434.382 299.822 434.063 299.657 433.701C299.493 433.338 299.218 433.14 299.163 433.184Z" fill="#263238"/>
<path d="M297.614 431.241C297.559 431.241 297.702 431.505 297.922 431.736C298.142 431.966 298.35 432.098 298.405 432.043C298.46 431.988 298.317 431.78 298.098 431.549C297.878 431.318 297.669 431.186 297.614 431.241Z" fill="#263238"/>
<path d="M295.384 430.339C295.384 430.416 295.68 430.416 295.988 430.526C296.296 430.636 296.526 430.8 296.581 430.756C296.636 430.712 296.46 430.416 296.076 430.284C295.691 430.152 295.362 430.273 295.384 430.339Z" fill="#263238"/>
<path d="M293.792 429.914C293.792 429.98 293.891 430.09 294.067 430.167C294.242 430.243 294.407 430.232 294.429 430.167C294.451 430.101 294.33 429.991 294.154 429.925C293.979 429.859 293.869 429.848 293.792 429.914Z" fill="#263238"/>
<g opacity="0.3">
<path d="M293.166 428.561L314.299 428.309L314.277 425.76L293.001 427.221L293.166 428.561Z" fill="black"/>
</g>
<path d="M267.584 236.966L276.053 262.46C278.337 269.347 284.357 270.534 291.617 270.534H338.728V259.956L295.692 253.816L285.433 227.608L267.584 236.966Z" fill="#FFBE9D"/>
<path d="M343.912 257.769L347.647 256.001C347.647 256.001 351.678 248.213 352.6 248.531C353.523 248.85 353.798 251.135 352.183 254.705L357.148 253.288C357.148 253.288 367.912 258.263 367.44 258.933C366.968 259.603 366.078 261.196 363.738 260.032C361.399 258.867 358.312 257.418 358.312 257.418L352.513 259.076L359.993 260.032L367.033 266.424C367.033 266.424 364.716 268.16 362.728 266.326L344.45 270.247L338.728 270.576V259.999L343.912 257.769Z" fill="#FFBE9D"/>
<path d="M362.728 266.295C362.651 266.295 362.31 265.801 361.629 265.087C361.241 264.677 360.793 264.329 360.3 264.054C359.68 263.757 359.009 263.582 358.323 263.538C356.466 263.412 354.626 263.099 352.831 262.604C354.692 262.541 356.554 262.666 358.389 262.978C359.158 263.025 359.908 263.238 360.586 263.604C361.114 263.923 361.579 264.336 361.959 264.823C362.341 265.237 362.607 265.745 362.728 266.295Z" fill="#EB996E"/>
<path d="M359.872 267.02C359.795 267.02 359.74 266.647 359.235 266.537C358.73 266.427 357.873 266.339 357.038 266.251C355.962 266.234 354.89 266.127 353.831 265.933C354.889 265.564 356.025 265.477 357.126 265.68C357.907 265.748 358.678 265.906 359.422 266.152C359.552 266.2 359.669 266.278 359.765 266.379C359.86 266.48 359.931 266.602 359.971 266.735C359.971 266.932 359.905 267.031 359.872 267.02Z" fill="#EB996E"/>
<path d="M227.81 132.105L225.251 183.928L247.439 186.015L248.669 173.493C248.669 173.493 256.49 175.426 258.862 168.188C260.389 163.564 261.74 127.338 261.74 127.338L227.81 132.105Z" fill="#FFBE9D"/>
<path d="M263.651 133.333C264.266 138.188 257.489 141.022 257.489 141.022L256.303 152.5C255.242 152.424 254.178 152.424 253.118 152.5C253.689 147.118 246.747 148.172 246.044 151.841C245.341 155.51 249.339 157.729 249.339 157.729C246.571 161.979 245.44 164.231 241.507 168.218C237.246 172.535 234.917 172.887 230.523 172.755L225.679 172.535C225.679 172.535 223.944 168.394 222.681 158.607C222.077 153.906 218.397 147.733 219.451 140.088C222.417 118.351 243.243 120.646 243.243 120.646C254.128 120.877 262.223 122.085 263.651 133.333Z" fill="#263238"/>
<path d="M247.736 121.206C252.437 121.326 257.314 121.7 261.444 123.952C265.574 126.203 268.76 130.85 267.914 135.474L265.563 135.902L264.597 134.167C264.597 135.089 264.597 136.012 264.597 136.935L260.467 138.088C259.846 134.562 258.603 131.174 256.798 128.082" fill="#263238"/>
<path d="M228.69 145.051C228.526 144.801 228.404 144.527 228.327 144.238C228.061 143.47 227.863 142.68 227.734 141.877C227.288 139.21 227.474 136.477 228.277 133.895C229.08 131.314 230.478 128.957 232.358 127.015C232.912 126.423 233.519 125.883 234.171 125.401C234.399 125.201 234.659 125.041 234.94 124.928C234.995 125.005 233.984 125.763 232.655 127.279C230.928 129.253 229.63 131.565 228.843 134.067C228.088 136.578 227.856 139.217 228.162 141.822C228.371 143.832 228.789 145.018 228.69 145.051Z" fill="#455A64"/>
<path d="M233.061 143.24C232.636 142.405 232.343 141.508 232.194 140.582C231.706 138.369 231.562 136.094 231.765 133.838C231.956 131.574 232.489 129.351 233.347 127.247C233.656 126.358 234.105 125.524 234.676 124.776C233.494 127.686 232.707 130.741 232.336 133.86C232.159 137.005 232.402 140.16 233.061 143.24Z" fill="#455A64"/>
<path d="M261.389 135.201C261.279 135.201 261.092 133.861 260.192 131.906C259.035 129.328 257.181 127.125 254.838 125.545C252.495 123.965 249.758 123.072 246.934 122.965C244.737 122.866 243.43 123.196 243.408 123.097C243.698 122.951 244.01 122.854 244.331 122.811C245.192 122.641 246.068 122.56 246.945 122.57C249.877 122.565 252.743 123.442 255.171 125.085C257.6 126.728 259.479 129.062 260.565 131.785C260.897 132.596 261.144 133.439 261.301 134.301C261.38 134.594 261.41 134.898 261.389 135.201Z" fill="#455A64"/>
<path d="M229.382 117.01C230.622 117.273 231.742 117.937 232.567 118.9C233.53 119.725 234.188 120.851 234.434 122.096C234.281 122.162 233.567 120.69 232.161 119.295C230.755 117.9 229.305 117.175 229.382 117.01Z" fill="#263238"/>
<path d="M234.555 117.034C234.719 117.089 234.379 118.253 234.445 119.692C234.511 121.131 234.906 122.251 234.752 122.328C234.135 121.602 233.82 120.666 233.874 119.714C233.742 118.766 233.987 117.804 234.555 117.034Z" fill="#455A64"/>
<path d="M263.598 231.41L267.212 243.679L290.212 233.277C289.388 230.707 285.577 219.262 278.305 201.094C276.315 196.113 273.075 191.73 268.899 188.365C264.722 185 259.749 182.768 254.459 181.883C247.208 180.559 239.861 179.825 232.491 179.686C219.596 179.829 200.637 187.891 198.067 200.556C196.112 210.2 197.99 227.236 197.99 247.93L199.671 287.472L265.751 289.669L263.598 231.41Z" fill="#555555"/>
<g opacity="0.3">
<path d="M198.022 238.788C206.063 240.436 214.312 238.788 222.506 238.294C227.471 237.997 232.985 237.459 236.917 240.491C240.036 242.907 241.311 246.982 242.189 250.827C245.616 265.468 246.231 275.288 247 290.303L207.227 292.72L198.022 238.788Z" fill="black"/>
</g>
<path d="M276.372 197.304C276.372 197.468 259.017 197.589 237.621 197.589C216.224 197.589 198.88 197.468 198.88 197.304C198.88 197.139 216.224 197.018 237.621 197.018C259.017 197.018 276.372 197.15 276.372 197.304Z" fill="#FAFAFA"/>
<path d="M281.194 208.409C281.194 208.563 262.323 208.695 239.07 208.695C215.817 208.695 196.946 208.563 196.946 208.409C196.946 208.255 215.795 208.124 239.07 208.124C262.345 208.124 281.194 208.255 281.194 208.409Z" fill="#FAFAFA"/>
<path d="M287.278 222.335C287.278 222.5 267.155 222.621 242.331 222.621C217.507 222.621 197.385 222.5 197.385 222.335C197.385 222.17 217.507 222.049 242.331 222.049C267.155 222.049 287.278 222.181 287.278 222.335Z" fill="#FAFAFA"/>
<path d="M263.114 237.362C263.114 237.516 256.82 237.648 249.076 237.648C241.332 237.648 235.027 237.516 235.027 237.362C235.027 237.208 241.31 237.077 249.076 237.077C256.842 237.077 263.114 237.197 263.114 237.362Z" fill="#FAFAFA"/>
<path d="M264.398 253.676C264.398 253.83 257.808 253.907 249.702 253.841C241.595 253.775 235.005 253.599 235.005 253.435C235.005 253.27 241.595 253.204 249.702 253.27C257.808 253.336 264.398 253.49 264.398 253.676Z" fill="#FAFAFA"/>
<path d="M265.036 266.908C264.655 266.977 264.267 266.995 263.882 266.962L260.73 266.897C258.072 266.842 254.403 266.765 250.35 266.765C246.297 266.765 242.661 266.831 239.97 266.886L236.818 266.951C236.431 267.002 236.04 267.002 235.653 266.951C236.028 266.842 236.416 266.783 236.807 266.776C237.543 266.699 238.619 266.622 239.948 266.545C242.606 266.38 246.286 266.249 250.35 266.249C254.414 266.249 258.094 266.391 260.741 266.556C262.07 266.633 263.146 266.721 263.893 266.798C264.277 266.788 264.661 266.825 265.036 266.908Z" fill="#FAFAFA"/>
<path d="M264.827 277.632C264.827 277.786 258.346 277.917 250.35 277.917C242.353 277.917 235.884 277.786 235.884 277.632C235.884 277.478 242.353 277.346 250.35 277.346C258.346 277.346 264.827 277.467 264.827 277.632Z" fill="#FAFAFA"/>
<path d="M266.794 186.421C266.794 186.586 254.075 186.706 238.389 186.706C222.704 186.706 209.974 186.586 209.974 186.421C209.974 186.256 222.693 186.135 238.389 186.135C254.085 186.135 266.794 186.267 266.794 186.421Z" fill="#FAFAFA"/>
<path d="M265.31 188.483C265.31 188.549 264.651 188.582 263.553 189.01C262.028 189.678 260.712 190.745 259.741 192.096C258.34 194.127 257.551 196.518 257.467 198.983C257.384 202.017 257.619 205.05 258.17 208.034C259.095 213.5 260.327 218.909 261.861 224.236C262.399 226.224 262.85 227.86 263.19 229.102C263.375 229.691 263.518 230.293 263.618 230.903C263.355 230.345 263.142 229.764 262.981 229.168C262.608 228.069 262.081 226.389 261.466 224.346C259.831 219.028 258.547 213.608 257.621 208.122C257.07 205.094 256.85 202.015 256.962 198.94C257.076 196.386 257.94 193.922 259.445 191.855C260.474 190.468 261.881 189.408 263.498 188.801C263.936 188.652 264.389 188.549 264.849 188.494C265.001 188.468 265.156 188.464 265.31 188.483Z" fill="#263238"/>
<path d="M289.476 230.135C288.452 230.85 287.367 231.475 286.235 232.003C284.192 233.101 281.325 234.474 278.118 235.924C274.911 237.374 271.967 238.582 269.814 239.406C268.67 239.9 267.487 240.301 266.277 240.603C267.365 239.997 268.496 239.472 269.66 239.032C271.769 238.11 274.691 236.836 277.887 235.408C281.084 233.98 283.962 232.607 286.049 231.64C287.155 231.061 288.3 230.559 289.476 230.135Z" fill="#263238"/>
<path d="M220.067 288.124L299.02 290.913C305.18 291.134 311.009 293.76 315.255 298.228C319.502 302.697 321.828 308.651 321.735 314.815L318.44 427.577L287.937 426.566L290.211 320.988L220.056 319.142L220.067 288.124Z" fill="#263238"/>
<path d="M187.444 288.124L266.409 290.913C272.569 291.134 278.397 293.76 282.644 298.228C286.89 302.697 289.217 308.651 289.124 314.815L285.828 427.577L254.919 425.127L257.621 320.988L187.466 319.142L187.444 288.124Z" fill="#263238"/>
<path d="M246.539 329.077H238.773V422.122H246.539V329.077Z" fill="#455A64"/>
<path d="M173.604 238.768V307.264C173.604 311.578 175.318 315.716 178.369 318.767C181.42 321.817 185.557 323.531 189.872 323.531H235.489V238.768C235.489 237.816 235.301 236.873 234.937 235.993C234.572 235.114 234.038 234.315 233.365 233.641C232.692 232.968 231.893 232.434 231.013 232.07C230.134 231.706 229.191 231.518 228.239 231.518H180.854C179.902 231.518 178.959 231.706 178.08 232.07C177.2 232.434 176.401 232.968 175.728 233.641C175.055 234.315 174.521 235.114 174.156 235.993C173.792 236.873 173.604 237.816 173.604 238.768Z" fill="#455A64"/>
<path d="M296.867 329.081H185.797C185.797 325.877 187.07 322.803 189.336 320.537C191.602 318.272 194.675 316.999 197.879 316.999H284.84C288.044 316.999 291.118 318.272 293.383 320.537C295.649 322.803 296.922 325.877 296.922 329.081H296.867Z" fill="#455A64"/>
<path d="M235.489 315.428C235.502 315.604 235.502 315.78 235.489 315.955C235.48 316.459 235.417 316.959 235.302 317.449C234.936 319 234.126 320.411 232.971 321.509C231.816 322.607 230.367 323.345 228.799 323.633C227.34 323.79 225.872 323.845 224.406 323.798H214.421C207.336 323.798 200.922 323.798 196.287 323.732L190.794 323.655L189.301 323.6C189.124 323.598 188.947 323.579 188.773 323.545C188.945 323.497 189.123 323.474 189.301 323.48L190.794 323.425L196.287 323.326C200.922 323.271 207.336 323.238 214.421 323.227H224.395C225.834 323.285 227.276 323.252 228.711 323.128C229.928 322.921 231.079 322.432 232.072 321.7C233.541 320.618 234.598 319.068 235.071 317.306C235.456 316.153 235.423 315.428 235.489 315.428Z" fill="#263238"/>
<path d="M249.471 329.322C247.21 329.611 244.928 329.707 242.65 329.608C240.376 329.706 238.098 329.611 235.84 329.322C238.098 329.04 240.376 328.944 242.65 329.036C244.928 328.944 247.209 329.04 249.471 329.322Z" fill="#263238"/>
<path d="M283.258 324.128C282.932 323.053 282.704 321.95 282.577 320.833C282.203 318.724 281.709 315.66 281.116 311.881C280.523 308.102 280.116 303.522 278.029 298.986C276.936 296.626 275.552 294.412 273.91 292.395C272.116 290.256 270.03 288.378 267.715 286.815C265.409 285.236 262.876 284.017 260.202 283.202C257.713 282.407 255.125 281.96 252.513 281.873C247.494 281.763 242.902 281.785 239.08 281.708C235.258 281.631 232.149 281.598 230.007 281.532C228.904 281.558 227.801 281.48 226.712 281.301C227.802 281.131 228.904 281.057 230.007 281.082C232.149 281.016 235.247 280.95 239.08 280.906C242.913 280.862 247.45 280.763 252.546 280.829C258.179 280.962 263.654 282.712 268.319 285.871C270.728 287.486 272.889 289.444 274.734 291.681C276.432 293.783 277.854 296.094 278.963 298.557C279.216 299.14 279.424 299.744 279.655 300.326L279.984 301.205C280.061 301.501 280.149 301.798 280.226 302.094C280.391 302.676 280.556 303.259 280.709 303.83C280.863 304.401 280.918 304.983 281.028 305.543C281.412 307.795 281.621 309.86 281.885 311.771C282.368 315.561 282.752 318.647 282.983 320.767C283.176 321.877 283.268 323.002 283.258 324.128Z" fill="#455A64"/>
<path d="M276.623 430.518H275.525C275.605 426.128 274.809 421.766 273.185 417.686C271.56 413.607 269.139 409.892 266.062 406.759C262.986 403.626 259.316 401.137 255.267 399.438C251.217 397.74 246.87 396.865 242.479 396.865C238.088 396.865 233.741 397.74 229.692 399.438C225.643 401.137 221.973 403.626 218.897 406.759C215.82 409.892 213.399 413.607 211.774 417.686C210.15 421.766 209.354 426.128 209.434 430.518H208.336C208.254 425.983 209.077 421.477 210.757 417.263C212.436 413.049 214.938 409.212 218.117 405.976C221.295 402.74 225.087 400.169 229.27 398.415C233.453 396.66 237.943 395.756 242.479 395.756C247.016 395.756 251.506 396.66 255.689 398.415C259.872 400.169 263.664 402.74 266.842 405.976C270.021 409.212 272.523 413.049 274.202 417.263C275.882 421.477 276.705 425.983 276.623 430.518Z" fill="#455A64"/>
<path d="M214.004 432.254C214.004 433.266 213.704 434.256 213.141 435.098C212.579 435.939 211.779 436.595 210.844 436.983C209.909 437.37 208.879 437.472 207.887 437.274C206.894 437.077 205.982 436.589 205.266 435.873C204.55 435.157 204.062 434.245 203.865 433.252C203.667 432.26 203.769 431.23 204.156 430.295C204.544 429.36 205.2 428.56 206.041 427.998C206.883 427.435 207.873 427.135 208.885 427.135C209.558 427.134 210.224 427.265 210.846 427.522C211.467 427.779 212.032 428.156 212.508 428.631C212.983 429.107 213.36 429.672 213.617 430.293C213.874 430.915 214.005 431.581 214.004 432.254Z" fill="#263238"/>
<path d="M281.446 431.551C281.446 432.563 281.146 433.553 280.583 434.394C280.021 435.236 279.222 435.892 278.286 436.28C277.351 436.667 276.322 436.768 275.329 436.571C274.336 436.373 273.424 435.886 272.708 435.17C271.992 434.454 271.505 433.542 271.307 432.549C271.11 431.556 271.211 430.527 271.599 429.592C271.986 428.657 272.642 427.857 273.484 427.295C274.326 426.732 275.315 426.432 276.328 426.432C277.685 426.432 278.987 426.971 279.947 427.931C280.907 428.891 281.446 430.193 281.446 431.551Z" fill="#263238"/>
<path d="M276.295 422.124C276.295 422.289 261.434 422.421 243.112 422.421C224.791 422.421 209.93 422.289 209.93 422.124C209.93 421.959 224.78 421.838 243.112 421.838C261.445 421.838 276.295 421.97 276.295 422.124Z" fill="#455A64"/>
<path d="M162.939 208.391C163.749 208.903 164.449 209.573 164.996 210.359C165.543 211.146 165.927 212.034 166.125 212.972C166.5 214.861 166.44 216.81 165.949 218.673C165.114 222.275 162.654 225.724 160.018 228.382C157.261 225.34 157.096 220.573 157.162 218.145C157.272 214.312 159.809 207.447 162.939 208.391Z" fill="#555555"/>
<path d="M162.895 234.842C162.812 233.777 163.011 232.708 163.472 231.744C163.932 230.78 164.639 229.954 165.52 229.35C166.416 228.759 167.42 228.352 168.474 228.152C169.528 227.952 170.611 227.964 171.66 228.186C172.153 228.237 172.628 228.396 173.053 228.65C173.478 228.904 173.842 229.248 174.121 229.657C174.315 230.079 174.392 230.544 174.346 231.006C174.3 231.467 174.131 231.908 173.857 232.283C173.29 233.031 172.531 233.612 171.66 233.963C168.793 235.325 165.773 236.16 162.873 234.864" fill="#555555"/>
<path d="M158.26 242.882C158.412 242.076 158.648 241.288 158.963 240.531C159.27 239.689 159.679 238.889 160.182 238.147C160.756 237.221 161.395 236.337 162.093 235.5C163.378 233.959 165.023 232.76 166.882 232.007C167.448 231.8 168.033 231.649 168.629 231.557C168.847 231.521 169.07 231.521 169.288 231.557C169.288 231.634 168.365 231.733 166.992 232.315C165.224 233.123 163.659 234.316 162.412 235.808C161.723 236.629 161.085 237.491 160.501 238.389C159.998 239.104 159.571 239.87 159.226 240.674C158.957 241.432 158.634 242.17 158.26 242.882Z" fill="#263238"/>
<path d="M161.467 213.784C161.508 214.196 161.508 214.612 161.467 215.025C161.467 215.816 161.357 216.969 161.258 218.386C161.049 221.231 160.709 225.152 160.247 229.48C159.786 233.808 159.237 237.696 158.786 240.464C158.556 241.87 158.369 243.001 158.215 243.759C158.159 244.169 158.067 244.573 157.941 244.967C157.937 244.551 157.974 244.135 158.051 243.726C158.171 242.869 158.314 241.738 158.49 240.431C158.863 237.608 159.358 233.709 159.83 229.381C160.302 225.053 160.665 221.22 160.928 218.32C161.071 216.958 161.192 215.827 161.28 214.959C161.313 214.563 161.376 214.17 161.467 213.784Z" fill="#263238"/>
<path d="M158.084 235.713C157.66 233.49 156.714 231.4 155.324 229.614C153.933 227.828 152.139 226.399 150.087 225.443C148.989 224.971 147.682 224.674 146.847 225.443C146.012 226.212 146.232 227.64 146.671 228.683C147.629 230.886 149.218 232.756 151.237 234.056C153.257 235.356 155.616 236.028 158.018 235.988" fill="#555555"/>
<path d="M150.889 228.709C151.096 228.774 151.293 228.87 151.471 228.995C153.691 230.271 155.624 231.991 157.15 234.048C157.75 234.958 158.199 235.959 158.479 237.013C158.695 237.875 158.795 238.762 158.775 239.65C158.76 240.244 158.69 240.836 158.567 241.418C158.538 241.637 158.479 241.852 158.391 242.055C158.303 242.055 158.501 241.121 158.479 239.65C158.457 238.793 158.336 237.941 158.116 237.112C157.822 236.107 157.378 235.151 156.798 234.278C155.689 232.708 154.335 231.325 152.789 230.181C152.126 229.73 151.491 229.239 150.889 228.709Z" fill="#263238"/>
<path d="M157.721 270.552C154.079 270.549 150.587 269.1 148.012 266.523C145.437 263.946 143.991 260.453 143.991 256.811V243.081H171.451V256.811C171.451 260.453 170.005 263.946 167.431 266.523C164.856 269.1 161.364 270.549 157.721 270.552Z" fill="#263238"/>
<path d="M171.462 249.834C171.351 249.975 171.226 250.104 171.089 250.219L169.99 251.24L165.806 254.777L165.707 254.854L165.586 254.788L157.666 250.032H157.897L150.439 254.777L150.329 254.854L150.219 254.766L145.661 251.196L144.409 250.186C144.254 250.072 144.113 249.939 143.991 249.79C144.17 249.863 144.337 249.963 144.485 250.087C144.837 250.339 145.276 250.658 145.804 251.02L150.45 254.469H150.23L157.6 249.614L157.721 249.538L157.842 249.603L165.762 254.458H165.542L169.793 251.02L170.99 250.076C171.298 249.922 171.451 249.812 171.462 249.834Z" fill="#E0E0E0"/>
<path d="M171.462 247.088C171.351 247.229 171.226 247.357 171.089 247.472L169.99 248.494L165.849 252.064L165.751 252.141L165.63 252.075L157.666 247.286H157.897L150.483 252.086L150.373 252.162L150.263 252.075L145.705 248.505L144.453 247.494C144.297 247.38 144.157 247.248 144.035 247.099C144.214 247.172 144.381 247.272 144.529 247.395L145.848 248.329L150.494 251.778H150.274L157.644 246.923L157.765 246.846L157.886 246.912L165.806 251.767H165.586L169.837 248.329L171.034 247.384C171.298 247.176 171.451 247.088 171.462 247.088Z" fill="#E0E0E0"/>
<path d="M171.463 252.58C171.463 252.58 171.342 252.734 171.089 252.975L169.991 253.986L165.85 257.556L165.751 257.643L165.63 257.567L157.667 252.832H157.898L150.483 257.632L150.374 257.709L150.264 257.632C148.429 256.183 146.881 254.974 145.705 254.063L144.453 253.041C144.168 252.8 144.025 252.668 144.036 252.646C144.212 252.724 144.378 252.824 144.53 252.942C144.882 253.206 145.321 253.513 145.848 253.887L150.494 257.325H150.275L157.645 252.47L157.766 252.393L157.887 252.47L165.806 257.314H165.586L169.837 253.865L171.034 252.931C171.161 252.796 171.305 252.678 171.463 252.58Z" fill="#E0E0E0"/>
<path d="M527.345 302.798C521.655 303.721 519.107 310.707 519.656 316.452C520.205 322.196 522.523 327.82 521.853 333.543C521.051 340.825 515.548 346.976 514.911 354.27C514.153 362.87 520.238 370.504 522.05 378.94C522.94 383.048 522.819 387.397 524.346 391.308C525.649 394.638 528.067 397.414 531.188 399.161C534.309 400.908 537.939 401.519 541.459 400.889C544.98 400.259 548.173 398.428 550.494 395.707C552.816 392.987 554.122 389.545 554.19 385.969C554.31 379.379 550.235 373.151 550.73 366.561C551.092 361.695 553.948 357.081 553.344 352.281C552.608 346.515 547.27 342.396 545.38 336.904C543.491 331.412 545.315 325.349 544.655 319.571C543.491 309.213 537.747 301.997 527.356 302.82" fill="#555555"/>
<path d="M498.282 352.963C497.305 362.563 501.577 373.833 506.487 382.148C511.484 390.5 519.014 397.041 527.983 400.821C528.982 401.238 530.235 401.59 531.08 400.909C531.382 400.58 531.607 400.189 531.742 399.765C531.877 399.34 531.917 398.89 531.86 398.448C531.933 388.258 528.7 378.319 522.646 370.122C516.592 361.925 508.043 355.912 498.282 352.985" fill="#555555"/>
<g opacity="0.2">
<path d="M498.282 352.963C497.305 362.563 501.577 373.833 506.487 382.148C511.484 390.5 519.014 397.041 527.983 400.821C528.982 401.238 530.235 401.59 531.08 400.909C531.382 400.58 531.607 400.189 531.742 399.765C531.877 399.34 531.917 398.89 531.86 398.448C531.933 388.258 528.7 378.319 522.646 370.122C516.592 361.925 508.043 355.912 498.282 352.985" fill="black"/>
</g>
<path d="M540.098 420.864C539.983 420.702 539.89 420.525 539.823 420.337L539.131 418.756C538.56 417.393 537.692 415.46 536.594 412.989C533.734 406.684 530.555 400.529 527.071 394.547C523.563 388.571 519.757 382.775 515.669 377.181C514.098 375.039 512.802 373.315 511.891 372.139C511.473 371.59 511.122 371.129 510.858 370.766C510.729 370.613 510.614 370.448 510.518 370.272C510.518 370.272 510.682 370.404 510.935 370.7L512.033 372.007C513 373.106 514.34 374.83 515.955 376.95C524.363 388.029 531.41 400.076 536.945 412.835C538.044 415.285 538.812 417.284 539.329 418.679L539.922 420.293C539.997 420.478 540.056 420.669 540.098 420.864Z" fill="#263238"/>
<path d="M533.913 329.362C533.975 329.666 534.012 329.974 534.023 330.284C534.023 330.933 534.133 331.811 534.21 332.932C534.364 335.271 534.573 338.588 534.836 342.653C535.352 350.869 536.077 362.215 536.967 374.737C537.857 387.259 538.714 398.605 539.351 406.81C539.658 410.874 539.911 414.181 540.098 416.531C540.174 417.63 540.229 418.519 540.273 419.167C540.3 419.478 540.3 419.79 540.273 420.101C540.273 420.101 540.218 419.782 540.141 419.178C540.065 418.574 539.977 417.651 539.856 416.542C539.636 414.202 539.329 410.896 538.944 406.843C538.208 398.638 537.275 387.314 536.396 374.781C535.517 362.248 534.869 350.902 534.419 342.653C534.232 338.577 534.078 335.271 533.968 332.921C533.968 331.822 533.903 330.922 533.881 330.263C533.864 329.962 533.875 329.66 533.913 329.362Z" fill="#263238"/>
<path d="M525.083 407.182H549.127V424.833C549.124 427.893 547.907 430.827 545.742 432.989C543.577 435.152 540.643 436.367 537.583 436.367C534.63 436.368 531.788 435.237 529.645 433.205C527.501 431.174 526.218 428.398 526.061 425.449L525.083 407.182Z" fill="#263238"/>
<path d="M403.314 174.471L460.65 206.226L458.497 210.268L401.666 177.92L403.314 174.471Z" fill="#555555"/>
<path d="M400.491 171.471L403.127 167.44L404.665 168.385L402.304 172.449L400.491 171.471Z" fill="#555555"/>
<path d="M454.136 201.202L457.08 202.893L447.48 264.162L442.933 264.217L454.136 201.202Z" fill="#555555"/>
<path d="M429.72 270.546C429.72 270.546 436.717 263.473 446.075 263.956C448.75 264.054 451.378 264.68 453.81 265.798C456.242 266.915 458.429 268.503 460.244 270.469L429.72 270.546Z" fill="#555555"/>
<path d="M400.546 199.251L377.842 186.136L384.432 174.789C385.292 173.298 386.438 171.991 387.803 170.943C389.169 169.895 390.727 169.126 392.39 168.68C394.052 168.234 395.787 168.12 397.493 168.345C399.2 168.57 400.846 169.128 402.336 169.989C405.345 171.728 407.541 174.591 408.441 177.948C409.341 181.305 408.872 184.882 407.136 187.893L400.546 199.251Z" fill="#555555"/>
</svg>
