<svg width="427" height="318" viewBox="0 0 427 318" fill="none" xmlns="http://www.w3.org/2000/svg">
<path d="M426.124 279.043H0V279.257H426.124V279.043Z" fill="#EBEBEB"/>
<path d="M66.8684 287.157H44.71V287.37H66.8684V287.157Z" fill="#EBEBEB"/>
<path d="M170.816 284.847H124.709V285.06H170.816V284.847Z" fill="#EBEBEB"/>
<path d="M90.1499 295.074H67.7188V295.287H90.1499V295.074Z" fill="#EBEBEB"/>
<path d="M383.427 293.642H367.038V293.855H383.427V293.642Z" fill="#EBEBEB"/>
<path d="M359.444 293.642H333.63V293.855H359.444V293.642Z" fill="#EBEBEB"/>
<path d="M266.575 290.046H220.076V290.259H266.575V290.046Z" fill="#EBEBEB"/>
<path d="M201.983 241.033H37.4223C36.1331 241.031 34.8975 240.517 33.9868 239.605C33.076 238.692 32.5645 237.456 32.5645 236.167V4.84081C32.5757 3.55905 33.0922 2.33348 34.0017 1.4303C34.9113 0.527125 36.1405 0.0192856 37.4223 0.0170898H201.983C203.273 0.0170898 204.511 0.529792 205.424 1.44241C206.337 2.35502 206.849 3.59279 206.849 4.88343V236.167C206.849 237.457 206.337 238.695 205.424 239.608C204.511 240.52 203.273 241.033 201.983 241.033ZM37.4223 0.18754C36.1896 0.189798 35.0082 0.681047 34.1374 1.55346C33.2666 2.42587 32.7775 3.60816 32.7775 4.84081V236.167C32.7775 237.399 33.2666 238.581 34.1374 239.454C35.0082 240.326 36.1896 240.818 37.4223 240.82H201.983C203.216 240.818 204.399 240.327 205.271 239.454C206.143 238.582 206.634 237.4 206.636 236.167V4.84081C206.634 3.60738 206.143 2.42511 205.271 1.55294C204.399 0.68077 203.216 0.189793 201.983 0.18754H37.4223Z" fill="#EBEBEB"/>
<path d="M386.333 241.033H221.764C220.474 241.031 219.237 240.517 218.325 239.605C217.413 238.693 216.9 237.456 216.897 236.167V4.84081C216.911 3.55828 217.429 2.33271 218.34 1.42977C219.251 0.526827 220.481 0.0192616 221.764 0.0170898H386.333C387.613 0.0215254 388.84 0.530356 389.748 1.43329C390.656 2.33623 391.171 3.56053 391.182 4.84081V236.167C391.182 237.454 390.672 238.689 389.763 239.602C388.854 240.514 387.621 241.028 386.333 241.033ZM221.764 0.18754C220.53 0.189793 219.348 0.68077 218.476 1.55294C217.604 2.42511 217.113 3.60738 217.111 4.84081V236.167C217.113 237.4 217.604 238.582 218.476 239.454C219.348 240.327 220.53 240.818 221.764 240.82H386.333C387.566 240.818 388.749 240.327 389.621 239.454C390.493 238.582 390.984 237.4 390.986 236.167V4.84081C390.984 3.60738 390.493 2.42511 389.621 1.55294C388.749 0.68077 387.566 0.189793 386.333 0.18754H221.764Z" fill="#EBEBEB"/>
<path d="M160.939 192.565C160.521 192.565 160.086 192.565 159.686 192.617C150.839 193.324 143.681 201.753 143.118 212.125C142.992 214.413 143.187 216.708 143.698 218.943C145.651 227.899 146.589 237.048 146.493 246.214V272.984C146.493 274.927 147.839 276.503 149.493 276.503H265.501V192.565H160.939Z" fill="#F0F0F0"/>
<path d="M283.355 213.497C283.355 201.446 274.671 191.782 264.248 192.617C255.402 193.324 248.243 201.753 247.68 212.125C247.552 214.413 247.744 216.708 248.251 218.943C250.207 227.899 251.148 237.048 251.055 246.215V272.984C251.055 274.927 252.393 276.504 254.055 276.504H276.981C278.634 276.504 279.98 274.927 279.98 272.984V244.612C279.911 236.012 280.837 227.432 282.742 219.045C283.161 217.226 283.367 215.364 283.355 213.497Z" fill="#FAFAFA"/>
<path d="M240.897 229.033H121.616V276.495H240.897V229.033Z" fill="#F5F5F5"/>
<path d="M82.4642 172.171H207.949C209.871 172.171 211.774 172.55 213.549 173.285C215.324 174.021 216.938 175.099 218.296 176.457C219.655 177.816 220.733 179.429 221.468 181.205C222.204 182.98 222.582 184.883 222.582 186.804V237.087H67.8311V186.804C67.8311 184.883 68.2096 182.98 68.9449 181.205C69.6803 179.429 70.7582 177.816 72.117 176.457C73.4758 175.099 75.0889 174.021 76.8643 173.285C78.6397 172.55 80.5425 172.171 82.4642 172.171Z" fill="#E6E6E6"/>
<path d="M93.1083 172.171H211.724C215.551 172.171 219.221 173.692 221.927 176.397C224.633 179.103 226.153 182.773 226.153 186.6V237.07H78.7139V186.591C78.7161 182.772 80.2326 179.109 82.9308 176.406C85.6291 173.703 89.289 172.18 93.1083 172.171Z" fill="#F5F5F5"/>
<path d="M125.639 227.329H240.846C241.677 227.329 242.475 227.659 243.063 228.247C243.651 228.835 243.982 229.633 243.982 230.465V235.519C243.98 236.349 243.648 237.145 243.06 237.731C242.472 238.317 241.676 238.646 240.846 238.646H125.639C125.39 238.646 125.152 238.548 124.976 238.372C124.8 238.196 124.701 237.958 124.701 237.709V228.266C124.701 228.017 124.8 227.779 124.976 227.603C125.152 227.427 125.39 227.329 125.639 227.329Z" fill="#EBEBEB"/>
<path d="M60.5098 276.495H266.396V276.691C266.396 277.314 266.148 277.913 265.707 278.354C265.266 278.795 264.668 279.043 264.044 279.043H62.8705C62.5609 279.044 62.2541 278.984 61.9677 278.866C61.6814 278.749 61.421 278.575 61.2017 278.357C60.9824 278.138 60.8084 277.879 60.6896 277.593C60.5709 277.307 60.5098 277 60.5098 276.691V276.495Z" fill="#E6E6E6"/>
<path d="M61.4122 192.565C60.9917 192.565 60.5741 192.582 60.1594 192.617C51.313 193.324 44.1541 201.753 43.5917 212.125C43.466 214.413 43.6611 216.708 44.1712 218.943C46.1245 227.899 47.0622 237.048 46.9666 246.214V272.984C46.9666 274.927 48.3131 276.503 49.9665 276.503H122.467V192.565H61.4122Z" fill="#F0F0F0"/>
<path d="M140.322 213.497C140.322 201.446 131.646 191.782 121.215 192.617C112.368 193.324 105.21 201.753 104.647 212.125C104.519 214.413 104.711 216.708 105.218 218.943C107.178 227.898 108.119 237.047 108.022 246.215V272.984C108.022 274.927 109.36 276.504 111.022 276.504H133.913C135.567 276.504 136.913 274.927 136.913 272.984V244.612C136.844 236.012 137.77 227.432 139.674 219.045C140.105 217.227 140.323 215.365 140.322 213.497Z" fill="#FAFAFA"/>
<path d="M52.7371 116.979L375.236 116.979V19.4908L52.7371 19.4908V116.979Z" fill="#EBEBEB"/>
<path d="M61.2593 109.497L366.705 109.497V26.9824L61.2593 26.9824V109.497Z" fill="#FAFAFA"/>
<path d="M236.107 109.497H260.464L237.521 26.9819H213.164L236.107 109.497Z" fill="white"/>
<path d="M265.228 109.497H289.593L266.651 26.9819H242.285L265.228 109.497Z" fill="white"/>
<path d="M186.276 109.497H198.463L175.52 26.9819H163.342L186.276 109.497Z" fill="white"/>
<path d="M208.248 109.497H219.728V26.9824H208.248V109.497Z" fill="#EBEBEB"/>
<path d="M208.237 26.9819H205.681V109.497H208.237V26.9819Z" fill="#E0E0E0"/>
<path d="M52.7373 19.4995H50.8965V116.988H52.7373V19.4995Z" fill="#E0E0E0"/>
<path d="M371.989 274.296C374.064 274.289 376.052 273.462 377.519 271.994C378.987 270.527 379.814 268.539 379.821 266.464V189.821C379.814 187.746 378.987 185.758 377.519 184.29C376.052 182.823 374.064 181.996 371.989 181.989C369.914 181.996 367.927 182.823 366.461 184.291C364.995 185.758 364.17 187.747 364.165 189.821V266.464C364.17 268.538 364.995 270.526 366.461 271.994C367.927 273.461 369.914 274.289 371.989 274.296Z" fill="#F5F5F5"/>
<path d="M367.508 271.211C368.911 271.209 370.255 270.65 371.247 269.658C372.239 268.666 372.798 267.321 372.8 265.918V190.367C372.798 188.964 372.239 187.619 371.247 186.627C370.255 185.635 368.911 185.076 367.508 185.074C366.106 185.079 364.763 185.638 363.773 186.63C362.783 187.622 362.226 188.965 362.224 190.367V265.918C362.226 267.32 362.783 268.664 363.773 269.655C364.763 270.647 366.106 271.206 367.508 271.211Z" fill="#EBEBEB"/>
<path d="M360.621 274.296C362.696 274.289 364.683 273.461 366.149 271.994C367.615 270.526 368.44 268.538 368.445 266.464V189.821C368.44 187.747 367.615 185.758 366.149 184.291C364.683 182.823 362.696 181.996 360.621 181.989C358.546 181.996 356.558 182.823 355.09 184.29C353.623 185.758 352.796 187.746 352.789 189.821V266.464C352.796 268.539 353.623 270.527 355.09 271.994C356.558 273.462 358.546 274.289 360.621 274.296Z" fill="#F5F5F5"/>
<path d="M356.138 271.211C357.54 271.206 358.884 270.647 359.876 269.656C360.867 268.664 361.426 267.321 361.431 265.918V190.367C361.426 188.964 360.867 187.621 359.876 186.629C358.884 185.638 357.54 185.079 356.138 185.074C354.736 185.079 353.392 185.638 352.401 186.629C351.409 187.621 350.85 188.964 350.846 190.367V265.918C350.85 267.321 351.409 268.664 352.401 269.656C353.392 270.647 354.736 271.206 356.138 271.211Z" fill="#EBEBEB"/>
<path d="M349.251 274.296C351.325 274.289 353.313 273.461 354.779 271.994C356.245 270.526 357.07 268.538 357.075 266.464V189.821C357.07 187.747 356.245 185.758 354.779 184.291C353.313 182.823 351.325 181.996 349.251 181.989C347.176 181.996 345.188 182.823 343.72 184.29C342.253 185.758 341.426 187.746 341.419 189.821V266.464C341.426 268.539 342.253 270.527 343.72 271.994C345.188 273.462 347.176 274.289 349.251 274.296Z" fill="#F5F5F5"/>
<path d="M344.768 271.211C346.17 271.206 347.512 270.647 348.502 269.655C349.493 268.664 350.05 267.32 350.052 265.918V190.367C350.05 188.965 349.493 187.622 348.502 186.63C347.512 185.638 346.17 185.079 344.768 185.074C343.365 185.076 342.02 185.635 341.028 186.627C340.036 187.619 339.478 188.964 339.476 190.367V265.918C339.478 267.321 340.036 268.666 341.028 269.658C342.02 270.65 343.365 271.209 344.768 271.211Z" fill="#EBEBEB"/>
<path d="M330.051 266.464C330.051 270.789 333.556 274.296 337.879 274.296C342.202 274.296 345.707 270.789 345.707 266.464V189.83C345.707 185.504 342.202 181.997 337.879 181.997C333.556 181.997 330.051 185.504 330.051 189.83V266.464Z" fill="#F5F5F5"/>
<path d="M333.391 271.211C334.794 271.209 336.139 270.65 337.131 269.658C338.123 268.666 338.682 267.321 338.684 265.918V190.367C338.682 188.964 338.123 187.619 337.131 186.627C336.139 185.635 334.794 185.076 333.391 185.074C331.99 185.079 330.647 185.638 329.657 186.63C328.667 187.622 328.11 188.965 328.107 190.367V265.918C328.11 267.32 328.667 268.664 329.657 269.655C330.647 270.647 331.99 271.206 333.391 271.211Z" fill="#EBEBEB"/>
<path d="M326.505 274.296C328.58 274.289 330.568 273.462 332.036 271.994C333.503 270.527 334.33 268.539 334.337 266.464V189.821C334.33 187.746 333.503 185.758 332.036 184.29C330.568 182.823 328.58 181.996 326.505 181.989C324.43 181.996 322.442 182.823 320.974 184.29C319.507 185.758 318.68 187.746 318.673 189.821V266.464C318.68 268.539 319.507 270.527 320.974 271.994C322.442 273.462 324.43 274.289 326.505 274.296Z" fill="#F5F5F5"/>
<path d="M322.022 271.211C323.425 271.209 324.77 270.65 325.762 269.658C326.754 268.666 327.312 267.321 327.314 265.918V190.367C327.312 188.964 326.754 187.619 325.762 186.627C324.77 185.635 323.425 185.076 322.022 185.074C320.62 185.079 319.276 185.638 318.285 186.629C317.293 187.621 316.734 188.964 316.729 190.367V265.918C316.734 267.321 317.293 268.664 318.285 269.656C319.276 270.647 320.62 271.206 322.022 271.211Z" fill="#EBEBEB"/>
<path d="M315.136 274.296C317.21 274.289 319.198 273.461 320.664 271.994C322.13 270.526 322.955 268.538 322.96 266.464V189.821C322.955 187.747 322.13 185.758 320.664 184.291C319.198 182.823 317.21 181.996 315.136 181.989C313.061 181.996 311.073 182.823 309.605 184.29C308.138 185.758 307.31 187.746 307.304 189.821V266.464C307.31 268.539 308.138 270.527 309.605 271.994C311.073 273.462 313.061 274.289 315.136 274.296Z" fill="#F5F5F5"/>
<path d="M310.653 271.211C312.055 271.206 313.399 270.647 314.39 269.656C315.382 268.664 315.941 267.321 315.945 265.918V190.367C315.941 188.964 315.382 187.621 314.39 186.629C313.399 185.638 312.055 185.079 310.653 185.074C309.25 185.076 307.905 185.635 306.913 186.627C305.921 187.619 305.363 188.964 305.36 190.367V265.918C305.363 267.321 305.921 268.666 306.913 269.658C307.905 270.65 309.25 271.209 310.653 271.211Z" fill="#EBEBEB"/>
<path d="M303.759 274.296C305.834 274.289 307.823 273.462 309.29 271.994C310.757 270.527 311.585 268.539 311.591 266.464V189.821C311.585 187.746 310.757 185.758 309.29 184.29C307.823 182.823 305.834 181.996 303.759 181.989C301.685 181.996 299.698 182.823 298.232 184.291C296.766 185.758 295.94 187.747 295.936 189.821V266.464C295.94 268.538 296.766 270.526 298.232 271.994C299.698 273.461 301.685 274.289 303.759 274.296Z" fill="#F5F5F5"/>
<path d="M294.162 264.035H317.121C317.573 264.035 318.007 263.855 318.326 263.536C318.646 263.216 318.826 262.783 318.826 262.33C318.826 261.878 318.646 261.445 318.326 261.125C318.007 260.806 317.573 260.626 317.121 260.626H294.162C293.709 260.626 293.276 260.806 292.956 261.125C292.637 261.445 292.457 261.878 292.457 262.33C292.457 262.783 292.637 263.216 292.956 263.536C293.276 263.855 293.709 264.035 294.162 264.035Z" fill="#F5F5F5"/>
<path d="M294.162 197.986H317.121C317.573 197.986 318.007 197.806 318.326 197.486C318.646 197.167 318.826 196.733 318.826 196.281C318.826 195.829 318.646 195.396 318.326 195.076C318.007 194.756 317.573 194.577 317.121 194.577H294.162C293.709 194.577 293.276 194.756 292.956 195.076C292.637 195.396 292.457 195.829 292.457 196.281C292.457 196.733 292.637 197.167 292.956 197.486C293.276 197.806 293.709 197.986 294.162 197.986Z" fill="#F5F5F5"/>
<path d="M213.061 317.531C304.322 317.531 378.303 313.211 378.303 307.883C378.303 302.555 304.322 298.236 213.061 298.236C121.8 298.236 47.8184 302.555 47.8184 307.883C47.8184 313.211 121.8 317.531 213.061 317.531Z" fill="#F5F5F5"/>
<path d="M344.001 259.663H246.401C245.176 259.668 243.961 259.425 242.832 258.948C241.703 258.47 240.683 257.768 239.833 256.884C238.984 256 238.323 254.953 237.89 253.806C237.457 252.659 237.262 251.436 237.316 250.211L244.484 64.9325C244.605 62.4033 245.689 60.0162 247.512 58.2593C249.336 56.5024 251.761 55.5086 254.293 55.4811H351.893C353.119 55.4752 354.333 55.7185 355.462 56.1962C356.591 56.6738 357.611 57.3758 358.461 58.2596C359.31 59.1435 359.972 60.1907 360.404 61.3377C360.837 62.4848 361.032 63.7078 360.978 64.9325L353.81 250.211C353.689 252.74 352.605 255.128 350.782 256.884C348.959 258.641 346.533 259.635 344.001 259.663Z" fill="#555555"/>
<path d="M360.914 127.44L360.317 142.752L361.254 142.788L361.85 127.477L360.914 127.44Z" fill="#555555"/>
<path d="M361.4 115.52L361.152 121.847L362.089 121.884L362.337 115.556L361.4 115.52Z" fill="#555555"/>
<path opacity="0.8" d="M344.001 259.663H246.401C245.176 259.668 243.961 259.425 242.832 258.948C241.703 258.47 240.683 257.768 239.833 256.884C238.984 256 238.323 254.953 237.89 253.806C237.457 252.659 237.262 251.436 237.316 250.211L244.484 64.9325C244.605 62.4033 245.689 60.0162 247.512 58.2593C249.336 56.5024 251.761 55.5086 254.293 55.4811H351.893C353.119 55.4752 354.333 55.7185 355.462 56.1962C356.591 56.6738 357.611 57.3758 358.461 58.2596C359.31 59.1435 359.972 60.1907 360.404 61.3377C360.837 62.4848 361.032 63.7078 360.978 64.9325L353.81 250.211C353.689 252.74 352.605 255.128 350.782 256.884C348.959 258.641 346.533 259.635 344.001 259.663Z" fill="white"/>
<path d="M334.659 255.904H248.582C247.508 255.909 246.443 255.695 245.454 255.276C244.464 254.858 243.57 254.242 242.825 253.468C242.08 252.694 241.5 251.776 241.12 250.771C240.74 249.766 240.568 248.694 240.614 247.621L247.321 74.1028C247.429 71.885 248.381 69.7924 249.981 68.2526C251.581 66.7129 253.708 65.8424 255.929 65.819H342.006C343.081 65.8133 344.145 66.0261 345.136 66.4445C346.126 66.8628 347.021 67.478 347.766 68.2527C348.511 69.0273 349.091 69.9454 349.471 70.951C349.85 71.9566 350.022 73.0289 349.974 74.1028L343.267 247.621C343.157 249.838 342.204 251.929 340.605 253.468C339.006 255.008 336.879 255.879 334.659 255.904Z" fill="#555555"/>
<path opacity="0.8" d="M296.036 246.079C298.314 243.844 298.419 240.256 296.27 238.066C294.121 235.875 290.532 235.911 288.254 238.145C285.976 240.38 285.871 243.968 288.02 246.159C290.169 248.349 293.758 248.314 296.036 246.079Z" fill="white"/>
<path d="M293.676 202.639C289.131 202.669 284.627 201.773 280.439 200.006C276.251 198.239 272.466 195.637 269.317 192.36C266.167 189.083 263.717 185.198 262.118 180.943C260.518 176.688 259.802 172.152 260.013 167.611L261.163 137.74H261.104C260.767 137.738 260.43 137.71 260.098 137.655L258.939 167.611C258.724 172.29 259.463 176.964 261.112 181.348C262.762 185.732 265.286 189.734 268.532 193.111C271.778 196.488 275.678 199.169 279.993 200.99C284.309 202.811 288.95 203.734 293.634 203.704C303.561 203.66 313.064 199.674 320.054 192.625C319.8 192.367 319.577 192.081 319.389 191.773C316.031 195.19 312.031 197.909 307.618 199.774C303.205 201.639 298.467 202.613 293.676 202.639Z" fill="white"/>
<path d="M297.8 95.8436C279.536 95.8436 263.88 109.48 260.829 127.113C261.056 127.099 261.284 127.099 261.511 127.113C261.647 127.113 261.775 127.113 261.911 127.113C264.928 110.068 280.09 96.9259 297.757 96.9259C302.303 96.8944 306.808 97.7893 310.997 99.5559C315.186 101.323 318.972 103.924 322.123 107.202C325.273 110.479 327.723 114.364 329.324 118.62C330.924 122.875 331.64 127.412 331.429 131.953L330.049 167.628C329.825 173.2 328.305 178.642 325.608 183.523C325.947 183.621 326.271 183.764 326.572 183.949C329.333 178.935 330.888 173.348 331.114 167.628L332.495 131.953C332.714 127.273 331.977 122.596 330.329 118.21C328.681 113.823 326.157 109.818 322.91 106.439C319.664 103.061 315.763 100.378 311.446 98.5567C307.128 96.735 302.485 95.8118 297.8 95.8436Z" fill="white"/>
<path d="M297.52 103.139C303.263 103.125 308.887 104.773 313.713 107.886C313.866 107.556 314.051 107.241 314.267 106.948C309.274 103.744 303.461 102.051 297.529 102.073C290.815 102.095 284.271 104.177 278.779 108.039C278.968 108.341 279.125 108.66 279.248 108.994C284.587 105.201 290.971 103.155 297.52 103.139Z" fill="white"/>
<path d="M264.538 171.037C264.273 169.212 264.176 167.366 264.248 165.523L265.467 133.99C265.732 127.49 267.987 121.228 271.927 116.05C271.622 115.896 271.336 115.708 271.074 115.488C267.018 120.83 264.698 127.288 264.427 133.99L263.208 165.523C263.134 167.452 263.236 169.383 263.515 171.293C263.847 171.174 264.189 171.089 264.538 171.037Z" fill="white"/>
<path d="M321.954 114.022C321.695 114.285 321.41 114.519 321.101 114.721C325.326 120.244 327.474 127.077 327.169 134.024L325.951 165.557C325.561 173.822 322.023 181.625 316.063 187.363C310.102 193.102 302.171 196.342 293.898 196.417C287.329 196.447 280.936 194.298 275.719 190.307C275.414 190.544 275.082 190.744 274.73 190.903C280.178 195.195 286.92 197.514 293.855 197.483C302.415 197.405 310.62 194.054 316.787 188.117C322.953 182.18 326.613 174.108 327.016 165.557L328.235 134.024C328.555 126.826 326.331 119.745 321.954 114.022Z" fill="white"/>
<path d="M269.149 146.527L269.55 136.112C269.887 128.964 272.947 122.216 278.102 117.252C283.258 112.288 290.117 109.486 297.273 109.42C303.297 109.376 309.142 111.468 313.77 115.325C318.398 119.182 321.509 124.554 322.551 130.488C322.9 130.426 323.253 130.394 323.608 130.394C322.548 124.195 319.32 118.576 314.499 114.538C309.678 110.501 303.578 108.309 297.29 108.355C289.848 108.421 282.713 111.334 277.351 116.496C271.989 121.658 268.807 128.678 268.459 136.112L268.075 146.604C268.321 146.573 268.569 146.556 268.817 146.552L269.149 146.527Z" fill="white"/>
<path d="M305.266 187.733C301.783 189.303 298.007 190.12 294.186 190.128C290.716 190.161 287.276 189.485 284.076 188.143C280.876 186.8 277.983 184.819 275.575 182.321C273.167 179.823 271.293 176.859 270.069 173.612C268.846 170.365 268.297 166.902 268.457 163.435L268.704 157.163H268.372C268.127 157.164 267.882 157.147 267.639 157.112L267.392 163.418C267.225 167.017 267.793 170.612 269.061 173.985C270.329 177.357 272.271 180.435 274.768 183.033C277.264 185.63 280.264 187.691 283.583 189.091C286.903 190.492 290.473 191.201 294.076 191.176C298.12 191.172 302.116 190.3 305.794 188.619C305.584 188.345 305.407 188.048 305.266 187.733Z" fill="white"/>
<path d="M323.197 141.064C323.044 141.064 322.891 141.064 322.746 141.064L321.893 163.461C321.602 170.268 318.81 176.728 314.053 181.605C314.266 181.897 314.446 182.211 314.59 182.543C319.666 177.451 322.652 170.644 322.959 163.461L323.811 141.055C323.615 141.047 323.41 141.064 323.197 141.064Z" fill="white"/>
<path d="M306.587 116.647C303.598 115.298 300.355 114.603 297.076 114.61C290.75 114.666 284.685 117.142 280.127 121.529C275.569 125.916 272.863 131.881 272.565 138.2L271.67 161.339C271.622 162.703 271.69 164.069 271.875 165.421C272.185 165.138 272.525 164.889 272.889 164.679C272.752 163.572 272.7 162.455 272.736 161.339L273.631 138.2C273.916 132.167 276.499 126.471 280.851 122.282C285.203 118.094 290.993 115.729 297.033 115.675C300.135 115.68 303.2 116.345 306.024 117.627C306.18 117.283 306.368 116.955 306.587 116.647Z" fill="white"/>
<path d="M314.785 123.013C314.578 123.32 314.341 123.605 314.078 123.865C317.283 127.937 318.919 133.024 318.689 138.2L317.794 161.339C317.514 167.198 315.066 172.744 310.925 176.899C306.784 181.054 301.247 183.521 295.388 183.821C295.277 184.202 295.125 184.571 294.937 184.92C301.162 184.727 307.084 182.191 311.52 177.818C315.955 173.446 318.577 167.561 318.859 161.339L319.754 138.2C319.998 132.702 318.232 127.304 314.785 123.013Z" fill="white"/>
<path d="M292.567 122.425C292.584 122.052 292.636 121.681 292.721 121.317C289.999 121.908 287.428 123.054 285.17 124.684C285.499 124.851 285.803 125.063 286.073 125.314C288.037 123.951 290.24 122.971 292.567 122.425Z" fill="white"/>
<path d="M312.878 164.015C311.679 167.929 309.265 171.36 305.986 173.812C302.707 176.263 298.733 177.608 294.64 177.651C292.253 177.667 289.888 177.197 287.689 176.269C285.49 175.34 283.503 173.973 281.85 172.251C280.198 170.529 278.913 168.488 278.076 166.253C277.239 164.017 276.866 161.635 276.981 159.251L277.714 140.288C277.805 138.047 278.302 135.841 279.18 133.777C278.876 133.531 278.606 133.244 278.379 132.925C277.347 135.239 276.769 137.73 276.674 140.263L275.941 159.225C275.826 161.744 276.224 164.261 277.112 166.621C278 168.981 279.36 171.136 281.108 172.954C282.855 174.772 284.955 176.215 287.279 177.196C289.602 178.176 292.101 178.673 294.623 178.656C298.959 178.607 303.167 177.182 306.639 174.585C310.112 171.989 312.67 168.356 313.943 164.211C313.583 164.178 313.226 164.112 312.878 164.015Z" fill="white"/>
<path d="M314.478 140.288L314.325 144.226C314.607 144.175 314.891 144.147 315.177 144.14H315.407L315.552 140.263C315.72 136.237 314.572 132.267 312.283 128.951C309.993 125.636 306.686 123.157 302.862 121.888C302.896 122.268 302.896 122.65 302.862 123.03C306.389 124.287 309.42 126.642 311.51 129.748C313.601 132.854 314.641 136.548 314.478 140.288Z" fill="white"/>
<path d="M296.582 127.112C292.489 127.151 288.566 128.756 285.618 131.595C282.671 134.435 280.922 138.296 280.73 142.385L280.568 146.595C280.925 146.618 281.278 146.672 281.625 146.757L281.796 142.385C281.974 138.575 283.608 134.979 286.358 132.338C289.109 129.696 292.768 128.21 296.582 128.186C298.424 128.176 300.248 128.541 301.944 129.258C303.64 129.975 305.172 131.03 306.448 132.358C307.723 133.686 308.716 135.26 309.364 136.984C310.012 138.708 310.302 140.545 310.218 142.385L309.647 157.163C309.487 160.49 308.219 163.668 306.044 166.191C303.87 168.714 300.914 170.438 297.647 171.088C297.686 171.445 297.686 171.805 297.647 172.162C301.196 171.497 304.417 169.655 306.789 166.933C309.162 164.211 310.547 160.769 310.721 157.163L311.292 142.385C311.384 140.402 311.07 138.422 310.37 136.565C309.671 134.708 308.6 133.013 307.223 131.583C305.847 130.154 304.193 129.02 302.363 128.251C300.534 127.483 298.567 127.095 296.582 127.112Z" fill="white"/>
<path d="M286.628 139.641C286.849 139.627 287.071 139.627 287.293 139.641C288.21 138.059 289.525 136.745 291.106 135.827C292.688 134.909 294.481 134.42 296.309 134.408C297.424 134.408 298.531 134.598 299.582 134.97C299.701 134.63 299.852 134.302 300.034 133.99C298.854 133.558 297.608 133.336 296.352 133.334C294.236 133.356 292.166 133.954 290.364 135.064C288.563 136.173 287.097 137.753 286.125 139.632C286.293 139.627 286.46 139.629 286.628 139.641Z" fill="white"/>
<path d="M305.548 155.075C305.492 156.295 305.221 157.495 304.747 158.62C305.079 158.743 305.392 158.912 305.676 159.123C306.234 157.843 306.552 156.47 306.613 155.075L307.023 144.473C307.055 143.484 306.955 142.495 306.724 141.533C306.403 141.703 306.062 141.834 305.71 141.925C305.906 142.762 305.989 143.622 305.957 144.481L305.548 155.075Z" fill="white"/>
<path d="M297.434 164.824C296.669 165.009 295.885 165.104 295.099 165.106C293.801 165.108 292.516 164.847 291.322 164.338C290.128 163.83 289.049 163.084 288.152 162.146C287.255 161.208 286.557 160.098 286.102 158.882C285.646 157.667 285.442 156.371 285.502 155.075L285.69 150.277C285.332 150.246 284.978 150.18 284.633 150.081L284.437 155.075C284.374 156.512 284.603 157.947 285.111 159.293C285.62 160.639 286.397 161.868 287.395 162.904C288.393 163.94 289.591 164.763 290.917 165.322C292.243 165.88 293.669 166.163 295.107 166.154C296 166.151 296.89 166.042 297.758 165.83C297.621 165.505 297.512 165.169 297.434 164.824Z" fill="white"/>
<path d="M296.105 139.624C294.241 139.646 292.456 140.382 291.118 141.681C289.78 142.979 288.99 144.741 288.912 146.604L288.665 153.03C288.642 153.629 288.702 154.228 288.844 154.811C289.115 154.484 289.43 154.197 289.781 153.958C289.739 153.654 289.722 153.346 289.73 153.038L289.977 146.612C290.054 145.04 290.728 143.557 291.863 142.467C292.997 141.377 294.506 140.762 296.079 140.749C296.838 140.747 297.589 140.899 298.287 141.195C298.985 141.492 299.615 141.927 300.14 142.474C300.665 143.022 301.074 143.67 301.341 144.38C301.609 145.089 301.729 145.846 301.696 146.604L301.449 153.03C301.393 154.169 301.023 155.271 300.379 156.213C299.735 157.155 298.843 157.9 297.801 158.365C297.783 158.767 297.725 159.166 297.631 159.558C299.004 159.082 300.203 158.206 301.074 157.043C301.944 155.879 302.446 154.481 302.514 153.03L302.77 146.604C302.817 145.701 302.68 144.798 302.366 143.951C302.052 143.103 301.568 142.329 300.944 141.675C300.32 141.021 299.569 140.502 298.736 140.149C297.904 139.797 297.009 139.618 296.105 139.624Z" fill="white"/>
<path d="M314.027 62.9979H284.113C283.892 62.998 283.672 62.9536 283.468 62.8673C283.264 62.781 283.08 62.6547 282.926 62.4957C282.771 62.3367 282.651 62.1484 282.571 61.9418C282.491 61.7353 282.453 61.5148 282.46 61.2934C282.486 60.8351 282.685 60.4038 283.018 60.0873C283.35 59.7707 283.79 59.5925 284.25 59.5889H314.155C314.377 59.5876 314.597 59.6312 314.802 59.717C315.007 59.8027 315.193 59.9289 315.348 60.088C315.503 60.2471 315.625 60.4359 315.705 60.643C315.786 60.8501 315.824 61.0713 315.817 61.2934C315.789 61.751 315.589 62.1811 315.257 62.4973C314.925 62.8134 314.485 62.9923 314.027 62.9979Z" fill="#555555"/>
<path opacity="0.2" d="M267.241 92.9118C265.472 93.0505 263.696 93.0903 261.923 93.0312C261.296 92.8969 260.653 92.8567 260.014 92.9118H259.818C254.814 92.5453 249.864 91.6512 245.048 90.2443C244.554 90.0994 244.043 89.929 243.523 89.75L239.381 197.022L267.062 178.554C268.313 177.733 269.352 176.626 270.092 175.325C270.833 174.025 271.255 172.567 271.323 171.072L274.101 99.3548C274.141 98.462 273.987 97.5711 273.65 96.7432C273.314 95.9153 272.802 95.17 272.15 94.5581C271.499 93.9463 270.723 93.4824 269.876 93.1983C269.028 92.9142 268.129 92.8164 267.241 92.9118Z" fill="black"/>
<path d="M260.568 84.9093C258.802 85.0509 257.029 85.0936 255.258 85.0372C254.631 84.9042 253.989 84.8612 253.349 84.9093H253.145C248.144 84.5462 243.196 83.652 238.384 82.2418C232.35 80.366 226.79 77.2154 222.08 73.0034C220.936 71.9016 219.407 71.29 217.819 71.2989H210.592C208.972 71.3107 207.413 71.9173 206.212 73.0034C201.212 77.2027 195.414 80.3454 189.167 82.2418C184.284 83.6457 179.268 84.5397 174.201 84.9093H173.997C173.355 84.8612 172.709 84.9042 172.079 85.0372C170.311 85.0937 168.541 85.051 166.778 84.9093C165.87 84.8399 164.957 84.9531 164.094 85.2422C163.23 85.5313 162.433 85.9905 161.75 86.5927C161.067 87.1948 160.511 87.9277 160.116 88.7481C159.721 89.5685 159.494 90.4598 159.449 91.3694L156.67 163.095C156.607 164.547 156.909 165.991 157.547 167.297C158.186 168.603 159.141 169.727 160.327 170.569L200.51 198.829C201.99 199.868 203.756 200.421 205.564 200.415H212.782C214.628 200.408 216.431 199.856 217.964 198.829L260.329 170.569C261.577 169.745 262.613 168.64 263.353 167.341C264.094 166.042 264.518 164.588 264.591 163.095L267.36 91.3694C267.397 90.4825 267.243 89.5982 266.91 88.7755C266.577 87.9528 266.072 87.2107 265.429 86.599C264.786 85.9874 264.02 85.5202 263.181 85.2288C262.343 84.9374 261.452 84.8284 260.568 84.9093Z" fill="#555555"/>
<path opacity="0.8" d="M260.568 84.9093C258.802 85.0509 257.029 85.0936 255.258 85.0372C254.631 84.9042 253.989 84.8612 253.349 84.9093H253.145C248.144 84.5462 243.196 83.652 238.384 82.2418C232.35 80.366 226.79 77.2154 222.08 73.0034C220.936 71.9016 219.407 71.29 217.819 71.2989H210.592C208.972 71.3107 207.413 71.9173 206.212 73.0034C201.212 77.2027 195.414 80.3454 189.167 82.2418C184.284 83.6457 179.268 84.5397 174.201 84.9093H173.997C173.355 84.8612 172.709 84.9042 172.079 85.0372C170.311 85.0937 168.541 85.051 166.778 84.9093C165.87 84.8399 164.957 84.9531 164.094 85.2422C163.23 85.5313 162.433 85.9905 161.75 86.5927C161.067 87.1948 160.511 87.9277 160.116 88.7481C159.721 89.5685 159.494 90.4598 159.449 91.3694L156.67 163.095C156.607 164.547 156.909 165.991 157.547 167.297C158.186 168.603 159.141 169.727 160.327 170.569L200.51 198.829C201.99 199.868 203.756 200.421 205.564 200.415H212.782C214.628 200.408 216.431 199.856 217.964 198.829L260.329 170.569C261.577 169.745 262.613 168.64 263.353 167.341C264.094 166.042 264.518 164.588 264.591 163.095L267.36 91.3694C267.397 90.4825 267.243 89.5982 266.91 88.7755C266.577 87.9528 266.072 87.2107 265.429 86.599C264.786 85.9874 264.02 85.5202 263.181 85.2288C262.343 84.9374 261.452 84.8284 260.568 84.9093Z" fill="white"/>
<path d="M161.367 162.958L164.017 94.3778C164.076 93.1204 164.614 91.9332 165.52 91.06C166.427 90.1867 167.633 89.6936 168.892 89.6819H170.452C177.195 89.5981 183.896 88.5945 190.369 86.699C196.525 84.8332 202.298 81.8805 207.414 77.9805C208.256 77.2939 209.31 76.9189 210.396 76.9189C211.483 76.9189 212.537 77.2939 213.379 77.9805C218.234 81.9052 223.794 84.8672 229.76 86.7075C236.154 88.6127 242.783 89.6166 249.455 89.6904H250.895C251.516 89.685 252.131 89.8065 252.703 90.0473C253.276 90.2881 253.793 90.6432 254.223 91.0908C254.653 91.5384 254.987 92.0692 255.205 92.6505C255.422 93.2318 255.519 93.8515 255.489 94.4715L252.838 162.967C252.803 163.738 252.586 164.491 252.206 165.163C251.825 165.835 251.291 166.408 250.648 166.836L208.547 194.96C207.766 195.493 206.842 195.778 205.897 195.778C204.951 195.778 204.027 195.493 203.246 194.96L163.31 166.836C162.685 166.406 162.18 165.825 161.84 165.147C161.5 164.469 161.338 163.716 161.367 162.958Z" fill="#555555"/>
<path opacity="0.2" d="M173.067 159.336L175.317 101.034C181.342 100.557 187.304 99.4751 193.112 97.8039C199.037 96.0219 204.685 93.4232 209.893 90.0825C214.881 93.4387 220.338 96.0405 226.086 97.8039C231.808 99.4824 237.689 100.565 243.634 101.034L241.375 159.336L206.314 182.722L173.067 159.336Z" fill="white"/>
<path opacity="0.2" d="M184.855 153.242L186.483 111.133C189.602 110.545 192.747 109.803 195.858 108.909C200.52 107.535 205.038 105.714 209.349 103.471C213.517 105.722 217.903 107.544 222.44 108.909C225.519 109.801 228.596 110.542 231.669 111.133L230.042 153.242L206.861 168.762L184.855 153.242Z" fill="white"/>
<path d="M107.501 87.4924C105.907 90.7992 104.296 94.1911 102.745 97.5319C101.973 99.2364 101.228 100.907 100.512 102.543C99.8441 104.108 99.2581 105.707 98.7568 107.333C98.4057 108.887 98.2454 110.478 98.2795 112.071C98.2795 113.861 98.2795 115.719 98.2795 117.568L98.5608 128.801L94.6234 129.38C93.6376 125.67 92.8383 121.913 92.2286 118.122C91.9388 116.213 91.649 114.296 91.4956 112.31C91.4104 111.321 91.3422 110.316 91.3252 109.259C91.3252 108.722 91.3252 108.185 91.3252 107.554C91.3252 107.265 91.3678 106.958 91.4189 106.617C91.4701 106.276 91.5212 106.037 91.5723 105.765C91.9948 103.737 92.5645 101.743 93.2768 99.7989C93.9331 97.941 94.649 96.1257 95.3904 94.3445C96.8819 90.7736 98.4841 87.3305 100.274 83.8789L107.501 87.4924Z" fill="#FF8B7B"/>
<path d="M101.417 130.351L98.144 126.584L94.4452 126.772C92.7407 130.82 96.448 133.402 96.448 133.402L97.1042 135.618C97.172 135.839 97.2874 136.042 97.4424 136.214C97.5974 136.385 97.7882 136.52 98.0012 136.61C98.2142 136.699 98.4443 136.741 98.6752 136.731C98.906 136.722 99.132 136.662 99.3371 136.556L101.417 135.525C101.706 135.383 101.949 135.162 102.118 134.887C102.287 134.613 102.375 134.296 102.371 133.973V132.704C102.336 131.832 101.999 131.001 101.417 130.351Z" fill="#FF8B7B"/>
<path d="M91.0026 298.705C90.3745 298.424 89.7823 298.07 89.2385 297.648C89.2098 297.627 89.188 297.598 89.1758 297.565C89.1637 297.532 89.1617 297.495 89.1703 297.461C89.1794 297.425 89.1986 297.392 89.2258 297.366C89.253 297.34 89.287 297.323 89.3237 297.316C89.639 297.256 92.4259 296.745 93.0906 297.478C93.1636 297.562 93.2131 297.664 93.2341 297.773C93.255 297.882 93.2467 297.995 93.2099 298.1C93.1738 298.28 93.0922 298.449 92.9729 298.589C92.8536 298.729 92.7005 298.837 92.5281 298.901C92.0127 299.024 91.4702 298.954 91.0026 298.705ZM89.8265 297.606C90.9515 298.381 91.906 298.739 92.3833 298.552C92.4962 298.505 92.5954 298.431 92.6715 298.335C92.7476 298.24 92.798 298.127 92.8179 298.006C92.8458 297.966 92.8607 297.919 92.8607 297.87C92.8607 297.821 92.8458 297.774 92.8179 297.733C92.46 297.341 90.943 297.452 89.8265 297.606Z" fill="#555555"/>
<path d="M89.2723 297.674L89.1956 297.614C89.1807 297.585 89.1729 297.553 89.1729 297.52C89.1729 297.488 89.1807 297.455 89.1956 297.426C89.1956 297.341 90.1672 295.245 91.2495 294.87C91.3872 294.813 91.5366 294.79 91.6851 294.803C91.8335 294.816 91.9765 294.866 92.1018 294.946C92.2351 295.006 92.3436 295.11 92.4089 295.24C92.4741 295.371 92.4921 295.52 92.4597 295.662C92.2552 296.557 90.2694 297.58 89.4172 297.682C89.3938 297.691 89.3688 297.695 89.3438 297.693C89.3189 297.692 89.2945 297.685 89.2723 297.674ZM91.829 295.228C91.6865 295.172 91.5284 295.172 91.3859 295.228C90.7382 295.449 90.0649 296.557 89.6814 297.239C90.6018 296.975 91.9313 296.131 92.0506 295.594C92.0506 295.5 92.0506 295.39 91.8631 295.27L91.829 295.228Z" fill="#555555"/>
<path d="M120.422 56.7944C121.129 61.4648 122.723 71.6491 119.322 74.6916C119.322 74.6916 120.379 79.4387 129.029 79.6091C138.549 79.7966 133.793 74.9729 133.793 74.9729C128.68 73.6349 128.961 69.7912 130.035 66.1947L120.422 56.7944Z" fill="#FF8B7B"/>
<path d="M139.904 49.056L139.75 48.9793C139.683 48.9094 139.646 48.8163 139.646 48.7193C139.646 48.6224 139.683 48.5293 139.75 48.4594C140.119 47.9914 140.593 47.6171 141.133 47.3668C141.674 47.1165 142.266 46.9974 142.861 47.0191C142.909 47.0244 142.956 47.0392 142.998 47.0627C143.041 47.0862 143.078 47.1179 143.108 47.1559C143.139 47.194 143.161 47.2377 143.174 47.2844C143.187 47.3311 143.191 47.38 143.185 47.4282C143.172 47.527 143.121 47.6169 143.043 47.6789C142.965 47.741 142.866 47.7702 142.767 47.7606C142.297 47.7523 141.831 47.8534 141.407 48.0561C140.982 48.2587 140.611 48.5572 140.321 48.9282C140.271 48.9876 140.206 49.0313 140.131 49.054C140.057 49.0767 139.978 49.0774 139.904 49.056Z" fill="#263238"/>
<path d="M141.676 53.6494C142.042 55.1425 142.616 56.5769 143.381 57.9107C143.038 58.1102 142.656 58.2319 142.261 58.2673C141.867 58.3026 141.469 58.2507 141.097 58.1152L141.676 53.6494Z" fill="#FF5652"/>
<path d="M141.243 52.5076C141.167 53.1382 141.439 53.6837 141.848 53.7263C142.258 53.7689 142.65 53.2831 142.701 52.6525C142.752 52.0218 142.505 51.4764 142.096 51.4338C141.687 51.3911 141.32 51.8769 141.243 52.5076Z" fill="#263238"/>
<path d="M141.941 51.4509L143.501 51.1611C143.501 51.1611 142.581 52.2691 141.941 51.4509Z" fill="#263238"/>
<path d="M148.836 301.824L157.137 299.199L156.327 282.291L148.018 284.907L148.836 301.824Z" fill="#FF8B7B"/>
<path d="M80.6982 295.782L88.1725 297.895L94.4365 280.586L86.9537 278.473L80.6982 295.782Z" fill="#FF8B7B"/>
<path d="M89.1274 296.404L81.1162 292.995C80.9766 292.936 80.8206 292.93 80.6766 292.977C80.5326 293.024 80.4104 293.121 80.3322 293.251L76.5737 299.344C76.4827 299.496 76.425 299.666 76.4047 299.841C76.3844 300.017 76.4018 300.196 76.4559 300.364C76.5099 300.533 76.5993 300.688 76.7181 300.819C76.8369 300.95 76.9824 301.055 77.1447 301.125C79.9657 302.25 81.406 302.651 84.9002 304.142C87.0649 305.054 88.7609 307.833 93.525 307.833C96.7464 307.833 97.3601 304.918 96.0817 304.492C90.116 302.583 91.3347 299.745 90.116 297.333C89.9075 296.915 89.5569 296.586 89.1274 296.404Z" fill="#263238"/>
<path d="M160.103 300.367C159.399 300.348 158.699 300.253 158.015 300.086C157.979 300.076 157.947 300.056 157.921 300.029C157.896 300.002 157.878 299.969 157.87 299.932C157.864 299.897 157.868 299.861 157.881 299.827C157.895 299.794 157.918 299.765 157.947 299.745C158.211 299.574 160.504 298.04 161.467 298.449C161.571 298.495 161.662 298.567 161.731 298.658C161.799 298.749 161.844 298.856 161.859 298.969C161.902 299.144 161.898 299.327 161.849 299.501C161.8 299.674 161.706 299.832 161.578 299.958C161.152 300.269 160.628 300.414 160.103 300.367ZM158.535 299.822C159.907 300.094 160.938 300.043 161.322 299.685C161.406 299.599 161.466 299.492 161.496 299.376C161.525 299.259 161.524 299.136 161.492 299.02C161.488 298.97 161.47 298.922 161.442 298.88C161.414 298.839 161.375 298.805 161.33 298.782C160.836 298.56 159.49 299.234 158.518 299.822H158.535Z" fill="#555555"/>
<path d="M158.058 300.086H157.964C157.936 300.071 157.912 300.049 157.896 300.022C157.879 299.995 157.87 299.964 157.871 299.932C157.871 299.83 157.802 297.572 158.629 296.822C158.732 296.722 158.856 296.648 158.992 296.606C159.128 296.563 159.272 296.552 159.413 296.574C159.561 296.579 159.703 296.631 159.818 296.723C159.933 296.816 160.015 296.943 160.052 297.086C160.257 297.938 158.885 299.642 158.152 300.094C158.12 300.1 158.088 300.097 158.058 300.086ZM159.294 296.907C159.142 296.909 158.997 296.967 158.885 297.069C158.39 297.52 158.263 298.773 158.237 299.54C158.97 298.944 159.814 297.674 159.686 297.137C159.686 297.052 159.618 296.941 159.379 296.915L159.294 296.907Z" fill="#555555"/>
<path d="M157.367 298.995H148.555C148.404 298.99 148.256 299.043 148.142 299.142C148.028 299.242 147.956 299.381 147.941 299.532L147.166 306.503C147.154 306.682 147.179 306.861 147.239 307.03C147.3 307.198 147.394 307.353 147.516 307.484C147.638 307.615 147.786 307.719 147.95 307.791C148.114 307.863 148.291 307.9 148.47 307.901C151.546 307.85 153.021 307.671 156.899 307.671C159.285 307.671 162.771 307.918 166.069 307.918C169.367 307.918 169.427 304.662 168.046 304.364C161.859 303.043 160.827 301.219 158.671 299.481C158.304 299.176 157.844 299.005 157.367 298.995Z" fill="#263238"/>
<path opacity="0.2" d="M156.318 282.291L156.762 291.35L148.435 293.634L148.018 284.915L156.318 282.291Z" fill="black"/>
<path opacity="0.2" d="M86.9546 278.481L94.4289 280.595L91.2073 289.509L83.7246 287.395L86.9546 278.481Z" fill="black"/>
<path d="M103.975 75.6799C100.702 76.4469 97.1055 88.2335 97.1055 88.2335L106.233 97.8894C106.233 97.8894 113.989 86.7506 112.463 82.7279C110.852 78.5349 107.801 74.7765 103.975 75.6799Z" fill="#555555"/>
<path opacity="0.2" d="M103.975 75.6799C100.702 76.4469 97.1055 88.2335 97.1055 88.2335L106.233 97.8894C106.233 97.8894 113.989 86.7506 112.463 82.7279C110.852 78.5349 107.801 74.7765 103.975 75.6799Z" fill="black"/>
<path opacity="0.4" d="M109.028 83.069C110.732 81.535 111.806 81.9611 112.556 83.1543C113.272 86.6229 108.423 94.4806 106.59 97.276C105.815 93.9949 105.269 86.5547 109.028 83.069Z" fill="black"/>
<path d="M145.733 78.4243C146.185 81.8333 145.904 92.3074 139.29 123.994L107.425 123.372C108.541 110.426 108.916 102.432 103.922 75.7141C108.425 74.8859 112.982 74.3817 117.558 74.2057C122.388 73.9549 127.229 74.0489 132.046 74.4869C136.657 74.9983 141.711 76.0039 143.978 76.4897C144.435 76.5905 144.849 76.8308 145.163 77.1774C145.478 77.5239 145.677 77.9597 145.733 78.4243Z" fill="#555555"/>
<path opacity="0.2" d="M145.733 78.4243C146.185 81.8333 145.904 92.3074 139.29 123.994L107.425 123.372C108.541 110.426 108.916 102.432 103.922 75.7141C108.425 74.8859 112.982 74.3817 117.558 74.2057C122.388 73.9549 127.229 74.0489 132.046 74.4869C136.657 74.9983 141.711 76.0039 143.978 76.4897C144.435 76.5905 144.849 76.8308 145.163 77.1774C145.478 77.5239 145.677 77.9597 145.733 78.4243Z" fill="black"/>
<path d="M120.414 48.3401C119.954 56.1382 119.562 59.4194 123.013 63.7829C128.127 70.3282 137.774 68.8964 140.544 61.371C143.033 54.553 143.365 42.9454 136.189 39.1444C129.013 35.3434 120.866 40.5421 120.414 48.3401Z" fill="#FF8B7B"/>
<path d="M130.897 123.798C130.897 123.798 126.269 180.694 120.167 210.889C115.241 235.306 92.8951 288.069 92.8951 288.069L83.1709 283.961C83.1709 283.961 94.4291 224.201 102.04 209.67C110.562 159.55 96.7643 142.462 107.443 123.372L130.897 123.798Z" fill="#263238"/>
<path opacity="0.4" d="M122.228 154.914C118.743 169.734 121.001 183.191 123.362 192.072C124.76 182.552 126.021 172.299 127.095 162.695C125.62 159.933 123.771 157.325 122.228 154.914Z" fill="black"/>
<path d="M139.308 123.96C139.308 123.96 151.41 179.518 152.944 203.27C154.563 227.985 157.81 286.535 157.81 286.535L147.14 289.398C147.14 289.398 135.141 229.05 136.061 210.889C130.095 185.117 109.292 123.406 109.292 123.406L139.308 123.96Z" fill="#263238"/>
<path d="M159.421 289.245L145.564 291.58L144.234 286.637L159.072 284.114L159.421 289.245Z" fill="#555555"/>
<path d="M94.6419 288.555L81.6621 284.882L82.3865 280.066L96.2611 283.484L94.6419 288.555Z" fill="#555555"/>
<path d="M107.05 121.463L105.482 124.284C105.362 124.497 105.618 124.727 105.985 124.736L139.401 125.392C139.691 125.392 139.938 125.264 139.964 125.085L140.381 122.239C140.381 122.043 140.168 121.872 139.853 121.864L107.578 121.233C107.478 121.221 107.376 121.236 107.283 121.276C107.19 121.317 107.11 121.381 107.05 121.463Z" fill="white"/>
<path d="M111.217 125.153H110.365C110.194 125.153 110.067 125.051 110.084 124.948L110.655 121.25C110.655 121.147 110.825 121.062 110.995 121.062H111.848C112.018 121.062 112.146 121.156 112.129 121.267L111.558 124.957C111.549 125.068 111.396 125.153 111.217 125.153Z" fill="#263238"/>
<path d="M132.175 125.562H131.323C131.152 125.562 131.025 125.468 131.042 125.357L131.613 121.667C131.613 121.556 131.783 121.471 131.962 121.471H132.814C132.985 121.471 133.113 121.565 133.095 121.676L132.524 125.366C132.499 125.477 132.346 125.562 132.175 125.562Z" fill="#263238"/>
<path d="M147.498 82.4385C149.057 85.7537 150.796 89.1968 152.611 92.4609C154.334 95.6967 156.297 98.799 158.483 101.742C158.756 102.091 159.029 102.449 159.25 102.705C159.472 102.961 159.753 103.267 160.043 103.557C160.639 104.139 161.271 104.682 161.935 105.185C163.365 106.264 164.865 107.247 166.426 108.125C169.694 109.969 173.066 111.622 176.525 113.077L175.486 116.912C171.472 116.236 167.544 115.13 163.767 113.614C161.802 112.835 159.904 111.897 158.091 110.81C157.138 110.232 156.224 109.591 155.355 108.892C154.904 108.534 154.503 108.134 154.034 107.716C153.566 107.299 153.182 106.864 152.875 106.489C152.143 105.696 151.495 104.887 150.83 104.077C150.165 103.267 149.569 102.424 148.989 101.58C147.796 99.8755 146.722 98.171 145.682 96.4665C143.61 93.0038 141.762 89.4112 140.151 85.7111L147.498 82.4385Z" fill="#FF8B7B"/>
<path d="M143.5 76.3363C150.966 77.9641 152.772 89.6995 152.772 89.6995L145.417 98.2731C145.417 98.2731 133.733 87.1939 134.338 81.1685C134.739 76.7198 139.426 75.4499 143.5 76.3363Z" fill="#555555"/>
<path opacity="0.2" d="M143.5 76.3363C150.966 77.9641 152.772 89.6995 152.772 89.6995L145.417 98.2731C145.417 98.2731 133.733 87.1939 134.338 81.1685C134.739 76.7198 139.426 75.4499 143.5 76.3363Z" fill="black"/>
<path d="M185.159 116.094L183.088 113.648C183.088 113.648 176.406 112.088 173.449 113.537L172.537 116.29L180.003 120.159L181.562 120.892C181.933 121.066 182.355 121.101 182.749 120.989C183.143 120.878 183.485 120.629 183.71 120.287L185.21 118.173C185.432 117.869 185.548 117.501 185.538 117.125C185.529 116.748 185.396 116.386 185.159 116.094Z" fill="#FF8B7B"/>
<path d="M142.206 91.4208C143.509 87.9436 144.234 83.7505 143.91 81.7477C143.467 85.3101 140.757 90.185 138.038 93.8071C133.153 95.7589 127.89 96.5797 122.643 96.2077C117.396 95.8358 112.301 94.2808 107.741 91.6594C105.499 87.1254 103.641 80.0433 104.817 75.8161C103.377 77.9638 102.312 83.8358 102.994 87.9777C100.701 85.634 99.363 83.0006 99.3545 80.4097C99.3545 67.9584 114.363 68.7169 114.567 59.6319C114.772 50.5469 111.073 31.9765 129.601 35.9394C141.737 35.3684 139.197 46.0726 137.22 52.5838C135.422 58.5922 153.779 81.654 142.206 91.4208Z" fill="#263238"/>
<path d="M129.635 35.9397C137.22 31.8916 144.975 38.2664 141.004 44.9395C137.501 44.7861 134.663 47.0104 137.407 51.4592C129.268 46.3286 124.283 36.3914 129.635 35.9397Z" fill="#263238"/>
<path d="M137.611 50.2999C138.436 51.7216 138.783 53.3707 138.6 55.0043C138.361 57.1008 136.725 57.1008 135.574 55.8565C134.424 54.6122 133.469 52.0299 134.134 50.4277C134.267 50.0818 134.499 49.7826 134.8 49.5672C135.102 49.3518 135.46 49.2297 135.83 49.2161C136.201 49.2025 136.567 49.298 136.884 49.4906C137.2 49.6833 137.453 49.9647 137.611 50.2999Z" fill="#FF8B7B"/>
</svg>
