<svg width="613" height="576" viewBox="0 0 613 576" fill="none" xmlns="http://www.w3.org/2000/svg">
<path d="M306.629 575.999C475.609 575.999 612.595 496.907 612.595 399.342C612.595 301.778 475.609 222.686 306.629 222.686C137.648 222.686 0.662109 301.778 0.662109 399.342C0.662109 496.907 137.648 575.999 306.629 575.999Z" fill="#F5F5F5"/>
<path d="M435.847 306.851L177.409 456.03C175.283 457.256 172.873 457.901 170.419 457.901C167.965 457.901 165.555 457.256 163.429 456.03L149.788 448.213C149.022 447.772 148.386 447.137 147.944 446.371C147.501 445.606 147.269 444.738 147.269 443.855C147.269 442.971 147.501 442.103 147.944 441.338C148.386 440.572 149.022 439.937 149.788 439.496L408.252 290.252C410.376 289.029 412.784 288.385 415.235 288.385C417.686 288.385 420.094 289.029 422.219 290.252L435.86 298.135C436.621 298.58 437.253 299.217 437.692 299.982C438.131 300.747 438.361 301.614 438.359 302.497C438.358 303.379 438.125 304.245 437.684 305.009C437.243 305.773 436.61 306.408 435.847 306.851Z" fill="#E0E0E0"/>
<path d="M396.238 474.191C426.927 474.191 451.806 459.83 451.806 442.114C451.806 424.399 426.927 410.038 396.238 410.038C365.549 410.038 340.671 424.399 340.671 442.114C340.671 459.83 365.549 474.191 396.238 474.191Z" fill="#E0E0E0"/>
<path d="M503.83 352.815C527.856 352.815 547.333 341.569 547.333 327.696C547.333 313.823 527.856 302.577 503.83 302.577C479.804 302.577 460.327 313.823 460.327 327.696C460.327 341.569 479.804 352.815 503.83 352.815Z" fill="#E0E0E0"/>
<path d="M109.789 509.667C133.815 509.667 153.292 498.421 153.292 484.548C153.292 470.675 133.815 459.428 109.789 459.428C85.763 459.428 66.2861 470.675 66.2861 484.548C66.2861 498.421 85.763 509.667 109.789 509.667Z" fill="#E0E0E0"/>
<path d="M160.395 152.604L422.585 1.24977C425.595 -0.483051 428.292 -0.352764 430.207 1.24977L439.327 7.52961L433.008 15.1644V226.555C433.008 234.307 428.305 243.297 422.494 246.659L162.962 396.489L162.48 404.736L152.917 398.222C151.014 396.789 149.842 393.961 149.842 390.092V172.695C149.881 164.943 154.584 155.953 160.395 152.604Z" fill="#555555"/>
<path opacity="0.4" d="M160.395 152.604L422.585 1.24977C425.595 -0.483051 428.292 -0.352764 430.207 1.24977L439.327 7.52961L433.008 15.1644V226.555C433.008 234.307 428.305 243.297 422.494 246.659L162.962 396.489L162.48 404.736L152.917 398.222C151.014 396.789 149.842 393.961 149.842 390.092V172.695C149.881 164.943 154.584 155.953 160.395 152.604Z" fill="white"/>
<path d="M158.806 396.188V178.83C158.918 174.435 160.132 170.139 162.336 166.335L152.969 160.967C151.035 164.58 149.978 168.597 149.881 172.693V390.051C149.881 393.96 151.053 396.748 152.956 398.181L161.763 404.213C159.939 402.754 158.806 399.979 158.806 396.188Z" fill="#555555"/>
<path opacity="0.2" d="M158.806 396.188V178.83C158.918 174.435 160.132 170.139 162.336 166.335L152.969 160.967C151.035 164.58 149.978 168.597 149.881 172.693V390.051C149.881 393.96 151.053 396.748 152.956 398.181L161.763 404.213C159.939 402.754 158.806 399.979 158.806 396.188Z" fill="white"/>
<path d="M169.32 404.149L431.458 252.795C437.269 249.446 441.972 240.443 441.972 232.704V15.3463C441.972 7.60725 437.269 4.05041 431.458 7.39879L169.32 158.74C163.509 162.102 158.806 171.092 158.806 178.831V396.189C158.806 403.941 163.509 407.511 169.32 404.149Z" fill="#555555"/>
<path d="M169.32 404.149L431.458 252.795C437.269 249.446 441.972 240.443 441.972 232.704V15.3463C441.972 7.60725 437.269 4.05041 431.458 7.39879L169.32 158.74C163.509 162.102 158.806 171.092 158.806 178.831V396.189C158.806 403.941 163.509 407.511 169.32 404.149Z" fill="#555555"/>
<path opacity="0.7" d="M169.32 404.149L431.458 252.795C437.269 249.446 441.972 240.443 441.972 232.704V15.3463C441.972 7.60725 437.269 4.05041 431.458 7.39879L169.32 158.74C163.509 162.102 158.806 171.092 158.806 178.831V396.189C158.806 403.941 163.509 407.511 169.32 404.149Z" fill="white"/>
<path d="M169.32 158.74L431.458 7.39879C437.269 4.05041 441.972 7.60725 441.972 15.3463V25.9777L158.806 189.462V178.831C158.806 171.092 163.509 162.102 169.32 158.74Z" fill="#555555"/>
<path opacity="0.5" d="M169.32 158.74L431.458 7.39879C437.269 4.05041 441.972 7.60725 441.972 15.3463V25.9777L158.806 189.462V178.831C158.806 171.092 163.509 162.102 169.32 158.74Z" fill="white"/>
<path d="M435.614 7.16452C438.832 7.16452 440.93 10.3826 440.93 15.3466V232.705C440.93 240.105 436.435 248.73 430.924 251.909L168.812 403.251C167.713 403.946 166.45 404.337 165.151 404.384C161.92 404.384 159.835 401.166 159.835 396.189V178.831C159.835 171.431 164.317 162.819 169.841 159.627L431.979 8.28499C433.08 7.59682 434.342 7.21039 435.64 7.16452M435.64 6.13525C434.155 6.19218 432.712 6.64174 431.458 7.43813L169.32 158.741C163.509 162.102 158.806 171.092 158.806 178.831V396.189C158.806 401.961 161.411 405.4 165.151 405.4C166.63 405.337 168.067 404.888 169.32 404.097L431.458 252.743C437.269 249.394 441.972 240.392 441.972 232.653V15.3466C441.972 9.58786 439.366 6.13525 435.64 6.13525Z" fill="#555555"/>
<path d="M182.4 345.64C181.797 345.64 181.211 345.442 180.733 345.075C180.254 344.708 179.91 344.194 179.754 343.612C179.598 343.029 179.639 342.412 179.87 341.855C180.101 341.298 180.51 340.833 181.032 340.532L259.726 295.101C260.037 294.898 260.386 294.76 260.753 294.696C261.119 294.632 261.495 294.643 261.857 294.729C262.219 294.815 262.559 294.974 262.857 295.196C263.156 295.418 263.406 295.699 263.592 296.021C263.778 296.343 263.897 296.699 263.941 297.069C263.984 297.438 263.952 297.812 263.847 298.169C263.741 298.525 263.564 298.857 263.325 299.142C263.087 299.428 262.793 299.662 262.462 299.831L183.768 345.262C183.356 345.512 182.882 345.643 182.4 345.64Z" fill="#FAFAFA"/>
<path d="M182.401 362.783C181.797 362.79 181.208 362.595 180.726 362.23C180.245 361.865 179.898 361.35 179.742 360.767C179.585 360.183 179.627 359.564 179.861 359.007C180.094 358.45 180.507 357.986 181.033 357.689L293.08 292.963C293.391 292.783 293.735 292.666 294.092 292.619C294.448 292.573 294.81 292.597 295.157 292.69C295.505 292.783 295.83 292.943 296.115 293.162C296.4 293.381 296.64 293.654 296.819 293.966C296.999 294.277 297.116 294.621 297.162 294.977C297.209 295.334 297.185 295.696 297.092 296.043C296.999 296.39 296.838 296.716 296.619 297.001C296.4 297.286 296.127 297.525 295.816 297.705L183.769 362.419C183.353 362.659 182.881 362.785 182.401 362.783Z" fill="#FAFAFA"/>
<path d="M306.877 308.075C306.272 308.082 305.683 307.887 305.202 307.522C304.72 307.157 304.374 306.642 304.217 306.059C304.06 305.475 304.102 304.856 304.336 304.299C304.57 303.742 304.982 303.278 305.509 302.981L383.043 258.215C383.354 258.011 383.703 257.873 384.07 257.809C384.436 257.745 384.812 257.756 385.174 257.842C385.535 257.928 385.876 258.087 386.174 258.309C386.473 258.531 386.723 258.812 386.909 259.134C387.095 259.456 387.214 259.813 387.257 260.182C387.301 260.551 387.269 260.926 387.164 261.282C387.058 261.639 386.88 261.97 386.642 262.256C386.404 262.541 386.11 262.776 385.779 262.944L308.232 307.711C307.82 307.949 307.353 308.075 306.877 308.075Z" fill="#FAFAFA"/>
<path d="M182.4 379.942C181.797 379.943 181.211 379.744 180.733 379.377C180.254 379.011 179.91 378.496 179.754 377.914C179.598 377.332 179.639 376.714 179.87 376.157C180.101 375.6 180.51 375.135 181.032 374.835L281.054 317.091C281.683 316.729 282.43 316.63 283.131 316.819C283.832 317.007 284.43 317.466 284.793 318.095C285.156 318.724 285.254 319.471 285.066 320.172C284.878 320.873 284.419 321.471 283.79 321.834L183.768 379.577C183.352 379.817 182.88 379.943 182.4 379.942Z" fill="#FAFAFA"/>
<path d="M182.4 203.21C181.797 203.211 181.211 203.012 180.733 202.645C180.254 202.279 179.91 201.764 179.754 201.182C179.598 200.6 179.639 199.982 179.87 199.425C180.101 198.868 180.51 198.403 181.032 198.103L259.726 152.672C260.037 152.468 260.386 152.33 260.753 152.266C261.119 152.202 261.495 152.213 261.857 152.299C262.219 152.385 262.559 152.544 262.857 152.766C263.156 152.989 263.406 153.269 263.592 153.591C263.778 153.913 263.897 154.27 263.941 154.639C263.984 155.008 263.952 155.383 263.847 155.739C263.741 156.096 263.564 156.427 263.325 156.713C263.087 156.999 262.793 157.233 262.462 157.401L183.768 202.845C183.352 203.085 182.88 203.211 182.4 203.21Z" fill="#FAFAFA"/>
<path d="M182.4 220.367C181.797 220.368 181.211 220.17 180.733 219.803C180.254 219.436 179.91 218.922 179.754 218.339C179.598 217.757 179.639 217.139 179.87 216.583C180.101 216.026 180.51 215.561 181.032 215.26L293.079 150.547C293.39 150.343 293.74 150.205 294.106 150.141C294.473 150.077 294.848 150.088 295.21 150.174C295.572 150.26 295.913 150.419 296.211 150.641C296.509 150.864 296.759 151.144 296.945 151.466C297.132 151.788 297.25 152.145 297.294 152.514C297.338 152.883 297.306 153.258 297.2 153.614C297.094 153.971 296.917 154.302 296.679 154.588C296.441 154.874 296.147 155.108 295.815 155.276L183.768 219.99C183.356 220.24 182.882 220.371 182.4 220.367Z" fill="#FAFAFA"/>
<path d="M306.876 165.659C306.273 165.659 305.687 165.461 305.208 165.094C304.73 164.728 304.386 164.213 304.23 163.631C304.074 163.048 304.115 162.431 304.346 161.874C304.577 161.317 304.985 160.852 305.508 160.552L383.042 115.785C383.353 115.581 383.702 115.443 384.069 115.379C384.435 115.315 384.811 115.327 385.173 115.413C385.535 115.499 385.875 115.658 386.173 115.88C386.472 116.102 386.722 116.382 386.908 116.704C387.094 117.026 387.213 117.383 387.257 117.752C387.3 118.122 387.268 118.496 387.163 118.853C387.057 119.209 386.88 119.54 386.641 119.826C386.403 120.112 386.109 120.346 385.778 120.514L308.231 165.281C307.822 165.529 307.354 165.659 306.876 165.659Z" fill="#FAFAFA"/>
<path d="M182.401 237.511C181.797 237.518 181.208 237.323 180.726 236.958C180.245 236.593 179.898 236.078 179.742 235.494C179.585 234.911 179.627 234.292 179.861 233.735C180.094 233.177 180.507 232.714 181.033 232.417L281.055 174.674C281.678 174.357 282.4 174.291 283.071 174.49C283.742 174.689 284.311 175.138 284.661 175.743C285.011 176.349 285.116 177.066 284.954 177.746C284.793 178.427 284.376 179.02 283.791 179.403L183.769 237.146C183.353 237.386 182.881 237.512 182.401 237.511Z" fill="#FAFAFA"/>
<path d="M181.123 165.36C181.053 166.723 180.663 168.05 179.984 169.234C179.305 170.418 178.356 171.425 177.214 172.174C175.038 173.477 173.306 172.408 173.306 169.907C173.375 168.544 173.766 167.216 174.445 166.032C175.124 164.848 176.073 163.841 177.214 163.093C179.364 161.829 181.123 162.845 181.123 165.36Z" fill="white"/>
<path d="M195 157.36C194.93 158.723 194.54 160.051 193.861 161.235C193.182 162.419 192.233 163.426 191.091 164.174C188.915 165.477 187.183 164.408 187.183 161.907C187.252 160.544 187.643 159.216 188.322 158.032C189.001 156.848 189.95 155.841 191.091 155.093C193.28 153.816 195 154.832 195 157.36Z" fill="white"/>
<path d="M208.914 149.332C208.844 150.695 208.454 152.023 207.775 153.207C207.096 154.391 206.147 155.398 205.005 156.146C202.829 157.449 201.097 156.381 201.097 153.879C201.166 152.516 201.557 151.189 202.236 150.005C202.915 148.821 203.864 147.814 205.005 147.065C207.116 145.802 208.914 146.818 208.914 149.332Z" fill="white"/>
<path d="M236.469 218.919L230.88 216.496V158.557L236.469 160.98V218.919Z" fill="#555555"/>
<path opacity="0.6" d="M236.469 218.919L230.88 216.496V158.557L236.469 160.98V218.919Z" fill="black"/>
<path d="M463.807 29.444L236.469 160.982L230.88 158.559L458.205 27.0337L463.807 29.444Z" fill="#555555"/>
<path opacity="0.4" d="M463.807 29.444L236.469 160.982L230.88 158.559L458.205 27.0337L463.807 29.444Z" fill="black"/>
<path d="M463.807 87.3826L236.469 218.92V160.982L463.807 29.4438V87.3826Z" fill="#555555"/>
<path opacity="0.3" d="M463.807 87.3826L236.469 218.92V160.982L463.807 29.4438V87.3826Z" fill="black"/>
<path d="M319.113 138.973V135.058L332.689 120.361V124.865L323.394 134.511L323.52 134.205V134.761L323.394 134.6L332.689 133.562V138.066L319.113 138.973ZM345.369 107.191L339.005 138.117L335.466 140.151L341.83 109.224L345.369 107.191ZM361.725 114.484L348.148 129.181V124.677L357.443 115.031L357.318 115.337V114.781L357.443 114.942L348.148 115.981V111.476L361.725 110.569V114.484Z" fill="white"/>
<path d="M523.987 177.789L528.495 183.169C529.054 188.125 530.119 193.01 531.674 197.749C534.28 206.152 533.837 209.709 533.837 209.709L543.4 208.966L539.583 179C539.321 176.997 538.632 175.073 537.563 173.359L535.244 169.62L523.987 177.789Z" fill="#945959"/>
<path d="M529.224 329.562C529.224 329.562 523.218 334.239 523.792 337.001C524.365 339.764 533.732 341.079 538.279 335.699C540.299 333.314 541.732 328.455 541.914 322.527C542.006 319.569 545.732 315.191 541.914 312.104C538.097 309.016 536.573 308.286 535.622 308.677C534.671 309.068 529.224 329.562 529.224 329.562Z" fill="#37474F"/>
<path d="M524.743 306.955L528.274 314.485C528.274 314.485 529.42 325.364 529.225 329.559C529.225 329.559 534.671 332.895 536.287 326.576C536.907 323.577 537.196 320.518 537.146 317.456C536.551 315.338 536.3 313.139 536.404 310.941C536.495 310.263 536.456 309.573 536.287 308.909L534.671 302.264L524.743 306.955Z" fill="#945959"/>
<path d="M475.794 319.386C475.794 319.386 473.618 320.845 472.094 321.927C470.57 323.008 464.185 328.311 473.11 329.939C475.336 330.257 477.604 330.062 479.743 329.369C481.881 328.675 483.833 327.502 485.448 325.94C489.839 321.614 493.018 322.956 494.568 321.236C496.119 319.516 494.985 309.914 492.81 310.357L475.794 319.386Z" fill="#37474F"/>
<path d="M483.22 302.474L483.911 308.689C483.966 309.218 483.881 309.753 483.663 310.239C483.025 311.607 481.175 314.591 475.846 319.359C475.846 319.359 475.755 324.167 482.503 321.848C484.345 320.986 486.092 319.933 487.715 318.708C488.503 318.149 489.153 317.418 489.617 316.571C490.42 315.036 491.477 313.648 492.744 312.467L493.448 302.448L483.22 302.474Z" fill="#945959"/>
<path d="M477.304 197.252C477.304 197.252 475.428 206.568 475.819 224.248C476.067 236.13 476.314 245.016 476.432 249.576C476.494 251.838 476.681 254.096 476.992 256.338L483.193 302.472C484.761 303.302 486.508 303.735 488.281 303.735C490.055 303.735 491.801 303.302 493.369 302.472C493.369 302.472 494.255 292.297 495.271 286.955C496.183 282.226 497.382 268.402 494.984 261.158C494.312 259.056 494.142 256.824 494.489 254.644L501.538 208.171L477.304 197.252Z" fill="#455A64"/>
<path d="M482.125 207.936C482.919 210.035 484.139 211.946 485.709 213.55C487.279 215.153 489.164 216.413 491.245 217.252L496.391 242.345L501.603 208.223L482.125 207.936Z" fill="#37474F"/>
<path d="M479.403 196.771C479.403 196.771 478.1 208.093 487.546 212.51C489.413 213.491 491.402 214.223 493.461 214.686C493.461 214.686 501.187 260.755 502.581 264.195C503.975 267.634 524.73 306.929 524.73 306.929C524.73 306.929 532.938 308.649 534.658 302.252C534.658 302.252 532.847 293.861 530.553 284.702C528.625 276.989 526.358 268.26 522.384 263.986C520.861 262.397 520.024 260.273 520.052 258.071C520.222 250.58 520.56 234.854 520.626 230.62C520.73 224.991 522.827 207.051 519.205 199.807L508.027 189.592L479.403 196.771Z" fill="#455A64"/>
<path d="M471.65 133.57L463.234 128.567C463.234 128.567 457.879 121.805 453.54 115.786C449.202 109.767 447.378 106.666 447.378 106.666C448.742 104.59 449.533 102.189 449.671 99.7087C449.671 96.0868 449.476 94.367 450.153 93.025C450.83 91.6831 450.153 90.2629 448.342 90.8362C446.531 91.4094 445.189 95.305 445.736 97.8456L435.626 103.709C435.626 103.709 437.307 108.203 439.626 110.301C439.626 110.301 448.889 132.619 452.511 136.241C456.133 139.863 462.465 144.775 462.465 144.775L471.65 133.57Z" fill="#945959"/>
<path d="M488.939 143.835L471.65 133.569C471.65 133.569 463.651 134.129 462.53 144.734L477.657 156.069L488.939 143.835Z" fill="#555555"/>
<path opacity="0.2" d="M488.939 143.835L471.65 133.569C471.65 133.569 463.651 134.129 462.53 144.734L477.657 156.069L488.939 143.835Z" fill="black"/>
<path d="M492.289 143.834L503.832 144.408L511.376 144.786L512.679 162.622C512.679 162.622 510.685 172.928 509.161 176.55C507.637 180.172 517.643 195.063 519.271 199.832C519.271 199.832 512.874 200.692 509.63 193.318C508.16 196.851 505.654 199.857 502.442 201.938C499.23 204.02 495.463 205.08 491.637 204.978C482.439 204.978 477.306 197.252 477.306 197.252L479.403 184.224C478.126 180.239 477.42 176.094 477.306 171.911C477.306 171.911 472.094 169.996 473.28 162.283C474.466 154.57 488.914 143.874 488.914 143.874L492.289 143.834Z" fill="#555555"/>
<path d="M515.87 115.032C515.87 115.032 522.476 109.573 528.182 115.788C536.39 124.738 518.645 142.314 534.384 142.692C534.384 142.692 532.573 144.789 526.462 144.789C520.352 144.789 515.114 138.471 516.157 126.849L515.87 115.032Z" fill="#263238"/>
<path d="M513.785 114.742C513.785 114.742 515.896 113.439 516.704 114.377C517.512 115.315 518.58 122.598 516.17 126.846C515.023 128.852 512.743 126.09 512.743 126.09L513.785 114.742Z" fill="#555555"/>
<path d="M478.386 115.784C478.386 115.784 478.477 123.327 473.617 121.23C474.017 122.23 474.722 123.079 475.632 123.657C476.541 124.234 477.61 124.511 478.685 124.448C481.356 124.448 482.894 121.842 482.894 119.797L478.386 115.784Z" fill="#263238"/>
<path d="M503.906 125.6C510.902 121.457 513.216 112.427 509.073 105.431C504.93 98.434 495.9 96.1205 488.904 100.263C481.907 104.406 479.594 113.436 483.736 120.432C487.879 127.429 496.909 129.742 503.906 125.6Z" fill="#263238"/>
<path d="M515.297 119.8C515.297 127.93 508.04 138.261 499.91 138.261C497.977 138.263 496.063 137.884 494.277 137.146C492.491 136.407 490.868 135.324 489.5 133.958C488.133 132.592 487.048 130.97 486.308 129.184C485.568 127.399 485.187 125.485 485.188 123.552C485.188 115.422 491.78 106.159 499.91 106.159C508.04 106.159 515.297 108.921 515.297 119.8Z" fill="#263238"/>
<path d="M492.797 111.159C492.799 112.868 492.295 114.539 491.347 115.961C490.4 117.384 489.051 118.493 487.473 119.148C485.895 119.804 484.158 119.977 482.481 119.645C480.805 119.314 479.265 118.492 478.055 117.284C476.846 116.077 476.022 114.538 475.687 112.862C475.353 111.186 475.523 109.448 476.177 107.869C476.83 106.29 477.937 104.94 479.358 103.99C480.779 103.041 482.45 102.534 484.159 102.534C486.447 102.534 488.642 103.442 490.262 105.059C491.882 106.676 492.793 108.87 492.797 111.159Z" fill="#263238"/>
<path d="M492.288 135.917V143.838C492.288 143.838 484.888 151.277 492.093 151.929C499.298 152.58 503.819 144.411 503.819 144.411V129.311L492.288 135.917Z" fill="#945959"/>
<path d="M503.701 126.924V127.393C501.096 137.543 494.438 139.758 492.288 140.266L492.21 124.553H503.376L503.701 126.924Z" fill="#703838"/>
<path d="M494.373 104.318C490.68 104.557 487.227 106.228 484.75 108.976C482.272 111.724 480.966 115.331 481.109 119.028C480.979 130.272 482.699 138.844 488.523 139.196C494.346 139.548 507.362 134.297 507.975 119.653C508.587 105.009 498.529 103.941 494.373 104.318Z" fill="#945959"/>
<path d="M488.979 123.549L489.083 130.142L485.2 129.021L488.979 123.549Z" fill="#703838"/>
<path d="M494.777 123.369C494.776 123.624 494.701 123.873 494.561 124.086C494.42 124.299 494.221 124.465 493.986 124.566C493.752 124.666 493.493 124.695 493.243 124.65C492.992 124.605 492.76 124.487 492.575 124.311C492.391 124.136 492.262 123.909 492.204 123.661C492.147 123.413 492.164 123.153 492.252 122.914C492.341 122.675 492.498 122.468 492.703 122.317C492.909 122.166 493.154 122.079 493.409 122.067C493.585 122.058 493.762 122.085 493.927 122.146C494.093 122.208 494.244 122.302 494.372 122.424C494.5 122.546 494.602 122.693 494.672 122.855C494.741 123.018 494.777 123.193 494.777 123.369Z" fill="#263238"/>
<path d="M485.917 122.559C485.917 122.817 485.841 123.069 485.698 123.283C485.555 123.497 485.351 123.664 485.113 123.763C484.875 123.862 484.613 123.887 484.36 123.837C484.107 123.787 483.875 123.663 483.693 123.48C483.511 123.298 483.387 123.066 483.337 122.813C483.286 122.561 483.312 122.299 483.411 122.061C483.509 121.823 483.676 121.619 483.891 121.476C484.105 121.333 484.357 121.256 484.614 121.256C484.96 121.256 485.291 121.394 485.536 121.638C485.78 121.882 485.917 122.214 485.917 122.559Z" fill="#263238"/>
<path d="M482.895 119.798L485.501 118.196C485.501 118.196 484.484 117.167 483.481 117.805C483.195 118.04 482.986 118.356 482.882 118.712C482.777 119.067 482.782 119.446 482.895 119.798Z" fill="#555555"/>
<path d="M488.211 132.449C489.574 131.792 490.901 131.061 492.185 130.26C492.185 130.26 493.019 132.423 491.26 133.309C490.73 133.539 490.138 133.58 489.582 133.423C489.026 133.266 488.542 132.922 488.211 132.449Z" fill="#703838"/>
<path d="M482.895 119.798L485.501 118.196C485.501 118.196 484.484 117.167 483.481 117.805C483.195 118.04 482.986 118.356 482.882 118.712C482.777 119.067 482.782 119.446 482.895 119.798Z" fill="#263238"/>
<path d="M501.395 122.755C501.395 122.755 501.134 127.484 503.857 127.484H509.199V118.468C509.199 108.358 501.525 97.7919 485.2 106.143C485.2 106.143 484.405 119.641 501.395 122.755Z" fill="#263238"/>
<path d="M503.454 127.693C503.419 126.663 503.619 125.638 504.04 124.696C504.245 124.11 504.617 123.596 505.11 123.219C505.603 122.842 506.196 122.617 506.816 122.573C509.995 122.573 510.385 125.582 510.333 126.677C510.2 128.363 509.415 129.932 508.146 131.05C506.877 132.169 505.222 132.75 503.532 132.67L503.454 127.693Z" fill="#945959"/>
<path d="M510.333 144.733C510.333 144.733 502.829 152.211 512.405 163.755C521.981 175.298 523.987 177.787 523.987 177.787C523.987 177.787 533.811 178.751 535.244 169.683C535.244 169.683 523.701 153.462 520.548 149.371C517.395 145.28 514.528 144.941 510.333 144.733Z" fill="#555555"/>
<path opacity="0.2" d="M510.333 144.733C510.333 144.733 502.829 152.211 512.405 163.755C521.981 175.298 523.987 177.787 523.987 177.787C523.987 177.787 533.811 178.751 535.244 169.683C535.244 169.683 523.701 153.462 520.548 149.371C517.395 145.28 514.528 144.941 510.333 144.733Z" fill="black"/>
<path opacity="0.3" d="M488.496 172.838C488.496 172.838 499.987 176.043 503.831 165.112C503.831 165.177 501.851 178.753 488.496 172.838Z" fill="black"/>
<path d="M533.836 209.749C533.836 209.749 532.012 210.817 531.582 214.635C531.452 215.729 529.446 218.166 529.745 218.778C530.045 219.39 532.051 220.224 534.214 216.641C534.606 218.459 534.633 220.337 534.292 222.165C533.706 224.993 532.69 228.615 536.377 227.82C540.064 227.025 545.497 224.107 544.637 218.609C543.842 213.306 543.399 209.006 543.399 209.006L533.836 209.749Z" fill="#945959"/>
<path d="M316.804 280.898L311.201 278.488V220.549L316.804 222.96V280.898Z" fill="#555555"/>
<path opacity="0.6" d="M316.804 280.898L311.201 278.488V220.549L316.804 222.96V280.898Z" fill="black"/>
<path d="M447.508 147.342L316.804 222.961L311.201 220.551L441.905 144.932L447.508 147.342Z" fill="#555555"/>
<path opacity="0.4" d="M447.508 147.342L316.804 222.961L311.201 220.551L441.905 144.932L447.508 147.342Z" fill="black"/>
<path d="M447.508 205.281L316.804 280.9V222.961L447.508 147.342V205.281Z" fill="#555555"/>
<path opacity="0.3" d="M447.508 205.281L316.804 280.9V222.961L447.508 147.342V205.281Z" fill="black"/>
<path d="M368.437 210.191L364.496 212.456C364.424 211.91 364.277 211.472 364.055 211.142C363.833 210.806 363.548 210.576 363.2 210.451C362.852 210.325 362.45 210.307 361.994 210.396C361.544 210.482 361.055 210.676 360.527 210.98C359.573 211.528 358.742 212.279 358.034 213.232C357.326 214.179 356.778 215.283 356.388 216.545C355.998 217.8 355.803 219.165 355.803 220.639C355.803 222.154 355.998 223.315 356.388 224.122C356.784 224.926 357.335 225.387 358.043 225.506C358.751 225.625 359.57 225.417 360.5 224.883C361.022 224.583 361.505 224.226 361.949 223.811C362.399 223.394 362.798 222.933 363.146 222.428C363.494 221.917 363.782 221.374 364.01 220.8C364.244 220.223 364.406 219.625 364.496 219.006L368.437 216.761C368.335 217.795 368.08 218.883 367.672 220.024C367.27 221.154 366.727 222.273 366.043 223.378C365.366 224.474 364.556 225.5 363.614 226.456C362.678 227.402 361.619 228.215 360.437 228.894C358.793 229.839 357.323 230.255 356.028 230.141C354.738 230.025 353.718 229.369 352.968 228.174C352.224 226.975 351.852 225.22 351.852 222.909C351.852 220.591 352.23 218.402 352.986 216.341C353.742 214.281 354.768 212.453 356.064 210.857C357.359 209.254 358.817 207.987 360.437 207.056C361.505 206.443 362.495 206.047 363.407 205.869C364.325 205.687 365.138 205.725 365.845 205.982C366.553 206.233 367.129 206.708 367.573 207.408C368.023 208.104 368.311 209.032 368.437 210.191Z" fill="white"/>
<path d="M383.848 205.698V197.203L385.706 196.125V204.62L383.848 205.698ZM381.103 204.117V201.969L388.451 197.707V199.854L381.103 204.117ZM393.781 199.937V191.442L395.639 190.364V198.859L393.781 199.937ZM391.036 198.355V196.208L398.384 191.946V194.093L391.036 198.355Z" fill="white"/>
<path d="M430.57 440.213C430.57 440.213 435.885 437.243 436.55 433.934C437.214 430.624 431.338 423.002 431.338 423.002C431.338 423.002 427.026 425.465 430.57 440.213Z" fill="#555555"/>
<path opacity="0.2" d="M430.57 440.213C430.57 440.213 435.885 437.243 436.55 433.934C437.214 430.624 431.338 423.002 431.338 423.002C431.338 423.002 427.026 425.465 430.57 440.213Z" fill="black"/>
<path d="M365.492 450.47L373.244 445.897L374.261 438.132L371.59 437.506L365.492 450.47Z" fill="#555555"/>
<path opacity="0.3" d="M365.492 450.47L373.244 445.897L374.261 438.132L371.59 437.506L365.492 450.47Z" fill="black"/>
<path d="M411.405 405.831L418.649 417.4L423.483 433.425C423.483 433.425 432.408 432.318 426.792 411.746L422.584 399.342L411.405 405.831Z" fill="#FFA8A7"/>
<path d="M363.955 410.12L365.479 428.555L360.15 442.691C360.15 442.691 362.821 449.297 371.212 435.317C375.668 427.891 375.811 426.419 375.811 426.419L377.57 410.133L363.955 410.12Z" fill="#FFA8A7"/>
<path d="M370.873 230.53L368.15 235.924C368.11 236.002 368.087 236.089 368.084 236.177C368.08 236.265 368.095 236.353 368.129 236.434C368.162 236.516 368.213 236.59 368.277 236.65C368.342 236.71 368.418 236.756 368.502 236.784L371.733 237.852L370.873 230.53Z" fill="#F28F8F"/>
<path d="M374.651 221.491C374.651 221.491 370.469 223.719 370.469 236.487C370.469 243.509 370.951 247.991 374.599 247.718C378.247 247.444 388.748 246.063 388.748 246.063V221.491H374.651Z" fill="#FFA8A7"/>
<path d="M374.652 247.713C375.955 247.609 378.066 247.374 380.281 247.114V245.811C378.279 246.676 376.185 247.31 374.04 247.7C374.243 247.724 374.448 247.729 374.652 247.713Z" fill="#F28F8F"/>
<path d="M379.654 245.266V253.292H390.624V242.022L379.654 245.266Z" fill="#FFA8A7"/>
<path d="M398.428 273.423L405.555 288.054L400.213 295.051L403.9 307.545L415.353 294.035C416.348 292.863 417.008 291.444 417.263 289.928C417.517 288.412 417.357 286.855 416.799 285.423C413.646 277.319 407.379 261.372 405.685 258.544C403.392 254.727 400.656 252.694 396.565 252.825C392.474 252.955 398.428 273.423 398.428 273.423Z" fill="#FFA8A7"/>
<path d="M401.868 297.459C403.523 302.423 407.079 309.407 406.975 332.872C406.871 349.275 406.975 358.512 407.132 362.577C407.159 364.032 407.726 365.424 408.721 366.486C410.467 368.284 413.437 372.153 416.239 379.514C418.731 385.997 420.85 392.618 422.584 399.344C422.584 399.344 420.551 405.963 411.392 405.858L388.487 369.052C387.573 367.573 386.982 365.917 386.755 364.193L380.735 318.475V299.753L401.868 297.459Z" fill="#555555"/>
<path opacity="0.6" d="M401.868 297.459C403.523 302.423 407.079 309.407 406.975 332.872C406.871 349.275 406.975 358.512 407.132 362.577C407.159 364.032 407.726 365.424 408.721 366.486C410.467 368.284 413.437 372.153 416.239 379.514C418.731 385.997 420.85 392.618 422.584 399.344C422.584 399.344 420.551 405.963 411.392 405.858L388.487 369.052C387.573 367.573 386.982 365.917 386.755 364.193L380.735 318.475V299.753L401.868 297.459Z" fill="black"/>
<path d="M385.583 355.112L391.941 332.312C391.941 332.312 400.878 323.192 397.699 307.557L384.188 324.573L384.866 350.526L385.583 355.112Z" fill="#555555"/>
<path opacity="0.7" d="M385.583 355.112L391.941 332.312C391.941 332.312 400.878 323.192 397.699 307.557L384.188 324.573L384.866 350.526L385.583 355.112Z" fill="black"/>
<path d="M364.593 298.736C364.215 306.111 360.215 352.024 360.789 365.378C361.362 378.733 363.954 410.119 363.954 410.119C363.954 410.119 372.593 413.689 377.556 410.119C377.556 410.119 379.654 397.742 381.022 387.97C381.858 382.914 381.685 377.742 380.514 372.752C380.038 370.92 380.038 368.996 380.514 367.163L390.259 329.758C390.259 329.758 398.676 323.856 398.676 307.531V295.284L364.593 298.736Z" fill="#555555"/>
<path opacity="0.6" d="M364.593 298.736C364.215 306.111 360.215 352.024 360.789 365.378C361.362 378.733 363.954 410.119 363.954 410.119C363.954 410.119 372.593 413.689 377.556 410.119C377.556 410.119 379.654 397.742 381.022 387.97C381.858 382.914 381.685 377.742 380.514 372.752C380.038 370.92 380.038 368.996 380.514 367.163L390.259 329.758C390.259 329.758 398.676 323.856 398.676 307.531V295.284L364.593 298.736Z" fill="black"/>
<path d="M388.006 247.651L370.47 254.087C370.47 254.087 362.262 261.214 362.262 274.829C362.262 278.646 365.949 282.073 365.949 282.073C365.949 282.073 364.646 294.033 364.542 298.736C364.542 298.736 373.505 305.029 390.221 302.554C394.407 301.706 398.361 299.969 401.817 297.46C401.817 297.46 399.211 286.906 398.885 285.89C398.56 284.874 402.455 272.536 402.455 262.738L388.006 247.651Z" fill="#455A64"/>
<path d="M372.515 224.343C372.515 224.343 373.219 230.505 377.166 232.16C377.166 232.16 374.039 236.446 378.678 238.323V235.013L380.619 238.805C380.619 238.805 375.16 260.953 384.632 260.953C386.28 260.98 387.884 260.416 389.153 259.364C389.153 259.364 390.612 265.149 399.38 265.149C408.149 265.149 409.803 256.563 409.803 256.563C409.803 256.563 403.953 258.335 403.953 252.237C403.953 246.14 403.51 226.545 403.185 223.574C402.595 220.447 401.006 217.597 398.656 215.452C396.306 213.306 393.323 211.982 390.156 211.679C383.316 210.858 374.443 210.91 369.31 217.972C364.177 225.033 371.499 227.014 371.499 227.014C371.499 227.014 371.668 226.766 372.515 224.343Z" fill="#263238"/>
<path d="M378.677 235.038C378.677 235.038 378.39 229.644 382.586 230.061C387.38 230.53 385.856 239.181 379.98 239.181L378.677 235.038Z" fill="#FFA8A7"/>
<path d="M405.399 218.595C404.291 216.863 402.786 215.42 401.008 214.387C400.433 214.119 399.811 213.968 399.177 213.944C398.543 213.919 397.911 214.02 397.317 214.242C396.723 214.464 396.179 214.802 395.716 215.236C395.254 215.67 394.883 216.192 394.624 216.771C394.13 217.792 393.867 218.908 393.851 220.042C393.836 221.175 394.069 222.299 394.535 223.332C395.001 224.366 395.688 225.285 396.548 226.024C397.407 226.763 398.418 227.305 399.51 227.611C399.937 227.727 400.373 227.81 400.813 227.859C402.034 227.969 403.254 227.634 404.248 226.916C405.241 226.198 405.942 225.144 406.22 223.95C406.391 223.334 406.483 222.7 406.493 222.061C406.506 220.819 406.122 219.605 405.399 218.595Z" fill="#555555"/>
<path d="M408.982 219.899C408.979 221.259 408.574 222.587 407.816 223.717C407.059 224.846 405.984 225.726 404.726 226.245C403.469 226.763 402.086 226.898 400.753 226.631C399.419 226.364 398.195 225.708 397.234 224.745C396.273 223.783 395.619 222.557 395.355 221.223C395.09 219.889 395.227 218.506 395.749 217.25C396.27 215.994 397.151 214.92 398.282 214.165C399.413 213.409 400.743 213.006 402.103 213.006C403.007 213.006 403.903 213.185 404.738 213.531C405.574 213.878 406.333 214.386 406.972 215.026C407.611 215.666 408.117 216.426 408.462 217.262C408.807 218.098 408.984 218.994 408.982 219.899Z" fill="#263238"/>
<path d="M370.469 254.088C370.469 254.088 376.371 254.987 376.371 262.869C376.371 270.752 361.87 274.321 355.004 276.862C351.095 278.334 345.793 280.393 342.079 281.878C340.65 282.446 339.092 282.608 337.577 282.346C336.062 282.084 334.649 281.408 333.493 280.393C326.26 274.068 319.71 267.003 313.95 259.312C313.95 259.312 305.664 256.381 305.912 248.238C306.159 240.095 311.123 237.815 311.123 237.815V240.525C311.123 241.411 311.326 242.285 311.716 243.08C312.107 243.875 312.675 244.57 313.377 245.111L315.032 246.414C315.214 246.555 315.428 246.651 315.654 246.695C315.881 246.738 316.115 246.728 316.336 246.665C316.558 246.601 316.762 246.486 316.932 246.33C317.101 246.173 317.231 245.979 317.312 245.762C317.885 244.199 318.888 242.167 320.387 241.489C322.927 240.343 322.041 245.28 321.403 247.639C321.023 248.99 320.851 250.392 320.895 251.795L339.461 268.198C339.461 268.198 359.838 257.475 370.469 254.088Z" fill="#FFA8A7"/>
<path d="M375.811 426.444C374.484 426.666 373.227 427.195 372.141 427.989C371.055 428.783 370.17 429.82 369.557 431.017C367.524 435.082 363.707 446.534 360.15 442.743L361.362 439.551C361.362 439.551 347.121 442.665 350.522 446.391C353.922 450.117 364.593 451.772 365.492 450.495C366.391 449.218 371.211 440.072 371.211 440.072L373.882 452.28C374.271 452.617 374.768 452.803 375.283 452.803C375.797 452.803 376.295 452.617 376.683 452.28C376.683 452.28 380.162 428.854 375.811 426.444Z" fill="#555555"/>
<path d="M423.483 433.429C424.508 432.909 425.336 432.069 425.841 431.038C426.347 430.006 426.502 428.837 426.284 427.709C425.776 423.383 422.48 414.771 426.793 411.749C428.708 410.446 432.955 416.257 436.551 423.253C440.147 430.25 441.163 432.282 441.163 432.282C441.163 432.282 440.772 434.158 439.131 434.067L431.248 425.924C430.74 428.41 430.825 430.981 431.496 433.429C432.643 437.246 432.799 439.461 428.643 441.311C424.487 443.161 413.112 445.689 419.197 438.015C420.399 436.289 421.843 434.745 423.483 433.429Z" fill="#555555"/>
<path d="M118.064 454.506L119.081 465.021C119.081 465.021 120.214 467.183 125.439 467.183C130.663 467.183 129.504 462.727 129.504 462.727L130.012 454.506H118.064Z" fill="#FFA8A7"/>
<path d="M133.738 348.073C133.738 353.532 133.23 406.819 133.191 410.389C133.198 410.515 133.198 410.641 133.191 410.767C132.983 413.737 130.403 450.27 130.025 454.504C130.025 454.504 123.798 459.247 118.078 454.504C118.078 454.504 116.541 441.619 116.032 437.802C115.524 433.984 113.609 416.956 116.032 411.34L109.805 379.042V353.102L133.738 348.073Z" fill="#37474F"/>
<path d="M126.677 356.256C126.677 356.256 125.374 364.412 116.02 368.868L111.916 390.04L109.792 380.151V357.038L126.677 356.256Z" fill="#263238"/>
<path d="M78.1188 462.725L77.1025 470.542C77.1025 470.542 79.8255 477.643 88.1379 474.216L89.6622 466.086L78.1188 462.725Z" fill="#FFA8A7"/>
<path d="M89.6626 349.024C89.0893 355.122 87.4086 370.639 86.7702 390.716C86.1318 410.793 86.1318 410.676 86.1318 410.676C83.8454 415.597 82.2874 420.824 81.5066 426.193C80.7119 433.724 78.1191 462.674 78.1191 462.674C79.5663 464.215 81.403 465.336 83.4351 465.918C85.4671 466.501 87.6189 466.523 89.6626 465.983L105.01 417.777C105.424 416.464 105.742 415.123 105.962 413.764L113.479 366.378C113.479 366.378 126.586 364.606 129.504 347.682L89.6626 349.024Z" fill="#37474F"/>
<path d="M137.933 311.526L152.707 323.356V306.184L147.47 300.842L137.933 311.526Z" fill="#F28F8F"/>
<path d="M123.524 284.729C127.028 284.468 130.502 285.523 133.27 287.686C137.843 291.308 147.471 300.845 147.471 300.845C147.118 303.37 146.023 305.734 144.326 307.636C142.628 309.538 140.403 310.893 137.934 311.529L128.488 304.767L123.524 284.729Z" fill="#555555"/>
<path opacity="0.2" d="M123.524 284.729C127.028 284.468 130.502 285.523 133.27 287.686C137.843 291.308 147.471 300.845 147.471 300.845C147.118 303.37 146.023 305.734 144.326 307.636C142.628 309.538 140.403 310.893 137.934 311.529L128.488 304.767L123.524 284.729Z" fill="white"/>
<path d="M104.346 284.82C104.346 284.82 94.6264 285.797 90.2357 286.748L88.6201 304.285C88.6201 304.285 92.0336 323.828 92.0336 326.577C92.0336 329.326 89.6624 349.026 89.6624 349.026C89.6624 349.026 96.3722 353.416 115.902 353.416C122.211 353.217 128.359 351.376 133.739 348.075V309.106C133.739 301.523 130.781 289.563 123.524 284.729H117.557L104.346 284.82Z" fill="#555555"/>
<path opacity="0.2" d="M104.346 284.82C104.346 284.82 94.6264 285.797 90.2357 286.748L88.6201 304.285C88.6201 304.285 92.0336 323.828 92.0336 326.577C92.0336 329.326 89.6624 349.026 89.6624 349.026C89.6624 349.026 96.3722 353.416 115.902 353.416C122.211 353.217 128.359 351.376 133.739 348.075V309.106C133.739 301.523 130.781 289.563 123.524 284.729H117.557L104.346 284.82Z" fill="black"/>
<path d="M158.297 338.34L152.708 335.929V277.991L158.297 280.401V338.34Z" fill="#555555"/>
<path opacity="0.6" d="M158.297 338.34L152.708 335.929V277.991L158.297 280.401V338.34Z" fill="black"/>
<path d="M289.001 204.784L158.297 280.403L152.708 277.992L283.399 202.374L289.001 204.784Z" fill="#555555"/>
<path opacity="0.4" d="M289.001 204.784L158.297 280.403L152.708 277.992L283.399 202.374L289.001 204.784Z" fill="black"/>
<path d="M289.002 262.722L158.298 338.341V280.402L289.002 204.784V262.722Z" fill="#555555"/>
<path opacity="0.3" d="M289.002 262.722L158.298 338.341V280.402L289.002 204.784V262.722Z" fill="black"/>
<path d="M197.97 275.007L194.029 277.273C193.957 276.726 193.81 276.288 193.588 275.959C193.366 275.623 193.081 275.392 192.733 275.267C192.385 275.142 191.983 275.124 191.527 275.213C191.077 275.298 190.588 275.493 190.06 275.796C189.106 276.344 188.275 277.095 187.568 278.049C186.86 278.995 186.311 280.1 185.921 281.362C185.531 282.617 185.336 283.981 185.336 285.455C185.336 286.971 185.531 288.132 185.921 288.939C186.317 289.742 186.869 290.203 187.577 290.322C188.284 290.441 189.103 290.234 190.033 289.699C190.555 289.399 191.038 289.042 191.482 288.628C191.932 288.21 192.331 287.749 192.679 287.245C193.027 286.733 193.315 286.191 193.543 285.617C193.777 285.039 193.939 284.441 194.029 283.822L197.97 281.578C197.868 282.612 197.613 283.699 197.205 284.84C196.804 285.971 196.261 287.089 195.577 288.195C194.899 289.29 194.089 290.316 193.147 291.273C192.211 292.219 191.152 293.031 189.97 293.711C188.326 294.655 186.857 295.071 185.561 294.958C184.271 294.841 183.251 294.185 182.501 292.99C181.757 291.792 181.385 290.037 181.385 287.726C181.385 285.408 181.763 283.218 182.519 281.158C183.275 279.097 184.301 277.269 185.597 275.673C186.893 274.07 188.35 272.804 189.97 271.873C191.038 271.259 192.028 270.863 192.94 270.685C193.858 270.503 194.671 270.541 195.379 270.799C196.087 271.049 196.663 271.524 197.106 272.224C197.556 272.92 197.844 273.848 197.97 275.007ZM210.762 266.327C210.69 265.531 210.381 265.058 209.836 264.909C209.29 264.759 208.549 264.953 207.613 265.491C206.977 265.856 206.44 266.268 206.002 266.728C205.564 267.18 205.228 267.653 204.994 268.148C204.766 268.639 204.652 269.112 204.652 269.569C204.64 269.956 204.709 270.249 204.859 270.446C205.015 270.641 205.228 270.764 205.498 270.816C205.768 270.862 206.08 270.859 206.434 270.808C206.788 270.75 207.166 270.657 207.568 270.53L209.224 270.035C210.028 269.78 210.765 269.633 211.437 269.593C212.109 269.553 212.691 269.644 213.183 269.866C213.675 270.089 214.056 270.465 214.326 270.995C214.602 271.521 214.743 272.225 214.749 273.108C214.743 274.412 214.455 275.705 213.885 276.988C213.321 278.26 212.505 279.466 211.437 280.605C210.375 281.734 209.095 282.73 207.595 283.592C206.107 284.447 204.811 284.929 203.707 285.037C202.609 285.143 201.751 284.857 201.134 284.181C200.522 283.495 200.201 282.396 200.171 280.884L203.941 278.717C203.983 279.405 204.16 279.899 204.472 280.197C204.79 280.485 205.213 280.598 205.741 280.537C206.275 280.465 206.878 280.236 207.55 279.85C208.21 279.471 208.783 279.031 209.269 278.53C209.761 278.026 210.142 277.499 210.411 276.95C210.681 276.4 210.816 275.869 210.816 275.357C210.816 274.88 210.693 274.549 210.447 274.365C210.208 274.178 209.854 274.105 209.386 274.145C208.924 274.182 208.357 274.301 207.685 274.5L205.678 275.072C204.124 275.529 202.897 275.553 201.997 275.143C201.098 274.733 200.651 273.74 200.657 272.166C200.651 270.883 200.948 269.588 201.547 268.281C202.153 266.971 202.984 265.743 204.04 264.596C205.096 263.45 206.296 262.49 207.64 261.718C209.008 260.932 210.202 260.515 211.221 260.469C212.247 260.419 213.045 260.711 213.615 261.346C214.185 261.98 214.479 262.925 214.497 264.181L210.762 266.327ZM227.368 256.784C227.296 255.988 226.987 255.515 226.441 255.365C225.895 255.215 225.154 255.409 224.218 255.947C223.582 256.313 223.045 256.725 222.607 257.184C222.169 257.637 221.833 258.11 221.599 258.604C221.371 259.095 221.258 259.569 221.258 260.026C221.246 260.413 221.315 260.706 221.464 260.903C221.62 261.097 221.833 261.22 222.103 261.273C222.373 261.318 222.685 261.316 223.039 261.264C223.393 261.206 223.771 261.114 224.173 260.986L225.829 260.491C226.633 260.237 227.371 260.09 228.043 260.049C228.715 260.009 229.297 260.1 229.789 260.323C230.28 260.545 230.661 260.921 230.931 261.451C231.207 261.978 231.348 262.682 231.354 263.564C231.348 264.869 231.06 266.162 230.49 267.444C229.927 268.716 229.111 269.922 228.043 271.062C226.981 272.191 225.7 273.187 224.2 274.049C222.712 274.904 221.416 275.386 220.313 275.494C219.215 275.599 218.357 275.314 217.739 274.638C217.127 273.952 216.806 272.853 216.776 271.341L220.547 269.174C220.589 269.862 220.766 270.356 221.078 270.654C221.395 270.941 221.818 271.055 222.346 270.994C222.88 270.922 223.483 270.693 224.155 270.307C224.815 269.928 225.388 269.488 225.874 268.987C226.366 268.483 226.747 267.956 227.017 267.406C227.287 266.857 227.422 266.326 227.422 265.814C227.422 265.337 227.299 265.006 227.053 264.822C226.813 264.635 226.459 264.561 225.991 264.602C225.529 264.639 224.962 264.757 224.29 264.957L222.283 265.529C220.73 265.986 219.503 266.009 218.603 265.599C217.703 265.189 217.256 264.197 217.262 262.623C217.256 261.339 217.553 260.044 218.153 258.738C218.759 257.428 219.59 256.199 220.646 255.053C221.701 253.906 222.901 252.947 224.245 252.174C225.613 251.388 226.807 250.972 227.827 250.926C228.853 250.876 229.651 251.168 230.22 251.802C230.79 252.437 231.084 253.382 231.102 254.638L227.368 256.784Z" fill="white"/>
<path d="M129.439 247.858C129.439 247.858 137.035 254.529 130.429 269.394L122.703 249.304L129.439 247.858Z" fill="#263238"/>
<path d="M104.346 284.82C104.346 284.82 106.951 291.791 114.208 291.791C121.465 291.791 117.557 284.729 117.557 284.729L104.346 284.82Z" fill="#FFA8A7"/>
<path d="M104.346 284.821L117.557 284.73V264.522H104.346V284.821Z" fill="#FFA8A7"/>
<path d="M117.556 283.918C112.684 282.029 106.495 278.902 106.495 275.919L104.893 265.874H117.556V283.918Z" fill="#F28F8F"/>
<path d="M114.521 243.741C119.185 243.741 129.087 246.346 130.233 258.541C131.38 270.736 129.595 281.107 123.98 281.107C112.957 281.107 102.378 279.7 102.287 261.668C102.209 245.76 109.974 243.741 114.521 243.741Z" fill="#FFA8A7"/>
<path d="M104.358 272.351L106.143 266.8C106.278 266.915 106.442 266.988 106.617 267.012C106.792 267.036 106.97 267.01 107.13 266.936C107.29 266.862 107.426 266.743 107.521 266.595C107.617 266.446 107.667 266.273 107.667 266.097V256.26C107.667 256.26 112.254 254.957 111.772 251.114C111.772 251.114 114.117 253.211 123.106 253.211C132.096 253.211 134.285 245.59 133.386 241.342C133.386 241.342 131.718 243.062 126.963 243.062C122.208 243.062 102.417 237.095 101.909 249.055C101.909 249.055 100.228 246.606 97.5311 249.055L101.01 251.166C101.01 251.166 96.8927 251.036 97.5311 257.068C98.0392 261.836 100.02 270.865 100.84 274.474C101.073 275.473 101.673 276.348 102.521 276.924L104.358 278.161V272.351Z" fill="#263238"/>
<path d="M121.531 262.202V269.394L125.74 268.091L121.531 262.202Z" fill="#F28F8F"/>
<path d="M114.052 263.438C114.049 263.731 114.134 264.017 114.294 264.261C114.455 264.505 114.685 264.696 114.955 264.809C115.224 264.922 115.521 264.952 115.808 264.896C116.095 264.839 116.358 264.699 116.565 264.492C116.772 264.286 116.912 264.022 116.969 263.735C117.025 263.448 116.995 263.151 116.882 262.882C116.769 262.612 116.578 262.383 116.334 262.222C116.09 262.061 115.803 261.976 115.511 261.979C115.319 261.979 115.13 262.017 114.953 262.09C114.776 262.163 114.615 262.271 114.479 262.406C114.344 262.542 114.236 262.703 114.163 262.88C114.09 263.057 114.052 263.247 114.052 263.438Z" fill="#263238"/>
<path d="M125.009 262.424C125.009 262.715 125.095 263 125.257 263.242C125.419 263.484 125.649 263.673 125.918 263.784C126.187 263.896 126.483 263.925 126.768 263.868C127.054 263.811 127.316 263.671 127.522 263.465C127.728 263.259 127.868 262.997 127.925 262.711C127.982 262.426 127.953 262.13 127.841 261.861C127.73 261.591 127.541 261.362 127.299 261.2C127.057 261.038 126.772 260.952 126.481 260.952C126.091 260.952 125.716 261.107 125.44 261.383C125.164 261.659 125.009 262.033 125.009 262.424Z" fill="#263238"/>
<path d="M128.267 259.362L125.4 257.668C125.4 257.668 126.495 256.521 127.589 257.212C127.906 257.46 128.14 257.798 128.261 258.182C128.382 258.566 128.384 258.977 128.267 259.362Z" fill="#263238"/>
<path d="M112.501 260.429L115.355 258.723C115.355 258.723 114.26 257.576 113.166 258.267C112.85 258.518 112.618 258.86 112.5 259.245C112.381 259.631 112.382 260.044 112.501 260.429Z" fill="#263238"/>
<path d="M123.51 272.3C122.126 272.396 120.749 272.025 119.602 271.245C119.602 271.245 119.328 273.329 121.074 273.72C121.581 273.796 122.099 273.696 122.541 273.438C122.984 273.18 123.326 272.778 123.51 272.3Z" fill="#F28F8F"/>
<path d="M105.44 264.781C107.094 267.661 106.664 271.152 104.358 272.351C102.86 273.12 98.4693 271.465 96.8147 268.586C95.16 265.706 96.085 263.244 98.339 261.941C100.593 260.638 103.772 261.902 105.44 264.781Z" fill="#FFA8A7"/>
<path d="M106.274 266.92L101.206 261.422L104.854 259.233L106.274 266.92Z" fill="#253239"/>
<path d="M113.804 307.725L120.775 315.451C120.775 315.451 126.468 314.643 133.074 314.304C138.316 313.756 143.513 312.846 148.63 311.581C148.63 311.581 149.933 306.005 152.721 303.764V308.129C152.721 308.129 156.46 309.432 158.31 307.582C161.502 304.442 164.356 301.549 164.356 308.129C164.356 317.314 160.447 321.04 149.894 320.845C149.894 320.845 123.25 332.01 116.866 330.76C112.957 330.017 102.222 319.894 102.222 319.894L113.804 307.725Z" fill="#FFA8A7"/>
<path d="M85.1407 289.29C89.6226 284.73 94.7429 286.853 99.2378 291.348C103.733 295.843 113.804 307.725 113.804 307.725C113.804 307.725 112.788 316.989 102.221 319.933C102.221 319.933 87.9679 305.094 86.1439 303.074C82.8346 299.374 80.8933 293.641 85.1407 289.29Z" fill="#555555"/>
<path opacity="0.2" d="M85.1407 289.29C89.6226 284.73 94.7429 286.853 99.2378 291.348C103.733 295.843 113.804 307.725 113.804 307.725C113.804 307.725 112.788 316.989 102.221 319.933C102.221 319.933 87.9679 305.094 86.1439 303.074C82.8346 299.374 80.8933 293.641 85.1407 289.29Z" fill="white"/>
<path d="M179.677 326.001C179.791 324.524 180.205 323.086 180.896 321.776C181.586 320.465 182.536 319.309 183.689 318.379C189.696 313.793 189.448 318.379 189.591 320.269C189.735 322.158 184.028 328.867 177.774 327.096L179.677 326.001Z" fill="#FFA8A7"/>
<path d="M77.1024 470.491C77.4227 471.204 77.8634 471.856 78.4053 472.419C78.5351 472.529 78.6923 472.601 78.86 472.628C79.0277 472.656 79.1997 472.637 79.3576 472.574C79.5154 472.511 79.6532 472.406 79.7563 472.271C79.8593 472.136 79.9238 471.976 79.9427 471.807C79.9582 471.376 80.0867 470.956 80.3154 470.59C80.544 470.224 80.8648 469.925 81.2455 469.722C82.1445 469.344 89.3234 469.214 89.3885 470.673C89.3917 471.777 89.2782 472.877 89.0498 473.957C89.0498 473.957 90.2093 483.832 92.4112 487.741C94.613 491.65 98.2089 497.969 90.6393 499.819C83.0696 501.669 77.35 497.656 77.0894 492.314C76.8288 486.972 76.9591 483.194 76.451 482.269C75.9429 481.344 73.272 480.862 74.2882 475.976C75.3044 471.09 75.4608 468.159 77.4151 468.002L77.1024 470.491Z" fill="#455A64"/>
<path d="M82.2627 479.558C82.1527 479.561 82.0437 479.537 81.9457 479.487C81.8477 479.437 81.7641 479.363 81.7025 479.271C81.5994 479.124 81.5581 478.942 81.5873 478.764C81.6165 478.586 81.7139 478.427 81.8588 478.32C83.0559 477.568 84.4222 477.127 85.8331 477.039C87.2441 476.95 88.6548 477.216 89.9366 477.812C90.0222 477.848 90.0998 477.9 90.1651 477.966C90.2304 478.032 90.2821 478.11 90.3171 478.196C90.3522 478.282 90.3701 478.374 90.3696 478.467C90.3691 478.56 90.3504 478.652 90.3145 478.737C90.2786 478.823 90.2261 478.9 90.1602 478.966C90.0943 479.031 90.0161 479.083 89.9302 479.118C89.8443 479.153 89.7523 479.171 89.6596 479.17C89.5668 479.17 89.475 479.151 89.3894 479.115C88.32 478.619 87.1448 478.394 85.9678 478.46C84.7907 478.526 83.648 478.881 82.6406 479.493C82.5235 479.55 82.3923 479.573 82.2627 479.558Z" fill="#EBEBEB"/>
<path d="M83.3834 484.38C83.2742 484.379 83.1667 484.352 83.0694 484.303C82.9722 484.253 82.8879 484.181 82.8231 484.093C82.7214 483.944 82.6822 483.761 82.7138 483.583C82.7455 483.405 82.8455 483.247 82.9925 483.142C84.188 482.387 85.5538 481.943 86.965 481.852C88.3762 481.761 89.7877 482.025 91.0703 482.621C91.2357 482.698 91.3648 482.836 91.4305 483.006C91.4961 483.176 91.4931 483.365 91.4221 483.533C91.3455 483.698 91.2067 483.827 91.0359 483.89C90.865 483.954 90.676 483.947 90.5101 483.872C89.4435 483.373 88.27 483.147 87.0946 483.213C85.9192 483.279 84.7784 483.635 83.7742 484.249C83.6629 484.337 83.5248 484.383 83.3834 484.38Z" fill="#EBEBEB"/>
<path d="M85.1412 489.136C85.0314 489.138 84.9228 489.113 84.825 489.063C84.7272 489.013 84.6434 488.94 84.581 488.849C84.4792 488.7 84.44 488.517 84.4716 488.339C84.5033 488.162 84.6033 488.003 84.7503 487.898C85.9473 487.146 87.3136 486.706 88.7246 486.617C90.1356 486.528 91.5463 486.794 92.8281 487.39C92.9107 487.426 92.9854 487.477 93.0479 487.542C93.1104 487.606 93.1595 487.682 93.1922 487.766C93.2249 487.85 93.2407 487.939 93.2386 488.029C93.2365 488.119 93.2165 488.207 93.1799 488.289C93.1032 488.451 92.9674 488.578 92.8003 488.644C92.6332 488.709 92.4474 488.708 92.2809 488.641C91.2112 488.146 90.0362 487.922 88.8593 487.988C87.6825 488.054 86.5399 488.408 85.5321 489.019C85.4166 489.096 85.2803 489.137 85.1412 489.136Z" fill="#EBEBEB"/>
<path d="M119.081 465.02C120.429 465.926 122.03 466.382 123.654 466.323C123.654 466.323 122.885 463.314 125.113 462.297C127.341 461.281 130.898 459.939 131.627 461.151C132.142 462.537 132.424 463.998 132.461 465.476C132.461 465.476 137.764 470.284 141.699 471.639C145.633 472.994 150.819 474.375 150.324 478.01C149.828 481.645 143.966 486.909 135.992 483.287C128.018 479.665 126.585 479.534 124.032 479.143C121.478 478.753 116.723 478.961 116.918 474.701C117.113 470.44 116.749 463.392 118.872 462.819L119.081 465.02Z" fill="#455A64"/>
<path d="M128.214 471.532C128.136 471.544 128.057 471.544 127.98 471.532C127.81 471.47 127.671 471.344 127.593 471.18C127.515 471.017 127.504 470.83 127.563 470.659C128.086 469.436 128.928 468.377 130 467.59C131.073 466.804 132.337 466.321 133.66 466.19C133.809 466.21 133.947 466.279 134.053 466.386C134.158 466.493 134.225 466.632 134.243 466.781C134.261 466.93 134.229 467.081 134.152 467.21C134.075 467.339 133.957 467.438 133.817 467.493C132.746 467.597 131.722 467.983 130.85 468.613C129.978 469.242 129.288 470.092 128.853 471.076C128.804 471.207 128.717 471.32 128.603 471.401C128.489 471.482 128.354 471.528 128.214 471.532Z" fill="#EBEBEB"/>
<path d="M132.279 474.217H132.057C131.972 474.189 131.894 474.144 131.827 474.086C131.76 474.027 131.705 473.955 131.666 473.875C131.627 473.795 131.605 473.708 131.6 473.619C131.596 473.53 131.609 473.44 131.64 473.357C132.117 472.136 132.922 471.071 133.966 470.278C135.009 469.485 136.251 468.995 137.555 468.862C137.705 468.88 137.845 468.947 137.952 469.053C138.059 469.159 138.128 469.298 138.147 469.447C138.167 469.597 138.136 469.749 138.059 469.879C137.983 470.009 137.865 470.109 137.725 470.165C136.679 470.276 135.683 470.666 134.839 471.294C133.996 471.922 133.337 472.765 132.93 473.735C132.886 473.873 132.799 473.995 132.682 474.081C132.565 474.168 132.424 474.215 132.279 474.217Z" fill="#EBEBEB"/>
<path d="M137.413 476.341H137.256C137.08 476.306 136.923 476.203 136.821 476.055C136.719 475.906 136.679 475.723 136.709 475.546C136.957 474.268 137.66 473.123 138.688 472.325C139.716 471.527 140.999 471.13 142.299 471.207C142.479 471.214 142.65 471.292 142.775 471.423C142.899 471.555 142.967 471.73 142.963 471.911C142.963 472.001 142.945 472.091 142.909 472.174C142.873 472.258 142.821 472.333 142.755 472.395C142.689 472.457 142.611 472.505 142.526 472.536C142.441 472.567 142.35 472.581 142.259 472.575C141.289 472.517 140.329 472.81 139.557 473.401C138.784 473.992 138.25 474.841 138.051 475.793C138.02 475.942 137.94 476.076 137.825 476.175C137.709 476.274 137.565 476.332 137.413 476.341Z" fill="#EBEBEB"/>
<path d="M227.818 49.5349L216.731 55.8408V51.9322C216.731 51.6455 216.731 51.3719 216.731 51.0983C216.731 50.8247 216.731 50.5642 216.731 50.3036V50.2124C216.327 45.0009 212.392 43.0205 207.611 45.7956C205.436 47.1183 203.574 48.8962 202.152 51.0071C201.096 44.0107 195.312 41.405 188.354 45.4308C180.615 49.8997 174.348 60.7526 174.348 69.6773V78.0808C174.349 78.7457 174.175 79.399 173.843 79.9753C173.512 80.5515 173.034 81.0305 172.459 81.364L165.945 85.1945C164.531 86.0217 163.358 87.2053 162.544 88.6273C161.73 90.0493 161.304 91.6599 161.307 93.2984C161.319 93.9719 161.506 94.6307 161.848 95.211C162.19 95.7912 162.676 96.2732 163.26 96.6101C163.843 96.947 164.504 97.1274 165.177 97.1338C165.851 97.1402 166.515 96.9724 167.104 96.6467L227.649 61.6776C229.25 60.7517 230.581 59.4225 231.509 57.8225C232.437 56.2224 232.93 54.4072 232.939 52.5575C232.946 51.9542 232.795 51.3596 232.499 50.8337C232.203 50.3078 231.774 49.8694 231.254 49.5626C230.735 49.2559 230.143 49.0918 229.54 49.087C228.937 49.0821 228.343 49.2366 227.818 49.5349Z" fill="#E6E6E6"/>
<path d="M127.263 62.5619L119.016 67.2262V64.3208C119.016 64.1123 119.016 63.9039 119.016 63.7084C119.016 63.513 119.016 63.3045 119.016 63.1221C118.716 59.2135 115.811 57.8064 112.254 59.8519C110.644 60.8469 109.27 62.1807 108.228 63.7606C107.421 58.5491 103.16 56.6599 98.0138 59.6304C94.987 61.5895 92.4655 64.2353 90.6543 67.3528C88.8432 70.4703 87.7935 73.9713 87.5908 77.571V83.7857C87.591 84.2763 87.4624 84.7584 87.2177 85.1837C86.9731 85.609 86.621 85.9626 86.1967 86.209L81.3761 89.0363C80.3294 89.6512 79.4614 90.5288 78.8581 91.5823C78.2549 92.6358 77.9372 93.8285 77.9365 95.0425C77.9377 95.5451 78.071 96.0385 78.3231 96.4733C78.5752 96.908 78.9371 97.2689 79.3726 97.5197C79.8082 97.7704 80.302 97.9023 80.8045 97.902C81.3071 97.9017 81.8008 97.7692 82.236 97.518L127.029 71.6429C128.218 70.9564 129.205 69.9688 129.891 68.7795C130.577 67.5901 130.938 66.2411 130.937 64.868C130.926 64.4389 130.808 64.0193 130.596 63.6466C130.383 63.2738 130.081 62.9593 129.718 62.7311C129.354 62.5029 128.94 62.3681 128.512 62.3386C128.084 62.3091 127.655 62.3858 127.263 62.5619Z" fill="#E6E6E6"/>
</svg>
